<?xml version="1.0" ?><svg data-name="Layer 1" id="Layer_1" viewBox="0 0 512 512" xmlns="http://www.w3.org/2000/svg"><path d="M438.36,312.51a4.94,4.94,0,0,0-4.94-4.94H400.51A4.94,4.94,0,0,0,397,309a51.53,51.53,0,0,1-36.71,15.21h-.76v-51a11.38,11.38,0,0,0-11.35-11.37h-2.82A32.23,32.23,0,0,0,322.88,271V208.27a21.06,21.06,0,0,0-3.66-11.86h3.63a5,5,0,0,0,5.06-4.3,4.94,4.94,0,0,0-4.9-5.58H288.78a23.1,23.1,0,0,1-3.36-.25,22.27,22.27,0,0,0-15.74-10.41,22.23,22.23,0,0,1-3.36-11.79v-2.82a1.46,1.46,0,0,1,1.46-1.46h67a40.67,40.67,0,0,1,28.17,11.31l33.38,29.28a4.91,4.91,0,0,0,3.25,1.22h33.89a4.94,4.94,0,0,0,4.94-4.94h0a4.94,4.94,0,0,0-4.94-4.94h-32L369.55,163.8A50.36,50.36,0,0,0,336.64,150V147.3A61.33,61.33,0,0,0,320,105.09V74.64a4.94,4.94,0,0,0-4.94-4.94h0a5,5,0,0,0-4.95,4.94v32.45a5,5,0,0,0,1.45,3.5,51.55,51.55,0,0,1,15.21,36.71v2.61h-59a11.39,11.39,0,0,0-11.35,11.35v2.82a32,32,0,0,0,2.63,12.74A22,22,0,0,0,245.11,191a22.47,22.47,0,0,0-13.2-4.26c-12.21,0-22.15,9.67-22.15,21.55v.56A22.43,22.43,0,0,0,199,205.27V184.74a5.06,5.06,0,0,0-4.3-5.07,5,5,0,0,0-5.59,4.9v22.27a21.58,21.58,0,0,0-13.72,19.91v12.76a22.23,22.23,0,0,1-8.72,1.77H163.8a1.47,1.47,0,0,1-1.47-1.47V172.87a40.72,40.72,0,0,1,11.31-28.17l29.29-33.38a5,5,0,0,0,1.22-3.25V74.64a4.94,4.94,0,0,0-4.94-4.94h0a5,5,0,0,0-5,4.94V106.2L166.33,138a50.42,50.42,0,0,0-13.87,34.32H140.08c-18.2,0-28.53,15.47-32.16,22.19H78.58a4.94,4.94,0,0,0-4.94,4.94h0a4.94,4.94,0,0,0,4.94,4.94H111a5,5,0,0,0,4.56-3c.07-.2,8.26-19.17,24.52-19.17h12.37V239.8a11.37,11.37,0,0,0,11.35,11.37h2.82a31.77,31.77,0,0,0,8.72-1.21V352.17a40.66,40.66,0,0,1-26.73-11.28l-33.37-29.28a5,5,0,0,0-3.26-1.22H78.58a4.94,4.94,0,0,0-4.94,4.94h0a4.94,4.94,0,0,0,4.94,4.94h31.53L142,348.19a50.25,50.25,0,0,0,33.38,13.87v3.71A61.3,61.3,0,0,0,192,408v29.38a4.94,4.94,0,0,0,4.94,4.94h0a4.94,4.94,0,0,0,4.94-4.94V406a4.93,4.93,0,0,0-1.43-3.48,51.57,51.57,0,0,1-15.22-36.73v-139c0-6.42,5.51-11.65,12.26-11.65s12.27,5.23,12.27,11.65v69.33a5,5,0,0,0,4.3,5.06,5,5,0,0,0,5.59-4.9v-88c0-6.44,5.5-11.66,12.26-11.66s12.27,5.22,12.27,11.66v87.81a5,5,0,0,0,4.3,5.06,4.94,4.94,0,0,0,5.58-4.9V197.16c0-6.42,5.5-11.65,12.26-11.65s12.26,5.23,12.26,11.65v98.92a5,5,0,0,0,4.3,5.06,5,5,0,0,0,5.59-4.9v-88c0-6.44,5.51-11.66,12.26-11.66S313,201.83,313,208.27V302.6a3.81,3.81,0,0,0,0,.59v25.14a5.06,5.06,0,0,0,4.3,5.07,4.94,4.94,0,0,0,5.58-4.9V294.25a22.46,22.46,0,0,1,22.46-22.46h2.81a1.47,1.47,0,0,1,1.47,1.46V340.2a40.68,40.68,0,0,1-11.32,28.17l-29.28,33.38a5,5,0,0,0-1.22,3.25v32.36a4.94,4.94,0,0,0,4.94,4.94h0a4.94,4.94,0,0,0,4.94-4.94V406.87L345.65,375a50.42,50.42,0,0,0,13.89-34.83v-6.09h.76a61.31,61.31,0,0,0,42.2-16.66h30.92a4.94,4.94,0,0,0,4.94-4.94Z"/></svg>