<svg width="1920" height="1080" viewBox="0 0 1920 1080" fill="none" xmlns="http://www.w3.org/2000/svg">
<rect width="1920" height="1080" fill="#0D1033"/>
<path opacity="0.25" d="M731 191H829C837.284 191 844 197.716 844 206V244C844 252.284 837.284 259 829 259H731V191Z" fill="#6347F5"/>
<path opacity="0.25" d="M731 348H864C872.284 348 879 354.716 879 363V401C879 409.284 872.284 416 864 416H731V348Z" fill="#6347F5"/>
<path opacity="0.25" d="M731 662H794C802.284 662 809 668.716 809 677V715C809 723.284 802.284 730 794 730H731V662Z" fill="#6347F5"/>
<path opacity="0.25" d="M1137 191H1292C1300.28 191 1307 197.716 1307 206V244C1307 252.284 1300.28 259 1292 259H1137V191Z" fill="#6347F5"/>
<path opacity="0.25" d="M731 819H914C922.284 819 929 825.716 929 834V872C929 880.284 922.284 887 914 887H731V819Z" fill="#6347F5"/>
<path opacity="0.25" d="M1137 191H1247C1255.28 191 1262 197.716 1262 206V244C1262 252.284 1255.28 259 1247 259H1137V191Z" fill="#6347F5"/>
<path opacity="0.25" d="M1137 348H1319C1327.28 348 1334 354.716 1334 363V401C1334 409.284 1327.28 416 1319 416H1137V348Z" fill="#6347F5"/>
<path opacity="0.25" d="M1137 348H1283C1291.28 348 1298 354.716 1298 363V401C1298 409.284 1291.28 416 1283 416H1137V348Z" fill="#6347F5"/>
<path opacity="0.25" d="M1137 505H1228C1236.28 505 1243 511.716 1243 520V558C1243 566.284 1236.28 573 1228 573H1137V505Z" fill="#6347F5"/>
<path opacity="0.25" d="M1540 505H1689C1697.28 505 1704 511.716 1704 520V558C1704 566.284 1697.28 573 1689 573H1540V505Z" fill="#6347F5"/>
<path opacity="0.25" d="M1540 505H1641C1649.28 505 1656 511.716 1656 520V558C1656 566.284 1649.28 573 1641 573H1540V505Z" fill="#6347F5"/>
<path opacity="0.25" d="M1137 662H1239C1247.28 662 1254 668.716 1254 677V715C1254 723.284 1247.28 730 1239 730H1137V662Z" fill="#6347F5"/>
<path opacity="0.25" d="M1137 662H1200C1208.28 662 1215 668.716 1215 677V715C1215 723.284 1208.28 730 1200 730H1137V662Z" fill="#6347F5"/>
<path opacity="0.25" d="M1137 819H1320C1328.28 819 1335 825.716 1335 834V872C1335 880.284 1328.28 887 1320 887H1137V819Z" fill="#6347F5"/>
<path opacity="0.25" d="M1137 819H1200C1208.28 819 1215 825.716 1215 834V872C1215 880.284 1208.28 887 1200 887H1137V819Z" fill="#6347F5"/>
<path opacity="0.25" d="M1543 191H1725C1733.28 191 1740 197.716 1740 206V244C1740 252.284 1733.28 259 1725 259H1543V191Z" fill="#6347F5"/>
<path opacity="0.25" d="M1543 191H1605C1613.28 191 1620 197.716 1620 206V244C1620 252.284 1613.28 259 1605 259H1543V191Z" fill="#6347F5"/>
<path opacity="0.25" d="M1543 348H1715C1723.28 348 1730 354.716 1730 363V401C1730 409.284 1723.28 416 1715 416H1543V348Z" fill="#6347F5"/>
<path opacity="0.25" d="M1543 348H1662C1670.28 348 1677 354.716 1677 363V401C1677 409.284 1670.28 416 1662 416H1543V348Z" fill="#6347F5"/>
<path opacity="0.25" d="M1543 662H1651C1659.28 662 1666 668.716 1666 677V715C1666 723.284 1659.28 730 1651 730H1543V662Z" fill="#6347F5"/>
<path opacity="0.25" d="M1543 662H1614C1622.28 662 1629 668.716 1629 677V715C1629 723.284 1622.28 730 1614 730H1543V662Z" fill="#6347F5"/>
<path opacity="0.25" d="M1543 819H1628C1636.28 819 1643 825.716 1643 834V872C1643 880.284 1636.28 887 1628 887H1543V819Z" fill="#6347F5"/>
<rect x="110.5" y="89.5" width="305" height="898" stroke="#6347F5" stroke-width="3" stroke-dasharray="10 10"/>
<rect x="147.861" y="189.5" width="230.278" height="71" stroke="#6347F5" stroke-width="3"/>
<path d="M229.123 236H231.823L233.473 229.85H243.823L245.473 236H248.173L242.773 215H234.523L229.123 236ZM234.073 227.3L236.623 217.55H240.673L243.223 227.3H234.073ZM250.867 236H256.717V233.75H253.267V215H250.867V236ZM259.129 236H261.529V221H259.129V236ZM260.329 218.15C261.229 218.15 261.979 217.4 261.979 216.5C261.979 215.6 261.229 214.85 260.329 214.85C259.429 214.85 258.679 215.6 258.679 216.5C258.679 217.4 259.429 218.15 260.329 218.15ZM272.321 236.3C278.471 236.3 279.671 230.75 279.671 230.75H277.271C277.271 230.75 276.221 234.05 272.321 234.05C269.591 234.05 267.221 231.83 267.221 228.5C267.221 225.2 269.471 222.95 272.321 222.95C276.071 222.95 277.121 225.95 277.121 225.95H279.521C279.521 225.95 278.321 220.7 272.321 220.7C268.121 220.7 264.821 224 264.821 228.5C264.821 233 268.121 236.3 272.321 236.3ZM289.434 236.3C295.134 236.3 296.784 231.35 296.784 231.35H294.384C294.384 231.35 293.034 234.05 289.434 234.05C286.704 234.05 284.484 232.04 284.184 229.25H297.084V228.35C297.084 224 293.784 220.7 289.434 220.7C285.084 220.7 281.784 224 281.784 228.5C281.784 233 285.084 236.3 289.434 236.3ZM284.244 227.15C284.634 224.9 286.584 222.95 289.434 222.95C292.284 222.95 294.234 224.9 294.534 227.15H284.244Z" fill="white"/>
<rect x="88" y="65" width="201" height="54" fill="#0D1033"/>
<path d="M111.4 101H118.3C124.66 101 129.25 96.44 129.25 90.5C129.25 84.59 124.66 80 118.3 80H111.4V101ZM114.1 98.45V82.55H118.3C123.25 82.55 126.55 85.85 126.55 90.5C126.55 95.15 123.25 98.45 118.3 98.45H114.1ZM139.442 101.3C145.142 101.3 146.792 96.35 146.792 96.35H144.392C144.392 96.35 143.042 99.05 139.442 99.05C136.712 99.05 134.492 97.04 134.192 94.25H147.092V93.35C147.092 89 143.792 85.7 139.442 85.7C135.092 85.7 131.792 89 131.792 93.5C131.792 98 135.092 101.3 139.442 101.3ZM134.252 92.15C134.642 89.9 136.592 87.95 139.442 87.95C142.292 87.95 144.242 89.9 144.542 92.15H134.252ZM150.387 101H156.237V98.75H152.787V80H150.387V101ZM165.399 101.3C171.099 101.3 172.749 96.35 172.749 96.35H170.349C170.349 96.35 168.999 99.05 165.399 99.05C162.669 99.05 160.449 97.04 160.149 94.25H173.049V93.35C173.049 89 169.749 85.7 165.399 85.7C161.049 85.7 157.749 89 157.749 93.5C157.749 98 161.049 101.3 165.399 101.3ZM160.209 92.15C160.599 89.9 162.549 87.95 165.399 87.95C168.249 87.95 170.199 89.9 170.499 92.15H160.209ZM177.544 106.7H190.444V86H188.044V88.4H188.014C188.014 88.37 186.544 85.7 182.644 85.7C178.744 85.7 175.444 89 175.444 93.5C175.444 98 178.744 101.3 182.644 101.3C186.544 101.3 188.014 98.63 188.014 98.6H188.044V104.45H177.544V106.7ZM182.944 99.05C180.094 99.05 177.844 96.8 177.844 93.5C177.844 90.2 180.094 87.95 182.944 87.95C185.794 87.95 188.044 90.2 188.044 93.5C188.044 96.8 185.794 99.05 182.944 99.05ZM199.455 101.3C203.385 101.3 204.975 98.6 204.975 98.6H205.005V101H207.405V91.4C207.405 87.95 205.155 85.7 201.255 85.7C195.555 85.7 194.655 90.5 194.655 90.5H197.055C197.055 90.5 197.805 87.95 201.255 87.95C203.655 87.95 205.005 89.3 205.005 91.4V92H200.055C196.095 92 194.055 94.1 194.055 96.65C194.055 99.35 196.005 101.3 199.455 101.3ZM199.905 99.05C197.505 99.05 196.455 98 196.455 96.65C196.455 95.3 197.505 94.25 199.905 94.25H205.005C205.005 96.95 203.055 99.05 199.905 99.05ZM212.042 101H219.392V98.75H214.442V88.25H219.242V86H214.442V82.7H212.042V86H210.092V88.25H212.042V101ZM229.299 101.3C233.799 101.3 237.099 98 237.099 93.5C237.099 89 233.799 85.7 229.299 85.7C224.799 85.7 221.499 89 221.499 93.5C221.499 98 224.799 101.3 229.299 101.3ZM229.299 99.05C226.149 99.05 223.899 96.8 223.899 93.5C223.899 90.2 226.149 87.95 229.299 87.95C232.449 87.95 234.699 90.2 234.699 93.5C234.699 96.8 232.449 99.05 229.299 99.05ZM240.387 101H242.787V92.9C242.787 90.2 244.737 88.25 247.437 88.25H249.237V85.85H247.437C243.987 85.85 242.817 88.4 242.817 88.4H242.787V86H240.387V101ZM257.634 101.3C261.684 101.3 263.784 99.2 263.784 96.8C263.784 91.1 253.884 93.05 253.884 89.9C253.884 89 254.934 87.95 257.184 87.95C260.334 87.95 261.084 90.2 261.084 90.2H263.634C263.634 90.2 262.764 85.7 257.184 85.7C253.434 85.7 251.484 87.65 251.484 89.9C251.484 95.6 261.384 93.65 261.384 96.8C261.384 98 260.334 99.05 257.634 99.05C254.184 99.05 253.284 96.35 253.284 96.35H250.734C250.734 96.35 251.784 101.3 257.634 101.3Z" fill="white"/>
<rect x="147.861" y="346.5" width="230.278" height="71" stroke="#6347F5" stroke-width="3"/>
<path d="M237.149 393H247.049C251.699 393 254.249 390.45 254.249 387C254.249 382.65 250.349 382.05 250.349 382.05V381.9C250.349 381.9 253.349 381 253.349 377.4C253.349 374.4 250.949 372 247.199 372H237.149V393ZM239.849 390.45V383.4H247.049C250.049 383.4 251.549 384.9 251.549 387C251.549 388.95 250.049 390.45 247.049 390.45H239.849ZM239.849 380.85V374.55H247.049C249.299 374.55 250.649 375.9 250.649 377.7C250.649 379.5 249.299 380.85 247.049 380.85H239.849ZM264.754 393.3C269.254 393.3 272.554 390 272.554 385.5C272.554 381 269.254 377.7 264.754 377.7C260.254 377.7 256.954 381 256.954 385.5C256.954 390 260.254 393.3 264.754 393.3ZM264.754 391.05C261.604 391.05 259.354 388.8 259.354 385.5C259.354 382.2 261.604 379.95 264.754 379.95C267.904 379.95 270.154 382.2 270.154 385.5C270.154 388.8 267.904 391.05 264.754 391.05ZM283.643 393.3C287.543 393.3 290.843 390 290.843 385.5C290.843 381 287.543 377.7 283.643 377.7C279.743 377.7 278.273 380.37 278.273 380.4H278.243V372H275.843V393H278.243V390.6H278.273C278.273 390.63 279.743 393.3 283.643 393.3ZM283.343 391.05C280.493 391.05 278.243 388.8 278.243 385.5C278.243 382.2 280.493 379.95 283.343 379.95C286.193 379.95 288.443 382.2 288.443 385.5C288.443 388.8 286.193 391.05 283.343 391.05Z" fill="white"/>
<rect x="147.861" y="503.5" width="230.278" height="71" stroke="#6347F5" stroke-width="3"/>
<path d="M224.637 550.6C233.037 550.6 235.137 542.5 235.137 542.5H232.437C232.437 542.5 230.787 548.05 224.637 548.05C219.837 548.05 216.387 544.6 216.387 539.5C216.387 534.4 219.837 530.95 224.637 530.95C230.637 530.95 232.287 536.05 232.287 536.05H234.987C234.987 536.05 233.187 528.4 224.637 528.4C218.337 528.4 213.687 533.05 213.687 539.5C213.687 545.95 218.337 550.6 224.637 550.6ZM238.431 550H240.831V541.9C240.831 538.9 242.781 536.95 245.481 536.95C247.881 536.95 249.531 538.3 249.531 541.3V550H251.931V541.15C251.931 537.1 249.531 534.7 245.931 534.7C242.331 534.7 240.861 537.25 240.861 537.25H240.831V529H238.431V550ZM260.633 550.3C264.563 550.3 266.153 547.6 266.153 547.6H266.183V550H268.583V540.4C268.583 536.95 266.333 534.7 262.433 534.7C256.733 534.7 255.833 539.5 255.833 539.5H258.233C258.233 539.5 258.983 536.95 262.433 536.95C264.833 536.95 266.183 538.3 266.183 540.4V541H261.233C257.273 541 255.233 543.1 255.233 545.65C255.233 548.35 257.183 550.3 260.633 550.3ZM261.083 548.05C258.683 548.05 257.633 547 257.633 545.65C257.633 544.3 258.683 543.25 261.083 543.25H266.183C266.183 545.95 264.233 548.05 261.083 548.05ZM272.62 550H275.02V541.9C275.02 539.2 276.97 537.25 279.67 537.25H281.47V534.85H279.67C276.22 534.85 275.05 537.4 275.05 537.4H275.02V535H272.62V550ZM284.017 550H289.867V547.75H286.417V529H284.017V550ZM292.278 550H294.678V535H292.278V550ZM293.478 532.15C294.378 532.15 295.128 531.4 295.128 530.5C295.128 529.6 294.378 528.85 293.478 528.85C292.578 528.85 291.828 529.6 291.828 530.5C291.828 531.4 292.578 532.15 293.478 532.15ZM305.62 550.3C311.32 550.3 312.97 545.35 312.97 545.35H310.57C310.57 545.35 309.22 548.05 305.62 548.05C302.89 548.05 300.67 546.04 300.37 543.25H313.27V542.35C313.27 538 309.97 534.7 305.62 534.7C301.27 534.7 297.97 538 297.97 542.5C297.97 547 301.27 550.3 305.62 550.3ZM300.43 541.15C300.82 538.9 302.77 536.95 305.62 536.95C308.47 536.95 310.42 538.9 310.72 541.15H300.43Z" fill="white"/>
<rect x="147.861" y="660.5" width="230.278" height="71" stroke="#6347F5" stroke-width="3"/>
<path d="M237.161 707.6C245.561 707.6 247.661 699.5 247.661 699.5H244.961C244.961 699.5 243.311 705.05 237.161 705.05C232.361 705.05 228.911 701.6 228.911 696.5C228.911 691.4 232.361 687.95 237.161 687.95C243.161 687.95 244.811 693.05 244.811 693.05H247.511C247.511 693.05 245.711 685.4 237.161 685.4C230.861 685.4 226.211 690.05 226.211 696.5C226.211 702.95 230.861 707.6 237.161 707.6ZM250.955 707H253.355V698.9C253.355 696.2 255.305 694.25 258.005 694.25H259.805V691.85H258.005C254.555 691.85 253.385 694.4 253.385 694.4H253.355V692H250.955V707ZM267.152 707.3C271.082 707.3 272.672 704.6 272.672 704.6H272.702V707H275.102V697.4C275.102 693.95 272.852 691.7 268.952 691.7C263.252 691.7 262.352 696.5 262.352 696.5H264.752C264.752 696.5 265.502 693.95 268.952 693.95C271.352 693.95 272.702 695.3 272.702 697.4V698H267.752C263.792 698 261.752 700.1 261.752 702.65C261.752 705.35 263.702 707.3 267.152 707.3ZM267.602 705.05C265.202 705.05 264.152 704 264.152 702.65C264.152 701.3 265.202 700.25 267.602 700.25H272.702C272.702 702.95 270.752 705.05 267.602 705.05ZM279.139 707H281.539V692H279.139V707ZM280.339 689.15C281.239 689.15 281.989 688.4 281.989 687.5C281.989 686.6 281.239 685.85 280.339 685.85C279.439 685.85 278.689 686.6 278.689 687.5C278.689 688.4 279.439 689.15 280.339 689.15ZM286.93 712.7H299.83V692H297.43V694.4H297.4C297.4 694.37 295.93 691.7 292.03 691.7C288.13 691.7 284.83 695 284.83 699.5C284.83 704 288.13 707.3 292.03 707.3C295.93 707.3 297.4 704.63 297.4 704.6H297.43V710.45H286.93V712.7ZM292.33 705.05C289.48 705.05 287.23 702.8 287.23 699.5C287.23 696.2 289.48 693.95 292.33 693.95C295.18 693.95 297.43 696.2 297.43 699.5C297.43 702.8 295.18 705.05 292.33 705.05Z" fill="white"/>
<rect x="147.861" y="817.5" width="230.278" height="71" stroke="#6347F5" stroke-width="3"/>
<path d="M229.883 864H236.783C243.143 864 247.733 859.44 247.733 853.5C247.733 847.59 243.143 843 236.783 843H229.883V864ZM232.583 861.45V845.55H236.783C241.733 845.55 245.033 848.85 245.033 853.5C245.033 858.15 241.733 861.45 236.783 861.45H232.583ZM255.975 864.3C259.905 864.3 261.495 861.6 261.495 861.6H261.525V864H263.925V854.4C263.925 850.95 261.675 848.7 257.775 848.7C252.075 848.7 251.175 853.5 251.175 853.5H253.575C253.575 853.5 254.325 850.95 257.775 850.95C260.175 850.95 261.525 852.3 261.525 854.4V855H256.575C252.615 855 250.575 857.1 250.575 859.65C250.575 862.35 252.525 864.3 255.975 864.3ZM256.425 862.05C254.025 862.05 252.975 861 252.975 859.65C252.975 858.3 254.025 857.25 256.425 857.25H261.525C261.525 859.95 259.575 862.05 256.425 862.05ZM270.662 864H276.812L281.012 849H278.462L275.012 861.75H272.462L269.012 849H266.462L270.662 864ZM290.474 864.3C296.174 864.3 297.824 859.35 297.824 859.35H295.424C295.424 859.35 294.074 862.05 290.474 862.05C287.744 862.05 285.524 860.04 285.224 857.25H298.124V856.35C298.124 852 294.824 848.7 290.474 848.7C286.124 848.7 282.824 852 282.824 856.5C282.824 861 286.124 864.3 290.474 864.3ZM285.284 855.15C285.674 852.9 287.624 850.95 290.474 850.95C293.324 850.95 295.274 852.9 295.574 855.15H285.284Z" fill="white"/>
<rect x="1504.5" y="89.5" width="305" height="898" stroke="#6347F5" stroke-width="3" stroke-dasharray="10 10"/>
<rect x="1541.86" y="189.5" width="230.278" height="71" stroke="#6347F5" stroke-width="3"/>
<path d="M1608.5 236L1611.2 235.97V218.6L1611.17 218.3H1611.23L1621.55 236H1625.45V215H1622.75V232.4L1622.78 232.7H1622.72L1612.4 215H1608.5V236ZM1636.84 236.3C1641.34 236.3 1644.64 233 1644.64 228.5C1644.64 224 1641.34 220.7 1636.84 220.7C1632.34 220.7 1629.04 224 1629.04 228.5C1629.04 233 1632.34 236.3 1636.84 236.3ZM1636.84 234.05C1633.69 234.05 1631.44 231.8 1631.44 228.5C1631.44 225.2 1633.69 222.95 1636.84 222.95C1639.99 222.95 1642.24 225.2 1642.24 228.5C1642.24 231.8 1639.99 234.05 1636.84 234.05ZM1654.23 236.3C1658.13 236.3 1659.6 233.63 1659.6 233.6H1659.63V236H1662.03V215H1659.63V223.4H1659.6C1659.6 223.37 1658.13 220.7 1654.23 220.7C1650.33 220.7 1647.03 224 1647.03 228.5C1647.03 233 1650.33 236.3 1654.23 236.3ZM1654.53 234.05C1651.68 234.05 1649.43 231.8 1649.43 228.5C1649.43 225.2 1651.68 222.95 1654.53 222.95C1657.38 222.95 1659.63 225.2 1659.63 228.5C1659.63 231.8 1657.38 234.05 1654.53 234.05ZM1672.99 236.3C1678.69 236.3 1680.34 231.35 1680.34 231.35H1677.94C1677.94 231.35 1676.59 234.05 1672.99 234.05C1670.26 234.05 1668.04 232.04 1667.74 229.25H1680.64V228.35C1680.64 224 1677.34 220.7 1672.99 220.7C1668.64 220.7 1665.34 224 1665.34 228.5C1665.34 233 1668.64 236.3 1672.99 236.3ZM1667.8 227.15C1668.19 224.9 1670.14 222.95 1672.99 222.95C1675.84 222.95 1677.79 224.9 1678.09 227.15H1667.8ZM1699.69 236.6C1704.34 236.6 1707.49 233.45 1707.49 229.4C1707.49 225.35 1704.34 222.2 1699.99 222.2C1696.84 222.2 1695.34 223.7 1695.34 223.7V223.67L1695.79 217.55H1705.99V215H1693.54L1692.64 227H1695.04C1695.04 227 1696.39 224.75 1699.69 224.75C1702.84 224.75 1704.79 226.7 1704.79 229.4C1704.79 232.1 1702.84 234.05 1699.69 234.05C1695.19 234.05 1694.44 230.3 1694.44 230.3H1691.74C1691.74 230.3 1692.64 236.6 1699.69 236.6Z" fill="white"/>
<rect x="1482" y="65" width="141" height="54" fill="#0D1033"/>
<path d="M1505.4 101H1520.1V98.45H1508.1V91.7H1517.85V89.15H1508.1V82.55H1520.1V80H1505.4V101ZM1523.41 101H1529.26V98.75H1525.81V80H1523.41V101ZM1538.42 101.3C1544.12 101.3 1545.77 96.35 1545.77 96.35H1543.37C1543.37 96.35 1542.02 99.05 1538.42 99.05C1535.69 99.05 1533.47 97.04 1533.17 94.25H1546.07V93.35C1546.07 89 1542.77 85.7 1538.42 85.7C1534.07 85.7 1530.77 89 1530.77 93.5C1530.77 98 1534.07 101.3 1538.42 101.3ZM1533.23 92.15C1533.62 89.9 1535.57 87.95 1538.42 87.95C1541.27 87.95 1543.22 89.9 1543.52 92.15H1533.23ZM1555.97 101.3C1562.12 101.3 1563.32 95.75 1563.32 95.75H1560.92C1560.92 95.75 1559.87 99.05 1555.97 99.05C1553.24 99.05 1550.87 96.83 1550.87 93.5C1550.87 90.2 1553.12 87.95 1555.97 87.95C1559.72 87.95 1560.77 90.95 1560.77 90.95H1563.17C1563.17 90.95 1561.97 85.7 1555.97 85.7C1551.77 85.7 1548.47 89 1548.47 93.5C1548.47 98 1551.77 101.3 1555.97 101.3ZM1566.93 101H1574.28V98.75H1569.33V88.25H1574.13V86H1569.33V82.7H1566.93V86H1564.98V88.25H1566.93V101ZM1584.19 101.3C1588.69 101.3 1591.99 98 1591.99 93.5C1591.99 89 1588.69 85.7 1584.19 85.7C1579.69 85.7 1576.39 89 1576.39 93.5C1576.39 98 1579.69 101.3 1584.19 101.3ZM1584.19 99.05C1581.04 99.05 1578.79 96.8 1578.79 93.5C1578.79 90.2 1581.04 87.95 1584.19 87.95C1587.34 87.95 1589.59 90.2 1589.59 93.5C1589.59 96.8 1587.34 99.05 1584.19 99.05ZM1595.28 101H1597.68V92.9C1597.68 90.2 1599.63 88.25 1602.33 88.25H1604.13V85.85H1602.33C1598.88 85.85 1597.71 88.4 1597.71 88.4H1597.68V86H1595.28V101Z" fill="white"/>
<rect x="1541.86" y="346.5" width="230.278" height="71" stroke="#6347F5" stroke-width="3"/>
<path d="M1609.18 393L1611.88 392.97V375.6L1611.85 375.3H1611.91L1622.23 393H1626.13V372H1623.43V389.4L1623.46 389.7H1623.4L1613.08 372H1609.18V393ZM1637.51 393.3C1642.01 393.3 1645.31 390 1645.31 385.5C1645.31 381 1642.01 377.7 1637.51 377.7C1633.01 377.7 1629.71 381 1629.71 385.5C1629.71 390 1633.01 393.3 1637.51 393.3ZM1637.51 391.05C1634.36 391.05 1632.11 388.8 1632.11 385.5C1632.11 382.2 1634.36 379.95 1637.51 379.95C1640.66 379.95 1642.91 382.2 1642.91 385.5C1642.91 388.8 1640.66 391.05 1637.51 391.05ZM1654.9 393.3C1658.8 393.3 1660.27 390.63 1660.27 390.6H1660.3V393H1662.7V372H1660.3V380.4H1660.27C1660.27 380.37 1658.8 377.7 1654.9 377.7C1651 377.7 1647.7 381 1647.7 385.5C1647.7 390 1651 393.3 1654.9 393.3ZM1655.2 391.05C1652.35 391.05 1650.1 388.8 1650.1 385.5C1650.1 382.2 1652.35 379.95 1655.2 379.95C1658.05 379.95 1660.3 382.2 1660.3 385.5C1660.3 388.8 1658.05 391.05 1655.2 391.05ZM1673.66 393.3C1679.36 393.3 1681.01 388.35 1681.01 388.35H1678.61C1678.61 388.35 1677.26 391.05 1673.66 391.05C1670.93 391.05 1668.71 389.04 1668.41 386.25H1681.31V385.35C1681.31 381 1678.01 377.7 1673.66 377.7C1669.31 377.7 1666.01 381 1666.01 385.5C1666.01 390 1669.31 393.3 1673.66 393.3ZM1668.47 384.15C1668.86 381.9 1670.81 379.95 1673.66 379.95C1676.51 379.95 1678.46 381.9 1678.76 384.15H1668.47ZM1691.82 393H1706.67V390.45H1696.14L1695.87 390.48V390.42L1696.17 390.24L1700.52 387.15C1704.12 384.6 1706.67 382.05 1706.67 378.15C1706.67 374.4 1703.67 371.4 1699.47 371.4C1692.57 371.4 1691.97 378.15 1691.97 378.15H1694.82C1694.82 378.15 1695.42 373.95 1699.47 373.95C1702.17 373.95 1703.97 375.75 1703.97 378.15C1703.97 381 1702.17 382.8 1698.72 385.35L1691.82 390.45V393Z" fill="white"/>
<rect x="1541.86" y="503.5" width="230.278" height="71" stroke="#6347F5" stroke-width="3"/>
<path d="M1612.93 550L1615.63 549.97V532.6L1615.6 532.3H1615.66L1625.98 550H1629.88V529H1627.18V546.4L1627.21 546.7H1627.15L1616.83 529H1612.93V550ZM1641.26 550.3C1645.76 550.3 1649.06 547 1649.06 542.5C1649.06 538 1645.76 534.7 1641.26 534.7C1636.76 534.7 1633.46 538 1633.46 542.5C1633.46 547 1636.76 550.3 1641.26 550.3ZM1641.26 548.05C1638.11 548.05 1635.86 545.8 1635.86 542.5C1635.86 539.2 1638.11 536.95 1641.26 536.95C1644.41 536.95 1646.66 539.2 1646.66 542.5C1646.66 545.8 1644.41 548.05 1641.26 548.05ZM1658.65 550.3C1662.55 550.3 1664.02 547.63 1664.02 547.6H1664.05V550H1666.45V529H1664.05V537.4H1664.02C1664.02 537.37 1662.55 534.7 1658.65 534.7C1654.75 534.7 1651.45 538 1651.45 542.5C1651.45 547 1654.75 550.3 1658.65 550.3ZM1658.95 548.05C1656.1 548.05 1653.85 545.8 1653.85 542.5C1653.85 539.2 1656.1 536.95 1658.95 536.95C1661.8 536.95 1664.05 539.2 1664.05 542.5C1664.05 545.8 1661.8 548.05 1658.95 548.05ZM1677.41 550.3C1683.11 550.3 1684.76 545.35 1684.76 545.35H1682.36C1682.36 545.35 1681.01 548.05 1677.41 548.05C1674.68 548.05 1672.46 546.04 1672.16 543.25H1685.06V542.35C1685.06 538 1681.76 534.7 1677.41 534.7C1673.06 534.7 1669.76 538 1669.76 542.5C1669.76 547 1673.06 550.3 1677.41 550.3ZM1672.22 541.15C1672.61 538.9 1674.56 536.95 1677.41 536.95C1680.26 536.95 1682.21 538.9 1682.51 541.15H1672.22ZM1699.17 550H1701.87V529H1699.47L1695.42 532.15V535.15L1699.17 532.3V550Z" fill="white"/>
<rect x="1541.86" y="660.5" width="230.278" height="71" stroke="#6347F5" stroke-width="3"/>
<path d="M1608.96 707L1611.66 706.97V689.6L1611.63 689.3H1611.69L1622.01 707H1625.91V686H1623.21V703.4L1623.24 703.7H1623.18L1612.86 686H1608.96V707ZM1637.29 707.3C1641.79 707.3 1645.09 704 1645.09 699.5C1645.09 695 1641.79 691.7 1637.29 691.7C1632.79 691.7 1629.49 695 1629.49 699.5C1629.49 704 1632.79 707.3 1637.29 707.3ZM1637.29 705.05C1634.14 705.05 1631.89 702.8 1631.89 699.5C1631.89 696.2 1634.14 693.95 1637.29 693.95C1640.44 693.95 1642.69 696.2 1642.69 699.5C1642.69 702.8 1640.44 705.05 1637.29 705.05ZM1654.68 707.3C1658.58 707.3 1660.05 704.63 1660.05 704.6H1660.08V707H1662.48V686H1660.08V694.4H1660.05C1660.05 694.37 1658.58 691.7 1654.68 691.7C1650.78 691.7 1647.48 695 1647.48 699.5C1647.48 704 1650.78 707.3 1654.68 707.3ZM1654.98 705.05C1652.13 705.05 1649.88 702.8 1649.88 699.5C1649.88 696.2 1652.13 693.95 1654.98 693.95C1657.83 693.95 1660.08 696.2 1660.08 699.5C1660.08 702.8 1657.83 705.05 1654.98 705.05ZM1673.44 707.3C1679.14 707.3 1680.79 702.35 1680.79 702.35H1678.39C1678.39 702.35 1677.04 705.05 1673.44 705.05C1670.71 705.05 1668.49 703.04 1668.19 700.25H1681.09V699.35C1681.09 695 1677.79 691.7 1673.44 691.7C1669.09 691.7 1665.79 695 1665.79 699.5C1665.79 704 1669.09 707.3 1673.44 707.3ZM1668.25 698.15C1668.64 695.9 1670.59 693.95 1673.44 693.95C1676.29 693.95 1678.24 695.9 1678.54 698.15H1668.25ZM1702.25 707H1704.95V702.5H1708.1V699.95H1704.95V694.55H1702.4H1702.25V699.95H1694.3L1701.65 686H1698.65L1691.3 699.95V702.5H1702.25V707Z" fill="white"/>
<rect x="1541.86" y="817.5" width="230.278" height="71" stroke="#6347F5" stroke-width="3"/>
<path d="M1608.81 864L1611.51 863.97V846.6L1611.48 846.3H1611.54L1621.86 864H1625.76V843H1623.06V860.4L1623.09 860.7H1623.03L1612.71 843H1608.81V864ZM1637.15 864.3C1641.65 864.3 1644.95 861 1644.95 856.5C1644.95 852 1641.65 848.7 1637.15 848.7C1632.65 848.7 1629.35 852 1629.35 856.5C1629.35 861 1632.65 864.3 1637.15 864.3ZM1637.15 862.05C1634 862.05 1631.75 859.8 1631.75 856.5C1631.75 853.2 1634 850.95 1637.15 850.95C1640.3 850.95 1642.55 853.2 1642.55 856.5C1642.55 859.8 1640.3 862.05 1637.15 862.05ZM1654.54 864.3C1658.44 864.3 1659.91 861.63 1659.91 861.6H1659.94V864H1662.34V843H1659.94V851.4H1659.91C1659.91 851.37 1658.44 848.7 1654.54 848.7C1650.64 848.7 1647.34 852 1647.34 856.5C1647.34 861 1650.64 864.3 1654.54 864.3ZM1654.84 862.05C1651.99 862.05 1649.74 859.8 1649.74 856.5C1649.74 853.2 1651.99 850.95 1654.84 850.95C1657.69 850.95 1659.94 853.2 1659.94 856.5C1659.94 859.8 1657.69 862.05 1654.84 862.05ZM1673.3 864.3C1679 864.3 1680.65 859.35 1680.65 859.35H1678.25C1678.25 859.35 1676.9 862.05 1673.3 862.05C1670.57 862.05 1668.35 860.04 1668.05 857.25H1680.95V856.35C1680.95 852 1677.65 848.7 1673.3 848.7C1668.95 848.7 1665.65 852 1665.65 856.5C1665.65 861 1668.95 864.3 1673.3 864.3ZM1668.11 855.15C1668.5 852.9 1670.45 850.95 1673.3 850.95C1676.15 850.95 1678.1 852.9 1678.4 855.15H1668.11ZM1699.4 864.6C1704.05 864.6 1707.2 861.45 1707.2 857.85C1707.2 854.25 1704.05 851.1 1699.55 851.1H1699.1L1699.13 851.07L1699.4 850.86L1706 845.55V843H1692.35V845.55H1702.25L1702.22 845.58L1695.2 851.25V853.65H1699.55C1702.7 853.65 1704.5 855.45 1704.5 857.85C1704.5 860.25 1702.7 862.05 1699.4 862.05C1694.9 862.05 1694.15 858.3 1694.15 858.3H1691.3C1691.3 858.3 1692.35 864.6 1699.4 864.6Z" fill="white"/>
<rect x="1098.5" y="89.5" width="305" height="898" stroke="#6347F5" stroke-width="3" stroke-dasharray="10 10"/>
<rect x="692.5" y="89.5" width="305" height="898" stroke="#6347F5" stroke-width="3" stroke-dasharray="10 10"/>
<rect x="1135.86" y="189.5" width="230.278" height="71" stroke="#6347F5" stroke-width="3"/>
<path d="M1206.93 236L1209.63 235.97V218.6L1209.6 218.3H1209.66L1219.98 236H1223.88V215H1221.18V232.4L1221.21 232.7H1221.15L1210.83 215H1206.93V236ZM1235.26 236.3C1239.76 236.3 1243.06 233 1243.06 228.5C1243.06 224 1239.76 220.7 1235.26 220.7C1230.76 220.7 1227.46 224 1227.46 228.5C1227.46 233 1230.76 236.3 1235.26 236.3ZM1235.26 234.05C1232.11 234.05 1229.86 231.8 1229.86 228.5C1229.86 225.2 1232.11 222.95 1235.26 222.95C1238.41 222.95 1240.66 225.2 1240.66 228.5C1240.66 231.8 1238.41 234.05 1235.26 234.05ZM1252.65 236.3C1256.55 236.3 1258.02 233.63 1258.02 233.6H1258.05V236H1260.45V215H1258.05V223.4H1258.02C1258.02 223.37 1256.55 220.7 1252.65 220.7C1248.75 220.7 1245.45 224 1245.45 228.5C1245.45 233 1248.75 236.3 1252.65 236.3ZM1252.95 234.05C1250.1 234.05 1247.85 231.8 1247.85 228.5C1247.85 225.2 1250.1 222.95 1252.95 222.95C1255.8 222.95 1258.05 225.2 1258.05 228.5C1258.05 231.8 1255.8 234.05 1252.95 234.05ZM1271.41 236.3C1277.11 236.3 1278.76 231.35 1278.76 231.35H1276.36C1276.36 231.35 1275.01 234.05 1271.41 234.05C1268.68 234.05 1266.46 232.04 1266.16 229.25H1279.06V228.35C1279.06 224 1275.76 220.7 1271.41 220.7C1267.06 220.7 1263.76 224 1263.76 228.5C1263.76 233 1267.06 236.3 1271.41 236.3ZM1266.22 227.15C1266.61 224.9 1268.56 222.95 1271.41 222.95C1274.26 222.95 1276.21 224.9 1276.51 227.15H1266.22ZM1293.17 236H1295.87V215H1293.47L1289.42 218.15V221.15L1293.17 218.3V236Z" fill="white"/>
<rect x="729.861" y="189.5" width="230.278" height="71" stroke="#6347F5" stroke-width="3"/>
<path d="M806.844 236H809.544V228.8H815.694C820.494 228.8 823.494 225.8 823.494 221.9C823.494 218 820.494 215 815.694 215H806.844V236ZM809.544 226.25V217.55H815.694C818.994 217.55 820.794 219.35 820.794 221.9C820.794 224.45 818.994 226.25 815.694 226.25H809.544ZM833.102 236.3C837.602 236.3 840.902 233 840.902 228.5C840.902 224 837.602 220.7 833.102 220.7C828.602 220.7 825.302 224 825.302 228.5C825.302 233 828.602 236.3 833.102 236.3ZM833.102 234.05C829.952 234.05 827.702 231.8 827.702 228.5C827.702 225.2 829.952 222.95 833.102 222.95C836.252 222.95 838.502 225.2 838.502 228.5C838.502 231.8 836.252 234.05 833.102 234.05ZM851.09 236.3C855.59 236.3 858.89 233 858.89 228.5C858.89 224 855.59 220.7 851.09 220.7C846.59 220.7 843.29 224 843.29 228.5C843.29 233 846.59 236.3 851.09 236.3ZM851.09 234.05C847.94 234.05 845.69 231.8 845.69 228.5C845.69 225.2 847.94 222.95 851.09 222.95C854.24 222.95 856.49 225.2 856.49 228.5C856.49 231.8 854.24 234.05 851.09 234.05ZM862.179 236H868.029V233.75H864.579V215H862.179V236ZM881.249 236H883.949V215H881.549L877.499 218.15V221.15L881.249 218.3V236Z" fill="white"/>
<rect x="1076" y="65" width="177" height="54" fill="#0D1033"/>
<rect x="670" y="65" width="254" height="54" fill="#0D1033"/>
<path d="M1103.15 101H1110.95L1116.5 80H1113.65L1108.85 98.45H1105.25L1100.45 80H1097.6L1103.15 101ZM1123.09 101.3C1127.02 101.3 1128.61 98.6 1128.61 98.6H1128.64V101H1131.04V91.4C1131.04 87.95 1128.79 85.7 1124.89 85.7C1119.19 85.7 1118.29 90.5 1118.29 90.5H1120.69C1120.69 90.5 1121.44 87.95 1124.89 87.95C1127.29 87.95 1128.64 89.3 1128.64 91.4V92H1123.69C1119.73 92 1117.69 94.1 1117.69 96.65C1117.69 99.35 1119.64 101.3 1123.09 101.3ZM1123.54 99.05C1121.14 99.05 1120.09 98 1120.09 96.65C1120.09 95.3 1121.14 94.25 1123.54 94.25H1128.64C1128.64 96.95 1126.69 99.05 1123.54 99.05ZM1135.08 101H1140.93V98.75H1137.48V80H1135.08V101ZM1143.34 101H1145.74V86H1143.34V101ZM1144.54 83.15C1145.44 83.15 1146.19 82.4 1146.19 81.5C1146.19 80.6 1145.44 79.85 1144.54 79.85C1143.64 79.85 1142.89 80.6 1142.89 81.5C1142.89 82.4 1143.64 83.15 1144.54 83.15ZM1156.23 101.3C1160.13 101.3 1161.6 98.63 1161.6 98.6H1161.63V101H1164.03V80H1161.63V88.4H1161.6C1161.6 88.37 1160.13 85.7 1156.23 85.7C1152.33 85.7 1149.03 89 1149.03 93.5C1149.03 98 1152.33 101.3 1156.23 101.3ZM1156.53 99.05C1153.68 99.05 1151.43 96.8 1151.43 93.5C1151.43 90.2 1153.68 87.95 1156.53 87.95C1159.38 87.95 1161.63 90.2 1161.63 93.5C1161.63 96.8 1159.38 99.05 1156.53 99.05ZM1173.04 101.3C1176.97 101.3 1178.56 98.6 1178.56 98.6H1178.59V101H1180.99V91.4C1180.99 87.95 1178.74 85.7 1174.84 85.7C1169.14 85.7 1168.24 90.5 1168.24 90.5H1170.64C1170.64 90.5 1171.39 87.95 1174.84 87.95C1177.24 87.95 1178.59 89.3 1178.59 91.4V92H1173.64C1169.68 92 1167.64 94.1 1167.64 96.65C1167.64 99.35 1169.59 101.3 1173.04 101.3ZM1173.49 99.05C1171.09 99.05 1170.04 98 1170.04 96.65C1170.04 95.3 1171.09 94.25 1173.49 94.25H1178.59C1178.59 96.95 1176.64 99.05 1173.49 99.05ZM1185.63 101H1192.98V98.75H1188.03V88.25H1192.83V86H1188.03V82.7H1185.63V86H1183.68V88.25H1185.63V101ZM1202.88 101.3C1207.38 101.3 1210.68 98 1210.68 93.5C1210.68 89 1207.38 85.7 1202.88 85.7C1198.38 85.7 1195.08 89 1195.08 93.5C1195.08 98 1198.38 101.3 1202.88 101.3ZM1202.88 99.05C1199.73 99.05 1197.48 96.8 1197.48 93.5C1197.48 90.2 1199.73 87.95 1202.88 87.95C1206.03 87.95 1208.28 90.2 1208.28 93.5C1208.28 96.8 1206.03 99.05 1202.88 99.05ZM1213.97 101H1216.37V92.9C1216.37 90.2 1218.32 88.25 1221.02 88.25H1222.82V85.85H1221.02C1217.57 85.85 1216.4 88.4 1216.4 88.4H1216.37V86H1213.97V101ZM1231.22 101.3C1235.27 101.3 1237.37 99.2 1237.37 96.8C1237.37 91.1 1227.47 93.05 1227.47 89.9C1227.47 89 1228.52 87.95 1230.77 87.95C1233.92 87.95 1234.67 90.2 1234.67 90.2H1237.22C1237.22 90.2 1236.35 85.7 1230.77 85.7C1227.02 85.7 1225.07 87.65 1225.07 89.9C1225.07 95.6 1234.97 93.65 1234.97 96.8C1234.97 98 1233.92 99.05 1231.22 99.05C1227.77 99.05 1226.87 96.35 1226.87 96.35H1224.32C1224.32 96.35 1225.37 101.3 1231.22 101.3Z" fill="white"/>
<path d="M697.15 101H704.95L710.5 80H707.65L702.85 98.45H699.25L694.45 80H691.6L697.15 101ZM717.089 101.3C721.019 101.3 722.609 98.6 722.609 98.6H722.639V101H725.039V91.4C725.039 87.95 722.789 85.7 718.889 85.7C713.189 85.7 712.289 90.5 712.289 90.5H714.689C714.689 90.5 715.439 87.95 718.889 87.95C721.289 87.95 722.639 89.3 722.639 91.4V92H717.689C713.729 92 711.689 94.1 711.689 96.65C711.689 99.35 713.639 101.3 717.089 101.3ZM717.539 99.05C715.139 99.05 714.089 98 714.089 96.65C714.089 95.3 715.139 94.25 717.539 94.25H722.639C722.639 96.95 720.689 99.05 717.539 99.05ZM729.077 101H734.927V98.75H731.477V80H729.077V101ZM737.338 101H739.738V86H737.338V101ZM738.538 83.15C739.438 83.15 740.188 82.4 740.188 81.5C740.188 80.6 739.438 79.85 738.538 79.85C737.638 79.85 736.888 80.6 736.888 81.5C736.888 82.4 737.638 83.15 738.538 83.15ZM750.23 101.3C754.13 101.3 755.6 98.63 755.6 98.6H755.63V101H758.03V80H755.63V88.4H755.6C755.6 88.37 754.13 85.7 750.23 85.7C746.33 85.7 743.03 89 743.03 93.5C743.03 98 746.33 101.3 750.23 101.3ZM750.53 99.05C747.68 99.05 745.43 96.8 745.43 93.5C745.43 90.2 747.68 87.95 750.53 87.95C753.38 87.95 755.63 90.2 755.63 93.5C755.63 96.8 753.38 99.05 750.53 99.05ZM767.041 101.3C770.971 101.3 772.561 98.6 772.561 98.6H772.591V101H774.991V91.4C774.991 87.95 772.741 85.7 768.841 85.7C763.141 85.7 762.241 90.5 762.241 90.5H764.641C764.641 90.5 765.391 87.95 768.841 87.95C771.241 87.95 772.591 89.3 772.591 91.4V92H767.641C763.681 92 761.641 94.1 761.641 96.65C761.641 99.35 763.591 101.3 767.041 101.3ZM767.491 99.05C765.091 99.05 764.041 98 764.041 96.65C764.041 95.3 765.091 94.25 767.491 94.25H772.591C772.591 96.95 770.641 99.05 767.491 99.05ZM779.628 101H786.978V98.75H782.028V88.25H786.828V86H782.028V82.7H779.628V86H777.678V88.25H779.628V101ZM796.885 101.3C801.385 101.3 804.685 98 804.685 93.5C804.685 89 801.385 85.7 796.885 85.7C792.385 85.7 789.085 89 789.085 93.5C789.085 98 792.385 101.3 796.885 101.3ZM796.885 99.05C793.735 99.05 791.485 96.8 791.485 93.5C791.485 90.2 793.735 87.95 796.885 87.95C800.035 87.95 802.285 90.2 802.285 93.5C802.285 96.8 800.035 99.05 796.885 99.05ZM807.973 101H810.373V92.9C810.373 90.2 812.323 88.25 815.023 88.25H816.823V85.85H815.023C811.573 85.85 810.403 88.4 810.403 88.4H810.373V86H807.973V101ZM827.778 106.7H830.178V98.6H830.208C830.208 98.63 831.678 101.3 835.578 101.3C839.478 101.3 842.778 98 842.778 93.5C842.778 89 839.478 85.7 835.578 85.7C831.678 85.7 830.208 88.37 830.208 88.4H830.178V86H827.778V106.7ZM835.278 99.05C832.428 99.05 830.178 96.8 830.178 93.5C830.178 90.2 832.428 87.95 835.278 87.95C838.128 87.95 840.378 90.2 840.378 93.5C840.378 96.8 838.128 99.05 835.278 99.05ZM852.988 101.3C857.488 101.3 860.788 98 860.788 93.5C860.788 89 857.488 85.7 852.988 85.7C848.488 85.7 845.188 89 845.188 93.5C845.188 98 848.488 101.3 852.988 101.3ZM852.988 99.05C849.838 99.05 847.588 96.8 847.588 93.5C847.588 90.2 849.838 87.95 852.988 87.95C856.138 87.95 858.388 90.2 858.388 93.5C858.388 96.8 856.138 99.05 852.988 99.05ZM870.977 101.3C875.477 101.3 878.777 98 878.777 93.5C878.777 89 875.477 85.7 870.977 85.7C866.477 85.7 863.177 89 863.177 93.5C863.177 98 866.477 101.3 870.977 101.3ZM870.977 99.05C867.827 99.05 865.577 96.8 865.577 93.5C865.577 90.2 867.827 87.95 870.977 87.95C874.127 87.95 876.377 90.2 876.377 93.5C876.377 96.8 874.127 99.05 870.977 99.05ZM882.065 101H887.915V98.75H884.465V80H882.065V101ZM896.177 101.3C900.227 101.3 902.327 99.2 902.327 96.8C902.327 91.1 892.427 93.05 892.427 89.9C892.427 89 893.477 87.95 895.727 87.95C898.877 87.95 899.627 90.2 899.627 90.2H902.177C902.177 90.2 901.307 85.7 895.727 85.7C891.977 85.7 890.027 87.65 890.027 89.9C890.027 95.6 899.927 93.65 899.927 96.8C899.927 98 898.877 99.05 896.177 99.05C892.727 99.05 891.827 96.35 891.827 96.35H889.277C889.277 96.35 890.327 101.3 896.177 101.3Z" fill="white"/>
<rect x="1135.86" y="346.5" width="230.278" height="71" stroke="#6347F5" stroke-width="3"/>
<path d="M1203.18 393L1205.88 392.97V375.6L1205.85 375.3H1205.91L1216.23 393H1220.13V372H1217.43V389.4L1217.46 389.7H1217.4L1207.08 372H1203.18V393ZM1231.51 393.3C1236.01 393.3 1239.31 390 1239.31 385.5C1239.31 381 1236.01 377.7 1231.51 377.7C1227.01 377.7 1223.71 381 1223.71 385.5C1223.71 390 1227.01 393.3 1231.51 393.3ZM1231.51 391.05C1228.36 391.05 1226.11 388.8 1226.11 385.5C1226.11 382.2 1228.36 379.95 1231.51 379.95C1234.66 379.95 1236.91 382.2 1236.91 385.5C1236.91 388.8 1234.66 391.05 1231.51 391.05ZM1248.9 393.3C1252.8 393.3 1254.27 390.63 1254.27 390.6H1254.3V393H1256.7V372H1254.3V380.4H1254.27C1254.27 380.37 1252.8 377.7 1248.9 377.7C1245 377.7 1241.7 381 1241.7 385.5C1241.7 390 1245 393.3 1248.9 393.3ZM1249.2 391.05C1246.35 391.05 1244.1 388.8 1244.1 385.5C1244.1 382.2 1246.35 379.95 1249.2 379.95C1252.05 379.95 1254.3 382.2 1254.3 385.5C1254.3 388.8 1252.05 391.05 1249.2 391.05ZM1267.66 393.3C1273.36 393.3 1275.01 388.35 1275.01 388.35H1272.61C1272.61 388.35 1271.26 391.05 1267.66 391.05C1264.93 391.05 1262.71 389.04 1262.41 386.25H1275.31V385.35C1275.31 381 1272.01 377.7 1267.66 377.7C1263.31 377.7 1260.01 381 1260.01 385.5C1260.01 390 1263.31 393.3 1267.66 393.3ZM1262.47 384.15C1262.86 381.9 1264.81 379.95 1267.66 379.95C1270.51 379.95 1272.46 381.9 1272.76 384.15H1262.47ZM1285.82 393H1300.67V390.45H1290.14L1289.87 390.48V390.42L1290.17 390.24L1294.52 387.15C1298.12 384.6 1300.67 382.05 1300.67 378.15C1300.67 374.4 1297.67 371.4 1293.47 371.4C1286.57 371.4 1285.97 378.15 1285.97 378.15H1288.82C1288.82 378.15 1289.42 373.95 1293.47 373.95C1296.17 373.95 1297.97 375.75 1297.97 378.15C1297.97 381 1296.17 382.8 1292.72 385.35L1285.82 390.45V393Z" fill="white"/>
<rect x="729.861" y="346.5" width="230.278" height="71" stroke="#6347F5" stroke-width="3"/>
<path d="M803.094 393H805.794V385.8H811.944C816.744 385.8 819.744 382.8 819.744 378.9C819.744 375 816.744 372 811.944 372H803.094V393ZM805.794 383.25V374.55H811.944C815.244 374.55 817.044 376.35 817.044 378.9C817.044 381.45 815.244 383.25 811.944 383.25H805.794ZM829.352 393.3C833.852 393.3 837.152 390 837.152 385.5C837.152 381 833.852 377.7 829.352 377.7C824.852 377.7 821.552 381 821.552 385.5C821.552 390 824.852 393.3 829.352 393.3ZM829.352 391.05C826.202 391.05 823.952 388.8 823.952 385.5C823.952 382.2 826.202 379.95 829.352 379.95C832.502 379.95 834.752 382.2 834.752 385.5C834.752 388.8 832.502 391.05 829.352 391.05ZM847.34 393.3C851.84 393.3 855.14 390 855.14 385.5C855.14 381 851.84 377.7 847.34 377.7C842.84 377.7 839.54 381 839.54 385.5C839.54 390 842.84 393.3 847.34 393.3ZM847.34 391.05C844.19 391.05 841.94 388.8 841.94 385.5C841.94 382.2 844.19 379.95 847.34 379.95C850.49 379.95 852.74 382.2 852.74 385.5C852.74 388.8 850.49 391.05 847.34 391.05ZM858.429 393H864.279V390.75H860.829V372H858.429V393ZM873.899 393H888.749V390.45H878.219L877.949 390.48V390.42L878.249 390.24L882.599 387.15C886.199 384.6 888.749 382.05 888.749 378.15C888.749 374.4 885.749 371.4 881.549 371.4C874.649 371.4 874.049 378.15 874.049 378.15H876.899C876.899 378.15 877.499 373.95 881.549 373.95C884.249 373.95 886.049 375.75 886.049 378.15C886.049 381 884.249 382.8 880.799 385.35L873.899 390.45V393Z" fill="white"/>
<rect x="1135.86" y="503.5" width="230.278" height="71" stroke="#6347F5" stroke-width="3"/>
<path d="M1202.81 550L1205.51 549.97V532.6L1205.48 532.3H1205.54L1215.86 550H1219.76V529H1217.06V546.4L1217.09 546.7H1217.03L1206.71 529H1202.81V550ZM1231.15 550.3C1235.65 550.3 1238.95 547 1238.95 542.5C1238.95 538 1235.65 534.7 1231.15 534.7C1226.65 534.7 1223.35 538 1223.35 542.5C1223.35 547 1226.65 550.3 1231.15 550.3ZM1231.15 548.05C1228 548.05 1225.75 545.8 1225.75 542.5C1225.75 539.2 1228 536.95 1231.15 536.95C1234.3 536.95 1236.55 539.2 1236.55 542.5C1236.55 545.8 1234.3 548.05 1231.15 548.05ZM1248.54 550.3C1252.44 550.3 1253.91 547.63 1253.91 547.6H1253.94V550H1256.34V529H1253.94V537.4H1253.91C1253.91 537.37 1252.44 534.7 1248.54 534.7C1244.64 534.7 1241.34 538 1241.34 542.5C1241.34 547 1244.64 550.3 1248.54 550.3ZM1248.84 548.05C1245.99 548.05 1243.74 545.8 1243.74 542.5C1243.74 539.2 1245.99 536.95 1248.84 536.95C1251.69 536.95 1253.94 539.2 1253.94 542.5C1253.94 545.8 1251.69 548.05 1248.84 548.05ZM1267.3 550.3C1273 550.3 1274.65 545.35 1274.65 545.35H1272.25C1272.25 545.35 1270.9 548.05 1267.3 548.05C1264.57 548.05 1262.35 546.04 1262.05 543.25H1274.95V542.35C1274.95 538 1271.65 534.7 1267.3 534.7C1262.95 534.7 1259.65 538 1259.65 542.5C1259.65 547 1262.95 550.3 1267.3 550.3ZM1262.11 541.15C1262.5 538.9 1264.45 536.95 1267.3 536.95C1270.15 536.95 1272.1 538.9 1272.4 541.15H1262.11ZM1293.4 550.6C1298.05 550.6 1301.2 547.45 1301.2 543.85C1301.2 540.25 1298.05 537.1 1293.55 537.1H1293.1L1293.13 537.07L1293.4 536.86L1300 531.55V529H1286.35V531.55H1296.25L1296.22 531.58L1289.2 537.25V539.65H1293.55C1296.7 539.65 1298.5 541.45 1298.5 543.85C1298.5 546.25 1296.7 548.05 1293.4 548.05C1288.9 548.05 1288.15 544.3 1288.15 544.3H1285.3C1285.3 544.3 1286.35 550.6 1293.4 550.6Z" fill="white"/>
<rect x="1135.86" y="660.5" width="230.278" height="71" stroke="#6347F5" stroke-width="3"/>
<path d="M1202.96 707L1205.66 706.97V689.6L1205.63 689.3H1205.69L1216.01 707H1219.91V686H1217.21V703.4L1217.24 703.7H1217.18L1206.86 686H1202.96V707ZM1231.29 707.3C1235.79 707.3 1239.09 704 1239.09 699.5C1239.09 695 1235.79 691.7 1231.29 691.7C1226.79 691.7 1223.49 695 1223.49 699.5C1223.49 704 1226.79 707.3 1231.29 707.3ZM1231.29 705.05C1228.14 705.05 1225.89 702.8 1225.89 699.5C1225.89 696.2 1228.14 693.95 1231.29 693.95C1234.44 693.95 1236.69 696.2 1236.69 699.5C1236.69 702.8 1234.44 705.05 1231.29 705.05ZM1248.68 707.3C1252.58 707.3 1254.05 704.63 1254.05 704.6H1254.08V707H1256.48V686H1254.08V694.4H1254.05C1254.05 694.37 1252.58 691.7 1248.68 691.7C1244.78 691.7 1241.48 695 1241.48 699.5C1241.48 704 1244.78 707.3 1248.68 707.3ZM1248.98 705.05C1246.13 705.05 1243.88 702.8 1243.88 699.5C1243.88 696.2 1246.13 693.95 1248.98 693.95C1251.83 693.95 1254.08 696.2 1254.08 699.5C1254.08 702.8 1251.83 705.05 1248.98 705.05ZM1267.44 707.3C1273.14 707.3 1274.79 702.35 1274.79 702.35H1272.39C1272.39 702.35 1271.04 705.05 1267.44 705.05C1264.71 705.05 1262.49 703.04 1262.19 700.25H1275.09V699.35C1275.09 695 1271.79 691.7 1267.44 691.7C1263.09 691.7 1259.79 695 1259.79 699.5C1259.79 704 1263.09 707.3 1267.44 707.3ZM1262.25 698.15C1262.64 695.9 1264.59 693.95 1267.44 693.95C1270.29 693.95 1272.24 695.9 1272.54 698.15H1262.25ZM1296.25 707H1298.95V702.5H1302.1V699.95H1298.95V694.55H1296.4H1296.25V699.95H1288.3L1295.65 686H1292.65L1285.3 699.95V702.5H1296.25V707Z" fill="white"/>
<rect x="729.861" y="660.5" width="230.278" height="71" stroke="#6347F5" stroke-width="3"/>
<path d="M802.874 707H805.574V699.8H811.724C816.524 699.8 819.524 696.8 819.524 692.9C819.524 689 816.524 686 811.724 686H802.874V707ZM805.574 697.25V688.55H811.724C815.024 688.55 816.824 690.35 816.824 692.9C816.824 695.45 815.024 697.25 811.724 697.25H805.574ZM829.132 707.3C833.632 707.3 836.932 704 836.932 699.5C836.932 695 833.632 691.7 829.132 691.7C824.632 691.7 821.332 695 821.332 699.5C821.332 704 824.632 707.3 829.132 707.3ZM829.132 705.05C825.982 705.05 823.732 702.8 823.732 699.5C823.732 696.2 825.982 693.95 829.132 693.95C832.282 693.95 834.532 696.2 834.532 699.5C834.532 702.8 832.282 705.05 829.132 705.05ZM847.121 707.3C851.621 707.3 854.921 704 854.921 699.5C854.921 695 851.621 691.7 847.121 691.7C842.621 691.7 839.321 695 839.321 699.5C839.321 704 842.621 707.3 847.121 707.3ZM847.121 705.05C843.971 705.05 841.721 702.8 841.721 699.5C841.721 696.2 843.971 693.95 847.121 693.95C850.271 693.95 852.521 696.2 852.521 699.5C852.521 702.8 850.271 705.05 847.121 705.05ZM858.209 707H864.059V704.75H860.609V686H858.209V707ZM884.329 707H887.029V702.5H890.179V699.95H887.029V694.55H884.479H884.329V699.95H876.379L883.729 686H880.729L873.379 699.95V702.5H884.329V707Z" fill="white"/>
<rect x="1135.86" y="817.5" width="230.278" height="71" stroke="#6347F5" stroke-width="3"/>
<path d="M1202.5 864L1205.2 863.97V846.6L1205.17 846.3H1205.23L1215.55 864H1219.45V843H1216.75V860.4L1216.78 860.7H1216.72L1206.4 843H1202.5V864ZM1230.84 864.3C1235.34 864.3 1238.64 861 1238.64 856.5C1238.64 852 1235.34 848.7 1230.84 848.7C1226.34 848.7 1223.04 852 1223.04 856.5C1223.04 861 1226.34 864.3 1230.84 864.3ZM1230.84 862.05C1227.69 862.05 1225.44 859.8 1225.44 856.5C1225.44 853.2 1227.69 850.95 1230.84 850.95C1233.99 850.95 1236.24 853.2 1236.24 856.5C1236.24 859.8 1233.99 862.05 1230.84 862.05ZM1248.23 864.3C1252.13 864.3 1253.6 861.63 1253.6 861.6H1253.63V864H1256.03V843H1253.63V851.4H1253.6C1253.6 851.37 1252.13 848.7 1248.23 848.7C1244.33 848.7 1241.03 852 1241.03 856.5C1241.03 861 1244.33 864.3 1248.23 864.3ZM1248.53 862.05C1245.68 862.05 1243.43 859.8 1243.43 856.5C1243.43 853.2 1245.68 850.95 1248.53 850.95C1251.38 850.95 1253.63 853.2 1253.63 856.5C1253.63 859.8 1251.38 862.05 1248.53 862.05ZM1266.99 864.3C1272.69 864.3 1274.34 859.35 1274.34 859.35H1271.94C1271.94 859.35 1270.59 862.05 1266.99 862.05C1264.26 862.05 1262.04 860.04 1261.74 857.25H1274.64V856.35C1274.64 852 1271.34 848.7 1266.99 848.7C1262.64 848.7 1259.34 852 1259.34 856.5C1259.34 861 1262.64 864.3 1266.99 864.3ZM1261.8 855.15C1262.19 852.9 1264.14 850.95 1266.99 850.95C1269.84 850.95 1271.79 852.9 1272.09 855.15H1261.8ZM1293.69 864.6C1298.34 864.6 1301.49 861.45 1301.49 857.4C1301.49 853.35 1298.34 850.2 1293.99 850.2C1290.84 850.2 1289.34 851.7 1289.34 851.7V851.67L1289.79 845.55H1299.99V843H1287.54L1286.64 855H1289.04C1289.04 855 1290.39 852.75 1293.69 852.75C1296.84 852.75 1298.79 854.7 1298.79 857.4C1298.79 860.1 1296.84 862.05 1293.69 862.05C1289.19 862.05 1288.44 858.3 1288.44 858.3H1285.74C1285.74 858.3 1286.64 864.6 1293.69 864.6Z" fill="white"/>
<rect x="729.861" y="817.5" width="230.278" height="71" stroke="#6347F5" stroke-width="3"/>
<path d="M802.42 864H805.12V856.8H811.27C816.07 856.8 819.07 853.8 819.07 849.9C819.07 846 816.07 843 811.27 843H802.42V864ZM805.12 854.25V845.55H811.27C814.57 845.55 816.37 847.35 816.37 849.9C816.37 852.45 814.57 854.25 811.27 854.25H805.12ZM828.678 864.3C833.178 864.3 836.478 861 836.478 856.5C836.478 852 833.178 848.7 828.678 848.7C824.178 848.7 820.878 852 820.878 856.5C820.878 861 824.178 864.3 828.678 864.3ZM828.678 862.05C825.528 862.05 823.278 859.8 823.278 856.5C823.278 853.2 825.528 850.95 828.678 850.95C831.828 850.95 834.078 853.2 834.078 856.5C834.078 859.8 831.828 862.05 828.678 862.05ZM846.667 864.3C851.167 864.3 854.467 861 854.467 856.5C854.467 852 851.167 848.7 846.667 848.7C842.167 848.7 838.867 852 838.867 856.5C838.867 861 842.167 864.3 846.667 864.3ZM846.667 862.05C843.517 862.05 841.267 859.8 841.267 856.5C841.267 853.2 843.517 850.95 846.667 850.95C849.817 850.95 852.067 853.2 852.067 856.5C852.067 859.8 849.817 862.05 846.667 862.05ZM857.755 864H863.605V861.75H860.155V843H857.755V864ZM881.775 864.6C886.425 864.6 889.575 861.45 889.575 857.4C889.575 853.35 886.425 850.2 882.075 850.2C878.925 850.2 877.425 851.7 877.425 851.7V851.67L877.875 845.55H888.075V843H875.625L874.725 855H877.125C877.125 855 878.475 852.75 881.775 852.75C884.925 852.75 886.875 854.7 886.875 857.4C886.875 860.1 884.925 862.05 881.775 862.05C877.275 862.05 876.525 858.3 876.525 858.3H873.825C873.825 858.3 874.725 864.6 881.775 864.6Z" fill="white"/>
<rect x="872" y="513" width="254" height="54" fill="#0D1033"/>
<path d="M911.916 553.6C918.216 553.6 922.866 548.95 922.866 542.5C922.866 536.05 918.216 531.4 911.916 531.4C905.616 531.4 900.966 536.05 900.966 542.5C900.966 548.95 905.616 553.6 911.916 553.6ZM911.916 551.05C907.116 551.05 903.666 547.6 903.666 542.5C903.666 537.4 907.116 533.95 911.916 533.95C916.716 533.95 920.166 537.4 920.166 542.5C920.166 547.6 916.716 551.05 911.916 551.05ZM926.326 553H928.726V544.9C928.726 541.9 930.676 539.95 933.376 539.95C935.776 539.95 937.426 541.3 937.426 544.3V553H939.826V544.15C939.826 540.1 937.426 537.7 933.826 537.7C930.226 537.7 928.756 540.25 928.756 540.25H928.726V538H926.326V553ZM943.874 553H949.724V550.75H946.274V532H943.874V553ZM956.336 558.7H958.886L965.186 538H962.636L958.736 550.75H956.486L953.186 538H950.636L954.686 553H958.136L956.336 558.7ZM982.591 553.3C987.091 553.3 990.391 550 990.391 545.5C990.391 541 987.091 537.7 982.591 537.7C978.091 537.7 974.791 541 974.791 545.5C974.791 550 978.091 553.3 982.591 553.3ZM982.591 551.05C979.441 551.05 977.191 548.8 977.191 545.5C977.191 542.2 979.441 539.95 982.591 539.95C985.741 539.95 987.991 542.2 987.991 545.5C987.991 548.8 985.741 551.05 982.591 551.05ZM995.779 553H1000.43L1002.98 540.25H1003.43L1005.98 553H1010.63L1013.93 538H1011.38L1008.68 550.75H1007.93L1005.38 538H1001.03L998.479 550.75H997.729L995.029 538H992.479L995.779 553ZM1016.94 553H1019.34V544.9C1019.34 541.9 1021.29 539.95 1023.99 539.95C1026.39 539.95 1028.04 541.3 1028.04 544.3V553H1030.44V544.15C1030.44 540.1 1028.04 537.7 1024.44 537.7C1020.84 537.7 1019.37 540.25 1019.37 540.25H1019.34V538H1016.94V553ZM1048.75 553.3C1052.8 553.3 1054.9 551.2 1054.9 548.8C1054.9 543.1 1045 545.05 1045 541.9C1045 541 1046.05 539.95 1048.3 539.95C1051.45 539.95 1052.2 542.2 1052.2 542.2H1054.75C1054.75 542.2 1053.88 537.7 1048.3 537.7C1044.55 537.7 1042.6 539.65 1042.6 541.9C1042.6 547.6 1052.5 545.65 1052.5 548.8C1052.5 550 1051.45 551.05 1048.75 551.05C1045.3 551.05 1044.4 548.35 1044.4 548.35H1041.85C1041.85 548.35 1042.9 553.3 1048.75 553.3ZM1058.79 553H1066.14V550.75H1061.19V540.25H1065.99V538H1061.19V534.7H1058.79V538H1056.84V540.25H1058.79V553ZM1073.95 553.3C1077.88 553.3 1079.47 550.6 1079.47 550.6H1079.5V553H1081.9V543.4C1081.9 539.95 1079.65 537.7 1075.75 537.7C1070.05 537.7 1069.15 542.5 1069.15 542.5H1071.55C1071.55 542.5 1072.3 539.95 1075.75 539.95C1078.15 539.95 1079.5 541.3 1079.5 543.4V544H1074.55C1070.59 544 1068.55 546.1 1068.55 548.65C1068.55 551.35 1070.5 553.3 1073.95 553.3ZM1074.4 551.05C1072 551.05 1070.95 550 1070.95 548.65C1070.95 547.3 1072 546.25 1074.4 546.25H1079.5C1079.5 548.95 1077.55 551.05 1074.4 551.05ZM1085.93 553H1088.33V546.25H1091.33L1096.43 553H1099.43L1093.43 545.05L1098.98 538H1096.13L1091.33 544H1088.33V532H1085.93V553ZM1107.54 553.3C1113.24 553.3 1114.89 548.35 1114.89 548.35H1112.49C1112.49 548.35 1111.14 551.05 1107.54 551.05C1104.81 551.05 1102.59 549.04 1102.29 546.25H1115.19V545.35C1115.19 541 1111.89 537.7 1107.54 537.7C1103.19 537.7 1099.89 541 1099.89 545.5C1099.89 550 1103.19 553.3 1107.54 553.3ZM1102.35 544.15C1102.74 541.9 1104.69 539.95 1107.54 539.95C1110.39 539.95 1112.34 541.9 1112.64 544.15H1102.35Z" fill="white"/>
<path d="M1591.61 787H1594.31V769L1594.28 768.7H1594.34L1600.46 781.9H1605.41L1611.53 768.7H1611.59L1611.56 769V787H1614.26V766H1609.91L1603.61 779.5H1602.26L1595.96 766H1591.61V787ZM1618.76 787H1621.16V772H1618.76V787ZM1619.96 769.15C1620.86 769.15 1621.61 768.4 1621.61 767.5C1621.61 766.6 1620.86 765.85 1619.96 765.85C1619.06 765.85 1618.31 766.6 1618.31 767.5C1618.31 768.4 1619.06 769.15 1619.96 769.15ZM1625.35 787H1627.75V778.9C1627.75 775.9 1629.7 773.95 1632.4 773.95C1634.8 773.95 1636.45 775.3 1636.45 778.3V787H1638.85V778.15C1638.85 774.1 1636.45 771.7 1632.85 771.7C1629.25 771.7 1627.78 774.25 1627.78 774.25H1627.75V772H1625.35V787ZM1657.16 787.3C1661.21 787.3 1663.31 785.2 1663.31 782.8C1663.31 777.1 1653.41 779.05 1653.41 775.9C1653.41 775 1654.46 773.95 1656.71 773.95C1659.86 773.95 1660.61 776.2 1660.61 776.2H1663.16C1663.16 776.2 1662.29 771.7 1656.71 771.7C1652.96 771.7 1651.01 773.65 1651.01 775.9C1651.01 781.6 1660.91 779.65 1660.91 782.8C1660.91 784 1659.86 785.05 1657.16 785.05C1653.71 785.05 1652.81 782.35 1652.81 782.35H1650.26C1650.26 782.35 1651.31 787.3 1657.16 787.3ZM1667.2 787H1674.55V784.75H1669.6V774.25H1674.4V772H1669.6V768.7H1667.2V772H1665.25V774.25H1667.2V787ZM1682.36 787.3C1686.29 787.3 1687.88 784.6 1687.88 784.6H1687.91V787H1690.31V777.4C1690.31 773.95 1688.06 771.7 1684.16 771.7C1678.46 771.7 1677.56 776.5 1677.56 776.5H1679.96C1679.96 776.5 1680.71 773.95 1684.16 773.95C1686.56 773.95 1687.91 775.3 1687.91 777.4V778H1682.96C1679 778 1676.96 780.1 1676.96 782.65C1676.96 785.35 1678.91 787.3 1682.36 787.3ZM1682.81 785.05C1680.41 785.05 1679.36 784 1679.36 782.65C1679.36 781.3 1680.41 780.25 1682.81 780.25H1687.91C1687.91 782.95 1685.96 785.05 1682.81 785.05ZM1694.34 787H1696.74V780.25H1699.74L1704.84 787H1707.84L1701.84 779.05L1707.39 772H1704.54L1699.74 778H1696.74V766H1694.34V787ZM1715.95 787.3C1721.65 787.3 1723.3 782.35 1723.3 782.35H1720.9C1720.9 782.35 1719.55 785.05 1715.95 785.05C1713.22 785.05 1711 783.04 1710.7 780.25H1723.6V779.35C1723.6 775 1720.3 771.7 1715.95 771.7C1711.6 771.7 1708.3 775 1708.3 779.5C1708.3 784 1711.6 787.3 1715.95 787.3ZM1710.76 778.15C1711.15 775.9 1713.1 773.95 1715.95 773.95C1718.8 773.95 1720.75 775.9 1721.05 778.15H1710.76Z" fill="white"/>
<path d="M377 852C550 852 550 695 723 695" stroke="#6347F5" stroke-width="3" stroke-miterlimit="10"/>
<path d="M377 537C550 537 550 380 723 380" stroke="#6347F5" stroke-width="3" stroke-miterlimit="10"/>
<path d="M377 695C550 695 550 852 723 852" stroke="#6347F5" stroke-width="3" stroke-miterlimit="10"/>
<path d="M1368 226C1455.5 226 1455.5 537 1543 537" stroke="#6347F5" stroke-width="3" stroke-miterlimit="10" stroke-dasharray="1 10"/>
<path d="M1368 542C1455.5 542 1455.5 853 1543 853" stroke="#6347F5" stroke-width="3" stroke-miterlimit="10" stroke-dasharray="1 10"/>
<path d="M1543 226C1368 226 1543 853 1368 853" stroke="#6347F5" stroke-width="3" stroke-miterlimit="10" stroke-dasharray="1 10"/>
<path d="M1541 697H1367" stroke="#6347F5" stroke-width="3" stroke-miterlimit="10" stroke-dasharray="1 10"/>
<path d="M1796 779H1735" stroke="white" stroke-width="3" stroke-miterlimit="10" stroke-dasharray="1 10"/>
<path d="M1579 779H1518" stroke="white" stroke-width="3" stroke-miterlimit="10" stroke-dasharray="1 10"/>
<path d="M1541 382H1367" stroke="#6347F5" stroke-width="3" stroke-miterlimit="10" stroke-dasharray="1 10"/>
<path d="M377 537C550 537 550 694 723 694" stroke="#6347F5" stroke-width="3" stroke-miterlimit="10"/>
<path d="M377 380C550 380 550 224 723 224" stroke="#6347F5" stroke-width="3" stroke-miterlimit="10"/>
<path d="M377 224C550 224 550 380 723 380" stroke="#6347F5" stroke-width="3" stroke-miterlimit="10"/>
<line x1="377" y1="851.5" x2="724" y2="851.5" stroke="#6347F5" stroke-width="3"/>
<line x1="377" y1="694.5" x2="723" y2="694.5" stroke="#6347F5" stroke-width="3"/>
<line x1="377" y1="380.5" x2="724" y2="380.5" stroke="#6347F5" stroke-width="3"/>
<line x1="377" y1="223.5" x2="718" y2="223.5" stroke="#6347F5" stroke-width="3"/>
<line x1="960" y1="223.5" x2="1123" y2="223.5" stroke="#6347F5" stroke-width="3"/>
<line x1="960" y1="381.5" x2="1123" y2="381.5" stroke="#6347F5" stroke-width="3"/>
<line x1="960" y1="695.5" x2="1123" y2="695.5" stroke="#6347F5" stroke-width="3"/>
<line x1="960" y1="852.5" x2="1123" y2="852.5" stroke="#6347F5" stroke-width="3"/>
<path d="M705 837L727 852L705 867L705 837Z" fill="#6347F5"/>
<path d="M705 679L727 694L705 709L705 679Z" fill="#6347F5"/>
<path d="M705 365L727 380L705 395L705 365Z" fill="#6347F5"/>
<path d="M705 209L727 224L705 239L705 209Z" fill="#6347F5"/>
<path d="M1111 367L1133 382L1111 397L1111 367Z" fill="#6347F5"/>
<path d="M1111 681L1133 696L1111 711L1111 681Z" fill="#6347F5"/>
<path d="M1111 209L1133 224L1111 239L1111 209Z" fill="#6347F5"/>
<path d="M1111 838L1133 853L1111 868L1111 838Z" fill="#6347F5"/>
</svg>
