<svg width="1607" height="1080" viewBox="0 0 1607 1080" fill="none" xmlns="http://www.w3.org/2000/svg">
<rect width="1607" height="1080" fill="#0D1033"/>
<rect x="167.635" y="274.05" width="1338.86" height="736.45" stroke="#6347F5" stroke-width="3" stroke-dasharray="10 10"/>
<rect x="134.068" y="236.275" width="1338.86" height="736.45" fill="#0D1033" stroke="#6347F5" stroke-width="3" stroke-dasharray="10 10"/>
<rect x="100.5" y="198.5" width="1338.86" height="736.45" fill="#0D1033" stroke="#6347F5" stroke-width="3" stroke-dasharray="10 10"/>
<rect x="410.5" y="72.5" width="315.278" height="63.4545" stroke="#6347F5" stroke-width="3"/>
<path d="M503.497 114H506.197V105.3H515.347V102.75H506.197V95.55H517.747V93H503.497V114ZM526.014 114.3C529.614 114.3 531.084 111.75 531.084 111.75H531.114V114H533.514V99H531.114V107.1C531.114 110.1 529.164 112.05 526.464 112.05C524.064 112.05 522.414 110.7 522.414 107.7V99H520.014V107.85C520.014 111.9 522.414 114.3 526.014 114.3ZM537.709 114H543.559V111.75H540.109V93H537.709V114ZM545.971 114H551.821V111.75H548.371V93H545.971V114ZM562.941 114L565.641 113.97V96.6L565.611 96.3H565.671L575.991 114H579.891V93H577.191V110.4L577.221 110.7H577.161L566.841 93H562.941V114ZM591.279 114.3C595.779 114.3 599.079 111 599.079 106.5C599.079 102 595.779 98.7 591.279 98.7C586.779 98.7 583.479 102 583.479 106.5C583.479 111 586.779 114.3 591.279 114.3ZM591.279 112.05C588.129 112.05 585.879 109.8 585.879 106.5C585.879 103.2 588.129 100.95 591.279 100.95C594.429 100.95 596.679 103.2 596.679 106.5C596.679 109.8 594.429 112.05 591.279 112.05ZM608.667 114.3C612.567 114.3 614.037 111.63 614.037 111.6H614.067V114H616.467V93H614.067V101.4H614.037C614.037 101.37 612.567 98.7 608.667 98.7C604.767 98.7 601.467 102 601.467 106.5C601.467 111 604.767 114.3 608.667 114.3ZM608.967 112.05C606.117 112.05 603.867 109.8 603.867 106.5C603.867 103.2 606.117 100.95 608.967 100.95C611.817 100.95 614.067 103.2 614.067 106.5C614.067 109.8 611.817 112.05 608.967 112.05ZM627.428 114.3C633.128 114.3 634.778 109.35 634.778 109.35H632.378C632.378 109.35 631.028 112.05 627.428 112.05C624.698 112.05 622.478 110.04 622.178 107.25H635.078V106.35C635.078 102 631.778 98.7 627.428 98.7C623.078 98.7 619.778 102 619.778 106.5C619.778 111 623.078 114.3 627.428 114.3ZM622.238 105.15C622.628 102.9 624.578 100.95 627.428 100.95C630.278 100.95 632.228 102.9 632.528 105.15H622.238Z" fill="white"/>
<rect x="410.5" y="259.5" width="315.278" height="63.4545" stroke="#6347F5" stroke-width="3"/>
<path d="M531.94 307.165H534.64V301.675C540.19 301.015 544.24 296.665 544.24 290.665C544.24 284.215 539.59 279.565 533.29 279.565C526.99 279.565 522.34 284.215 522.34 290.665C522.34 296.665 526.39 301.015 531.94 301.675V307.165ZM533.29 299.215C528.49 299.215 525.04 295.765 525.04 290.665C525.04 285.565 528.49 282.115 533.29 282.115C538.09 282.115 541.54 285.565 541.54 290.665C541.54 295.765 538.09 299.215 533.29 299.215ZM553.699 301.465C557.299 301.465 558.769 298.915 558.769 298.915H558.799V301.165H561.199V286.165H558.799V294.265C558.799 297.265 556.849 299.215 554.149 299.215C551.749 299.215 550.099 297.865 550.099 294.865V286.165H547.699V295.015C547.699 299.065 550.099 301.465 553.699 301.465ZM572.145 301.465C577.845 301.465 579.495 296.515 579.495 296.515H577.095C577.095 296.515 575.745 299.215 572.145 299.215C569.415 299.215 567.195 297.205 566.895 294.415H579.795V293.515C579.795 289.165 576.495 285.865 572.145 285.865C567.795 285.865 564.495 289.165 564.495 293.665C564.495 298.165 567.795 301.465 572.145 301.465ZM566.955 292.315C567.345 290.065 569.295 288.115 572.145 288.115C574.995 288.115 576.945 290.065 577.245 292.315H566.955ZM589.09 301.465C592.69 301.465 594.16 298.915 594.16 298.915H594.19V301.165H596.59V286.165H594.19V294.265C594.19 297.265 592.24 299.215 589.54 299.215C587.14 299.215 585.49 297.865 585.49 294.865V286.165H583.09V295.015C583.09 299.065 585.49 301.465 589.09 301.465ZM607.535 301.465C613.235 301.465 614.885 296.515 614.885 296.515H612.485C612.485 296.515 611.135 299.215 607.535 299.215C604.805 299.215 602.585 297.205 602.285 294.415H615.185V293.515C615.185 289.165 611.885 285.865 607.535 285.865C603.185 285.865 599.885 289.165 599.885 293.665C599.885 298.165 603.185 301.465 607.535 301.465ZM602.345 292.315C602.735 290.065 604.685 288.115 607.535 288.115C610.385 288.115 612.335 290.065 612.635 292.315H602.345Z" fill="white"/>
<rect x="410.5" y="400.92" width="315.278" height="63.4545" stroke="#6347F5" stroke-width="3"/>
<path d="M523.168 443.185C531.568 443.185 533.668 435.085 533.668 435.085H530.968C530.968 435.085 529.318 440.635 523.168 440.635C518.368 440.635 514.918 437.185 514.918 432.085C514.918 426.985 518.368 423.535 523.168 423.535C529.168 423.535 530.818 428.635 530.818 428.635H533.518C533.518 428.635 531.718 420.985 523.168 420.985C516.868 420.985 512.218 425.635 512.218 432.085C512.218 438.535 516.868 443.185 523.168 443.185ZM543.862 442.885C548.362 442.885 551.662 439.585 551.662 435.085C551.662 430.585 548.362 427.285 543.862 427.285C539.362 427.285 536.062 430.585 536.062 435.085C536.062 439.585 539.362 442.885 543.862 442.885ZM543.862 440.635C540.712 440.635 538.462 438.385 538.462 435.085C538.462 431.785 540.712 429.535 543.862 429.535C547.012 429.535 549.262 431.785 549.262 435.085C549.262 438.385 547.012 440.635 543.862 440.635ZM554.95 442.585H560.8V440.335H557.35V421.585H554.95V442.585ZM563.212 442.585H569.062V440.335H565.612V421.585H563.212V442.585ZM576.274 442.885C580.204 442.885 581.794 440.185 581.794 440.185H581.824V442.585H584.224V432.985C584.224 429.535 581.974 427.285 578.074 427.285C572.374 427.285 571.474 432.085 571.474 432.085H573.874C573.874 432.085 574.624 429.535 578.074 429.535C580.474 429.535 581.824 430.885 581.824 432.985V433.585H576.874C572.914 433.585 570.874 435.685 570.874 438.235C570.874 440.935 572.824 442.885 576.274 442.885ZM576.724 440.635C574.324 440.635 573.274 439.585 573.274 438.235C573.274 436.885 574.324 435.835 576.724 435.835H581.824C581.824 438.535 579.874 440.635 576.724 440.635ZM588.861 442.585H596.211V440.335H591.261V429.835H596.061V427.585H591.261V424.285H588.861V427.585H586.911V429.835H588.861V442.585ZM606.118 442.885C610.618 442.885 613.918 439.585 613.918 435.085C613.918 430.585 610.618 427.285 606.118 427.285C601.618 427.285 598.318 430.585 598.318 435.085C598.318 439.585 601.618 442.885 606.118 442.885ZM606.118 440.635C602.968 440.635 600.718 438.385 600.718 435.085C600.718 431.785 602.968 429.535 606.118 429.535C609.268 429.535 611.518 431.785 611.518 435.085C611.518 438.385 609.268 440.635 606.118 440.635ZM617.206 442.585H619.606V434.485C619.606 431.785 621.556 429.835 624.256 429.835H626.056V427.435H624.256C620.806 427.435 619.636 429.985 619.636 429.985H619.606V427.585H617.206V442.585Z" fill="white"/>
<rect x="410.5" y="541.92" width="315.278" height="63.4545" stroke="#6347F5" stroke-width="3"/>
<path d="M507.494 584.185C515.894 584.185 517.994 576.085 517.994 576.085H515.294C515.294 576.085 513.644 581.635 507.494 581.635C502.694 581.635 499.244 578.185 499.244 573.085C499.244 567.985 502.694 564.535 507.494 564.535C513.494 564.535 515.144 569.635 515.144 569.635H517.844C517.844 569.635 516.044 561.985 507.494 561.985C501.194 561.985 496.544 566.635 496.544 573.085C496.544 579.535 501.194 584.185 507.494 584.185ZM526.088 583.885C530.018 583.885 531.608 581.185 531.608 581.185H531.638V583.585H534.038V573.985C534.038 570.535 531.788 568.285 527.888 568.285C522.188 568.285 521.288 573.085 521.288 573.085H523.688C523.688 573.085 524.438 570.535 527.888 570.535C530.288 570.535 531.638 571.885 531.638 573.985V574.585H526.688C522.728 574.585 520.688 576.685 520.688 579.235C520.688 581.935 522.638 583.885 526.088 583.885ZM526.538 581.635C524.138 581.635 523.088 580.585 523.088 579.235C523.088 577.885 524.138 576.835 526.538 576.835H531.638C531.638 579.535 529.688 581.635 526.538 581.635ZM538.075 583.585H540.475V575.485C540.475 572.485 542.425 570.535 545.125 570.535C547.525 570.535 549.175 571.885 549.175 574.885V583.585H551.575V574.735C551.575 570.685 549.175 568.285 545.575 568.285C541.975 568.285 540.505 570.835 540.505 570.835H540.475V568.585H538.075V583.585ZM561.924 583.885C565.824 583.885 567.294 581.215 567.294 581.185H567.324V583.585H569.724V562.585H567.324V570.985H567.294C567.294 570.955 565.824 568.285 561.924 568.285C558.024 568.285 554.724 571.585 554.724 576.085C554.724 580.585 558.024 583.885 561.924 583.885ZM562.224 581.635C559.374 581.635 557.124 579.385 557.124 576.085C557.124 572.785 559.374 570.535 562.224 570.535C565.074 570.535 567.324 572.785 567.324 576.085C567.324 579.385 565.074 581.635 562.224 581.635ZM573.935 583.585H576.335V568.585H573.935V583.585ZM575.135 565.735C576.035 565.735 576.785 564.985 576.785 564.085C576.785 563.185 576.035 562.435 575.135 562.435C574.235 562.435 573.485 563.185 573.485 564.085C573.485 564.985 574.235 565.735 575.135 565.735ZM586.826 583.885C590.726 583.885 592.196 581.215 592.196 581.185H592.226V583.585H594.626V562.585H592.226V570.985H592.196C592.196 570.955 590.726 568.285 586.826 568.285C582.926 568.285 579.626 571.585 579.626 576.085C579.626 580.585 582.926 583.885 586.826 583.885ZM587.126 581.635C584.276 581.635 582.026 579.385 582.026 576.085C582.026 572.785 584.276 570.535 587.126 570.535C589.976 570.535 592.226 572.785 592.226 576.085C592.226 579.385 589.976 581.635 587.126 581.635ZM603.637 583.885C607.567 583.885 609.157 581.185 609.157 581.185H609.187V583.585H611.587V573.985C611.587 570.535 609.337 568.285 605.437 568.285C599.737 568.285 598.837 573.085 598.837 573.085H601.237C601.237 573.085 601.987 570.535 605.437 570.535C607.837 570.535 609.187 571.885 609.187 573.985V574.585H604.237C600.277 574.585 598.237 576.685 598.237 579.235C598.237 581.935 600.187 583.885 603.637 583.885ZM604.087 581.635C601.687 581.635 600.637 580.585 600.637 579.235C600.637 577.885 601.687 576.835 604.087 576.835H609.187C609.187 579.535 607.237 581.635 604.087 581.635ZM616.224 583.585H623.574V581.335H618.624V570.835H623.424V568.585H618.624V565.285H616.224V568.585H614.274V570.835H616.224V583.585ZM633.331 583.885C639.031 583.885 640.681 578.935 640.681 578.935H638.281C638.281 578.935 636.931 581.635 633.331 581.635C630.601 581.635 628.381 579.625 628.081 576.835H640.981V575.935C640.981 571.585 637.681 568.285 633.331 568.285C628.981 568.285 625.681 571.585 625.681 576.085C625.681 580.585 628.981 583.885 633.331 583.885ZM628.141 574.735C628.531 572.485 630.481 570.535 633.331 570.535C636.181 570.535 638.131 572.485 638.431 574.735H628.141Z" fill="white"/>
<rect x="410.5" y="682.92" width="315.278" height="63.4545" stroke="#6347F5" stroke-width="3"/>
<path d="M491.676 725.185C496.776 725.185 499.626 722.335 499.626 719.035C499.626 711.535 486.576 713.935 486.576 708.985C486.576 707.185 488.226 705.535 491.376 705.535C496.026 705.535 496.776 708.835 496.776 708.835H499.476C499.476 708.835 498.486 702.985 491.376 702.985C486.726 702.985 483.876 705.835 483.876 708.985C483.876 716.485 496.926 713.935 496.926 719.035C496.926 720.985 495.276 722.635 491.676 722.635C486.576 722.635 485.676 718.585 485.676 718.585H482.976C482.976 718.585 484.026 725.185 491.676 725.185ZM503.066 724.585H505.466V716.485C505.466 713.485 507.416 711.535 510.116 711.535C512.516 711.535 514.166 712.885 514.166 715.885V724.585H516.566V715.735C516.566 711.685 514.166 709.285 510.566 709.285C506.966 709.285 505.496 711.835 505.496 711.835H505.466V703.585H503.066V724.585ZM525.268 724.885C529.198 724.885 530.788 722.185 530.788 722.185H530.818V724.585H533.218V714.985C533.218 711.535 530.968 709.285 527.068 709.285C521.368 709.285 520.468 714.085 520.468 714.085H522.868C522.868 714.085 523.618 711.535 527.068 711.535C529.468 711.535 530.818 712.885 530.818 714.985V715.585H525.868C521.908 715.585 519.868 717.685 519.868 720.235C519.868 722.935 521.818 724.885 525.268 724.885ZM525.718 722.635C523.318 722.635 522.268 721.585 522.268 720.235C522.268 718.885 523.318 717.835 525.718 717.835H530.818C530.818 720.535 528.868 722.635 525.718 722.635ZM537.255 724.585H539.655V716.485C539.655 713.785 541.605 711.835 544.305 711.835H546.105V709.435H544.305C540.855 709.435 539.685 711.985 539.685 711.985H539.655V709.585H537.255V724.585ZM554.951 724.885C558.851 724.885 560.321 722.215 560.321 722.185H560.351V724.585H562.751V703.585H560.351V711.985H560.321C560.321 711.955 558.851 709.285 554.951 709.285C551.051 709.285 547.751 712.585 547.751 717.085C547.751 721.585 551.051 724.885 554.951 724.885ZM555.251 722.635C552.401 722.635 550.151 720.385 550.151 717.085C550.151 713.785 552.401 711.535 555.251 711.535C558.101 711.535 560.351 713.785 560.351 717.085C560.351 720.385 558.101 722.635 555.251 722.635ZM585.57 725.185C593.97 725.185 596.07 717.085 596.07 717.085H593.37C593.37 717.085 591.72 722.635 585.57 722.635C580.77 722.635 577.32 719.185 577.32 714.085C577.32 708.985 580.77 705.535 585.57 705.535C591.57 705.535 593.22 710.635 593.22 710.635H595.92C595.92 710.635 594.12 702.985 585.57 702.985C579.27 702.985 574.62 707.635 574.62 714.085C574.62 720.535 579.27 725.185 585.57 725.185ZM599.364 724.585H601.764V716.485C601.764 713.485 603.714 711.535 606.414 711.535C608.814 711.535 610.464 712.885 610.464 715.885V724.585H612.864V715.735C612.864 711.685 610.464 709.285 606.864 709.285C603.264 709.285 601.794 711.835 601.794 711.835H601.764V703.585H599.364V724.585ZM621.567 724.885C625.497 724.885 627.087 722.185 627.087 722.185H627.117V724.585H629.517V714.985C629.517 711.535 627.267 709.285 623.367 709.285C617.667 709.285 616.767 714.085 616.767 714.085H619.167C619.167 714.085 619.917 711.535 623.367 711.535C625.767 711.535 627.117 712.885 627.117 714.985V715.585H622.167C618.207 715.585 616.167 717.685 616.167 720.235C616.167 722.935 618.117 724.885 621.567 724.885ZM622.017 722.635C619.617 722.635 618.567 721.585 618.567 720.235C618.567 718.885 619.617 717.835 622.017 717.835H627.117C627.117 720.535 625.167 722.635 622.017 722.635ZM633.554 724.585H635.954V709.585H633.554V724.585ZM634.754 706.735C635.654 706.735 636.404 705.985 636.404 705.085C636.404 704.185 635.654 703.435 634.754 703.435C633.854 703.435 633.104 704.185 633.104 705.085C633.104 705.985 633.854 706.735 634.754 706.735ZM640.146 724.585H642.546V716.485C642.546 713.485 644.496 711.535 647.196 711.535C649.596 711.535 651.246 712.885 651.246 715.885V724.585H653.646V715.735C653.646 711.685 651.246 709.285 647.646 709.285C644.046 709.285 642.576 711.835 642.576 711.835H642.546V709.585H640.146V724.585Z" fill="white"/>
<rect x="410.5" y="823.92" width="315.278" height="63.4545" stroke="#6347F5" stroke-width="3"/>
<path d="M475.929 865.585H478.629V847.585L478.599 847.285H478.659L484.779 860.485H489.729L495.849 847.285H495.909L495.879 847.585V865.585H498.579V844.585H494.229L487.929 858.085H486.579L480.279 844.585H475.929V865.585ZM507.88 865.885C511.81 865.885 513.4 863.185 513.4 863.185H513.43V865.585H515.83V855.985C515.83 852.535 513.58 850.285 509.68 850.285C503.98 850.285 503.08 855.085 503.08 855.085H505.48C505.48 855.085 506.23 852.535 509.68 852.535C512.08 852.535 513.43 853.885 513.43 855.985V856.585H508.48C504.52 856.585 502.48 858.685 502.48 861.235C502.48 863.935 504.43 865.885 507.88 865.885ZM508.33 863.635C505.93 863.635 504.88 862.585 504.88 861.235C504.88 859.885 505.93 858.835 508.33 858.835H513.43C513.43 861.535 511.48 863.635 508.33 863.635ZM525.717 865.885C529.767 865.885 531.867 863.785 531.867 861.385C531.867 855.685 521.967 857.635 521.967 854.485C521.967 853.585 523.017 852.535 525.267 852.535C528.417 852.535 529.167 854.785 529.167 854.785H531.717C531.717 854.785 530.847 850.285 525.267 850.285C521.517 850.285 519.567 852.235 519.567 854.485C519.567 860.185 529.467 858.235 529.467 861.385C529.467 862.585 528.417 863.635 525.717 863.635C522.267 863.635 521.367 860.935 521.367 860.935H518.817C518.817 860.935 519.867 865.885 525.717 865.885ZM535.76 865.585H543.11V863.335H538.16V852.835H542.96V850.585H538.16V847.285H535.76V850.585H533.81V852.835H535.76V865.585ZM552.867 865.885C558.567 865.885 560.217 860.935 560.217 860.935H557.817C557.817 860.935 556.467 863.635 552.867 863.635C550.137 863.635 547.917 861.625 547.617 858.835H560.517V857.935C560.517 853.585 557.217 850.285 552.867 850.285C548.517 850.285 545.217 853.585 545.217 858.085C545.217 862.585 548.517 865.885 552.867 865.885ZM547.677 856.735C548.067 854.485 550.017 852.535 552.867 852.535C555.717 852.535 557.667 854.485 557.967 856.735H547.677ZM563.813 865.585H566.213V857.485C566.213 854.785 568.163 852.835 570.863 852.835H572.663V850.435H570.863C567.413 850.435 566.243 852.985 566.243 852.985H566.213V850.585H563.813V865.585ZM593.817 866.185C602.217 866.185 604.317 858.085 604.317 858.085H601.617C601.617 858.085 599.967 863.635 593.817 863.635C589.017 863.635 585.567 860.185 585.567 855.085C585.567 849.985 589.017 846.535 593.817 846.535C599.817 846.535 601.467 851.635 601.467 851.635H604.167C604.167 851.635 602.367 843.985 593.817 843.985C587.517 843.985 582.867 848.635 582.867 855.085C582.867 861.535 587.517 866.185 593.817 866.185ZM607.611 865.585H610.011V857.485C610.011 854.485 611.961 852.535 614.661 852.535C617.061 852.535 618.711 853.885 618.711 856.885V865.585H621.111V856.735C621.111 852.685 618.711 850.285 615.111 850.285C611.511 850.285 610.041 852.835 610.041 852.835H610.011V844.585H607.611V865.585ZM629.814 865.885C633.744 865.885 635.334 863.185 635.334 863.185H635.364V865.585H637.764V855.985C637.764 852.535 635.514 850.285 631.614 850.285C625.914 850.285 625.014 855.085 625.014 855.085H627.414C627.414 855.085 628.164 852.535 631.614 852.535C634.014 852.535 635.364 853.885 635.364 855.985V856.585H630.414C626.454 856.585 624.414 858.685 624.414 861.235C624.414 863.935 626.364 865.885 629.814 865.885ZM630.264 863.635C627.864 863.635 626.814 862.585 626.814 861.235C626.814 859.885 627.864 858.835 630.264 858.835H635.364C635.364 861.535 633.414 863.635 630.264 863.635ZM641.801 865.585H644.201V850.585H641.801V865.585ZM643.001 847.735C643.901 847.735 644.651 846.985 644.651 846.085C644.651 845.185 643.901 844.435 643.001 844.435C642.101 844.435 641.351 845.185 641.351 846.085C641.351 846.985 642.101 847.735 643.001 847.735ZM648.393 865.585H650.793V857.485C650.793 854.485 652.743 852.535 655.443 852.535C657.843 852.535 659.493 853.885 659.493 856.885V865.585H661.893V856.735C661.893 852.685 659.493 850.285 655.893 850.285C652.293 850.285 650.823 852.835 650.823 852.835H650.793V850.585H648.393V865.585Z" fill="white"/>
<path d="M1056.5 301H1059.2V282.55H1066.4V280H1049.3V282.55H1056.5V301ZM1068.8 301H1071.2V286H1068.8V301ZM1070 283.15C1070.9 283.15 1071.65 282.4 1071.65 281.5C1071.65 280.6 1070.9 279.85 1070 279.85C1069.1 279.85 1068.35 280.6 1068.35 281.5C1068.35 282.4 1069.1 283.15 1070 283.15ZM1075.39 301H1077.79V292.6C1077.79 290.05 1079.89 287.95 1082.29 287.95C1084.39 287.95 1085.89 289.48 1085.89 292.3V301H1088.29V292.6C1088.29 290.05 1090.39 287.95 1092.79 287.95C1094.89 287.95 1096.39 289.45 1096.39 292.3V301H1098.79V292.15C1098.79 288.1 1096.39 285.7 1093.24 285.7C1089.19 285.7 1087.69 288.7 1087.69 288.7H1087.54C1087.54 288.7 1086.34 285.7 1082.74 285.7C1079.14 285.7 1077.82 288.25 1077.82 288.25H1077.79V286H1075.39V301ZM1109.59 301.3C1115.29 301.3 1116.94 296.35 1116.94 296.35H1114.54C1114.54 296.35 1113.19 299.05 1109.59 299.05C1106.86 299.05 1104.64 297.04 1104.34 294.25H1117.24V293.35C1117.24 289 1113.94 285.7 1109.59 285.7C1105.24 285.7 1101.94 289 1101.94 293.5C1101.94 298 1105.24 301.3 1109.59 301.3ZM1104.4 292.15C1104.79 289.9 1106.74 287.95 1109.59 287.95C1112.44 287.95 1114.39 289.9 1114.69 292.15H1104.4ZM1127.43 301.3C1131.93 301.3 1135.23 298 1135.23 293.5C1135.23 289 1131.93 285.7 1127.43 285.7C1122.93 285.7 1119.63 289 1119.63 293.5C1119.63 298 1122.93 301.3 1127.43 301.3ZM1127.43 299.05C1124.28 299.05 1122.03 296.8 1122.03 293.5C1122.03 290.2 1124.28 287.95 1127.43 287.95C1130.58 287.95 1132.83 290.2 1132.83 293.5C1132.83 296.8 1130.58 299.05 1127.43 299.05ZM1144.52 301.3C1148.12 301.3 1149.59 298.75 1149.59 298.75H1149.62V301H1152.02V286H1149.62V294.1C1149.62 297.1 1147.67 299.05 1144.97 299.05C1142.57 299.05 1140.92 297.7 1140.92 294.7V286H1138.52V294.85C1138.52 298.9 1140.92 301.3 1144.52 301.3ZM1156.82 301H1164.17V298.75H1159.22V288.25H1164.02V286H1159.22V282.7H1156.82V286H1154.87V288.25H1156.82V301Z" fill="#AF9FFF"/>
<path d="M1051.4 443H1054.1V435.2H1059.65L1064.75 443H1067.9L1062.5 434.9C1066.04 434.15 1068.05 431.69 1068.05 428.6C1068.05 424.85 1065.2 422 1060.4 422H1051.4V443ZM1054.1 432.65V424.55H1060.4C1063.7 424.55 1065.35 426.2 1065.35 428.6C1065.35 431 1063.7 432.65 1060.4 432.65H1054.1ZM1077.8 443.3C1083.5 443.3 1085.15 438.35 1085.15 438.35H1082.75C1082.75 438.35 1081.4 441.05 1077.8 441.05C1075.07 441.05 1072.85 439.04 1072.55 436.25H1085.45V435.35C1085.45 431 1082.15 427.7 1077.8 427.7C1073.45 427.7 1070.15 431 1070.15 435.5C1070.15 440 1073.45 443.3 1077.8 443.3ZM1072.61 434.15C1073 431.9 1074.95 429.95 1077.8 429.95C1080.65 429.95 1082.6 431.9 1082.9 434.15H1072.61ZM1084.4 448.7H1091.15V428H1088.75V446.45H1084.4V448.7ZM1089.95 425.15C1090.85 425.15 1091.6 424.4 1091.6 423.5C1091.6 422.6 1090.85 421.85 1089.95 421.85C1089.05 421.85 1088.3 422.6 1088.3 423.5C1088.3 424.4 1089.05 425.15 1089.95 425.15ZM1102.09 443.3C1107.79 443.3 1109.44 438.35 1109.44 438.35H1107.04C1107.04 438.35 1105.69 441.05 1102.09 441.05C1099.36 441.05 1097.14 439.04 1096.84 436.25H1109.74V435.35C1109.74 431 1106.44 427.7 1102.09 427.7C1097.74 427.7 1094.44 431 1094.44 435.5C1094.44 440 1097.74 443.3 1102.09 443.3ZM1096.9 434.15C1097.29 431.9 1099.24 429.95 1102.09 429.95C1104.94 429.95 1106.89 431.9 1107.19 434.15H1096.9ZM1119.63 443.3C1125.78 443.3 1126.98 437.75 1126.98 437.75H1124.58C1124.58 437.75 1123.53 441.05 1119.63 441.05C1116.9 441.05 1114.53 438.83 1114.53 435.5C1114.53 432.2 1116.78 429.95 1119.63 429.95C1123.38 429.95 1124.43 432.95 1124.43 432.95H1126.83C1126.83 432.95 1125.63 427.7 1119.63 427.7C1115.43 427.7 1112.13 431 1112.13 435.5C1112.13 440 1115.43 443.3 1119.63 443.3ZM1130.6 443H1137.95V440.75H1133V430.25H1137.8V428H1133V424.7H1130.6V428H1128.65V430.25H1130.6V443ZM1147.7 443.3C1153.4 443.3 1155.05 438.35 1155.05 438.35H1152.65C1152.65 438.35 1151.3 441.05 1147.7 441.05C1144.97 441.05 1142.75 439.04 1142.45 436.25H1155.35V435.35C1155.35 431 1152.05 427.7 1147.7 427.7C1143.35 427.7 1140.05 431 1140.05 435.5C1140.05 440 1143.35 443.3 1147.7 443.3ZM1142.51 434.15C1142.9 431.9 1144.85 429.95 1147.7 429.95C1150.55 429.95 1152.5 431.9 1152.8 434.15H1142.51ZM1164.95 443.3C1168.85 443.3 1170.32 440.63 1170.32 440.6H1170.35V443H1172.75V422H1170.35V430.4H1170.32C1170.32 430.37 1168.85 427.7 1164.95 427.7C1161.05 427.7 1157.75 431 1157.75 435.5C1157.75 440 1161.05 443.3 1164.95 443.3ZM1165.25 441.05C1162.4 441.05 1160.15 438.8 1160.15 435.5C1160.15 432.2 1162.4 429.95 1165.25 429.95C1168.1 429.95 1170.35 432.2 1170.35 435.5C1170.35 438.8 1168.1 441.05 1165.25 441.05ZM1193.17 443.3C1197.07 443.3 1200.37 440 1200.37 435.5C1200.37 431 1197.07 427.7 1193.17 427.7C1189.27 427.7 1187.8 430.37 1187.8 430.4H1187.77V422H1185.37V443H1187.77V440.6H1187.8C1187.8 440.63 1189.27 443.3 1193.17 443.3ZM1192.87 441.05C1190.02 441.05 1187.77 438.8 1187.77 435.5C1187.77 432.2 1190.02 429.95 1192.87 429.95C1195.72 429.95 1197.97 432.2 1197.97 435.5C1197.97 438.8 1195.72 441.05 1192.87 441.05ZM1207.88 448.7H1210.43L1216.73 428H1214.18L1210.28 440.75H1208.03L1204.73 428H1202.18L1206.23 443H1209.68L1207.88 448.7ZM1237.43 443.6C1245.83 443.6 1247.93 435.5 1247.93 435.5H1245.23C1245.23 435.5 1243.58 441.05 1237.43 441.05C1232.63 441.05 1229.18 437.6 1229.18 432.5C1229.18 427.4 1232.63 423.95 1237.43 423.95C1243.43 423.95 1245.08 429.05 1245.08 429.05H1247.78C1247.78 429.05 1245.98 421.4 1237.43 421.4C1231.13 421.4 1226.48 426.05 1226.48 432.5C1226.48 438.95 1231.13 443.6 1237.43 443.6ZM1258.13 443.3C1262.63 443.3 1265.93 440 1265.93 435.5C1265.93 431 1262.63 427.7 1258.13 427.7C1253.63 427.7 1250.33 431 1250.33 435.5C1250.33 440 1253.63 443.3 1258.13 443.3ZM1258.13 441.05C1254.98 441.05 1252.73 438.8 1252.73 435.5C1252.73 432.2 1254.98 429.95 1258.13 429.95C1261.28 429.95 1263.53 432.2 1263.53 435.5C1263.53 438.8 1261.28 441.05 1258.13 441.05ZM1269.22 443H1275.07V440.75H1271.62V422H1269.22V443ZM1277.48 443H1283.33V440.75H1279.88V422H1277.48V443ZM1290.54 443.3C1294.47 443.3 1296.06 440.6 1296.06 440.6H1296.09V443H1298.49V433.4C1298.49 429.95 1296.24 427.7 1292.34 427.7C1286.64 427.7 1285.74 432.5 1285.74 432.5H1288.14C1288.14 432.5 1288.89 429.95 1292.34 429.95C1294.74 429.95 1296.09 431.3 1296.09 433.4V434H1291.14C1287.18 434 1285.14 436.1 1285.14 438.65C1285.14 441.35 1287.09 443.3 1290.54 443.3ZM1290.99 441.05C1288.59 441.05 1287.54 440 1287.54 438.65C1287.54 437.3 1288.59 436.25 1290.99 436.25H1296.09C1296.09 438.95 1294.14 441.05 1290.99 441.05ZM1303.13 443H1310.48V440.75H1305.53V430.25H1310.33V428H1305.53V424.7H1303.13V428H1301.18V430.25H1303.13V443ZM1320.38 443.3C1324.88 443.3 1328.18 440 1328.18 435.5C1328.18 431 1324.88 427.7 1320.38 427.7C1315.88 427.7 1312.58 431 1312.58 435.5C1312.58 440 1315.88 443.3 1320.38 443.3ZM1320.38 441.05C1317.23 441.05 1314.98 438.8 1314.98 435.5C1314.98 432.2 1317.23 429.95 1320.38 429.95C1323.53 429.95 1325.78 432.2 1325.78 435.5C1325.78 438.8 1323.53 441.05 1320.38 441.05ZM1331.47 443H1333.87V434.9C1333.87 432.2 1335.82 430.25 1338.52 430.25H1340.32V427.85H1338.52C1335.07 427.85 1333.9 430.4 1333.9 430.4H1333.87V428H1331.47V443Z" fill="#AF9FFF"/>
<path d="M1051.4 114H1054.1V106.2H1059.65L1064.75 114H1067.9L1062.5 105.9C1066.04 105.15 1068.05 102.69 1068.05 99.6C1068.05 95.85 1065.2 93 1060.4 93H1051.4V114ZM1054.1 103.65V95.55H1060.4C1063.7 95.55 1065.35 97.2 1065.35 99.6C1065.35 102 1063.7 103.65 1060.4 103.65H1054.1ZM1077.8 114.3C1083.5 114.3 1085.15 109.35 1085.15 109.35H1082.75C1082.75 109.35 1081.4 112.05 1077.8 112.05C1075.07 112.05 1072.85 110.04 1072.55 107.25H1085.45V106.35C1085.45 102 1082.15 98.7 1077.8 98.7C1073.45 98.7 1070.15 102 1070.15 106.5C1070.15 111 1073.45 114.3 1077.8 114.3ZM1072.61 105.15C1073 102.9 1074.95 100.95 1077.8 100.95C1080.65 100.95 1082.6 102.9 1082.9 105.15H1072.61ZM1084.4 119.7H1091.15V99H1088.75V117.45H1084.4V119.7ZM1089.95 96.15C1090.85 96.15 1091.6 95.4 1091.6 94.5C1091.6 93.6 1090.85 92.85 1089.95 92.85C1089.05 92.85 1088.3 93.6 1088.3 94.5C1088.3 95.4 1089.05 96.15 1089.95 96.15ZM1102.09 114.3C1107.79 114.3 1109.44 109.35 1109.44 109.35H1107.04C1107.04 109.35 1105.69 112.05 1102.09 112.05C1099.36 112.05 1097.14 110.04 1096.84 107.25H1109.74V106.35C1109.74 102 1106.44 98.7 1102.09 98.7C1097.74 98.7 1094.44 102 1094.44 106.5C1094.44 111 1097.74 114.3 1102.09 114.3ZM1096.9 105.15C1097.29 102.9 1099.24 100.95 1102.09 100.95C1104.94 100.95 1106.89 102.9 1107.19 105.15H1096.9ZM1119.63 114.3C1125.78 114.3 1126.98 108.75 1126.98 108.75H1124.58C1124.58 108.75 1123.53 112.05 1119.63 112.05C1116.9 112.05 1114.53 109.83 1114.53 106.5C1114.53 103.2 1116.78 100.95 1119.63 100.95C1123.38 100.95 1124.43 103.95 1124.43 103.95H1126.83C1126.83 103.95 1125.63 98.7 1119.63 98.7C1115.43 98.7 1112.13 102 1112.13 106.5C1112.13 111 1115.43 114.3 1119.63 114.3ZM1130.6 114H1137.95V111.75H1133V101.25H1137.8V99H1133V95.7H1130.6V99H1128.65V101.25H1130.6V114ZM1147.7 114.3C1153.4 114.3 1155.05 109.35 1155.05 109.35H1152.65C1152.65 109.35 1151.3 112.05 1147.7 112.05C1144.97 112.05 1142.75 110.04 1142.45 107.25H1155.35V106.35C1155.35 102 1152.05 98.7 1147.7 98.7C1143.35 98.7 1140.05 102 1140.05 106.5C1140.05 111 1143.35 114.3 1147.7 114.3ZM1142.51 105.15C1142.9 102.9 1144.85 100.95 1147.7 100.95C1150.55 100.95 1152.5 102.9 1152.8 105.15H1142.51ZM1164.95 114.3C1168.85 114.3 1170.32 111.63 1170.32 111.6H1170.35V114H1172.75V93H1170.35V101.4H1170.32C1170.32 101.37 1168.85 98.7 1164.95 98.7C1161.05 98.7 1157.75 102 1157.75 106.5C1157.75 111 1161.05 114.3 1164.95 114.3ZM1165.25 112.05C1162.4 112.05 1160.15 109.8 1160.15 106.5C1160.15 103.2 1162.4 100.95 1165.25 100.95C1168.1 100.95 1170.35 103.2 1170.35 106.5C1170.35 109.8 1168.1 112.05 1165.25 112.05ZM1193.17 114.3C1197.07 114.3 1200.37 111 1200.37 106.5C1200.37 102 1197.07 98.7 1193.17 98.7C1189.27 98.7 1187.8 101.37 1187.8 101.4H1187.77V93H1185.37V114H1187.77V111.6H1187.8C1187.8 111.63 1189.27 114.3 1193.17 114.3ZM1192.87 112.05C1190.02 112.05 1187.77 109.8 1187.77 106.5C1187.77 103.2 1190.02 100.95 1192.87 100.95C1195.72 100.95 1197.97 103.2 1197.97 106.5C1197.97 109.8 1195.72 112.05 1192.87 112.05ZM1207.88 119.7H1210.43L1216.73 99H1214.18L1210.28 111.75H1208.03L1204.73 99H1202.18L1206.23 114H1209.68L1207.88 119.7ZM1227.53 114H1230.23V105.3H1239.38V102.75H1230.23V95.55H1241.78V93H1227.53V114ZM1250.05 114.3C1253.65 114.3 1255.12 111.75 1255.12 111.75H1255.15V114H1257.55V99H1255.15V107.1C1255.15 110.1 1253.2 112.05 1250.5 112.05C1248.1 112.05 1246.45 110.7 1246.45 107.7V99H1244.05V107.85C1244.05 111.9 1246.45 114.3 1250.05 114.3ZM1261.74 114H1267.59V111.75H1264.14V93H1261.74V114ZM1270.01 114H1275.86V111.75H1272.41V93H1270.01V114ZM1286.98 114L1289.68 113.97V96.6L1289.65 96.3H1289.71L1300.03 114H1303.93V93H1301.23V110.4L1301.26 110.7H1301.2L1290.88 93H1286.98V114ZM1315.31 114.3C1319.81 114.3 1323.11 111 1323.11 106.5C1323.11 102 1319.81 98.7 1315.31 98.7C1310.81 98.7 1307.51 102 1307.51 106.5C1307.51 111 1310.81 114.3 1315.31 114.3ZM1315.31 112.05C1312.16 112.05 1309.91 109.8 1309.91 106.5C1309.91 103.2 1312.16 100.95 1315.31 100.95C1318.46 100.95 1320.71 103.2 1320.71 106.5C1320.71 109.8 1318.46 112.05 1315.31 112.05ZM1332.7 114.3C1336.6 114.3 1338.07 111.63 1338.07 111.6H1338.1V114H1340.5V93H1338.1V101.4H1338.07C1338.07 101.37 1336.6 98.7 1332.7 98.7C1328.8 98.7 1325.5 102 1325.5 106.5C1325.5 111 1328.8 114.3 1332.7 114.3ZM1333 112.05C1330.15 112.05 1327.9 109.8 1327.9 106.5C1327.9 103.2 1330.15 100.95 1333 100.95C1335.85 100.95 1338.1 103.2 1338.1 106.5C1338.1 109.8 1335.85 112.05 1333 112.05ZM1351.46 114.3C1357.16 114.3 1358.81 109.35 1358.81 109.35H1356.41C1356.41 109.35 1355.06 112.05 1351.46 112.05C1348.73 112.05 1346.51 110.04 1346.21 107.25H1359.11V106.35C1359.11 102 1355.81 98.7 1351.46 98.7C1347.11 98.7 1343.81 102 1343.81 106.5C1343.81 111 1347.11 114.3 1351.46 114.3ZM1346.27 105.15C1346.66 102.9 1348.61 100.95 1351.46 100.95C1354.31 100.95 1356.26 102.9 1356.56 105.15H1346.27Z" fill="#AF9FFF"/>
<path d="M603.08 235L605.42 234.974V219.92L605.394 219.66H605.446L614.39 235H617.77V216.8H615.43V231.88L615.456 232.14H615.404L606.46 216.8H603.08V235ZM627.51 235.26C632.45 235.26 633.88 230.97 633.88 230.97H631.8C631.8 230.97 630.63 233.31 627.51 233.31C625.144 233.31 623.22 231.568 622.96 229.15H634.14V228.37C634.14 224.6 631.28 221.74 627.51 221.74C623.74 221.74 620.88 224.6 620.88 228.5C620.88 232.4 623.74 235.26 627.51 235.26ZM623.012 227.33C623.35 225.38 625.04 223.69 627.51 223.69C629.98 223.69 631.67 225.38 631.93 227.33H623.012ZM638.816 235H642.846L645.056 223.95H645.446L647.656 235H651.686L654.546 222H652.336L649.996 233.05H649.346L647.136 222H643.366L641.156 233.05H640.506L638.166 222H635.956L638.816 235ZM670.683 239.55L671.723 237.99C671.723 237.99 666.653 234.09 666.653 227.46C666.653 220.83 671.723 216.93 671.723 216.93L670.683 215.37C670.683 215.37 664.443 219.66 664.443 227.46C664.443 235.26 670.683 239.55 670.683 239.55ZM677.056 235H681.216L684.466 219.01H685.116L688.366 235H692.526L696.556 216.8H694.086L690.706 232.79H690.056L686.676 216.8H682.906L679.526 232.79H678.876L675.496 216.8H673.026L677.056 235ZM704.215 235.26C709.155 235.26 710.585 230.97 710.585 230.97H708.505C708.505 230.97 707.335 233.31 704.215 233.31C701.849 233.31 699.925 231.568 699.665 229.15H710.845V228.37C710.845 224.6 707.985 221.74 704.215 221.74C700.445 221.74 697.585 224.6 697.585 228.5C697.585 232.4 700.445 235.26 704.215 235.26ZM699.717 227.33C700.055 225.38 701.745 223.69 704.215 223.69C706.685 223.69 708.375 225.38 708.635 227.33H699.717ZM717.861 235.26C721.267 235.26 722.645 232.92 722.645 232.92H722.671V235H724.751V226.68C724.751 223.69 722.801 221.74 719.421 221.74C714.481 221.74 713.701 225.9 713.701 225.9H715.781C715.781 225.9 716.431 223.69 719.421 223.69C721.501 223.69 722.671 224.86 722.671 226.68V227.2H718.381C714.949 227.2 713.181 229.02 713.181 231.23C713.181 233.57 714.871 235.26 717.861 235.26ZM718.251 233.31C716.171 233.31 715.261 232.4 715.261 231.23C715.261 230.06 716.171 229.15 718.251 229.15H722.671C722.671 231.49 720.981 233.31 718.251 233.31ZM728.25 235H730.33V229.15H732.93L737.35 235H739.95L734.75 228.11L739.56 222H737.09L732.93 227.2H730.33V216.8H728.25V235ZM749.457 235H751.797V227.46H759.727V225.25H751.797V219.01H761.807V216.8H749.457V235ZM764.279 235H766.359V222H764.279V235ZM765.319 219.53C766.099 219.53 766.749 218.88 766.749 218.1C766.749 217.32 766.099 216.67 765.319 216.67C764.539 216.67 763.889 217.32 763.889 218.1C763.889 218.88 764.539 219.53 765.319 219.53ZM769.992 235H772.072V227.98C772.072 225.38 773.762 223.69 776.102 223.69C778.182 223.69 779.612 224.86 779.612 227.46V235H781.692V227.33C781.692 223.82 779.612 221.74 776.492 221.74C773.372 221.74 772.098 223.95 772.098 223.95H772.072V222H769.992V235ZM789.361 235.26C792.767 235.26 794.145 232.92 794.145 232.92H794.171V235H796.251V226.68C796.251 223.69 794.301 221.74 790.921 221.74C785.981 221.74 785.201 225.9 785.201 225.9H787.281C787.281 225.9 787.931 223.69 790.921 223.69C793.001 223.69 794.171 224.86 794.171 226.68V227.2H789.881C786.449 227.2 784.681 229.02 784.681 231.23C784.681 233.57 786.371 235.26 789.361 235.26ZM789.751 233.31C787.671 233.31 786.761 232.4 786.761 231.23C786.761 230.06 787.671 229.15 789.751 229.15H794.171C794.171 231.49 792.481 233.31 789.751 233.31ZM799.75 235H804.82V233.05H801.83V216.8H799.75V235ZM806.91 235H808.99V222H806.91V235ZM807.95 219.53C808.73 219.53 809.38 218.88 809.38 218.1C809.38 217.32 808.73 216.67 807.95 216.67C807.17 216.67 806.52 217.32 806.52 218.1C806.52 218.88 807.17 219.53 807.95 219.53ZM813.143 235H819.513V233.05H815.223V223.95H819.383V222H815.223V219.14H813.143V222H811.453V223.95H813.143V235ZM825.759 239.94H827.969L833.429 222H831.219L827.839 233.05H825.889L823.029 222H820.819L824.329 235H827.319L825.759 239.94ZM834.986 239.55C834.986 239.55 841.226 235.26 841.226 227.46C841.226 219.66 834.986 215.37 834.986 215.37L833.946 216.93C833.946 216.93 839.016 220.83 839.016 227.46C839.016 234.09 833.946 237.99 833.946 237.99L834.986 239.55Z" fill="white"/>
<path d="M601.52 371H603.86L605.29 365.67H614.26L615.69 371H618.03L613.35 352.8H606.2L601.52 371ZM605.81 363.46L608.02 355.01H611.53L613.74 363.46H605.81ZM626.085 371.26C631.415 371.26 632.455 366.45 632.455 366.45H630.375C630.375 366.45 629.465 369.31 626.085 369.31C623.719 369.31 621.665 367.386 621.665 364.5C621.665 361.64 623.615 359.69 626.085 359.69C629.335 359.69 630.245 362.29 630.245 362.29H632.325C632.325 362.29 631.285 357.74 626.085 357.74C622.445 357.74 619.585 360.6 619.585 364.5C619.585 368.4 622.445 371.26 626.085 371.26ZM640.786 371.26C646.116 371.26 647.156 366.45 647.156 366.45H645.076C645.076 366.45 644.166 369.31 640.786 369.31C638.42 369.31 636.366 367.386 636.366 364.5C636.366 361.64 638.316 359.69 640.786 359.69C644.036 359.69 644.946 362.29 644.946 362.29H647.026C647.026 362.29 645.986 357.74 640.786 357.74C637.146 357.74 634.286 360.6 634.286 364.5C634.286 368.4 637.146 371.26 640.786 371.26ZM655.617 371.26C660.557 371.26 661.987 366.97 661.987 366.97H659.907C659.907 366.97 658.737 369.31 655.617 369.31C653.251 369.31 651.327 367.568 651.067 365.15H662.247V364.37C662.247 360.6 659.387 357.74 655.617 357.74C651.847 357.74 648.987 360.6 648.987 364.5C648.987 368.4 651.847 371.26 655.617 371.26ZM651.119 363.33C651.457 361.38 653.147 359.69 655.617 359.69C658.087 359.69 659.777 361.38 660.037 363.33H651.119ZM665.103 375.94H667.183V368.92H667.209C667.209 368.946 668.483 371.26 671.863 371.26C675.243 371.26 678.103 368.4 678.103 364.5C678.103 360.6 675.243 357.74 671.863 357.74C668.483 357.74 667.209 360.054 667.209 360.08H667.183V358H665.103V375.94ZM671.603 369.31C669.133 369.31 667.183 367.36 667.183 364.5C667.183 361.64 669.133 359.69 671.603 359.69C674.073 359.69 676.023 361.64 676.023 364.5C676.023 367.36 674.073 369.31 671.603 369.31ZM681.492 371H687.862V369.05H683.572V359.95H687.732V358H683.572V355.14H681.492V358H679.802V359.95H681.492V371ZM696.318 371.26C701.258 371.26 702.688 366.97 702.688 366.97H700.608C700.608 366.97 699.438 369.31 696.318 369.31C693.952 369.31 692.028 367.568 691.768 365.15H702.948V364.37C702.948 360.6 700.088 357.74 696.318 357.74C692.548 357.74 689.688 360.6 689.688 364.5C689.688 368.4 692.548 371.26 696.318 371.26ZM691.82 363.33C692.158 361.38 693.848 359.69 696.318 359.69C698.788 359.69 700.478 361.38 700.738 363.33H691.82ZM711.264 371.26C714.644 371.26 715.918 368.946 715.918 368.92H715.944V371H718.024V352.8H715.944V360.08H715.918C715.918 360.054 714.644 357.74 711.264 357.74C707.884 357.74 705.024 360.6 705.024 364.5C705.024 368.4 707.884 371.26 711.264 371.26ZM711.524 369.31C709.054 369.31 707.104 367.36 707.104 364.5C707.104 361.64 709.054 359.69 711.524 359.69C713.994 359.69 715.944 361.64 715.944 364.5C715.944 367.36 713.994 369.31 711.524 369.31ZM735.721 371.26C739.101 371.26 741.961 368.4 741.961 364.5C741.961 360.6 739.101 357.74 735.721 357.74C732.341 357.74 731.067 360.054 731.067 360.08H731.041V352.8H728.961V371H731.041V368.92H731.067C731.067 368.946 732.341 371.26 735.721 371.26ZM735.461 369.31C732.991 369.31 731.041 367.36 731.041 364.5C731.041 361.64 732.991 359.69 735.461 359.69C737.931 359.69 739.881 361.64 739.881 364.5C739.881 367.36 737.931 369.31 735.461 369.31ZM748.47 375.94H750.68L756.14 358H753.93L750.55 369.05H748.6L745.74 358H743.53L747.04 371H750.03L748.47 375.94ZM772.914 376.2H775.254V371.442C780.064 370.87 783.574 367.1 783.574 361.9C783.574 356.31 779.544 352.28 774.084 352.28C768.624 352.28 764.594 356.31 764.594 361.9C764.594 367.1 768.104 370.87 772.914 371.442V376.2ZM774.084 369.31C769.924 369.31 766.934 366.32 766.934 361.9C766.934 357.48 769.924 354.49 774.084 354.49C778.244 354.49 781.234 357.48 781.234 361.9C781.234 366.32 778.244 369.31 774.084 369.31ZM791.772 371.26C794.892 371.26 796.166 369.05 796.166 369.05H796.192V371H798.272V358H796.192V365.02C796.192 367.62 794.502 369.31 792.162 369.31C790.082 369.31 788.652 368.14 788.652 365.54V358H786.572V365.67C786.572 369.18 788.652 371.26 791.772 371.26ZM807.758 371.26C812.698 371.26 814.128 366.97 814.128 366.97H812.048C812.048 366.97 810.878 369.31 807.758 369.31C805.392 369.31 803.468 367.568 803.208 365.15H814.388V364.37C814.388 360.6 811.528 357.74 807.758 357.74C803.988 357.74 801.128 360.6 801.128 364.5C801.128 368.4 803.988 371.26 807.758 371.26ZM803.26 363.33C803.598 361.38 805.288 359.69 807.758 359.69C810.228 359.69 811.918 361.38 812.178 363.33H803.26ZM822.444 371.26C825.564 371.26 826.838 369.05 826.838 369.05H826.864V371H828.944V358H826.864V365.02C826.864 367.62 825.174 369.31 822.834 369.31C820.754 369.31 819.324 368.14 819.324 365.54V358H817.244V365.67C817.244 369.18 819.324 371.26 822.444 371.26ZM838.43 371.26C843.37 371.26 844.8 366.97 844.8 366.97H842.72C842.72 366.97 841.55 369.31 838.43 369.31C836.064 369.31 834.14 367.568 833.88 365.15H845.06V364.37C845.06 360.6 842.2 357.74 838.43 357.74C834.66 357.74 831.8 360.6 831.8 364.5C831.8 368.4 834.66 371.26 838.43 371.26ZM833.932 363.33C834.27 361.38 835.96 359.69 838.43 359.69C840.9 359.69 842.59 361.38 842.85 363.33H833.932Z" fill="white"/>
<path d="M601.52 512H603.86L605.29 506.67H614.26L615.69 512H618.03L613.35 493.8H606.2L601.52 512ZM605.81 504.46L608.02 496.01H611.53L613.74 504.46H605.81ZM626.085 512.26C631.415 512.26 632.455 507.45 632.455 507.45H630.375C630.375 507.45 629.465 510.31 626.085 510.31C623.719 510.31 621.665 508.386 621.665 505.5C621.665 502.64 623.615 500.69 626.085 500.69C629.335 500.69 630.245 503.29 630.245 503.29H632.325C632.325 503.29 631.285 498.74 626.085 498.74C622.445 498.74 619.585 501.6 619.585 505.5C619.585 509.4 622.445 512.26 626.085 512.26ZM640.786 512.26C646.116 512.26 647.156 507.45 647.156 507.45H645.076C645.076 507.45 644.166 510.31 640.786 510.31C638.42 510.31 636.366 508.386 636.366 505.5C636.366 502.64 638.316 500.69 640.786 500.69C644.036 500.69 644.946 503.29 644.946 503.29H647.026C647.026 503.29 645.986 498.74 640.786 498.74C637.146 498.74 634.286 501.6 634.286 505.5C634.286 509.4 637.146 512.26 640.786 512.26ZM655.617 512.26C660.557 512.26 661.987 507.97 661.987 507.97H659.907C659.907 507.97 658.737 510.31 655.617 510.31C653.251 510.31 651.327 508.568 651.067 506.15H662.247V505.37C662.247 501.6 659.387 498.74 655.617 498.74C651.847 498.74 648.987 501.6 648.987 505.5C648.987 509.4 651.847 512.26 655.617 512.26ZM651.119 504.33C651.457 502.38 653.147 500.69 655.617 500.69C658.087 500.69 659.777 502.38 660.037 504.33H651.119ZM665.103 516.94H667.183V509.92H667.209C667.209 509.946 668.483 512.26 671.863 512.26C675.243 512.26 678.103 509.4 678.103 505.5C678.103 501.6 675.243 498.74 671.863 498.74C668.483 498.74 667.209 501.054 667.209 501.08H667.183V499H665.103V516.94ZM671.603 510.31C669.133 510.31 667.183 508.36 667.183 505.5C667.183 502.64 669.133 500.69 671.603 500.69C674.073 500.69 676.023 502.64 676.023 505.5C676.023 508.36 674.073 510.31 671.603 510.31ZM681.492 512H687.862V510.05H683.572V500.95H687.732V499H683.572V496.14H681.492V499H679.802V500.95H681.492V512ZM696.318 512.26C701.258 512.26 702.688 507.97 702.688 507.97H700.608C700.608 507.97 699.438 510.31 696.318 510.31C693.952 510.31 692.028 508.568 691.768 506.15H702.948V505.37C702.948 501.6 700.088 498.74 696.318 498.74C692.548 498.74 689.688 501.6 689.688 505.5C689.688 509.4 692.548 512.26 696.318 512.26ZM691.82 504.33C692.158 502.38 693.848 500.69 696.318 500.69C698.788 500.69 700.478 502.38 700.738 504.33H691.82ZM711.264 512.26C714.644 512.26 715.918 509.946 715.918 509.92H715.944V512H718.024V493.8H715.944V501.08H715.918C715.918 501.054 714.644 498.74 711.264 498.74C707.884 498.74 705.024 501.6 705.024 505.5C705.024 509.4 707.884 512.26 711.264 512.26ZM711.524 510.31C709.054 510.31 707.104 508.36 707.104 505.5C707.104 502.64 709.054 500.69 711.524 500.69C713.994 500.69 715.944 502.64 715.944 505.5C715.944 508.36 713.994 510.31 711.524 510.31ZM735.721 512.26C739.101 512.26 741.961 509.4 741.961 505.5C741.961 501.6 739.101 498.74 735.721 498.74C732.341 498.74 731.067 501.054 731.067 501.08H731.041V493.8H728.961V512H731.041V509.92H731.067C731.067 509.946 732.341 512.26 735.721 512.26ZM735.461 510.31C732.991 510.31 731.041 508.36 731.041 505.5C731.041 502.64 732.991 500.69 735.461 500.69C737.931 500.69 739.881 502.64 739.881 505.5C739.881 508.36 737.931 510.31 735.461 510.31ZM748.47 516.94H750.68L756.14 499H753.93L750.55 510.05H748.6L745.74 499H743.53L747.04 512H750.03L748.47 516.94ZM774.084 512.52C781.364 512.52 783.184 505.5 783.184 505.5H780.844C780.844 505.5 779.414 510.31 774.084 510.31C769.924 510.31 766.934 507.32 766.934 502.9C766.934 498.48 769.924 495.49 774.084 495.49C779.284 495.49 780.714 499.91 780.714 499.91H783.054C783.054 499.91 781.494 493.28 774.084 493.28C768.624 493.28 764.594 497.31 764.594 502.9C764.594 508.49 768.624 512.52 774.084 512.52ZM792.019 512.26C795.919 512.26 798.779 509.4 798.779 505.5C798.779 501.6 795.919 498.74 792.019 498.74C788.119 498.74 785.259 501.6 785.259 505.5C785.259 509.4 788.119 512.26 792.019 512.26ZM792.019 510.31C789.289 510.31 787.339 508.36 787.339 505.5C787.339 502.64 789.289 500.69 792.019 500.69C794.749 500.69 796.699 502.64 796.699 505.5C796.699 508.36 794.749 510.31 792.019 510.31ZM801.629 512H806.699V510.05H803.709V493.8H801.629V512ZM808.789 512H813.859V510.05H810.869V493.8H808.789V512ZM820.109 512.26C823.515 512.26 824.893 509.92 824.893 509.92H824.919V512H826.999V503.68C826.999 500.69 825.049 498.74 821.669 498.74C816.729 498.74 815.949 502.9 815.949 502.9H818.029C818.029 502.9 818.679 500.69 821.669 500.69C823.749 500.69 824.919 501.86 824.919 503.68V504.2H820.629C817.197 504.2 815.429 506.02 815.429 508.23C815.429 510.57 817.119 512.26 820.109 512.26ZM820.499 510.31C818.419 510.31 817.509 509.4 817.509 508.23C817.509 507.06 818.419 506.15 820.499 506.15H824.919C824.919 508.49 823.229 510.31 820.499 510.31ZM831.018 512H837.388V510.05H833.098V500.95H837.258V499H833.098V496.14H831.018V499H829.328V500.95H831.018V512ZM845.974 512.26C849.874 512.26 852.734 509.4 852.734 505.5C852.734 501.6 849.874 498.74 845.974 498.74C842.074 498.74 839.214 501.6 839.214 505.5C839.214 509.4 842.074 512.26 845.974 512.26ZM845.974 510.31C843.244 510.31 841.294 508.36 841.294 505.5C841.294 502.64 843.244 500.69 845.974 500.69C848.704 500.69 850.654 502.64 850.654 505.5C850.654 508.36 848.704 510.31 845.974 510.31ZM855.584 512H857.664V504.98C857.664 502.64 859.354 500.95 861.694 500.95H863.254V498.87H861.694C858.704 498.87 857.69 501.08 857.69 501.08H857.664V499H855.584V512Z" fill="white"/>
<path d="M601.52 653H603.86L605.29 647.67H614.26L615.69 653H618.03L613.35 634.8H606.2L601.52 653ZM605.81 645.46L608.02 637.01H611.53L613.74 645.46H605.81ZM626.085 653.26C631.415 653.26 632.455 648.45 632.455 648.45H630.375C630.375 648.45 629.465 651.31 626.085 651.31C623.719 651.31 621.665 649.386 621.665 646.5C621.665 643.64 623.615 641.69 626.085 641.69C629.335 641.69 630.245 644.29 630.245 644.29H632.325C632.325 644.29 631.285 639.74 626.085 639.74C622.445 639.74 619.585 642.6 619.585 646.5C619.585 650.4 622.445 653.26 626.085 653.26ZM640.786 653.26C646.116 653.26 647.156 648.45 647.156 648.45H645.076C645.076 648.45 644.166 651.31 640.786 651.31C638.42 651.31 636.366 649.386 636.366 646.5C636.366 643.64 638.316 641.69 640.786 641.69C644.036 641.69 644.946 644.29 644.946 644.29H647.026C647.026 644.29 645.986 639.74 640.786 639.74C637.146 639.74 634.286 642.6 634.286 646.5C634.286 650.4 637.146 653.26 640.786 653.26ZM655.617 653.26C660.557 653.26 661.987 648.97 661.987 648.97H659.907C659.907 648.97 658.737 651.31 655.617 651.31C653.251 651.31 651.327 649.568 651.067 647.15H662.247V646.37C662.247 642.6 659.387 639.74 655.617 639.74C651.847 639.74 648.987 642.6 648.987 646.5C648.987 650.4 651.847 653.26 655.617 653.26ZM651.119 645.33C651.457 643.38 653.147 641.69 655.617 641.69C658.087 641.69 659.777 643.38 660.037 645.33H651.119ZM665.103 657.94H667.183V650.92H667.209C667.209 650.946 668.483 653.26 671.863 653.26C675.243 653.26 678.103 650.4 678.103 646.5C678.103 642.6 675.243 639.74 671.863 639.74C668.483 639.74 667.209 642.054 667.209 642.08H667.183V640H665.103V657.94ZM671.603 651.31C669.133 651.31 667.183 649.36 667.183 646.5C667.183 643.64 669.133 641.69 671.603 641.69C674.073 641.69 676.023 643.64 676.023 646.5C676.023 649.36 674.073 651.31 671.603 651.31ZM681.492 653H687.862V651.05H683.572V641.95H687.732V640H683.572V637.14H681.492V640H679.802V641.95H681.492V653ZM696.318 653.26C701.258 653.26 702.688 648.97 702.688 648.97H700.608C700.608 648.97 699.438 651.31 696.318 651.31C693.952 651.31 692.028 649.568 691.768 647.15H702.948V646.37C702.948 642.6 700.088 639.74 696.318 639.74C692.548 639.74 689.688 642.6 689.688 646.5C689.688 650.4 692.548 653.26 696.318 653.26ZM691.82 645.33C692.158 643.38 693.848 641.69 696.318 641.69C698.788 641.69 700.478 643.38 700.738 645.33H691.82ZM711.264 653.26C714.644 653.26 715.918 650.946 715.918 650.92H715.944V653H718.024V634.8H715.944V642.08H715.918C715.918 642.054 714.644 639.74 711.264 639.74C707.884 639.74 705.024 642.6 705.024 646.5C705.024 650.4 707.884 653.26 711.264 653.26ZM711.524 651.31C709.054 651.31 707.104 649.36 707.104 646.5C707.104 643.64 709.054 641.69 711.524 641.69C713.994 641.69 715.944 643.64 715.944 646.5C715.944 649.36 713.994 651.31 711.524 651.31ZM735.721 653.26C739.101 653.26 741.961 650.4 741.961 646.5C741.961 642.6 739.101 639.74 735.721 639.74C732.341 639.74 731.067 642.054 731.067 642.08H731.041V634.8H728.961V653H731.041V650.92H731.067C731.067 650.946 732.341 653.26 735.721 653.26ZM735.461 651.31C732.991 651.31 731.041 649.36 731.041 646.5C731.041 643.64 732.991 641.69 735.461 641.69C737.931 641.69 739.881 643.64 739.881 646.5C739.881 649.36 737.931 651.31 735.461 651.31ZM748.47 657.94H750.68L756.14 640H753.93L750.55 651.05H748.6L745.74 640H743.53L747.04 653H750.03L748.47 657.94ZM772.004 653.52C776.424 653.52 778.894 651.05 778.894 648.19C778.894 641.69 767.584 643.77 767.584 639.48C767.584 637.92 769.014 636.49 771.744 636.49C775.774 636.49 776.424 639.35 776.424 639.35H778.764C778.764 639.35 777.906 634.28 771.744 634.28C767.714 634.28 765.244 636.75 765.244 639.48C765.244 645.98 776.554 643.77 776.554 648.19C776.554 649.88 775.124 651.31 772.004 651.31C767.584 651.31 766.804 647.8 766.804 647.8H764.464C764.464 647.8 765.374 653.52 772.004 653.52ZM781.875 653H783.955V645.98C783.955 643.38 785.645 641.69 787.985 641.69C790.065 641.69 791.495 642.86 791.495 645.46V653H793.575V645.33C793.575 641.82 791.495 639.74 788.375 639.74C785.255 639.74 783.981 641.95 783.981 641.95H783.955V634.8H781.875V653ZM801.117 653.26C804.523 653.26 805.901 650.92 805.901 650.92H805.927V653H808.007V644.68C808.007 641.69 806.057 639.74 802.677 639.74C797.737 639.74 796.957 643.9 796.957 643.9H799.037C799.037 643.9 799.687 641.69 802.677 641.69C804.757 641.69 805.927 642.86 805.927 644.68V645.2H801.637C798.205 645.2 796.437 647.02 796.437 649.23C796.437 651.57 798.127 653.26 801.117 653.26ZM801.507 651.31C799.427 651.31 798.517 650.4 798.517 649.23C798.517 648.06 799.427 647.15 801.507 647.15H805.927C805.927 649.49 804.237 651.31 801.507 651.31ZM811.506 653H813.586V645.98C813.586 643.64 815.276 641.95 817.616 641.95H819.176V639.87H817.616C814.626 639.87 813.612 642.08 813.612 642.08H813.586V640H811.506V653ZM826.843 653.26C830.223 653.26 831.497 650.946 831.497 650.92H831.523V653H833.603V634.8H831.523V642.08H831.497C831.497 642.054 830.223 639.74 826.843 639.74C823.463 639.74 820.603 642.6 820.603 646.5C820.603 650.4 823.463 653.26 826.843 653.26ZM827.103 651.31C824.633 651.31 822.683 649.36 822.683 646.5C822.683 643.64 824.633 641.69 827.103 641.69C829.573 641.69 831.523 643.64 831.523 646.5C831.523 649.36 829.573 651.31 827.103 651.31ZM842.972 653.26C848.302 653.26 849.342 648.45 849.342 648.45H847.262C847.262 648.45 846.352 651.31 842.972 651.31C840.606 651.31 838.552 649.386 838.552 646.5C838.552 643.64 840.502 641.69 842.972 641.69C846.222 641.69 847.132 644.29 847.132 644.29H849.212C849.212 644.29 848.172 639.74 842.972 639.74C839.332 639.74 836.472 642.6 836.472 646.5C836.472 650.4 839.332 653.26 842.972 653.26ZM851.953 653H854.033V645.98C854.033 643.38 855.723 641.69 858.063 641.69C860.143 641.69 861.573 642.86 861.573 645.46V653H863.653V645.33C863.653 641.82 861.573 639.74 858.453 639.74C855.333 639.74 854.059 641.95 854.059 641.95H854.033V634.8H851.953V653ZM871.195 653.26C874.601 653.26 875.979 650.92 875.979 650.92H876.005V653H878.085V644.68C878.085 641.69 876.135 639.74 872.755 639.74C867.815 639.74 867.035 643.9 867.035 643.9H869.115C869.115 643.9 869.765 641.69 872.755 641.69C874.835 641.69 876.005 642.86 876.005 644.68V645.2H871.715C868.283 645.2 866.515 647.02 866.515 649.23C866.515 651.57 868.205 653.26 871.195 653.26ZM871.585 651.31C869.505 651.31 868.595 650.4 868.595 649.23C868.595 648.06 869.505 647.15 871.585 647.15H876.005C876.005 649.49 874.315 651.31 871.585 651.31ZM881.584 653H883.664V640H881.584V653ZM882.624 637.53C883.404 637.53 884.054 636.88 884.054 636.1C884.054 635.32 883.404 634.67 882.624 634.67C881.844 634.67 881.194 635.32 881.194 636.1C881.194 636.88 881.844 637.53 882.624 637.53ZM887.297 653H889.377V645.98C889.377 643.38 891.067 641.69 893.407 641.69C895.487 641.69 896.917 642.86 896.917 645.46V653H898.997V645.33C898.997 641.82 896.917 639.74 893.797 639.74C890.677 639.74 889.403 641.95 889.403 641.95H889.377V640H887.297V653Z" fill="white"/>
<path d="M603.08 794H605.42V786.46H613.35V784.25H605.42V778.01H615.43V775.8H603.08V794ZM617.902 794H619.982V781H617.902V794ZM618.942 778.53C619.722 778.53 620.372 777.88 620.372 777.1C620.372 776.32 619.722 775.67 618.942 775.67C618.162 775.67 617.512 776.32 617.512 777.1C617.512 777.88 618.162 778.53 618.942 778.53ZM623.615 794H625.695V786.98C625.695 784.38 627.385 782.69 629.725 782.69C631.805 782.69 633.235 783.86 633.235 786.46V794H635.315V786.33C635.315 782.82 633.235 780.74 630.115 780.74C626.995 780.74 625.721 782.95 625.721 782.95H625.695V781H623.615V794ZM642.984 794.26C646.39 794.26 647.768 791.92 647.768 791.92H647.794V794H649.874V785.68C649.874 782.69 647.924 780.74 644.544 780.74C639.604 780.74 638.824 784.9 638.824 784.9H640.904C640.904 784.9 641.554 782.69 644.544 782.69C646.624 782.69 647.794 783.86 647.794 785.68V786.2H643.504C640.072 786.2 638.304 788.02 638.304 790.23C638.304 792.57 639.994 794.26 642.984 794.26ZM643.374 792.31C641.294 792.31 640.384 791.4 640.384 790.23C640.384 789.06 641.294 788.15 643.374 788.15H647.794C647.794 790.49 646.104 792.31 643.374 792.31ZM653.373 794H658.443V792.05H655.453V775.8H653.373V794ZM660.533 794H662.613V781H660.533V794ZM661.573 778.53C662.353 778.53 663.003 777.88 663.003 777.1C663.003 776.32 662.353 775.67 661.573 775.67C660.793 775.67 660.143 776.32 660.143 777.1C660.143 777.88 660.793 778.53 661.573 778.53ZM665.076 794H675.866V792.05H667.806V792.024L675.606 782.95V781H665.336V782.95H672.876V782.976L665.076 792.05V794ZM684.182 794.26C689.122 794.26 690.552 789.97 690.552 789.97H688.472C688.472 789.97 687.302 792.31 684.182 792.31C681.816 792.31 679.892 790.568 679.632 788.15H690.812V787.37C690.812 783.6 687.952 780.74 684.182 780.74C680.412 780.74 677.552 783.6 677.552 787.5C677.552 791.4 680.412 794.26 684.182 794.26ZM679.684 786.33C680.022 784.38 681.712 782.69 684.182 782.69C686.652 782.69 688.342 784.38 688.602 786.33H679.684ZM699.128 794.26C702.508 794.26 703.782 791.946 703.782 791.92H703.808V794H705.888V775.8H703.808V783.08H703.782C703.782 783.054 702.508 780.74 699.128 780.74C695.748 780.74 692.888 783.6 692.888 787.5C692.888 791.4 695.748 794.26 699.128 794.26ZM699.388 792.31C696.918 792.31 694.968 790.36 694.968 787.5C694.968 784.64 696.918 782.69 699.388 782.69C701.858 782.69 703.808 784.64 703.808 787.5C703.808 790.36 701.858 792.31 699.388 792.31Z" fill="#AF9FFF"/>
<path d="M411 715H223C211.954 715 203 706.046 203 695L203 283C203 271.954 211.954 263 223 263L395 263" stroke="#FF6922" stroke-width="3"/>
<path d="M411 575H268C256.954 575 248 566.046 248 555L248 311C248 299.954 256.954 291 268 291H392.54" stroke="#FF6922" stroke-width="3"/>
<path d="M411 433H313C301.954 433 293 424.046 293 413V339C293 327.954 301.954 319 313 319H397.636" stroke="#FF6922" stroke-width="3"/>
<path d="M559 241L568 256L577 241L559 241Z" fill="#6347F5"/>
<path d="M1013 300L1028 291L1013 282L1013 300Z" fill="#6347F5"/>
<path d="M1013 442L1028 433L1013 424L1013 442Z" fill="#6347F5"/>
<path d="M1013 113L1028 104L1013 95L1013 113Z" fill="#6347F5"/>
<path d="M559 383L568 398L577 383L559 383Z" fill="#6347F5"/>
<path d="M559 524L568 539L577 524L559 524Z" fill="#6347F5"/>
<path d="M559 665L568 680L577 665L559 665Z" fill="#6347F5"/>
<path d="M559 806L568 821L577 806L559 806Z" fill="#6347F5"/>
<path d="M559 175L568 190L577 175L559 175Z" fill="#6347F5"/>
<path d="M391 300L406 291L391 282L391 300Z" fill="#FF6922"/>
<path d="M391 272L406 263L391 254L391 272Z" fill="#FF6922"/>
<path d="M391 328L406 319L391 310L391 328Z" fill="#FF6922"/>
<path d="M568 383L568 324" stroke="#6347F5" stroke-width="3"/>
<path d="M568 524L568 465" stroke="#6347F5" stroke-width="3"/>
<path d="M568 241L568 204" stroke="#6347F5" stroke-width="3"/>
<path d="M1017 291L726 291" stroke="#6347F5" stroke-width="3"/>
<path d="M568 665L568 606" stroke="#6347F5" stroke-width="3"/>
<path d="M1017 433L726 433" stroke="#6347F5" stroke-width="3"/>
<path d="M1017 104L726 104" stroke="#6347F5" stroke-width="3"/>
<path d="M568 806L568 747" stroke="#6347F5" stroke-width="3"/>
<path d="M568 182L568 137" stroke="#6347F5" stroke-width="3"/>
</svg>
