<svg width="1920" height="884" viewBox="0 0 1920 884" fill="none" xmlns="http://www.w3.org/2000/svg">
<rect width="1920" height="884" fill="#0D1033"/>
<path d="M371 306L371 480" stroke="#6347F5" stroke-width="3"/>
<path d="M1029 72V811" stroke="#6347F5" stroke-dasharray="20 20"/>
<path d="M555 401L555 575" stroke="#6347F5" stroke-width="3"/>
<rect x="1015" y="299" width="39" height="283" fill="#0D1033"/>
<path d="M942 495L942 669" stroke="#6347F5" stroke-width="3"/>
<path d="M370.885 306H391.291L370.885 326.406V306Z" fill="#6347F5"/>
<path d="M370.885 326.406H391.291L370.885 344.957V326.406Z" fill="#6347F5"/>
<path d="M370.885 344.957H391.291L370.885 365.362V344.957Z" fill="#6347F5"/>
<path d="M370.885 365.362H391.291L370.885 385.768V365.362Z" fill="#6347F5"/>
<path d="M391.29 306H411.696L391.29 326.406V306Z" fill="#6347F5"/>
<path d="M391.29 326.406H411.696L391.29 344.957V326.406Z" fill="#6347F5"/>
<path d="M391.29 344.957H411.696L391.29 365.362V344.957Z" fill="#6347F5"/>
<path d="M391.29 365.362H411.696L391.29 385.768V365.362Z" fill="#6347F5"/>
<path d="M411.696 306H432.102L411.696 326.406V306Z" fill="#6347F5"/>
<path d="M411.696 326.406H432.102L411.696 344.957V326.406Z" fill="#6347F5"/>
<path d="M411.696 344.957H432.102L411.696 365.362V344.957Z" fill="#6347F5"/>
<path d="M411.696 365.362H432.102L411.696 385.768V365.362Z" fill="#6347F5"/>
<path d="M432.102 306H452.507L432.102 326.406V306Z" fill="#6347F5"/>
<path d="M432.102 326.406H452.507L432.102 344.957V326.406Z" fill="#6347F5"/>
<path d="M432.102 344.957H452.507L432.102 365.362V344.957Z" fill="#6347F5"/>
<path d="M432.102 365.362H452.507L432.102 385.768V365.362Z" fill="#6347F5"/>
<path d="M452.508 306H472.914L452.508 326.406V306Z" fill="#6347F5"/>
<path d="M452.508 326.406H472.914L452.508 344.957V326.406Z" fill="#6347F5"/>
<path d="M452.508 344.957H472.914L452.508 365.362V344.957Z" fill="#6347F5"/>
<path d="M452.508 365.362H472.914L452.508 385.768V365.362Z" fill="#6347F5"/>
<path d="M472.913 306H493.319L472.913 326.406V306Z" fill="#6347F5"/>
<path d="M472.913 326.406H493.319L472.913 344.957V326.406Z" fill="#6347F5"/>
<path d="M472.913 344.957H493.319L472.913 365.362V344.957Z" fill="#6347F5"/>
<path d="M472.913 365.362H493.319L472.913 385.768V365.362Z" fill="#6347F5"/>
<path d="M493.319 306H513.725L493.319 326.406V306Z" fill="#6347F5"/>
<path d="M493.319 326.406H513.725L493.319 344.957V326.406Z" fill="#6347F5"/>
<path d="M493.319 344.957H513.725L493.319 365.362V344.957Z" fill="#6347F5"/>
<path d="M493.319 365.362H513.725L493.319 385.768V365.362Z" fill="#6347F5"/>
<path d="M513.725 306H534.13L513.725 326.406V306Z" fill="#6347F5"/>
<path d="M513.725 326.406H534.13L513.725 344.957V326.406Z" fill="#6347F5"/>
<path d="M513.725 344.957H534.13L513.725 365.362V344.957Z" fill="#6347F5"/>
<path d="M513.725 365.362H534.13L513.725 385.768V365.362Z" fill="#6347F5"/>
<path d="M534.131 306H554.537L534.131 326.406V306Z" fill="#6347F5"/>
<path d="M534.131 326.406H554.537L534.131 344.957V326.406Z" fill="#6347F5"/>
<path d="M534.131 344.957H554.537L534.131 365.362V344.957Z" fill="#6347F5"/>
<path d="M534.131 365.362H554.537L534.131 385.768V365.362Z" fill="#6347F5"/>
<path d="M554.537 306H574.943L554.537 326.406V306Z" fill="#6347F5"/>
<path d="M554.537 326.406H574.943L554.537 344.957V326.406Z" fill="#6347F5"/>
<path d="M554.537 344.957H574.943L554.537 365.362V344.957Z" fill="#6347F5"/>
<path d="M554.537 365.362H574.943L554.537 385.768V365.362Z" fill="#6347F5"/>
<path d="M574.941 306H595.347L574.941 326.406V306Z" fill="#6347F5"/>
<path d="M574.941 326.406H595.347L574.941 344.957V326.406Z" fill="#6347F5"/>
<path d="M574.941 344.957H595.347L574.941 365.362V344.957Z" fill="#6347F5"/>
<path d="M574.941 365.362H595.347L574.941 385.768V365.362Z" fill="#6347F5"/>
<path d="M595.348 306H615.753L595.348 326.406V306Z" fill="#6347F5"/>
<path d="M595.348 326.406H615.753L595.348 344.957V326.406Z" fill="#6347F5"/>
<path d="M595.348 344.957H615.753L595.348 365.362V344.957Z" fill="#6347F5"/>
<path d="M595.348 365.362H615.753L595.348 385.768V365.362Z" fill="#6347F5"/>
<path d="M615.754 306H636.16L615.754 326.406V306Z" fill="#6347F5"/>
<path d="M615.754 326.406H636.16L615.754 344.957V326.406Z" fill="#6347F5"/>
<path d="M615.754 344.957H636.16L615.754 365.362V344.957Z" fill="#6347F5"/>
<path d="M615.754 365.362H636.16L615.754 385.768V365.362Z" fill="#6347F5"/>
<path d="M636.16 306H656.566L636.16 326.406V306Z" fill="#6347F5"/>
<path d="M636.16 326.406H656.566L636.16 344.957V326.406Z" fill="#6347F5"/>
<path d="M636.16 344.957H656.566L636.16 365.362V344.957Z" fill="#6347F5"/>
<path d="M636.16 365.362H656.566L636.16 385.768V365.362Z" fill="#6347F5"/>
<path d="M656.566 306H676.972L656.566 326.406V306Z" fill="#6347F5"/>
<path d="M656.566 326.406H676.972L656.566 344.957V326.406Z" fill="#6347F5"/>
<path d="M656.566 344.957H676.972L656.566 365.362V344.957Z" fill="#6347F5"/>
<path d="M656.566 365.362H676.972L656.566 385.768V365.362Z" fill="#6347F5"/>
<path d="M676.973 306H697.378L676.973 326.406V306Z" fill="#6347F5"/>
<path d="M676.973 326.406H697.378L676.973 344.957V326.406Z" fill="#6347F5"/>
<path d="M676.973 344.957H697.378L676.973 365.362V344.957Z" fill="#6347F5"/>
<path d="M676.973 365.362H697.378L676.973 385.768V365.362Z" fill="#6347F5"/>
<path d="M697.377 306H717.783L697.377 326.406V306Z" fill="#6347F5"/>
<path d="M697.377 326.406H717.783L697.377 344.957V326.406Z" fill="#6347F5"/>
<path d="M697.377 344.957H717.783L697.377 365.362V344.957Z" fill="#6347F5"/>
<path d="M697.377 365.362H717.783L697.377 385.768V365.362Z" fill="#6347F5"/>
<path d="M717.783 306H738.189L717.783 326.406V306Z" fill="#6347F5"/>
<path d="M717.783 326.406H738.189L717.783 344.957V326.406Z" fill="#6347F5"/>
<path d="M717.783 344.957H738.189L717.783 365.362V344.957Z" fill="#6347F5"/>
<path d="M717.783 365.362H738.189L717.783 385.768V365.362Z" fill="#6347F5"/>
<path d="M738.189 306H758.595L738.189 326.406V306Z" fill="#6347F5"/>
<path d="M738.189 326.406H758.595L738.189 344.957V326.406Z" fill="#6347F5"/>
<path d="M738.189 344.957H758.595L738.189 365.362V344.957Z" fill="#6347F5"/>
<path d="M738.189 365.362H758.595L738.189 385.768V365.362Z" fill="#6347F5"/>
<path d="M758.596 306H779.002L758.596 326.406V306Z" fill="#6347F5"/>
<path d="M758.596 326.406H779.002L758.596 344.957V326.406Z" fill="#6347F5"/>
<path d="M758.596 344.957H779.002L758.596 365.362V344.957Z" fill="#6347F5"/>
<path d="M758.596 365.362H779.002L758.596 385.768V365.362Z" fill="#6347F5"/>
<path d="M779 306H799.406L779 326.406V306Z" fill="#6347F5"/>
<path d="M779 326.406H799.406L779 344.957V326.406Z" fill="#6347F5"/>
<path d="M779 344.957H799.406L779 365.362V344.957Z" fill="#6347F5"/>
<path d="M779 365.362H799.406L779 385.768V365.362Z" fill="#6347F5"/>
<path d="M799.406 306H819.812L799.406 326.406V306Z" fill="#6347F5"/>
<path d="M799.406 326.406H819.812L799.406 344.957V326.406Z" fill="#6347F5"/>
<path d="M799.406 344.957H819.812L799.406 365.362V344.957Z" fill="#6347F5"/>
<path d="M799.406 365.362H819.812L799.406 385.768V365.362Z" fill="#6347F5"/>
<path d="M819.812 306H840.218L819.812 326.406V306Z" fill="#6347F5"/>
<path d="M819.812 326.406H840.218L819.812 344.957V326.406Z" fill="#6347F5"/>
<path d="M819.812 344.957H840.218L819.812 365.362V344.957Z" fill="#6347F5"/>
<path d="M819.812 365.362H840.218L819.812 385.768V365.362Z" fill="#6347F5"/>
<path d="M840.217 306H860.623L840.217 326.406V306Z" fill="#6347F5"/>
<path d="M840.217 326.406H860.623L840.217 344.957V326.406Z" fill="#6347F5"/>
<path d="M840.217 344.957H860.623L840.217 365.362V344.957Z" fill="#6347F5"/>
<path d="M840.217 365.362H860.623L840.217 385.768V365.362Z" fill="#6347F5"/>
<path d="M860.623 306H881.029L860.623 326.406V306Z" fill="#6347F5"/>
<path d="M860.623 326.406H881.029L860.623 344.957V326.406Z" fill="#6347F5"/>
<path d="M860.623 344.957H881.029L860.623 365.362V344.957Z" fill="#6347F5"/>
<path d="M860.623 365.362H881.029L860.623 385.768V365.362Z" fill="#6347F5"/>
<path d="M881.029 306H901.435L881.029 326.406V306Z" fill="#6347F5"/>
<path d="M881.029 326.406H901.435L881.029 344.957V326.406Z" fill="#6347F5"/>
<path d="M881.029 344.957H901.435L881.029 365.362V344.957Z" fill="#6347F5"/>
<path d="M881.029 365.362H901.435L881.029 385.768V365.362Z" fill="#6347F5"/>
<path d="M901.436 306H921.841L901.436 326.406V306Z" fill="#6347F5"/>
<path d="M901.436 326.406H921.841L901.436 344.957V326.406Z" fill="#6347F5"/>
<path d="M901.436 344.957H921.841L901.436 365.362V344.957Z" fill="#6347F5"/>
<path d="M901.436 365.362H921.841L901.436 385.768V365.362Z" fill="#6347F5"/>
<path d="M921.84 306H942.246L921.84 326.406V306Z" fill="#6347F5"/>
<path d="M921.84 326.406H942.246L921.84 344.957V326.406Z" fill="#6347F5"/>
<path d="M921.84 344.957H942.246L921.84 365.362V344.957Z" fill="#6347F5"/>
<path d="M921.84 365.362H942.246L921.84 385.768V365.362Z" fill="#6347F5"/>
<path d="M942.248 306H962.654L942.248 326.406V306Z" fill="#6347F5"/>
<path d="M942.248 326.406H962.654L942.248 344.957V326.406Z" fill="#6347F5"/>
<path d="M942.248 344.957H962.654L942.248 365.362V344.957Z" fill="#6347F5"/>
<path d="M942.248 365.362H962.654L942.248 385.768V365.362Z" fill="#6347F5"/>
<path d="M962.652 306H983.058L962.652 326.406V306Z" fill="#6347F5"/>
<path d="M962.652 326.406H983.058L962.652 344.957V326.406Z" fill="#6347F5"/>
<path d="M962.652 344.957H983.058L962.652 365.362V344.957Z" fill="#6347F5"/>
<path d="M962.652 365.362H983.058L962.652 385.768V365.362Z" fill="#6347F5"/>
<path d="M983.059 306H1003.46L983.059 326.406V306Z" fill="#6347F5"/>
<path d="M983.059 326.406H1003.46L983.059 344.957V326.406Z" fill="#6347F5"/>
<path d="M983.059 344.957H1003.46L983.059 365.362V344.957Z" fill="#6347F5"/>
<path d="M983.059 365.362H1003.46L983.059 385.768V365.362Z" fill="#6347F5"/>
<path d="M1003.46 306H1023.87L1003.46 326.406V306Z" fill="#6347F5"/>
<path d="M1003.46 326.406H1023.87L1003.46 344.957V326.406Z" fill="#6347F5"/>
<path d="M1003.46 344.957H1023.87L1003.46 365.362V344.957Z" fill="#6347F5"/>
<path d="M1003.46 365.362H1023.87L1003.46 385.768V365.362Z" fill="#6347F5"/>
<path d="M1023.87 306H1044.28L1023.87 326.406V306Z" fill="#6347F5"/>
<path d="M1023.87 326.406H1044.28L1023.87 344.957V326.406Z" fill="#6347F5"/>
<path d="M1023.87 344.957H1044.28L1023.87 365.362V344.957Z" fill="#6347F5"/>
<path d="M1023.87 365.362H1044.28L1023.87 385.768V365.362Z" fill="#6347F5"/>
<path d="M1044.28 306H1064.68L1044.28 326.406V306Z" fill="#6347F5"/>
<path d="M1044.28 326.406H1064.68L1044.28 344.957V326.406Z" fill="#6347F5"/>
<path d="M1044.28 344.957H1064.68L1044.28 365.362V344.957Z" fill="#6347F5"/>
<path d="M1044.28 365.362H1064.68L1044.28 385.768V365.362Z" fill="#6347F5"/>
<path d="M1064.68 306H1085.09L1064.68 326.406V306Z" fill="#6347F5"/>
<path d="M1064.68 326.406H1085.09L1064.68 344.957V326.406Z" fill="#6347F5"/>
<path d="M1064.68 344.957H1085.09L1064.68 365.362V344.957Z" fill="#6347F5"/>
<path d="M1064.68 365.362H1085.09L1064.68 385.768V365.362Z" fill="#6347F5"/>
<path d="M1085.09 306H1105.49L1085.09 326.406V306Z" fill="#6347F5"/>
<path d="M1085.09 326.406H1105.49L1085.09 344.957V326.406Z" fill="#6347F5"/>
<path d="M1085.09 344.957H1105.49L1085.09 365.362V344.957Z" fill="#6347F5"/>
<path d="M1085.09 365.362H1105.49L1085.09 385.768V365.362Z" fill="#6347F5"/>
<path d="M1105.49 306H1125.9L1105.49 326.406V306Z" fill="#6347F5"/>
<path d="M1105.49 326.406H1125.9L1105.49 344.957V326.406Z" fill="#6347F5"/>
<path d="M1105.49 344.957H1125.9L1105.49 365.362V344.957Z" fill="#6347F5"/>
<path d="M1105.49 365.362H1125.9L1105.49 385.768V365.362Z" fill="#6347F5"/>
<path d="M1125.9 306H1146.3L1125.9 326.406V306Z" fill="#6347F5"/>
<path d="M1125.9 326.406H1146.3L1125.9 344.957V326.406Z" fill="#6347F5"/>
<path d="M1125.9 344.957H1146.3L1125.9 365.362V344.957Z" fill="#6347F5"/>
<path d="M1125.9 365.362H1146.3L1125.9 385.768V365.362Z" fill="#6347F5"/>
<path d="M1146.3 306H1166.71L1146.3 326.406V306Z" fill="#6347F5"/>
<path d="M1146.3 326.406H1166.71L1146.3 344.957V326.406Z" fill="#6347F5"/>
<path d="M1146.3 344.957H1166.71L1146.3 365.362V344.957Z" fill="#6347F5"/>
<path d="M1146.3 365.362H1166.71L1146.3 385.768V365.362Z" fill="#6347F5"/>
<path d="M1166.71 306H1187.12L1166.71 326.406V306Z" fill="#6347F5"/>
<path d="M1166.71 326.406H1187.12L1166.71 344.957V326.406Z" fill="#6347F5"/>
<path d="M1166.71 344.957H1187.12L1166.71 365.362V344.957Z" fill="#6347F5"/>
<path d="M1166.71 365.362H1187.12L1166.71 385.768V365.362Z" fill="#6347F5"/>
<path d="M1187.12 306H1207.52L1187.12 326.406V306Z" fill="#6347F5"/>
<path d="M1187.12 326.406H1207.52L1187.12 344.957V326.406Z" fill="#6347F5"/>
<path d="M1187.12 344.957H1207.52L1187.12 365.362V344.957Z" fill="#6347F5"/>
<path d="M1187.12 365.362H1207.52L1187.12 385.768V365.362Z" fill="#6347F5"/>
<path d="M1207.52 306H1227.93L1207.52 326.406V306Z" fill="#6347F5"/>
<path d="M1207.52 326.406H1227.93L1207.52 344.957V326.406Z" fill="#6347F5"/>
<path d="M1207.52 344.957H1227.93L1207.52 365.362V344.957Z" fill="#6347F5"/>
<path d="M1207.52 365.362H1227.93L1207.52 385.768V365.362Z" fill="#6347F5"/>
<path d="M1227.93 306H1248.33L1227.93 326.406V306Z" fill="#6347F5"/>
<path d="M1227.93 326.406H1248.33L1227.93 344.957V326.406Z" fill="#6347F5"/>
<path d="M1227.93 344.957H1248.33L1227.93 365.362V344.957Z" fill="#6347F5"/>
<path d="M1227.93 365.362H1248.33L1227.93 385.768V365.362Z" fill="#6347F5"/>
<path d="M1248.33 306H1268.74L1248.33 326.406V306Z" fill="#6347F5"/>
<path d="M1248.33 326.406H1268.74L1248.33 344.957V326.406Z" fill="#6347F5"/>
<path d="M1248.33 344.957H1268.74L1248.33 365.362V344.957Z" fill="#6347F5"/>
<path d="M1248.33 365.362H1268.74L1248.33 385.768V365.362Z" fill="#6347F5"/>
<path d="M1268.74 306H1289.15L1268.74 326.406V306Z" fill="#6347F5"/>
<path d="M1268.74 326.406H1289.15L1268.74 344.957V326.406Z" fill="#6347F5"/>
<path d="M1268.74 344.957H1289.15L1268.74 365.362V344.957Z" fill="#6347F5"/>
<path d="M1268.74 365.362H1289.15L1268.74 385.768V365.362Z" fill="#6347F5"/>
<path d="M1289.15 306H1309.55L1289.15 326.406V306Z" fill="#6347F5"/>
<path d="M1289.15 326.406H1309.55L1289.15 344.957V326.406Z" fill="#6347F5"/>
<path d="M1289.15 344.957H1309.55L1289.15 365.362V344.957Z" fill="#6347F5"/>
<path d="M1289.15 365.362H1309.55L1289.15 385.768V365.362Z" fill="#6347F5"/>
<path d="M1309.55 306H1329.96L1309.55 326.406V306Z" fill="#6347F5"/>
<path d="M1309.55 326.406H1329.96L1309.55 344.957V326.406Z" fill="#6347F5"/>
<path d="M1309.55 344.957H1329.96L1309.55 365.362V344.957Z" fill="#6347F5"/>
<path d="M1309.55 365.362H1329.96L1309.55 385.768V365.362Z" fill="#6347F5"/>
<path d="M1329.96 306H1350.36L1329.96 326.406V306Z" fill="#6347F5"/>
<path d="M1329.96 326.406H1350.36L1329.96 344.957V326.406Z" fill="#6347F5"/>
<path d="M1329.96 344.957H1350.36L1329.96 365.362V344.957Z" fill="#6347F5"/>
<path d="M1329.96 365.362H1350.36L1329.96 385.768V365.362Z" fill="#6347F5"/>
<path d="M1350.36 306H1370.77L1350.36 326.406V306Z" fill="#6347F5"/>
<path d="M1350.36 326.406H1370.77L1350.36 344.957V326.406Z" fill="#6347F5"/>
<path d="M1350.36 344.957H1370.77L1350.36 365.362V344.957Z" fill="#6347F5"/>
<path d="M1350.36 365.362H1370.77L1350.36 385.768V365.362Z" fill="#6347F5"/>
<path d="M1370.77 306H1391.17L1370.77 326.406V306Z" fill="#6347F5"/>
<path d="M1370.77 326.406H1391.17L1370.77 344.957V326.406Z" fill="#6347F5"/>
<path d="M1370.77 344.957H1391.17L1370.77 365.362V344.957Z" fill="#6347F5"/>
<path d="M1370.77 365.362H1391.17L1370.77 385.768V365.362Z" fill="#6347F5"/>
<path d="M1391.17 306H1411.58L1391.17 326.406V306Z" fill="#6347F5"/>
<path d="M1391.17 326.406H1411.58L1391.17 344.957V326.406Z" fill="#6347F5"/>
<path d="M1391.17 344.957H1411.58L1391.17 365.362V344.957Z" fill="#6347F5"/>
<path d="M1391.17 365.362H1411.58L1391.17 385.768V365.362Z" fill="#6347F5"/>
<path d="M1411.58 306H1431.99L1411.58 326.406V306Z" fill="#6347F5"/>
<path d="M1411.58 326.406H1431.99L1411.58 344.957V326.406Z" fill="#6347F5"/>
<path d="M1411.58 344.957H1431.99L1411.58 365.362V344.957Z" fill="#6347F5"/>
<path d="M1411.58 365.362H1431.99L1411.58 385.768V365.362Z" fill="#6347F5"/>
<path d="M1431.99 306H1452.39L1431.99 326.406V306Z" fill="#6347F5"/>
<path d="M1431.99 326.406H1452.39L1431.99 344.957V326.406Z" fill="#6347F5"/>
<path d="M1431.99 344.957H1452.39L1431.99 365.362V344.957Z" fill="#6347F5"/>
<path d="M1431.99 365.362H1452.39L1431.99 385.768V365.362Z" fill="#6347F5"/>
<path d="M1452.39 306H1472.8L1452.39 326.406V306Z" fill="#6347F5"/>
<path d="M1452.39 326.406H1472.8L1452.39 344.957V326.406Z" fill="#6347F5"/>
<path d="M1452.39 344.957H1472.8L1452.39 365.362V344.957Z" fill="#6347F5"/>
<path d="M1452.39 365.362H1472.8L1452.39 385.768V365.362Z" fill="#6347F5"/>
<path d="M1472.8 306H1493.2L1472.8 326.406V306Z" fill="#6347F5"/>
<path d="M1472.8 326.406H1493.2L1472.8 344.957V326.406Z" fill="#6347F5"/>
<path d="M1472.8 344.957H1493.2L1472.8 365.362V344.957Z" fill="#6347F5"/>
<path d="M1472.8 365.362H1493.2L1472.8 385.768V365.362Z" fill="#6347F5"/>
<path d="M1493.2 306H1513.61L1493.2 326.406V306Z" fill="#6347F5"/>
<path d="M1493.2 326.406H1513.61L1493.2 344.957V326.406Z" fill="#6347F5"/>
<path d="M1493.2 344.957H1513.61L1493.2 365.362V344.957Z" fill="#6347F5"/>
<path d="M1493.2 365.362H1513.61L1493.2 385.768V365.362Z" fill="#6347F5"/>
<path d="M1513.61 306H1534.02L1513.61 326.406V306Z" fill="#6347F5"/>
<path d="M1513.61 326.406H1534.02L1513.61 344.957V326.406Z" fill="#6347F5"/>
<path d="M1513.61 344.957H1534.02L1513.61 365.362V344.957Z" fill="#6347F5"/>
<path d="M1513.61 365.362H1534.02L1513.61 385.768V365.362Z" fill="#6347F5"/>
<path d="M1534.02 306H1554.42L1534.02 326.406V306Z" fill="#6347F5"/>
<path d="M1534.02 326.406H1554.42L1534.02 344.957V326.406Z" fill="#6347F5"/>
<path d="M1534.02 344.957H1554.42L1534.02 365.362V344.957Z" fill="#6347F5"/>
<path d="M1534.02 365.362H1554.42L1534.02 385.768V365.362Z" fill="#6347F5"/>
<path d="M1554.42 306H1574.83L1554.42 326.406V306Z" fill="#6347F5"/>
<path d="M1554.42 326.406H1574.83L1554.42 344.957V326.406Z" fill="#6347F5"/>
<path d="M1554.42 344.957H1574.83L1554.42 365.362V344.957Z" fill="#6347F5"/>
<path d="M1554.42 365.362H1574.83L1554.42 385.768V365.362Z" fill="#6347F5"/>
<path d="M1574.83 306H1595.23L1574.83 326.406V306Z" fill="#6347F5"/>
<path d="M1574.83 326.406H1595.23L1574.83 344.957V326.406Z" fill="#6347F5"/>
<path d="M1574.83 344.957H1595.23L1574.83 365.362V344.957Z" fill="#6347F5"/>
<path d="M1574.83 365.362H1595.23L1574.83 385.768V365.362Z" fill="#6347F5"/>
<path d="M1595.23 306H1615.64L1595.23 326.406V306Z" fill="#6347F5"/>
<path d="M1595.23 326.406H1615.64L1595.23 344.957V326.406Z" fill="#6347F5"/>
<path d="M1595.23 344.957H1615.64L1595.23 365.362V344.957Z" fill="#6347F5"/>
<path d="M1595.23 365.362H1615.64L1595.23 385.768V365.362Z" fill="#6347F5"/>
<path d="M1615.64 306H1636.04L1615.64 326.406V306Z" fill="#6347F5"/>
<path d="M1615.64 326.406H1636.04L1615.64 344.957V326.406Z" fill="#6347F5"/>
<path d="M1615.64 344.957H1636.04L1615.64 365.362V344.957Z" fill="#6347F5"/>
<path d="M1615.64 365.362H1636.04L1615.64 385.768V365.362Z" fill="#6347F5"/>
<path d="M1636.04 306H1656.45L1636.04 326.406V306Z" fill="#6347F5"/>
<path d="M1636.04 326.406H1656.45L1636.04 344.957V326.406Z" fill="#6347F5"/>
<path d="M1636.04 344.957H1656.45L1636.04 365.362V344.957Z" fill="#6347F5"/>
<path d="M1636.04 365.362H1656.45L1636.04 385.768V365.362Z" fill="#6347F5"/>
<path d="M1656.45 306H1676.86L1656.45 326.406V306Z" fill="#6347F5"/>
<path d="M1656.45 326.406H1676.86L1656.45 344.957V326.406Z" fill="#6347F5"/>
<path d="M1656.45 344.957H1676.86L1656.45 365.362V344.957Z" fill="#6347F5"/>
<path d="M1656.45 365.362H1676.86L1656.45 385.768V365.362Z" fill="#6347F5"/>
<path d="M1676.86 306H1697.26L1676.86 326.406V306Z" fill="#6347F5"/>
<path d="M1676.86 326.406H1697.26L1676.86 344.957V326.406Z" fill="#6347F5"/>
<path d="M1676.86 344.957H1697.26L1676.86 365.362V344.957Z" fill="#6347F5"/>
<path d="M1676.86 365.362H1697.26L1676.86 385.768V365.362Z" fill="#6347F5"/>
<path d="M1697.26 306H1717.67L1697.26 326.406V306Z" fill="#6347F5"/>
<path d="M1697.26 326.406H1717.67L1697.26 344.957V326.406Z" fill="#6347F5"/>
<path d="M1697.26 344.957H1717.67L1697.26 365.362V344.957Z" fill="#6347F5"/>
<path d="M1697.26 365.362H1717.67L1697.26 385.768V365.362Z" fill="#6347F5"/>
<path d="M1717.67 306H1738.07L1717.67 326.406V306Z" fill="#6347F5"/>
<path d="M1717.67 326.406H1738.07L1717.67 344.957V326.406Z" fill="#6347F5"/>
<path d="M1717.67 344.957H1738.07L1717.67 365.362V344.957Z" fill="#6347F5"/>
<path d="M1717.67 365.362H1738.07L1717.67 385.768V365.362Z" fill="#6347F5"/>
<path d="M1738.07 306H1758.48L1738.07 326.406V306Z" fill="#6347F5"/>
<path d="M1738.07 326.406H1758.48L1738.07 344.957V326.406Z" fill="#6347F5"/>
<path d="M1738.07 344.957H1758.48L1738.07 365.362V344.957Z" fill="#6347F5"/>
<path d="M1738.07 365.362H1758.48L1738.07 385.768V365.362Z" fill="#6347F5"/>
<path d="M1758.48 306H1778.88L1758.48 326.406V306Z" fill="#6347F5"/>
<path d="M1758.48 326.406H1778.88L1758.48 344.957V326.406Z" fill="#6347F5"/>
<path d="M1758.48 344.957H1778.88L1758.48 365.362V344.957Z" fill="#6347F5"/>
<path d="M1758.48 365.362H1778.88L1758.48 385.768V365.362Z" fill="#6347F5"/>
<path d="M554.535 400.609H574.941L554.535 421.014V400.609Z" fill="#6347F5"/>
<path d="M554.535 421.014H574.941L554.535 439.565V421.014Z" fill="#6347F5"/>
<path d="M554.535 439.565H574.941L554.535 459.971V439.565Z" fill="#6347F5"/>
<path d="M554.535 459.971H574.941L554.535 480.377V459.971Z" fill="#6347F5"/>
<path d="M574.941 400.609H595.347L574.941 421.014V400.609Z" fill="#6347F5"/>
<path d="M574.941 421.014H595.347L574.941 439.565V421.014Z" fill="#6347F5"/>
<path d="M574.941 439.565H595.347L574.941 459.971V439.565Z" fill="#6347F5"/>
<path d="M574.941 459.971H595.347L574.941 480.377V459.971Z" fill="#6347F5"/>
<path d="M595.348 400.609H615.753L595.348 421.014V400.609Z" fill="#6347F5"/>
<path d="M595.348 421.014H615.753L595.348 439.565V421.014Z" fill="#6347F5"/>
<path d="M595.348 439.565H615.753L595.348 459.971V439.565Z" fill="#6347F5"/>
<path d="M595.348 459.971H615.753L595.348 480.377V459.971Z" fill="#6347F5"/>
<path d="M615.752 400.609H636.158L615.752 421.014V400.609Z" fill="#6347F5"/>
<path d="M615.752 421.014H636.158L615.752 439.565V421.014Z" fill="#6347F5"/>
<path d="M615.752 439.565H636.158L615.752 459.971V439.565Z" fill="#6347F5"/>
<path d="M615.752 459.971H636.158L615.752 480.377V459.971Z" fill="#6347F5"/>
<path d="M636.158 400.609H656.564L636.158 421.014V400.609Z" fill="#6347F5"/>
<path d="M636.158 421.014H656.564L636.158 439.565V421.014Z" fill="#6347F5"/>
<path d="M636.158 439.565H656.564L636.158 459.971V439.565Z" fill="#6347F5"/>
<path d="M636.158 459.971H656.564L636.158 480.377V459.971Z" fill="#6347F5"/>
<path d="M656.564 400.609H676.97L656.564 421.014V400.609Z" fill="#6347F5"/>
<path d="M656.564 421.014H676.97L656.564 439.565V421.014Z" fill="#6347F5"/>
<path d="M656.564 439.565H676.97L656.564 459.971V439.565Z" fill="#6347F5"/>
<path d="M656.564 459.971H676.97L656.564 480.377V459.971Z" fill="#6347F5"/>
<path d="M676.971 400.609H697.377L676.971 421.014V400.609Z" fill="#6347F5"/>
<path d="M676.971 421.014H697.377L676.971 439.565V421.014Z" fill="#6347F5"/>
<path d="M676.971 439.565H697.377L676.971 459.971V439.565Z" fill="#6347F5"/>
<path d="M676.971 459.971H697.377L676.971 480.377V459.971Z" fill="#6347F5"/>
<path d="M697.375 400.609H717.781L697.375 421.014V400.609Z" fill="#6347F5"/>
<path d="M697.375 421.014H717.781L697.375 439.565V421.014Z" fill="#6347F5"/>
<path d="M697.375 439.565H717.781L697.375 459.971V439.565Z" fill="#6347F5"/>
<path d="M697.375 459.971H717.781L697.375 480.377V459.971Z" fill="#6347F5"/>
<path d="M717.781 400.609H738.187L717.781 421.014V400.609Z" fill="#6347F5"/>
<path d="M717.781 421.014H738.187L717.781 439.565V421.014Z" fill="#6347F5"/>
<path d="M717.781 439.565H738.187L717.781 459.971V439.565Z" fill="#6347F5"/>
<path d="M717.781 459.971H738.187L717.781 480.377V459.971Z" fill="#6347F5"/>
<path d="M738.188 400.609H758.593L738.188 421.014V400.609Z" fill="#6347F5"/>
<path d="M738.188 421.014H758.593L738.188 439.565V421.014Z" fill="#6347F5"/>
<path d="M738.188 439.565H758.593L738.188 459.971V439.565Z" fill="#6347F5"/>
<path d="M738.188 459.971H758.593L738.188 480.377V459.971Z" fill="#6347F5"/>
<path d="M758.594 400.609H779L758.594 421.014V400.609Z" fill="#6347F5"/>
<path d="M758.594 421.014H779L758.594 439.565V421.014Z" fill="#6347F5"/>
<path d="M758.594 439.565H779L758.594 459.971V439.565Z" fill="#6347F5"/>
<path d="M758.594 459.971H779L758.594 480.377V459.971Z" fill="#6347F5"/>
<path d="M778.998 400.609H799.404L778.998 421.014V400.609Z" fill="#6347F5"/>
<path d="M778.998 421.014H799.404L778.998 439.565V421.014Z" fill="#6347F5"/>
<path d="M778.998 439.565H799.404L778.998 459.971V439.565Z" fill="#6347F5"/>
<path d="M778.998 459.971H799.404L778.998 480.377V459.971Z" fill="#6347F5"/>
<path d="M799.404 400.609H819.81L799.404 421.014V400.609Z" fill="#6347F5"/>
<path d="M799.404 421.014H819.81L799.404 439.565V421.014Z" fill="#6347F5"/>
<path d="M799.404 439.565H819.81L799.404 459.971V439.565Z" fill="#6347F5"/>
<path d="M799.404 459.971H819.81L799.404 480.377V459.971Z" fill="#6347F5"/>
<path d="M819.811 400.609H840.216L819.811 421.014V400.609Z" fill="#6347F5"/>
<path d="M819.811 421.014H840.216L819.811 439.565V421.014Z" fill="#6347F5"/>
<path d="M819.811 439.565H840.216L819.811 459.971V439.565Z" fill="#6347F5"/>
<path d="M819.811 459.971H840.216L819.811 480.377V459.971Z" fill="#6347F5"/>
<path d="M840.217 400.609H860.623L840.217 421.014V400.609Z" fill="#6347F5"/>
<path d="M840.217 421.014H860.623L840.217 439.565V421.014Z" fill="#6347F5"/>
<path d="M840.217 439.565H860.623L840.217 459.971V439.565Z" fill="#6347F5"/>
<path d="M840.217 459.971H860.623L840.217 480.377V459.971Z" fill="#6347F5"/>
<path d="M860.623 400.609H881.029L860.623 421.014V400.609Z" fill="#6347F5"/>
<path d="M860.623 421.014H881.029L860.623 439.565V421.014Z" fill="#6347F5"/>
<path d="M860.623 439.565H881.029L860.623 459.971V439.565Z" fill="#6347F5"/>
<path d="M860.623 459.971H881.029L860.623 480.377V459.971Z" fill="#6347F5"/>
<path d="M881.027 400.609H901.433L881.027 421.014V400.609Z" fill="#6347F5"/>
<path d="M881.027 421.014H901.433L881.027 439.565V421.014Z" fill="#6347F5"/>
<path d="M881.027 439.565H901.433L881.027 459.971V439.565Z" fill="#6347F5"/>
<path d="M881.027 459.971H901.433L881.027 480.377V459.971Z" fill="#6347F5"/>
<path d="M901.434 400.609H921.839L901.434 421.014V400.609Z" fill="#6347F5"/>
<path d="M901.434 421.014H921.839L901.434 439.565V421.014Z" fill="#6347F5"/>
<path d="M901.434 439.565H921.839L901.434 459.971V439.565Z" fill="#6347F5"/>
<path d="M901.434 459.971H921.839L901.434 480.377V459.971Z" fill="#6347F5"/>
<path d="M921.84 400.609H942.246L921.84 421.014V400.609Z" fill="#6347F5"/>
<path d="M921.84 421.014H942.246L921.84 439.565V421.014Z" fill="#6347F5"/>
<path d="M921.84 439.565H942.246L921.84 459.971V439.565Z" fill="#6347F5"/>
<path d="M921.84 459.971H942.246L921.84 480.377V459.971Z" fill="#6347F5"/>
<path d="M942.246 400.609H962.652L942.246 421.014V400.609Z" fill="#6347F5"/>
<path d="M942.246 421.014H962.652L942.246 439.565V421.014Z" fill="#6347F5"/>
<path d="M942.246 439.565H962.652L942.246 459.971V439.565Z" fill="#6347F5"/>
<path d="M942.246 459.971H962.652L942.246 480.377V459.971Z" fill="#6347F5"/>
<path d="M962.65 400.609H983.056L962.65 421.014V400.609Z" fill="#6347F5"/>
<path d="M962.65 421.014H983.056L962.65 439.565V421.014Z" fill="#6347F5"/>
<path d="M962.65 439.565H983.056L962.65 459.971V439.565Z" fill="#6347F5"/>
<path d="M962.65 459.971H983.056L962.65 480.377V459.971Z" fill="#6347F5"/>
<path d="M983.057 400.609H1003.46L983.057 421.014V400.609Z" fill="#6347F5"/>
<path d="M983.057 421.014H1003.46L983.057 439.565V421.014Z" fill="#6347F5"/>
<path d="M983.057 439.565H1003.46L983.057 459.971V439.565Z" fill="#6347F5"/>
<path d="M983.057 459.971H1003.46L983.057 480.377V459.971Z" fill="#6347F5"/>
<path d="M1003.46 400.609H1023.87L1003.46 421.014V400.609Z" fill="#6347F5"/>
<path d="M1003.46 421.014H1023.87L1003.46 439.565V421.014Z" fill="#6347F5"/>
<path d="M1003.46 439.565H1023.87L1003.46 459.971V439.565Z" fill="#6347F5"/>
<path d="M1003.46 459.971H1023.87L1003.46 480.377V459.971Z" fill="#6347F5"/>
<path d="M1023.87 400.609H1044.27L1023.87 421.014V400.609Z" fill="#6347F5"/>
<path d="M1023.87 421.014H1044.27L1023.87 439.565V421.014Z" fill="#6347F5"/>
<path d="M1023.87 439.565H1044.27L1023.87 459.971V439.565Z" fill="#6347F5"/>
<path d="M1023.87 459.971H1044.27L1023.87 480.377V459.971Z" fill="#6347F5"/>
<path d="M1044.27 400.609H1064.68L1044.27 421.014V400.609Z" fill="#6347F5"/>
<path d="M1044.27 421.014H1064.68L1044.27 439.565V421.014Z" fill="#6347F5"/>
<path d="M1044.27 439.565H1064.68L1044.27 459.971V439.565Z" fill="#6347F5"/>
<path d="M1044.27 459.971H1064.68L1044.27 480.377V459.971Z" fill="#6347F5"/>
<path d="M1064.68 400.609H1085.09L1064.68 421.014V400.609Z" fill="#6347F5"/>
<path d="M1064.68 421.014H1085.09L1064.68 439.565V421.014Z" fill="#6347F5"/>
<path d="M1064.68 439.565H1085.09L1064.68 459.971V439.565Z" fill="#6347F5"/>
<path d="M1064.68 459.971H1085.09L1064.68 480.377V459.971Z" fill="#6347F5"/>
<path d="M1085.09 400.609H1105.49L1085.09 421.014V400.609Z" fill="#6347F5"/>
<path d="M1085.09 421.014H1105.49L1085.09 439.565V421.014Z" fill="#6347F5"/>
<path d="M1085.09 439.565H1105.49L1085.09 459.971V439.565Z" fill="#6347F5"/>
<path d="M1085.09 459.971H1105.49L1085.09 480.377V459.971Z" fill="#6347F5"/>
<path d="M1105.49 400.609H1125.9L1105.49 421.014V400.609Z" fill="#6347F5"/>
<path d="M1105.49 421.014H1125.9L1105.49 439.565V421.014Z" fill="#6347F5"/>
<path d="M1105.49 439.565H1125.9L1105.49 459.971V439.565Z" fill="#6347F5"/>
<path d="M1105.49 459.971H1125.9L1105.49 480.377V459.971Z" fill="#6347F5"/>
<path d="M1125.9 400.609H1146.3L1125.9 421.014V400.609Z" fill="#6347F5"/>
<path d="M1125.9 421.014H1146.3L1125.9 439.565V421.014Z" fill="#6347F5"/>
<path d="M1125.9 439.565H1146.3L1125.9 459.971V439.565Z" fill="#6347F5"/>
<path d="M1125.9 459.971H1146.3L1125.9 480.377V459.971Z" fill="#6347F5"/>
<path d="M1146.3 400.609H1166.71L1146.3 421.014V400.609Z" fill="#6347F5"/>
<path d="M1146.3 421.014H1166.71L1146.3 439.565V421.014Z" fill="#6347F5"/>
<path d="M1146.3 439.565H1166.71L1146.3 459.971V439.565Z" fill="#6347F5"/>
<path d="M1146.3 459.971H1166.71L1146.3 480.377V459.971Z" fill="#6347F5"/>
<path d="M1166.71 400.609H1187.11L1166.71 421.014V400.609Z" fill="#6347F5"/>
<path d="M1166.71 421.014H1187.11L1166.71 439.565V421.014Z" fill="#6347F5"/>
<path d="M1166.71 439.565H1187.11L1166.71 459.971V439.565Z" fill="#6347F5"/>
<path d="M1166.71 459.971H1187.11L1166.71 480.377V459.971Z" fill="#6347F5"/>
<path d="M1187.12 400.609H1207.52L1187.12 421.014V400.609Z" fill="#6347F5"/>
<path d="M1187.12 421.014H1207.52L1187.12 439.565V421.014Z" fill="#6347F5"/>
<path d="M1187.12 439.565H1207.52L1187.12 459.971V439.565Z" fill="#6347F5"/>
<path d="M1187.12 459.971H1207.52L1187.12 480.377V459.971Z" fill="#6347F5"/>
<path d="M1207.52 400.609H1227.93L1207.52 421.014V400.609Z" fill="#6347F5"/>
<path d="M1207.52 421.014H1227.93L1207.52 439.565V421.014Z" fill="#6347F5"/>
<path d="M1207.52 439.565H1227.93L1207.52 459.971V439.565Z" fill="#6347F5"/>
<path d="M1207.52 459.971H1227.93L1207.52 480.377V459.971Z" fill="#6347F5"/>
<path d="M1227.93 400.609H1248.33L1227.93 421.014V400.609Z" fill="#6347F5"/>
<path d="M1227.93 421.014H1248.33L1227.93 439.565V421.014Z" fill="#6347F5"/>
<path d="M1227.93 439.565H1248.33L1227.93 459.971V439.565Z" fill="#6347F5"/>
<path d="M1227.93 459.971H1248.33L1227.93 480.377V459.971Z" fill="#6347F5"/>
<path d="M1248.33 400.609H1268.74L1248.33 421.014V400.609Z" fill="#6347F5"/>
<path d="M1248.33 421.014H1268.74L1248.33 439.565V421.014Z" fill="#6347F5"/>
<path d="M1248.33 439.565H1268.74L1248.33 459.971V439.565Z" fill="#6347F5"/>
<path d="M1248.33 459.971H1268.74L1248.33 480.377V459.971Z" fill="#6347F5"/>
<path d="M1268.74 400.609H1289.14L1268.74 421.014V400.609Z" fill="#6347F5"/>
<path d="M1268.74 421.014H1289.14L1268.74 439.565V421.014Z" fill="#6347F5"/>
<path d="M1268.74 439.565H1289.14L1268.74 459.971V439.565Z" fill="#6347F5"/>
<path d="M1268.74 459.971H1289.14L1268.74 480.377V459.971Z" fill="#6347F5"/>
<path d="M1289.14 400.609H1309.55L1289.14 421.014V400.609Z" fill="#6347F5"/>
<path d="M1289.14 421.014H1309.55L1289.14 439.565V421.014Z" fill="#6347F5"/>
<path d="M1289.14 439.565H1309.55L1289.14 459.971V439.565Z" fill="#6347F5"/>
<path d="M1289.14 459.971H1309.55L1289.14 480.377V459.971Z" fill="#6347F5"/>
<path d="M1309.55 400.609H1329.95L1309.55 421.014V400.609Z" fill="#6347F5"/>
<path d="M1309.55 421.014H1329.95L1309.55 439.565V421.014Z" fill="#6347F5"/>
<path d="M1309.55 439.565H1329.95L1309.55 459.971V439.565Z" fill="#6347F5"/>
<path d="M1309.55 459.971H1329.95L1309.55 480.377V459.971Z" fill="#6347F5"/>
<path d="M1329.96 400.609H1350.36L1329.96 421.014V400.609Z" fill="#6347F5"/>
<path d="M1329.96 421.014H1350.36L1329.96 439.565V421.014Z" fill="#6347F5"/>
<path d="M1329.96 439.565H1350.36L1329.96 459.971V439.565Z" fill="#6347F5"/>
<path d="M1329.96 459.971H1350.36L1329.96 480.377V459.971Z" fill="#6347F5"/>
<path d="M1350.36 400.609H1370.77L1350.36 421.014V400.609Z" fill="#6347F5"/>
<path d="M1350.36 421.014H1370.77L1350.36 439.565V421.014Z" fill="#6347F5"/>
<path d="M1350.36 439.565H1370.77L1350.36 459.971V439.565Z" fill="#6347F5"/>
<path d="M1350.36 459.971H1370.77L1350.36 480.377V459.971Z" fill="#6347F5"/>
<path d="M1370.77 400.609H1391.17L1370.77 421.014V400.609Z" fill="#6347F5"/>
<path d="M1370.77 421.014H1391.17L1370.77 439.565V421.014Z" fill="#6347F5"/>
<path d="M1370.77 439.565H1391.17L1370.77 459.971V439.565Z" fill="#6347F5"/>
<path d="M1370.77 459.971H1391.17L1370.77 480.377V459.971Z" fill="#6347F5"/>
<path d="M1391.17 400.609H1411.58L1391.17 421.014V400.609Z" fill="#6347F5"/>
<path d="M1391.17 421.014H1411.58L1391.17 439.565V421.014Z" fill="#6347F5"/>
<path d="M1391.17 439.565H1411.58L1391.17 459.971V439.565Z" fill="#6347F5"/>
<path d="M1391.17 459.971H1411.58L1391.17 480.377V459.971Z" fill="#6347F5"/>
<path d="M1411.58 400.609H1431.98L1411.58 421.014V400.609Z" fill="#6347F5"/>
<path d="M1411.58 421.014H1431.98L1411.58 439.565V421.014Z" fill="#6347F5"/>
<path d="M1411.58 439.565H1431.98L1411.58 459.971V439.565Z" fill="#6347F5"/>
<path d="M1411.58 459.971H1431.98L1411.58 480.377V459.971Z" fill="#6347F5"/>
<path d="M1431.98 400.609H1452.39L1431.98 421.014V400.609Z" fill="#6347F5"/>
<path d="M1431.98 421.014H1452.39L1431.98 439.565V421.014Z" fill="#6347F5"/>
<path d="M1431.98 439.565H1452.39L1431.98 459.971V439.565Z" fill="#6347F5"/>
<path d="M1431.98 459.971H1452.39L1431.98 480.377V459.971Z" fill="#6347F5"/>
<path d="M1452.39 400.609H1472.8L1452.39 421.014V400.609Z" fill="#6347F5"/>
<path d="M1452.39 421.014H1472.8L1452.39 439.565V421.014Z" fill="#6347F5"/>
<path d="M1452.39 439.565H1472.8L1452.39 459.971V439.565Z" fill="#6347F5"/>
<path d="M1452.39 459.971H1472.8L1452.39 480.377V459.971Z" fill="#6347F5"/>
<path d="M1472.8 400.609H1493.2L1472.8 421.014V400.609Z" fill="#6347F5"/>
<path d="M1472.8 421.014H1493.2L1472.8 439.565V421.014Z" fill="#6347F5"/>
<path d="M1472.8 439.565H1493.2L1472.8 459.971V439.565Z" fill="#6347F5"/>
<path d="M1472.8 459.971H1493.2L1472.8 480.377V459.971Z" fill="#6347F5"/>
<path d="M1493.2 400.609H1513.61L1493.2 421.014V400.609Z" fill="#6347F5"/>
<path d="M1493.2 421.014H1513.61L1493.2 439.565V421.014Z" fill="#6347F5"/>
<path d="M1493.2 439.565H1513.61L1493.2 459.971V439.565Z" fill="#6347F5"/>
<path d="M1493.2 459.971H1513.61L1493.2 480.377V459.971Z" fill="#6347F5"/>
<path d="M1513.61 400.609H1534.01L1513.61 421.014V400.609Z" fill="#6347F5"/>
<path d="M1513.61 421.014H1534.01L1513.61 439.565V421.014Z" fill="#6347F5"/>
<path d="M1513.61 439.565H1534.01L1513.61 459.971V439.565Z" fill="#6347F5"/>
<path d="M1513.61 459.971H1534.01L1513.61 480.377V459.971Z" fill="#6347F5"/>
<path d="M1534.01 400.609H1554.42L1534.01 421.014V400.609Z" fill="#6347F5"/>
<path d="M1534.01 421.014H1554.42L1534.01 439.565V421.014Z" fill="#6347F5"/>
<path d="M1534.01 439.565H1554.42L1534.01 459.971V439.565Z" fill="#6347F5"/>
<path d="M1534.01 459.971H1554.42L1534.01 480.377V459.971Z" fill="#6347F5"/>
<path d="M1554.42 400.609H1574.83L1554.42 421.014V400.609Z" fill="#6347F5"/>
<path d="M1554.42 421.014H1574.83L1554.42 439.565V421.014Z" fill="#6347F5"/>
<path d="M1554.42 439.565H1574.83L1554.42 459.971V439.565Z" fill="#6347F5"/>
<path d="M1554.42 459.971H1574.83L1554.42 480.377V459.971Z" fill="#6347F5"/>
<path d="M1574.82 400.609H1595.23L1574.82 421.014V400.609Z" fill="#6347F5"/>
<path d="M1574.82 421.014H1595.23L1574.82 439.565V421.014Z" fill="#6347F5"/>
<path d="M1574.82 439.565H1595.23L1574.82 459.971V439.565Z" fill="#6347F5"/>
<path d="M1574.82 459.971H1595.23L1574.82 480.377V459.971Z" fill="#6347F5"/>
<path d="M1595.23 400.609H1615.64L1595.23 421.014V400.609Z" fill="#6347F5"/>
<path d="M1595.23 421.014H1615.64L1595.23 439.565V421.014Z" fill="#6347F5"/>
<path d="M1595.23 439.565H1615.64L1595.23 459.971V439.565Z" fill="#6347F5"/>
<path d="M1595.23 459.971H1615.64L1595.23 480.377V459.971Z" fill="#6347F5"/>
<path d="M1615.64 400.609H1636.04L1615.64 421.014V400.609Z" fill="#6347F5"/>
<path d="M1615.64 421.014H1636.04L1615.64 439.565V421.014Z" fill="#6347F5"/>
<path d="M1615.64 439.565H1636.04L1615.64 459.971V439.565Z" fill="#6347F5"/>
<path d="M1615.64 459.971H1636.04L1615.64 480.377V459.971Z" fill="#6347F5"/>
<path d="M1636.04 400.609H1656.45L1636.04 421.014V400.609Z" fill="#6347F5"/>
<path d="M1636.04 421.014H1656.45L1636.04 439.565V421.014Z" fill="#6347F5"/>
<path d="M1636.04 439.565H1656.45L1636.04 459.971V439.565Z" fill="#6347F5"/>
<path d="M1636.04 459.971H1656.45L1636.04 480.377V459.971Z" fill="#6347F5"/>
<path d="M1656.45 400.609H1676.85L1656.45 421.014V400.609Z" fill="#6347F5"/>
<path d="M1656.45 421.014H1676.85L1656.45 439.565V421.014Z" fill="#6347F5"/>
<path d="M1656.45 439.565H1676.85L1656.45 459.971V439.565Z" fill="#6347F5"/>
<path d="M1656.45 459.971H1676.85L1656.45 480.377V459.971Z" fill="#6347F5"/>
<path d="M1676.85 400.609H1697.26L1676.85 421.014V400.609Z" fill="#6347F5"/>
<path d="M1676.85 421.014H1697.26L1676.85 439.565V421.014Z" fill="#6347F5"/>
<path d="M1676.85 439.565H1697.26L1676.85 459.971V439.565Z" fill="#6347F5"/>
<path d="M1676.85 459.971H1697.26L1676.85 480.377V459.971Z" fill="#6347F5"/>
<path d="M1697.26 400.609H1717.67L1697.26 421.014V400.609Z" fill="#6347F5"/>
<path d="M1697.26 421.014H1717.67L1697.26 439.565V421.014Z" fill="#6347F5"/>
<path d="M1697.26 439.565H1717.67L1697.26 459.971V439.565Z" fill="#6347F5"/>
<path d="M1697.26 459.971H1717.67L1697.26 480.377V459.971Z" fill="#6347F5"/>
<path d="M1717.67 400.609H1738.07L1717.67 421.014V400.609Z" fill="#6347F5"/>
<path d="M1717.67 421.014H1738.07L1717.67 439.565V421.014Z" fill="#6347F5"/>
<path d="M1717.67 439.565H1738.07L1717.67 459.971V439.565Z" fill="#6347F5"/>
<path d="M1717.67 459.971H1738.07L1717.67 480.377V459.971Z" fill="#6347F5"/>
<path d="M1738.07 400.609H1758.48L1738.07 421.014V400.609Z" fill="#6347F5"/>
<path d="M1738.07 421.014H1758.48L1738.07 439.565V421.014Z" fill="#6347F5"/>
<path d="M1738.07 439.565H1758.48L1738.07 459.971V439.565Z" fill="#6347F5"/>
<path d="M1738.07 459.971H1758.48L1738.07 480.377V459.971Z" fill="#6347F5"/>
<path d="M1758.48 400.609H1778.88L1758.48 421.014V400.609Z" fill="#6347F5"/>
<path d="M1758.48 421.014H1778.88L1758.48 439.565V421.014Z" fill="#6347F5"/>
<path d="M1758.48 439.565H1778.88L1758.48 459.971V439.565Z" fill="#6347F5"/>
<path d="M1758.48 459.971H1778.88L1758.48 480.377V459.971Z" fill="#6347F5"/>
<path d="M942.246 495.217H962.652L942.246 515.623V495.217Z" fill="#6347F5"/>
<path d="M942.246 515.623H962.652L942.246 534.174V515.623Z" fill="#6347F5"/>
<path d="M942.246 534.174H962.652L942.246 554.58V534.174Z" fill="#6347F5"/>
<path d="M942.246 554.58H962.652L942.246 574.986V554.58Z" fill="#6347F5"/>
<path d="M962.652 495.217H983.058L962.652 515.623V495.217Z" fill="#6347F5"/>
<path d="M962.652 515.623H983.058L962.652 534.174V515.623Z" fill="#6347F5"/>
<path d="M962.652 534.174H983.058L962.652 554.58V534.174Z" fill="#6347F5"/>
<path d="M962.652 554.58H983.058L962.652 574.986V554.58Z" fill="#6347F5"/>
<path d="M983.059 495.217H1003.46L983.059 515.623V495.217Z" fill="#6347F5"/>
<path d="M983.059 515.623H1003.46L983.059 534.174V515.623Z" fill="#6347F5"/>
<path d="M983.059 534.174H1003.46L983.059 554.58V534.174Z" fill="#6347F5"/>
<path d="M983.059 554.58H1003.46L983.059 574.986V554.58Z" fill="#6347F5"/>
<path d="M1003.46 495.217H1023.87L1003.46 515.623V495.217Z" fill="#6347F5"/>
<path d="M1003.46 515.623H1023.87L1003.46 534.174V515.623Z" fill="#6347F5"/>
<path d="M1003.46 534.174H1023.87L1003.46 554.58V534.174Z" fill="#6347F5"/>
<path d="M1003.46 554.58H1023.87L1003.46 574.986V554.58Z" fill="#6347F5"/>
<path d="M1023.87 495.217H1044.27L1023.87 515.623V495.217Z" fill="#6347F5"/>
<path d="M1023.87 515.623H1044.27L1023.87 534.174V515.623Z" fill="#6347F5"/>
<path d="M1023.87 534.174H1044.27L1023.87 554.58V534.174Z" fill="#6347F5"/>
<path d="M1023.87 554.58H1044.27L1023.87 574.986V554.58Z" fill="#6347F5"/>
<path d="M1044.28 495.217H1064.68L1044.28 515.623V495.217Z" fill="#6347F5"/>
<path d="M1044.28 515.623H1064.68L1044.28 534.174V515.623Z" fill="#6347F5"/>
<path d="M1044.28 534.174H1064.68L1044.28 554.58V534.174Z" fill="#6347F5"/>
<path d="M1044.28 554.58H1064.68L1044.28 574.986V554.58Z" fill="#6347F5"/>
<path d="M1064.68 495.217H1085.09L1064.68 515.623V495.217Z" fill="#6347F5"/>
<path d="M1064.68 515.623H1085.09L1064.68 534.174V515.623Z" fill="#6347F5"/>
<path d="M1064.68 534.174H1085.09L1064.68 554.58V534.174Z" fill="#6347F5"/>
<path d="M1064.68 554.58H1085.09L1064.68 574.986V554.58Z" fill="#6347F5"/>
<path d="M1085.09 495.217H1105.49L1085.09 515.623V495.217Z" fill="#6347F5"/>
<path d="M1085.09 515.623H1105.49L1085.09 534.174V515.623Z" fill="#6347F5"/>
<path d="M1085.09 534.174H1105.49L1085.09 554.58V534.174Z" fill="#6347F5"/>
<path d="M1085.09 554.58H1105.49L1085.09 574.986V554.58Z" fill="#6347F5"/>
<path d="M1105.49 495.217H1125.9L1105.49 515.623V495.217Z" fill="#6347F5"/>
<path d="M1105.49 515.623H1125.9L1105.49 534.174V515.623Z" fill="#6347F5"/>
<path d="M1105.49 534.174H1125.9L1105.49 554.58V534.174Z" fill="#6347F5"/>
<path d="M1105.49 554.58H1125.9L1105.49 574.986V554.58Z" fill="#6347F5"/>
<path d="M1125.9 495.217H1146.3L1125.9 515.623V495.217Z" fill="#6347F5"/>
<path d="M1125.9 515.623H1146.3L1125.9 534.174V515.623Z" fill="#6347F5"/>
<path d="M1125.9 534.174H1146.3L1125.9 554.58V534.174Z" fill="#6347F5"/>
<path d="M1125.9 554.58H1146.3L1125.9 574.986V554.58Z" fill="#6347F5"/>
<path d="M1146.3 495.217H1166.71L1146.3 515.623V495.217Z" fill="#6347F5"/>
<path d="M1146.3 515.623H1166.71L1146.3 534.174V515.623Z" fill="#6347F5"/>
<path d="M1146.3 534.174H1166.71L1146.3 554.58V534.174Z" fill="#6347F5"/>
<path d="M1146.3 554.58H1166.71L1146.3 574.986V554.58Z" fill="#6347F5"/>
<path d="M1166.71 495.217H1187.11L1166.71 515.623V495.217Z" fill="#6347F5"/>
<path d="M1166.71 515.623H1187.11L1166.71 534.174V515.623Z" fill="#6347F5"/>
<path d="M1166.71 534.174H1187.11L1166.71 554.58V534.174Z" fill="#6347F5"/>
<path d="M1166.71 554.58H1187.11L1166.71 574.986V554.58Z" fill="#6347F5"/>
<path d="M1187.12 495.217H1207.52L1187.12 515.623V495.217Z" fill="#6347F5"/>
<path d="M1187.12 515.623H1207.52L1187.12 534.174V515.623Z" fill="#6347F5"/>
<path d="M1187.12 534.174H1207.52L1187.12 554.58V534.174Z" fill="#6347F5"/>
<path d="M1187.12 554.58H1207.52L1187.12 574.986V554.58Z" fill="#6347F5"/>
<path d="M1207.52 495.217H1227.93L1207.52 515.623V495.217Z" fill="#6347F5"/>
<path d="M1207.52 515.623H1227.93L1207.52 534.174V515.623Z" fill="#6347F5"/>
<path d="M1207.52 534.174H1227.93L1207.52 554.58V534.174Z" fill="#6347F5"/>
<path d="M1207.52 554.58H1227.93L1207.52 574.986V554.58Z" fill="#6347F5"/>
<path d="M1227.93 495.217H1248.33L1227.93 515.623V495.217Z" fill="#6347F5"/>
<path d="M1227.93 515.623H1248.33L1227.93 534.174V515.623Z" fill="#6347F5"/>
<path d="M1227.93 534.174H1248.33L1227.93 554.58V534.174Z" fill="#6347F5"/>
<path d="M1227.93 554.58H1248.33L1227.93 574.986V554.58Z" fill="#6347F5"/>
<path d="M1248.33 495.217H1268.74L1248.33 515.623V495.217Z" fill="#6347F5"/>
<path d="M1248.33 515.623H1268.74L1248.33 534.174V515.623Z" fill="#6347F5"/>
<path d="M1248.33 534.174H1268.74L1248.33 554.58V534.174Z" fill="#6347F5"/>
<path d="M1248.33 554.58H1268.74L1248.33 574.986V554.58Z" fill="#6347F5"/>
<path d="M1268.74 495.217H1289.14L1268.74 515.623V495.217Z" fill="#6347F5"/>
<path d="M1268.74 515.623H1289.14L1268.74 534.174V515.623Z" fill="#6347F5"/>
<path d="M1268.74 534.174H1289.14L1268.74 554.58V534.174Z" fill="#6347F5"/>
<path d="M1268.74 554.58H1289.14L1268.74 574.986V554.58Z" fill="#6347F5"/>
<path d="M1289.14 495.217H1309.55L1289.14 515.623V495.217Z" fill="#6347F5"/>
<path d="M1289.14 515.623H1309.55L1289.14 534.174V515.623Z" fill="#6347F5"/>
<path d="M1289.14 534.174H1309.55L1289.14 554.58V534.174Z" fill="#6347F5"/>
<path d="M1289.14 554.58H1309.55L1289.14 574.986V554.58Z" fill="#6347F5"/>
<path d="M1309.55 495.217H1329.96L1309.55 515.623V495.217Z" fill="#6347F5"/>
<path d="M1309.55 515.623H1329.96L1309.55 534.174V515.623Z" fill="#6347F5"/>
<path d="M1309.55 534.174H1329.96L1309.55 554.58V534.174Z" fill="#6347F5"/>
<path d="M1309.55 554.58H1329.96L1309.55 574.986V554.58Z" fill="#6347F5"/>
<path d="M1329.96 495.217H1350.36L1329.96 515.623V495.217Z" fill="#6347F5"/>
<path d="M1329.96 515.623H1350.36L1329.96 534.174V515.623Z" fill="#6347F5"/>
<path d="M1329.96 534.174H1350.36L1329.96 554.58V534.174Z" fill="#6347F5"/>
<path d="M1329.96 554.58H1350.36L1329.96 574.986V554.58Z" fill="#6347F5"/>
<path d="M1350.36 495.217H1370.77L1350.36 515.623V495.217Z" fill="#6347F5"/>
<path d="M1350.36 515.623H1370.77L1350.36 534.174V515.623Z" fill="#6347F5"/>
<path d="M1350.36 534.174H1370.77L1350.36 554.58V534.174Z" fill="#6347F5"/>
<path d="M1350.36 554.58H1370.77L1350.36 574.986V554.58Z" fill="#6347F5"/>
<path d="M1370.77 495.217H1391.17L1370.77 515.623V495.217Z" fill="#6347F5"/>
<path d="M1370.77 515.623H1391.17L1370.77 534.174V515.623Z" fill="#6347F5"/>
<path d="M1370.77 534.174H1391.17L1370.77 554.58V534.174Z" fill="#6347F5"/>
<path d="M1370.77 554.58H1391.17L1370.77 574.986V554.58Z" fill="#6347F5"/>
<path d="M1391.17 495.217H1411.58L1391.17 515.623V495.217Z" fill="#6347F5"/>
<path d="M1391.17 515.623H1411.58L1391.17 534.174V515.623Z" fill="#6347F5"/>
<path d="M1391.17 534.174H1411.58L1391.17 554.58V534.174Z" fill="#6347F5"/>
<path d="M1391.17 554.58H1411.58L1391.17 574.986V554.58Z" fill="#6347F5"/>
<path d="M1411.58 495.217H1431.98L1411.58 515.623V495.217Z" fill="#6347F5"/>
<path d="M1411.58 515.623H1431.98L1411.58 534.174V515.623Z" fill="#6347F5"/>
<path d="M1411.58 534.174H1431.98L1411.58 554.58V534.174Z" fill="#6347F5"/>
<path d="M1411.58 554.58H1431.98L1411.58 574.986V554.58Z" fill="#6347F5"/>
<path d="M1431.98 495.217H1452.39L1431.98 515.623V495.217Z" fill="#6347F5"/>
<path d="M1431.98 515.623H1452.39L1431.98 534.174V515.623Z" fill="#6347F5"/>
<path d="M1431.98 534.174H1452.39L1431.98 554.58V534.174Z" fill="#6347F5"/>
<path d="M1431.98 554.58H1452.39L1431.98 574.986V554.58Z" fill="#6347F5"/>
<path d="M1452.39 495.217H1472.8L1452.39 515.623V495.217Z" fill="#6347F5"/>
<path d="M1452.39 515.623H1472.8L1452.39 534.174V515.623Z" fill="#6347F5"/>
<path d="M1452.39 534.174H1472.8L1452.39 554.58V534.174Z" fill="#6347F5"/>
<path d="M1452.39 554.58H1472.8L1452.39 574.986V554.58Z" fill="#6347F5"/>
<path d="M1472.8 495.217H1493.2L1472.8 515.623V495.217Z" fill="#6347F5"/>
<path d="M1472.8 515.623H1493.2L1472.8 534.174V515.623Z" fill="#6347F5"/>
<path d="M1472.8 534.174H1493.2L1472.8 554.58V534.174Z" fill="#6347F5"/>
<path d="M1472.8 554.58H1493.2L1472.8 574.986V554.58Z" fill="#6347F5"/>
<path d="M1493.2 495.217H1513.61L1493.2 515.623V495.217Z" fill="#6347F5"/>
<path d="M1493.2 515.623H1513.61L1493.2 534.174V515.623Z" fill="#6347F5"/>
<path d="M1493.2 534.174H1513.61L1493.2 554.58V534.174Z" fill="#6347F5"/>
<path d="M1493.2 554.58H1513.61L1493.2 574.986V554.58Z" fill="#6347F5"/>
<path d="M1513.61 495.217H1534.02L1513.61 515.623V495.217Z" fill="#6347F5"/>
<path d="M1513.61 515.623H1534.02L1513.61 534.174V515.623Z" fill="#6347F5"/>
<path d="M1513.61 534.174H1534.02L1513.61 554.58V534.174Z" fill="#6347F5"/>
<path d="M1513.61 554.58H1534.02L1513.61 574.986V554.58Z" fill="#6347F5"/>
<path d="M1534.01 495.217H1554.42L1534.01 515.623V495.217Z" fill="#6347F5"/>
<path d="M1534.01 515.623H1554.42L1534.01 534.174V515.623Z" fill="#6347F5"/>
<path d="M1534.01 534.174H1554.42L1534.01 554.58V534.174Z" fill="#6347F5"/>
<path d="M1534.01 554.58H1554.42L1534.01 574.986V554.58Z" fill="#6347F5"/>
<path d="M1554.42 495.217H1574.83L1554.42 515.623V495.217Z" fill="#6347F5"/>
<path d="M1554.42 515.623H1574.83L1554.42 534.174V515.623Z" fill="#6347F5"/>
<path d="M1554.42 534.174H1574.83L1554.42 554.58V534.174Z" fill="#6347F5"/>
<path d="M1554.42 554.58H1574.83L1554.42 574.986V554.58Z" fill="#6347F5"/>
<path d="M1574.83 495.217H1595.23L1574.83 515.623V495.217Z" fill="#6347F5"/>
<path d="M1574.83 515.623H1595.23L1574.83 534.174V515.623Z" fill="#6347F5"/>
<path d="M1574.83 534.174H1595.23L1574.83 554.58V534.174Z" fill="#6347F5"/>
<path d="M1574.83 554.58H1595.23L1574.83 574.986V554.58Z" fill="#6347F5"/>
<path d="M1595.23 495.217H1615.64L1595.23 515.623V495.217Z" fill="#6347F5"/>
<path d="M1595.23 515.623H1615.64L1595.23 534.174V515.623Z" fill="#6347F5"/>
<path d="M1595.23 534.174H1615.64L1595.23 554.58V534.174Z" fill="#6347F5"/>
<path d="M1595.23 554.58H1615.64L1595.23 574.986V554.58Z" fill="#6347F5"/>
<path d="M1615.64 495.217H1636.04L1615.64 515.623V495.217Z" fill="#6347F5"/>
<path d="M1615.64 515.623H1636.04L1615.64 534.174V515.623Z" fill="#6347F5"/>
<path d="M1615.64 534.174H1636.04L1615.64 554.58V534.174Z" fill="#6347F5"/>
<path d="M1615.64 554.58H1636.04L1615.64 574.986V554.58Z" fill="#6347F5"/>
<path d="M1636.04 495.217H1656.45L1636.04 515.623V495.217Z" fill="#6347F5"/>
<path d="M1636.04 515.623H1656.45L1636.04 534.174V515.623Z" fill="#6347F5"/>
<path d="M1636.04 534.174H1656.45L1636.04 554.58V534.174Z" fill="#6347F5"/>
<path d="M1636.04 554.58H1656.45L1636.04 574.986V554.58Z" fill="#6347F5"/>
<path d="M1656.45 495.217H1676.86L1656.45 515.623V495.217Z" fill="#6347F5"/>
<path d="M1656.45 515.623H1676.86L1656.45 534.174V515.623Z" fill="#6347F5"/>
<path d="M1656.45 534.174H1676.86L1656.45 554.58V534.174Z" fill="#6347F5"/>
<path d="M1656.45 554.58H1676.86L1656.45 574.986V554.58Z" fill="#6347F5"/>
<path d="M1676.85 495.217H1697.26L1676.85 515.623V495.217Z" fill="#6347F5"/>
<path d="M1676.85 515.623H1697.26L1676.85 534.174V515.623Z" fill="#6347F5"/>
<path d="M1676.85 534.174H1697.26L1676.85 554.58V534.174Z" fill="#6347F5"/>
<path d="M1676.85 554.58H1697.26L1676.85 574.986V554.58Z" fill="#6347F5"/>
<path d="M1697.26 495.217H1717.67L1697.26 515.623V495.217Z" fill="#6347F5"/>
<path d="M1697.26 515.623H1717.67L1697.26 534.174V515.623Z" fill="#6347F5"/>
<path d="M1697.26 534.174H1717.67L1697.26 554.58V534.174Z" fill="#6347F5"/>
<path d="M1697.26 554.58H1717.67L1697.26 574.986V554.58Z" fill="#6347F5"/>
<path d="M1717.67 495.217H1738.07L1717.67 515.623V495.217Z" fill="#6347F5"/>
<path d="M1717.67 515.623H1738.07L1717.67 534.174V515.623Z" fill="#6347F5"/>
<path d="M1717.67 534.174H1738.07L1717.67 554.58V534.174Z" fill="#6347F5"/>
<path d="M1717.67 554.58H1738.07L1717.67 574.986V554.58Z" fill="#6347F5"/>
<path d="M1738.07 495.217H1758.48L1738.07 515.623V495.217Z" fill="#6347F5"/>
<path d="M1738.07 515.623H1758.48L1738.07 534.174V515.623Z" fill="#6347F5"/>
<path d="M1738.07 534.174H1758.48L1738.07 554.58V534.174Z" fill="#6347F5"/>
<path d="M1738.07 554.58H1758.48L1738.07 574.986V554.58Z" fill="#6347F5"/>
<path d="M1758.48 495.217H1778.88L1758.48 515.623V495.217Z" fill="#6347F5"/>
<path d="M1758.48 515.623H1778.88L1758.48 534.174V515.623Z" fill="#6347F5"/>
<path d="M1758.48 534.174H1778.88L1758.48 554.58V534.174Z" fill="#6347F5"/>
<path d="M1758.48 554.58H1778.88L1758.48 574.986V554.58Z" fill="#6347F5"/>
<path d="M318.2 573H321.8V549L321.76 548.6H321.84L330 566.2H336.6L344.76 548.6H344.84L344.8 549V573H348.4V545H342.6L334.2 563H332.4L324 545H318.2V573ZM363.402 573.4C371.002 573.4 373.202 566.8 373.202 566.8H370.002C370.002 566.8 368.202 570.4 363.402 570.4C359.762 570.4 356.802 567.72 356.402 564H373.602V562.8C373.602 557 369.202 552.6 363.402 552.6C357.602 552.6 353.202 557 353.202 563C353.202 569 357.602 573.4 363.402 573.4ZM356.482 561.2C357.002 558.2 359.602 555.6 363.402 555.6C367.202 555.6 369.802 558.2 370.202 561.2H356.482ZM385.795 573.4C391.195 573.4 393.995 570.6 393.995 567.4C393.995 559.8 380.795 562.4 380.795 558.2C380.795 557 382.195 555.6 385.195 555.6C389.395 555.6 390.395 558.6 390.395 558.6H393.795C393.795 558.6 392.635 552.6 385.195 552.6C380.195 552.6 377.595 555.2 377.595 558.2C377.595 565.8 390.795 563.2 390.795 567.4C390.795 569 389.395 570.4 385.795 570.4C381.195 570.4 379.995 566.8 379.995 566.8H376.595C376.595 566.8 377.995 573.4 385.795 573.4ZM406.186 573.4C411.586 573.4 414.386 570.6 414.386 567.4C414.386 559.8 401.186 562.4 401.186 558.2C401.186 557 402.586 555.6 405.586 555.6C409.786 555.6 410.786 558.6 410.786 558.6H414.186C414.186 558.6 413.026 552.6 405.586 552.6C400.586 552.6 397.986 555.2 397.986 558.2C397.986 565.8 411.186 563.2 411.186 567.4C411.186 569 409.786 570.4 406.186 570.4C401.586 570.4 400.386 566.8 400.386 566.8H396.986C396.986 566.8 398.386 573.4 406.186 573.4ZM425.177 573.4C430.417 573.4 432.537 569.8 432.537 569.8H432.577V573H435.777V560.2C435.777 555.6 432.777 552.6 427.577 552.6C419.977 552.6 418.777 559 418.777 559H421.977C421.977 559 422.977 555.6 427.577 555.6C430.777 555.6 432.577 557.4 432.577 560.2V561H425.977C420.697 561 417.977 563.8 417.977 567.2C417.977 570.8 420.577 573.4 425.177 573.4ZM425.777 570.4C422.577 570.4 421.177 569 421.177 567.2C421.177 565.4 422.577 564 425.777 564H432.577C432.577 567.6 429.977 570.4 425.777 570.4ZM442.759 580.6H459.959V553H456.759V556.2H456.719C456.719 556.16 454.759 552.6 449.559 552.6C444.359 552.6 439.959 557 439.959 563C439.959 569 444.359 573.4 449.559 573.4C454.759 573.4 456.719 569.84 456.719 569.8H456.759V577.6H442.759V580.6ZM449.959 570.4C446.159 570.4 443.159 567.4 443.159 563C443.159 558.6 446.159 555.6 449.959 555.6C453.759 555.6 456.759 558.6 456.759 563C456.759 567.4 453.759 570.4 449.959 570.4ZM474.573 573.4C482.173 573.4 484.373 566.8 484.373 566.8H481.173C481.173 566.8 479.373 570.4 474.573 570.4C470.933 570.4 467.973 567.72 467.573 564H484.773V562.8C484.773 557 480.373 552.6 474.573 552.6C468.773 552.6 464.373 557 464.373 563C464.373 569 468.773 573.4 474.573 573.4ZM467.653 561.2C468.173 558.2 470.773 555.6 474.573 555.6C478.373 555.6 480.973 558.2 481.373 561.2H467.653ZM498.778 573H518.578V569.6H504.538L504.178 569.64V569.56L504.578 569.32L510.378 565.2C515.178 561.8 518.578 558.4 518.578 553.2C518.578 548.2 514.578 544.2 508.978 544.2C499.778 544.2 498.978 553.2 498.978 553.2H502.778C502.778 553.2 503.578 547.6 508.978 547.6C512.578 547.6 514.978 550 514.978 553.2C514.978 557 512.578 559.4 507.978 562.8L498.778 569.6V573Z" fill="white"/>
<path d="M566.152 170C574.652 170 579.402 165.25 579.402 159.75C579.402 147.25 557.652 151.25 557.652 143C557.652 140 560.402 137.25 565.652 137.25C573.402 137.25 574.652 142.75 574.652 142.75H579.152C579.152 142.75 577.502 133 565.652 133C557.902 133 553.152 137.75 553.152 143C553.152 155.5 574.902 151.25 574.902 159.75C574.902 163 572.152 165.75 566.152 165.75C557.652 165.75 556.152 159 556.152 159H551.652C551.652 159 553.402 170 566.152 170ZM596.385 169.5C605.885 169.5 608.635 161.25 608.635 161.25H604.635C604.635 161.25 602.385 165.75 596.385 165.75C591.835 165.75 588.135 162.4 587.635 157.75H609.135V156.25C609.135 149 603.635 143.5 596.385 143.5C589.135 143.5 583.635 149 583.635 156.5C583.635 164 589.135 169.5 596.385 169.5ZM587.735 154.25C588.385 150.5 591.635 147.25 596.385 147.25C601.135 147.25 604.385 150.5 604.885 154.25H587.735ZM624.377 169.5C631.127 169.5 634.627 166 634.627 162C634.627 152.5 618.127 155.75 618.127 150.5C618.127 149 619.877 147.25 623.627 147.25C628.877 147.25 630.127 151 630.127 151H634.377C634.377 151 632.927 143.5 623.627 143.5C617.377 143.5 614.127 146.75 614.127 150.5C614.127 160 630.627 156.75 630.627 162C630.627 164 628.877 165.75 624.377 165.75C618.627 165.75 617.127 161.25 617.127 161.25H612.877C612.877 161.25 614.627 169.5 624.377 169.5ZM649.865 169.5C656.615 169.5 660.115 166 660.115 162C660.115 152.5 643.615 155.75 643.615 150.5C643.615 149 645.365 147.25 649.115 147.25C654.365 147.25 655.615 151 655.615 151H659.865C659.865 151 658.415 143.5 649.115 143.5C642.865 143.5 639.615 146.75 639.615 150.5C639.615 160 656.115 156.75 656.115 162C656.115 164 654.365 165.75 649.865 165.75C644.115 165.75 642.615 161.25 642.615 161.25H638.365C638.365 161.25 640.115 169.5 649.865 169.5ZM665.604 169H669.604V144H665.604V169ZM667.604 139.25C669.104 139.25 670.354 138 670.354 136.5C670.354 135 669.104 133.75 667.604 133.75C666.104 133.75 664.854 135 664.854 136.5C664.854 138 666.104 139.25 667.604 139.25ZM688.09 169.5C695.59 169.5 701.09 164 701.09 156.5C701.09 149 695.59 143.5 688.09 143.5C680.59 143.5 675.09 149 675.09 156.5C675.09 164 680.59 169.5 688.09 169.5ZM688.09 165.75C682.84 165.75 679.09 162 679.09 156.5C679.09 151 682.84 147.25 688.09 147.25C693.34 147.25 697.09 151 697.09 156.5C697.09 162 693.34 165.75 688.09 165.75ZM706.57 169H710.57V155.5C710.57 150.5 713.82 147.25 718.32 147.25C722.32 147.25 725.07 149.5 725.07 154.5V169H729.07V154.25C729.07 147.5 725.07 143.5 719.07 143.5C713.07 143.5 710.62 147.75 710.62 147.75H710.57V144H706.57V169ZM753.832 169H758.332V134H754.332L747.582 139.25V144.25L753.832 139.5V169Z" fill="white"/>
<path d="M1312.9 170C1321.4 170 1326.15 165.25 1326.15 159.75C1326.15 147.25 1304.4 151.25 1304.4 143C1304.4 140 1307.15 137.25 1312.4 137.25C1320.15 137.25 1321.4 142.75 1321.4 142.75H1325.9C1325.9 142.75 1324.25 133 1312.4 133C1304.65 133 1299.9 137.75 1299.9 143C1299.9 155.5 1321.65 151.25 1321.65 159.75C1321.65 163 1318.9 165.75 1312.9 165.75C1304.4 165.75 1302.9 159 1302.9 159H1298.4C1298.4 159 1300.15 170 1312.9 170ZM1343.13 169.5C1352.63 169.5 1355.38 161.25 1355.38 161.25H1351.38C1351.38 161.25 1349.13 165.75 1343.13 165.75C1338.58 165.75 1334.88 162.4 1334.38 157.75H1355.88V156.25C1355.88 149 1350.38 143.5 1343.13 143.5C1335.88 143.5 1330.38 149 1330.38 156.5C1330.38 164 1335.88 169.5 1343.13 169.5ZM1334.48 154.25C1335.13 150.5 1338.38 147.25 1343.13 147.25C1347.88 147.25 1351.13 150.5 1351.63 154.25H1334.48ZM1371.13 169.5C1377.88 169.5 1381.38 166 1381.38 162C1381.38 152.5 1364.88 155.75 1364.88 150.5C1364.88 149 1366.63 147.25 1370.38 147.25C1375.63 147.25 1376.88 151 1376.88 151H1381.13C1381.13 151 1379.68 143.5 1370.38 143.5C1364.13 143.5 1360.88 146.75 1360.88 150.5C1360.88 160 1377.38 156.75 1377.38 162C1377.38 164 1375.63 165.75 1371.13 165.75C1365.38 165.75 1363.88 161.25 1363.88 161.25H1359.63C1359.63 161.25 1361.38 169.5 1371.13 169.5ZM1396.62 169.5C1403.37 169.5 1406.87 166 1406.87 162C1406.87 152.5 1390.37 155.75 1390.37 150.5C1390.37 149 1392.12 147.25 1395.87 147.25C1401.12 147.25 1402.37 151 1402.37 151H1406.62C1406.62 151 1405.17 143.5 1395.87 143.5C1389.62 143.5 1386.37 146.75 1386.37 150.5C1386.37 160 1402.87 156.75 1402.87 162C1402.87 164 1401.12 165.75 1396.62 165.75C1390.87 165.75 1389.37 161.25 1389.37 161.25H1385.12C1385.12 161.25 1386.87 169.5 1396.62 169.5ZM1412.35 169H1416.35V144H1412.35V169ZM1414.35 139.25C1415.85 139.25 1417.1 138 1417.1 136.5C1417.1 135 1415.85 133.75 1414.35 133.75C1412.85 133.75 1411.6 135 1411.6 136.5C1411.6 138 1412.85 139.25 1414.35 139.25ZM1434.84 169.5C1442.34 169.5 1447.84 164 1447.84 156.5C1447.84 149 1442.34 143.5 1434.84 143.5C1427.34 143.5 1421.84 149 1421.84 156.5C1421.84 164 1427.34 169.5 1434.84 169.5ZM1434.84 165.75C1429.59 165.75 1425.84 162 1425.84 156.5C1425.84 151 1429.59 147.25 1434.84 147.25C1440.09 147.25 1443.84 151 1443.84 156.5C1443.84 162 1440.09 165.75 1434.84 165.75ZM1453.32 169H1457.32V155.5C1457.32 150.5 1460.57 147.25 1465.07 147.25C1469.07 147.25 1471.82 149.5 1471.82 154.5V169H1475.82V154.25C1475.82 147.5 1471.82 143.5 1465.82 143.5C1459.82 143.5 1457.37 147.75 1457.37 147.75H1457.32V144H1453.32V169ZM1494.58 169H1519.33V164.75H1501.78L1501.33 164.8V164.7L1501.83 164.4L1509.08 159.25C1515.08 155 1519.33 150.75 1519.33 144.25C1519.33 138 1514.33 133 1507.33 133C1495.83 133 1494.83 144.25 1494.83 144.25H1499.58C1499.58 144.25 1500.58 137.25 1507.33 137.25C1511.83 137.25 1514.83 140.25 1514.83 144.25C1514.83 149 1511.83 152 1506.08 156.25L1494.58 164.75V169Z" fill="white"/>
<path d="M1150.26 746C1159.76 746 1166.01 739.75 1168.01 731H1172.26V726.75H1156.76V731H1163.51C1162.51 736.75 1157.51 741.75 1150.26 741.75C1142.26 741.75 1136.51 736 1136.51 727.5C1136.51 719 1142.26 713.25 1150.26 713.25C1160.01 713.25 1163.01 721.5 1163.01 721.5H1167.51C1167.51 721.5 1164.26 709 1150.26 709C1139.76 709 1132.01 716.75 1132.01 727.5C1132.01 738.25 1139.76 746 1150.26 746ZM1186.28 745.5C1192.28 745.5 1194.73 741.25 1194.73 741.25H1194.78V745H1198.78V720H1194.78V733.5C1194.78 738.5 1191.53 741.75 1187.03 741.75C1183.03 741.75 1180.28 739.5 1180.28 734.5V720H1176.28V734.75C1176.28 741.5 1180.28 745.5 1186.28 745.5ZM1213.77 745.5C1220.32 745.5 1222.97 741 1222.97 741H1223.02V745H1227.02V729C1227.02 723.25 1223.27 719.5 1216.77 719.5C1207.27 719.5 1205.77 727.5 1205.77 727.5H1209.77C1209.77 727.5 1211.02 723.25 1216.77 723.25C1220.77 723.25 1223.02 725.5 1223.02 729V730H1214.77C1208.17 730 1204.77 733.5 1204.77 737.75C1204.77 742.25 1208.02 745.5 1213.77 745.5ZM1214.52 741.75C1210.52 741.75 1208.77 740 1208.77 737.75C1208.77 735.5 1210.52 733.75 1214.52 733.75H1223.02C1223.02 738.25 1219.77 741.75 1214.52 741.75ZM1233.75 745H1237.75V731.5C1237.75 727 1241 723.75 1245.5 723.75H1248.5V719.75H1245.5C1239.75 719.75 1237.8 724 1237.8 724H1237.75V720H1233.75V745ZM1260.74 745.5C1267.29 745.5 1269.94 741 1269.94 741H1269.99V745H1273.99V729C1273.99 723.25 1270.24 719.5 1263.74 719.5C1254.24 719.5 1252.74 727.5 1252.74 727.5H1256.74C1256.74 727.5 1257.99 723.25 1263.74 723.25C1267.74 723.25 1269.99 725.5 1269.99 729V730H1261.74C1255.14 730 1251.74 733.5 1251.74 737.75C1251.74 742.25 1254.99 745.5 1260.74 745.5ZM1261.49 741.75C1257.49 741.75 1255.74 740 1255.74 737.75C1255.74 735.5 1257.49 733.75 1261.49 733.75H1269.99C1269.99 738.25 1266.74 741.75 1261.49 741.75ZM1280.72 745H1284.72V731.5C1284.72 726.5 1287.97 723.25 1292.47 723.25C1296.47 723.25 1299.22 725.5 1299.22 730.5V745H1303.22V730.25C1303.22 723.5 1299.22 719.5 1293.22 719.5C1287.22 719.5 1284.77 723.75 1284.77 723.75H1284.72V720H1280.72V745ZM1310.97 745H1323.22V741.25H1314.97V723.75H1322.97V720H1314.97V714.5H1310.97V720H1307.72V723.75H1310.97V745ZM1339.48 745.5C1348.98 745.5 1351.73 737.25 1351.73 737.25H1347.73C1347.73 737.25 1345.48 741.75 1339.48 741.75C1334.93 741.75 1331.23 738.4 1330.73 733.75H1352.23V732.25C1352.23 725 1346.73 719.5 1339.48 719.5C1332.23 719.5 1326.73 725 1326.73 732.5C1326.73 740 1332.23 745.5 1339.48 745.5ZM1330.83 730.25C1331.48 726.5 1334.73 723.25 1339.48 723.25C1344.23 723.25 1347.48 726.5 1347.98 730.25H1330.83ZM1368.97 745.5C1378.47 745.5 1381.22 737.25 1381.22 737.25H1377.22C1377.22 737.25 1374.97 741.75 1368.97 741.75C1364.42 741.75 1360.72 738.4 1360.22 733.75H1381.72V732.25C1381.72 725 1376.22 719.5 1368.97 719.5C1361.72 719.5 1356.22 725 1356.22 732.5C1356.22 740 1361.72 745.5 1368.97 745.5ZM1360.32 730.25C1360.97 726.5 1364.22 723.25 1368.97 723.25C1373.72 723.25 1376.97 726.5 1377.47 730.25H1360.32ZM1397.71 745.5C1404.21 745.5 1406.66 741.05 1406.66 741H1406.71V745H1410.71V710H1406.71V724H1406.66C1406.66 723.95 1404.21 719.5 1397.71 719.5C1391.21 719.5 1385.71 725 1385.71 732.5C1385.71 740 1391.21 745.5 1397.71 745.5ZM1398.21 741.75C1393.46 741.75 1389.71 738 1389.71 732.5C1389.71 727 1393.46 723.25 1398.21 723.25C1402.96 723.25 1406.71 727 1406.71 732.5C1406.71 738 1402.96 741.75 1398.21 741.75ZM1431.75 754.5H1435.75V741H1435.8C1435.8 741.05 1438.25 745.5 1444.75 745.5C1451.25 745.5 1456.75 740 1456.75 732.5C1456.75 725 1451.25 719.5 1444.75 719.5C1438.25 719.5 1435.8 723.95 1435.8 724H1435.75V720H1431.75V754.5ZM1444.25 741.75C1439.5 741.75 1435.75 738 1435.75 732.5C1435.75 727 1439.5 723.25 1444.25 723.25C1449 723.25 1452.75 727 1452.75 732.5C1452.75 738 1449 741.75 1444.25 741.75ZM1462.26 745H1466.26V731.5C1466.26 727 1469.51 723.75 1474.01 723.75H1477.01V719.75H1474.01C1468.26 719.75 1466.31 724 1466.31 724H1466.26V720H1462.26V745ZM1492.76 745.5C1500.26 745.5 1505.76 740 1505.76 732.5C1505.76 725 1500.26 719.5 1492.76 719.5C1485.26 719.5 1479.76 725 1479.76 732.5C1479.76 740 1485.26 745.5 1492.76 745.5ZM1492.76 741.75C1487.51 741.75 1483.76 738 1483.76 732.5C1483.76 727 1487.51 723.25 1492.76 723.25C1498.01 723.25 1501.76 727 1501.76 732.5C1501.76 738 1498.01 741.75 1492.76 741.75ZM1512.24 745H1524.49V741.25H1516.24V723.75H1524.24V720H1516.24V714.5H1512.24V720H1508.99V723.75H1512.24V745ZM1540.75 745.5C1550.25 745.5 1553 737.25 1553 737.25H1549C1549 737.25 1546.75 741.75 1540.75 741.75C1536.2 741.75 1532.5 738.4 1532 733.75H1553.5V732.25C1553.5 725 1548 719.5 1540.75 719.5C1533.5 719.5 1528 725 1528 732.5C1528 740 1533.5 745.5 1540.75 745.5ZM1532.1 730.25C1532.75 726.5 1536 723.25 1540.75 723.25C1545.5 723.25 1548.75 726.5 1549.25 730.25H1532.1ZM1569.99 745.5C1580.24 745.5 1582.24 736.25 1582.24 736.25H1578.24C1578.24 736.25 1576.49 741.75 1569.99 741.75C1565.44 741.75 1561.49 738.05 1561.49 732.5C1561.49 727 1565.24 723.25 1569.99 723.25C1576.24 723.25 1577.99 728.25 1577.99 728.25H1581.99C1581.99 728.25 1579.99 719.5 1569.99 719.5C1562.99 719.5 1557.49 725 1557.49 732.5C1557.49 740 1562.99 745.5 1569.99 745.5ZM1588.26 745H1600.51V741.25H1592.26V723.75H1600.26V720H1592.26V714.5H1588.26V720H1585.01V723.75H1588.26V745ZM1605.53 745H1609.53V720H1605.53V745ZM1607.53 715.25C1609.03 715.25 1610.28 714 1610.28 712.5C1610.28 711 1609.03 709.75 1607.53 709.75C1606.03 709.75 1604.78 711 1604.78 712.5C1604.78 714 1606.03 715.25 1607.53 715.25ZM1628.01 745.5C1635.51 745.5 1641.01 740 1641.01 732.5C1641.01 725 1635.51 719.5 1628.01 719.5C1620.51 719.5 1615.01 725 1615.01 732.5C1615.01 740 1620.51 745.5 1628.01 745.5ZM1628.01 741.75C1622.76 741.75 1619.01 738 1619.01 732.5C1619.01 727 1622.76 723.25 1628.01 723.25C1633.26 723.25 1637.01 727 1637.01 732.5C1637.01 738 1633.26 741.75 1628.01 741.75ZM1646.49 745H1650.49V731.5C1650.49 726.5 1653.74 723.25 1658.24 723.25C1662.24 723.25 1664.99 725.5 1664.99 730.5V745H1668.99V730.25C1668.99 723.5 1664.99 719.5 1658.99 719.5C1652.99 719.5 1650.54 723.75 1650.54 723.75H1650.49V720H1646.49V745Z" fill="white"/>
<path d="M705.2 667H708.8V643L708.76 642.6H708.84L717 660.2H723.6L731.76 642.6H731.84L731.8 643V667H735.4V639H729.6L721.2 657H719.4L711 639H705.2V667ZM750.402 667.4C758.002 667.4 760.202 660.8 760.202 660.8H757.002C757.002 660.8 755.202 664.4 750.402 664.4C746.762 664.4 743.802 661.72 743.402 658H760.602V656.8C760.602 651 756.202 646.6 750.402 646.6C744.602 646.6 740.202 651 740.202 657C740.202 663 744.602 667.4 750.402 667.4ZM743.482 655.2C744.002 652.2 746.602 649.6 750.402 649.6C754.202 649.6 756.802 652.2 757.202 655.2H743.482ZM772.795 667.4C778.195 667.4 780.995 664.6 780.995 661.4C780.995 653.8 767.795 656.4 767.795 652.2C767.795 651 769.195 649.6 772.195 649.6C776.395 649.6 777.395 652.6 777.395 652.6H780.795C780.795 652.6 779.635 646.6 772.195 646.6C767.195 646.6 764.595 649.2 764.595 652.2C764.595 659.8 777.795 657.2 777.795 661.4C777.795 663 776.395 664.4 772.795 664.4C768.195 664.4 766.995 660.8 766.995 660.8H763.595C763.595 660.8 764.995 667.4 772.795 667.4ZM793.186 667.4C798.586 667.4 801.386 664.6 801.386 661.4C801.386 653.8 788.186 656.4 788.186 652.2C788.186 651 789.586 649.6 792.586 649.6C796.786 649.6 797.786 652.6 797.786 652.6H801.186C801.186 652.6 800.026 646.6 792.586 646.6C787.586 646.6 784.986 649.2 784.986 652.2C784.986 659.8 798.186 657.2 798.186 661.4C798.186 663 796.786 664.4 793.186 664.4C788.586 664.4 787.386 660.8 787.386 660.8H783.986C783.986 660.8 785.386 667.4 793.186 667.4ZM812.177 667.4C817.417 667.4 819.537 663.8 819.537 663.8H819.577V667H822.777V654.2C822.777 649.6 819.777 646.6 814.577 646.6C806.977 646.6 805.777 653 805.777 653H808.977C808.977 653 809.977 649.6 814.577 649.6C817.777 649.6 819.577 651.4 819.577 654.2V655H812.977C807.697 655 804.977 657.8 804.977 661.2C804.977 664.8 807.577 667.4 812.177 667.4ZM812.777 664.4C809.577 664.4 808.177 663 808.177 661.2C808.177 659.4 809.577 658 812.777 658H819.577C819.577 661.6 816.977 664.4 812.777 664.4ZM829.759 674.6H846.959V647H843.759V650.2H843.719C843.719 650.16 841.759 646.6 836.559 646.6C831.359 646.6 826.959 651 826.959 657C826.959 663 831.359 667.4 836.559 667.4C841.759 667.4 843.719 663.84 843.719 663.8H843.759V671.6H829.759V674.6ZM836.959 664.4C833.159 664.4 830.159 661.4 830.159 657C830.159 652.6 833.159 649.6 836.959 649.6C840.759 649.6 843.759 652.6 843.759 657C843.759 661.4 840.759 664.4 836.959 664.4ZM861.573 667.4C869.173 667.4 871.373 660.8 871.373 660.8H868.173C868.173 660.8 866.373 664.4 861.573 664.4C857.933 664.4 854.973 661.72 854.573 658H871.773V656.8C871.773 651 867.373 646.6 861.573 646.6C855.773 646.6 851.373 651 851.373 657C851.373 663 855.773 667.4 861.573 667.4ZM854.653 655.2C855.173 652.2 857.773 649.6 861.573 649.6C865.373 649.6 867.973 652.2 868.373 655.2H854.653ZM896.378 667.8C902.578 667.8 906.778 663.6 906.778 658.8C906.778 654 902.578 649.8 896.578 649.8H895.978L896.018 649.76L896.378 649.48L905.178 642.4V639H886.978V642.4H900.178L900.138 642.44L890.778 650V653.2H896.578C900.778 653.2 903.178 655.6 903.178 658.8C903.178 662 900.778 664.4 896.378 664.4C890.378 664.4 889.378 659.4 889.378 659.4H885.578C885.578 659.4 886.978 667.8 896.378 667.8Z" fill="white"/>
<path d="M279 72V811" stroke="#6347F5" stroke-dasharray="20 20"/>
<path d="M1780 72V811" stroke="#6347F5" stroke-dasharray="20 20"/>
<rect x="241" y="443" width="98" height="56" fill="#0D1033"/>
<path d="M135.2 480H138.8V456L138.76 455.6H138.84L147 473.2H153.6L161.76 455.6H161.84L161.8 456V480H165.4V452H159.6L151.2 470H149.4L141 452H135.2V480ZM180.402 480.4C188.002 480.4 190.202 473.8 190.202 473.8H187.002C187.002 473.8 185.202 477.4 180.402 477.4C176.762 477.4 173.802 474.72 173.402 471H190.602V469.8C190.602 464 186.202 459.6 180.402 459.6C174.602 459.6 170.202 464 170.202 470C170.202 476 174.602 480.4 180.402 480.4ZM173.482 468.2C174.002 465.2 176.602 462.6 180.402 462.6C184.202 462.6 186.802 465.2 187.202 468.2H173.482ZM202.795 480.4C208.195 480.4 210.995 477.6 210.995 474.4C210.995 466.8 197.795 469.4 197.795 465.2C197.795 464 199.195 462.6 202.195 462.6C206.395 462.6 207.395 465.6 207.395 465.6H210.795C210.795 465.6 209.635 459.6 202.195 459.6C197.195 459.6 194.595 462.2 194.595 465.2C194.595 472.8 207.795 470.2 207.795 474.4C207.795 476 206.395 477.4 202.795 477.4C198.195 477.4 196.995 473.8 196.995 473.8H193.595C193.595 473.8 194.995 480.4 202.795 480.4ZM223.186 480.4C228.586 480.4 231.386 477.6 231.386 474.4C231.386 466.8 218.186 469.4 218.186 465.2C218.186 464 219.586 462.6 222.586 462.6C226.786 462.6 227.786 465.6 227.786 465.6H231.186C231.186 465.6 230.026 459.6 222.586 459.6C217.586 459.6 214.986 462.2 214.986 465.2C214.986 472.8 228.186 470.2 228.186 474.4C228.186 476 226.786 477.4 223.186 477.4C218.586 477.4 217.386 473.8 217.386 473.8H213.986C213.986 473.8 215.386 480.4 223.186 480.4ZM242.177 480.4C247.417 480.4 249.537 476.8 249.537 476.8H249.577V480H252.777V467.2C252.777 462.6 249.777 459.6 244.577 459.6C236.977 459.6 235.777 466 235.777 466H238.977C238.977 466 239.977 462.6 244.577 462.6C247.777 462.6 249.577 464.4 249.577 467.2V468H242.977C237.697 468 234.977 470.8 234.977 474.2C234.977 477.8 237.577 480.4 242.177 480.4ZM242.777 477.4C239.577 477.4 238.177 476 238.177 474.2C238.177 472.4 239.577 471 242.777 471H249.577C249.577 474.6 246.977 477.4 242.777 477.4ZM259.759 487.6H276.959V460H273.759V463.2H273.719C273.719 463.16 271.759 459.6 266.559 459.6C261.359 459.6 256.959 464 256.959 470C256.959 476 261.359 480.4 266.559 480.4C271.759 480.4 273.719 476.84 273.719 476.8H273.759V484.6H259.759V487.6ZM266.959 477.4C263.159 477.4 260.159 474.4 260.159 470C260.159 465.6 263.159 462.6 266.959 462.6C270.759 462.6 273.759 465.6 273.759 470C273.759 474.4 270.759 477.4 266.959 477.4ZM291.573 480.4C299.173 480.4 301.373 473.8 301.373 473.8H298.173C298.173 473.8 296.373 477.4 291.573 477.4C287.933 477.4 284.973 474.72 284.573 471H301.773V469.8C301.773 464 297.373 459.6 291.573 459.6C285.773 459.6 281.373 464 281.373 470C281.373 476 285.773 480.4 291.573 480.4ZM284.653 468.2C285.173 465.2 287.773 462.6 291.573 462.6C295.373 462.6 297.973 465.2 298.373 468.2H284.653ZM320.578 480H324.178V452H320.978L315.578 456.2V460.2L320.578 456.4V480Z" fill="white"/>
<line x1="1054" y1="666.5" x2="1769" y2="666.5" stroke="#6347F5" stroke-width="3"/>
<path d="M1757 652L1779 667L1757 682L1757 652Z" fill="#6347F5"/>
<path d="M1060 682L1038 667L1060 652L1060 682Z" fill="#6347F5"/>
</svg>
