<svg width="1920" height="1080" viewBox="0 0 1920 1080" fill="none" xmlns="http://www.w3.org/2000/svg">
<rect width="1920" height="1080" fill="#0D1033"/>
<path d="M698.091 101.6C703.191 101.6 706.041 98.75 706.041 95.45C706.041 87.95 692.991 90.35 692.991 85.4C692.991 83.6 694.641 81.95 697.791 81.95C702.441 81.95 703.191 85.25 703.191 85.25H705.891C705.891 85.25 704.901 79.4 697.791 79.4C693.141 79.4 690.291 82.25 690.291 85.4C690.291 92.9 703.341 90.35 703.341 95.45C703.341 97.4 701.691 99.05 698.091 99.05C692.991 99.05 692.091 95 692.091 95H689.391C689.391 95 690.441 101.6 698.091 101.6ZM716.231 101.3C721.931 101.3 723.581 96.35 723.581 96.35H721.181C721.181 96.35 719.831 99.05 716.231 99.05C713.501 99.05 711.281 97.04 710.981 94.25H723.881V93.35C723.881 89 720.581 85.7 716.231 85.7C711.881 85.7 708.581 89 708.581 93.5C708.581 98 711.881 101.3 716.231 101.3ZM711.041 92.15C711.431 89.9 713.381 87.95 716.231 87.95C719.081 87.95 721.031 89.9 721.331 92.15H711.041ZM733.026 101.3C737.076 101.3 739.176 99.2 739.176 96.8C739.176 91.1 729.276 93.05 729.276 89.9C729.276 89 730.326 87.95 732.576 87.95C735.726 87.95 736.476 90.2 736.476 90.2H739.026C739.026 90.2 738.156 85.7 732.576 85.7C728.826 85.7 726.876 87.65 726.876 89.9C726.876 95.6 736.776 93.65 736.776 96.8C736.776 98 735.726 99.05 733.026 99.05C729.576 99.05 728.676 96.35 728.676 96.35H726.126C726.126 96.35 727.176 101.3 733.026 101.3ZM748.319 101.3C752.369 101.3 754.469 99.2 754.469 96.8C754.469 91.1 744.569 93.05 744.569 89.9C744.569 89 745.619 87.95 747.869 87.95C751.019 87.95 751.769 90.2 751.769 90.2H754.319C754.319 90.2 753.449 85.7 747.869 85.7C744.119 85.7 742.169 87.65 742.169 89.9C742.169 95.6 752.069 93.65 752.069 96.8C752.069 98 751.019 99.05 748.319 99.05C744.869 99.05 743.969 96.35 743.969 96.35H741.419C741.419 96.35 742.469 101.3 748.319 101.3ZM757.762 101H760.162V86H757.762V101ZM758.962 83.15C759.862 83.15 760.612 82.4 760.612 81.5C760.612 80.6 759.862 79.85 758.962 79.85C758.062 79.85 757.312 80.6 757.312 81.5C757.312 82.4 758.062 83.15 758.962 83.15ZM771.254 101.3C775.754 101.3 779.054 98 779.054 93.5C779.054 89 775.754 85.7 771.254 85.7C766.754 85.7 763.454 89 763.454 93.5C763.454 98 766.754 101.3 771.254 101.3ZM771.254 99.05C768.104 99.05 765.854 96.8 765.854 93.5C765.854 90.2 768.104 87.95 771.254 87.95C774.404 87.95 776.654 90.2 776.654 93.5C776.654 96.8 774.404 99.05 771.254 99.05ZM782.342 101H784.742V92.9C784.742 89.9 786.692 87.95 789.392 87.95C791.792 87.95 793.442 89.3 793.442 92.3V101H795.842V92.15C795.842 88.1 793.442 85.7 789.842 85.7C786.242 85.7 784.772 88.25 784.772 88.25H784.742V86H782.342V101ZM810.699 101H813.399V80H810.999L806.949 83.15V86.15L810.699 83.3V101Z" fill="white"/>
<path d="M1084.34 101.6C1089.44 101.6 1092.29 98.75 1092.29 95.45C1092.29 87.95 1079.24 90.35 1079.24 85.4C1079.24 83.6 1080.89 81.95 1084.04 81.95C1088.69 81.95 1089.44 85.25 1089.44 85.25H1092.14C1092.14 85.25 1091.15 79.4 1084.04 79.4C1079.39 79.4 1076.54 82.25 1076.54 85.4C1076.54 92.9 1089.59 90.35 1089.59 95.45C1089.59 97.4 1087.94 99.05 1084.34 99.05C1079.24 99.05 1078.34 95 1078.34 95H1075.64C1075.64 95 1076.69 101.6 1084.34 101.6ZM1102.48 101.3C1108.18 101.3 1109.83 96.35 1109.83 96.35H1107.43C1107.43 96.35 1106.08 99.05 1102.48 99.05C1099.75 99.05 1097.53 97.04 1097.23 94.25H1110.13V93.35C1110.13 89 1106.83 85.7 1102.48 85.7C1098.13 85.7 1094.83 89 1094.83 93.5C1094.83 98 1098.13 101.3 1102.48 101.3ZM1097.29 92.15C1097.68 89.9 1099.63 87.95 1102.48 87.95C1105.33 87.95 1107.28 89.9 1107.58 92.15H1097.29ZM1119.28 101.3C1123.33 101.3 1125.43 99.2 1125.43 96.8C1125.43 91.1 1115.53 93.05 1115.53 89.9C1115.53 89 1116.58 87.95 1118.83 87.95C1121.98 87.95 1122.73 90.2 1122.73 90.2H1125.28C1125.28 90.2 1124.41 85.7 1118.83 85.7C1115.08 85.7 1113.13 87.65 1113.13 89.9C1113.13 95.6 1123.03 93.65 1123.03 96.8C1123.03 98 1121.98 99.05 1119.28 99.05C1115.83 99.05 1114.93 96.35 1114.93 96.35H1112.38C1112.38 96.35 1113.43 101.3 1119.28 101.3ZM1134.57 101.3C1138.62 101.3 1140.72 99.2 1140.72 96.8C1140.72 91.1 1130.82 93.05 1130.82 89.9C1130.82 89 1131.87 87.95 1134.12 87.95C1137.27 87.95 1138.02 90.2 1138.02 90.2H1140.57C1140.57 90.2 1139.7 85.7 1134.12 85.7C1130.37 85.7 1128.42 87.65 1128.42 89.9C1128.42 95.6 1138.32 93.65 1138.32 96.8C1138.32 98 1137.27 99.05 1134.57 99.05C1131.12 99.05 1130.22 96.35 1130.22 96.35H1127.67C1127.67 96.35 1128.72 101.3 1134.57 101.3ZM1144.01 101H1146.41V86H1144.01V101ZM1145.21 83.15C1146.11 83.15 1146.86 82.4 1146.86 81.5C1146.86 80.6 1146.11 79.85 1145.21 79.85C1144.31 79.85 1143.56 80.6 1143.56 81.5C1143.56 82.4 1144.31 83.15 1145.21 83.15ZM1157.5 101.3C1162 101.3 1165.3 98 1165.3 93.5C1165.3 89 1162 85.7 1157.5 85.7C1153 85.7 1149.7 89 1149.7 93.5C1149.7 98 1153 101.3 1157.5 101.3ZM1157.5 99.05C1154.35 99.05 1152.1 96.8 1152.1 93.5C1152.1 90.2 1154.35 87.95 1157.5 87.95C1160.65 87.95 1162.9 90.2 1162.9 93.5C1162.9 96.8 1160.65 99.05 1157.5 99.05ZM1168.59 101H1170.99V92.9C1170.99 89.9 1172.94 87.95 1175.64 87.95C1178.04 87.95 1179.69 89.3 1179.69 92.3V101H1182.09V92.15C1182.09 88.1 1179.69 85.7 1176.09 85.7C1172.49 85.7 1171.02 88.25 1171.02 88.25H1170.99V86H1168.59V101ZM1193.35 101H1208.2V98.45H1197.67L1197.4 98.48V98.42L1197.7 98.24L1202.05 95.15C1205.65 92.6 1208.2 90.05 1208.2 86.15C1208.2 82.4 1205.2 79.4 1201 79.4C1194.1 79.4 1193.5 86.15 1193.5 86.15H1196.35C1196.35 86.15 1196.95 81.95 1201 81.95C1203.7 81.95 1205.5 83.75 1205.5 86.15C1205.5 89 1203.7 90.8 1200.25 93.35L1193.35 98.45V101Z" fill="white"/>
<path d="M1149.94 189H1152.34V180.9C1152.34 178.2 1154.29 176.25 1156.99 176.25H1158.79V173.85H1156.99C1153.54 173.85 1152.37 176.4 1152.37 176.4H1152.34V174H1149.94V189ZM1168.08 189.3C1173.78 189.3 1175.43 184.35 1175.43 184.35H1173.03C1173.03 184.35 1171.68 187.05 1168.08 187.05C1165.35 187.05 1163.13 185.04 1162.83 182.25H1175.73V181.35C1175.73 177 1172.43 173.7 1168.08 173.7C1163.73 173.7 1160.43 177 1160.43 181.5C1160.43 186 1163.73 189.3 1168.08 189.3ZM1162.89 180.15C1163.28 177.9 1165.23 175.95 1168.08 175.95C1170.93 175.95 1172.88 177.9 1173.18 180.15H1162.89ZM1185.63 189.3C1191.78 189.3 1192.98 183.75 1192.98 183.75H1190.58C1190.58 183.75 1189.53 187.05 1185.63 187.05C1182.9 187.05 1180.53 184.83 1180.53 181.5C1180.53 178.2 1182.78 175.95 1185.63 175.95C1189.38 175.95 1190.43 178.95 1190.43 178.95H1192.83C1192.83 178.95 1191.63 173.7 1185.63 173.7C1181.43 173.7 1178.13 177 1178.13 181.5C1178.13 186 1181.43 189.3 1185.63 189.3ZM1202.74 189.3C1208.44 189.3 1210.09 184.35 1210.09 184.35H1207.69C1207.69 184.35 1206.34 187.05 1202.74 187.05C1200.01 187.05 1197.79 185.04 1197.49 182.25H1210.39V181.35C1210.39 177 1207.09 173.7 1202.74 173.7C1198.39 173.7 1195.09 177 1195.09 181.5C1195.09 186 1198.39 189.3 1202.74 189.3ZM1197.55 180.15C1197.94 177.9 1199.89 175.95 1202.74 175.95C1205.59 175.95 1207.54 177.9 1207.84 180.15H1197.55ZM1213.69 189H1216.09V174H1213.69V189ZM1214.89 171.15C1215.79 171.15 1216.54 170.4 1216.54 169.5C1216.54 168.6 1215.79 167.85 1214.89 167.85C1213.99 167.85 1213.24 168.6 1213.24 169.5C1213.24 170.4 1213.99 171.15 1214.89 171.15ZM1220.28 194.7H1222.68V186.6H1222.71C1222.71 186.63 1224.18 189.3 1228.08 189.3C1231.98 189.3 1235.28 186 1235.28 181.5C1235.28 177 1231.98 173.7 1228.08 173.7C1224.18 173.7 1222.71 176.37 1222.71 176.4H1222.68V174H1220.28V194.7ZM1227.78 187.05C1224.93 187.05 1222.68 184.8 1222.68 181.5C1222.68 178.2 1224.93 175.95 1227.78 175.95C1230.63 175.95 1232.88 178.2 1232.88 181.5C1232.88 184.8 1230.63 187.05 1227.78 187.05ZM1239.19 189H1246.54V186.75H1241.59V176.25H1246.39V174H1241.59V170.7H1239.19V174H1237.24V176.25H1239.19V189ZM1255.4 189.3C1259.45 189.3 1261.55 187.2 1261.55 184.8C1261.55 179.1 1251.65 181.05 1251.65 177.9C1251.65 177 1252.7 175.95 1254.95 175.95C1258.1 175.95 1258.85 178.2 1258.85 178.2H1261.4C1261.4 178.2 1260.53 173.7 1254.95 173.7C1251.2 173.7 1249.25 175.65 1249.25 177.9C1249.25 183.6 1259.15 181.65 1259.15 184.8C1259.15 186 1258.1 187.05 1255.4 187.05C1251.95 187.05 1251.05 184.35 1251.05 184.35H1248.5C1248.5 184.35 1249.55 189.3 1255.4 189.3Z" fill="#FF6922"/>
<rect x="664.5" y="299.5" width="187" height="107" stroke="#6347F5" stroke-width="3"/>
<path d="M701.309 362H709.109L714.659 341H711.809L707.009 359.45H703.409L698.609 341H695.759L701.309 362ZM721.248 362.3C725.178 362.3 726.768 359.6 726.768 359.6H726.798V362H729.198V352.4C729.198 348.95 726.948 346.7 723.048 346.7C717.348 346.7 716.448 351.5 716.448 351.5H718.848C718.848 351.5 719.598 348.95 723.048 348.95C725.448 348.95 726.798 350.3 726.798 352.4V353H721.848C717.888 353 715.848 355.1 715.848 357.65C715.848 360.35 717.798 362.3 721.248 362.3ZM721.698 360.05C719.298 360.05 718.248 359 718.248 357.65C718.248 356.3 719.298 355.25 721.698 355.25H726.798C726.798 357.95 724.848 360.05 721.698 360.05ZM733.235 362H739.085V359.75H735.635V341H733.235V362ZM741.497 362H743.897V347H741.497V362ZM742.697 344.15C743.597 344.15 744.347 343.4 744.347 342.5C744.347 341.6 743.597 340.85 742.697 340.85C741.797 340.85 741.047 341.6 741.047 342.5C741.047 343.4 741.797 344.15 742.697 344.15ZM754.389 362.3C758.289 362.3 759.759 359.63 759.759 359.6H759.789V362H762.189V341H759.789V349.4H759.759C759.759 349.37 758.289 346.7 754.389 346.7C750.489 346.7 747.189 350 747.189 354.5C747.189 359 750.489 362.3 754.389 362.3ZM754.689 360.05C751.839 360.05 749.589 357.8 749.589 354.5C749.589 351.2 751.839 348.95 754.689 348.95C757.539 348.95 759.789 351.2 759.789 354.5C759.789 357.8 757.539 360.05 754.689 360.05ZM771.199 362.3C775.129 362.3 776.719 359.6 776.719 359.6H776.749V362H779.149V352.4C779.149 348.95 776.899 346.7 772.999 346.7C767.299 346.7 766.399 351.5 766.399 351.5H768.799C768.799 351.5 769.549 348.95 772.999 348.95C775.399 348.95 776.749 350.3 776.749 352.4V353H771.799C767.839 353 765.799 355.1 765.799 357.65C765.799 360.35 767.749 362.3 771.199 362.3ZM771.649 360.05C769.249 360.05 768.199 359 768.199 357.65C768.199 356.3 769.249 355.25 771.649 355.25H776.749C776.749 357.95 774.799 360.05 771.649 360.05ZM783.786 362H791.136V359.75H786.186V349.25H790.986V347H786.186V343.7H783.786V347H781.836V349.25H783.786V362ZM801.043 362.3C805.543 362.3 808.843 359 808.843 354.5C808.843 350 805.543 346.7 801.043 346.7C796.543 346.7 793.243 350 793.243 354.5C793.243 359 796.543 362.3 801.043 362.3ZM801.043 360.05C797.893 360.05 795.643 357.8 795.643 354.5C795.643 351.2 797.893 348.95 801.043 348.95C804.193 348.95 806.443 351.2 806.443 354.5C806.443 357.8 804.193 360.05 801.043 360.05ZM812.132 362H814.532V353.9C814.532 351.2 816.482 349.25 819.182 349.25H820.982V346.85H819.182C815.732 346.85 814.562 349.4 814.562 349.4H814.532V347H812.132V362Z" fill="white"/>
<rect x="1058.5" y="299.5" width="187" height="107" stroke="#6347F5" stroke-width="3"/>
<path d="M1095.31 362H1103.11L1108.66 341H1105.81L1101.01 359.45H1097.41L1092.61 341H1089.76L1095.31 362ZM1115.25 362.3C1119.18 362.3 1120.77 359.6 1120.77 359.6H1120.8V362H1123.2V352.4C1123.2 348.95 1120.95 346.7 1117.05 346.7C1111.35 346.7 1110.45 351.5 1110.45 351.5H1112.85C1112.85 351.5 1113.6 348.95 1117.05 348.95C1119.45 348.95 1120.8 350.3 1120.8 352.4V353H1115.85C1111.89 353 1109.85 355.1 1109.85 357.65C1109.85 360.35 1111.8 362.3 1115.25 362.3ZM1115.7 360.05C1113.3 360.05 1112.25 359 1112.25 357.65C1112.25 356.3 1113.3 355.25 1115.7 355.25H1120.8C1120.8 357.95 1118.85 360.05 1115.7 360.05ZM1127.24 362H1133.09V359.75H1129.64V341H1127.24V362ZM1135.5 362H1137.9V347H1135.5V362ZM1136.7 344.15C1137.6 344.15 1138.35 343.4 1138.35 342.5C1138.35 341.6 1137.6 340.85 1136.7 340.85C1135.8 340.85 1135.05 341.6 1135.05 342.5C1135.05 343.4 1135.8 344.15 1136.7 344.15ZM1148.39 362.3C1152.29 362.3 1153.76 359.63 1153.76 359.6H1153.79V362H1156.19V341H1153.79V349.4H1153.76C1153.76 349.37 1152.29 346.7 1148.39 346.7C1144.49 346.7 1141.19 350 1141.19 354.5C1141.19 359 1144.49 362.3 1148.39 362.3ZM1148.69 360.05C1145.84 360.05 1143.59 357.8 1143.59 354.5C1143.59 351.2 1145.84 348.95 1148.69 348.95C1151.54 348.95 1153.79 351.2 1153.79 354.5C1153.79 357.8 1151.54 360.05 1148.69 360.05ZM1165.2 362.3C1169.13 362.3 1170.72 359.6 1170.72 359.6H1170.75V362H1173.15V352.4C1173.15 348.95 1170.9 346.7 1167 346.7C1161.3 346.7 1160.4 351.5 1160.4 351.5H1162.8C1162.8 351.5 1163.55 348.95 1167 348.95C1169.4 348.95 1170.75 350.3 1170.75 352.4V353H1165.8C1161.84 353 1159.8 355.1 1159.8 357.65C1159.8 360.35 1161.75 362.3 1165.2 362.3ZM1165.65 360.05C1163.25 360.05 1162.2 359 1162.2 357.65C1162.2 356.3 1163.25 355.25 1165.65 355.25H1170.75C1170.75 357.95 1168.8 360.05 1165.65 360.05ZM1177.79 362H1185.14V359.75H1180.19V349.25H1184.99V347H1180.19V343.7H1177.79V347H1175.84V349.25H1177.79V362ZM1195.04 362.3C1199.54 362.3 1202.84 359 1202.84 354.5C1202.84 350 1199.54 346.7 1195.04 346.7C1190.54 346.7 1187.24 350 1187.24 354.5C1187.24 359 1190.54 362.3 1195.04 362.3ZM1195.04 360.05C1191.89 360.05 1189.64 357.8 1189.64 354.5C1189.64 351.2 1191.89 348.95 1195.04 348.95C1198.19 348.95 1200.44 351.2 1200.44 354.5C1200.44 357.8 1198.19 360.05 1195.04 360.05ZM1206.13 362H1208.53V353.9C1208.53 351.2 1210.48 349.25 1213.18 349.25H1214.98V346.85H1213.18C1209.73 346.85 1208.56 349.4 1208.56 349.4H1208.53V347H1206.13V362Z" fill="white"/>
<rect x="664.5" y="486.5" width="187" height="107" stroke="#6347F5" stroke-width="3"/>
<path d="M701.309 549H709.109L714.659 528H711.809L707.009 546.45H703.409L698.609 528H695.759L701.309 549ZM721.248 549.3C725.178 549.3 726.768 546.6 726.768 546.6H726.798V549H729.198V539.4C729.198 535.95 726.948 533.7 723.048 533.7C717.348 533.7 716.448 538.5 716.448 538.5H718.848C718.848 538.5 719.598 535.95 723.048 535.95C725.448 535.95 726.798 537.3 726.798 539.4V540H721.848C717.888 540 715.848 542.1 715.848 544.65C715.848 547.35 717.798 549.3 721.248 549.3ZM721.698 547.05C719.298 547.05 718.248 546 718.248 544.65C718.248 543.3 719.298 542.25 721.698 542.25H726.798C726.798 544.95 724.848 547.05 721.698 547.05ZM733.235 549H739.085V546.75H735.635V528H733.235V549ZM741.497 549H743.897V534H741.497V549ZM742.697 531.15C743.597 531.15 744.347 530.4 744.347 529.5C744.347 528.6 743.597 527.85 742.697 527.85C741.797 527.85 741.047 528.6 741.047 529.5C741.047 530.4 741.797 531.15 742.697 531.15ZM754.389 549.3C758.289 549.3 759.759 546.63 759.759 546.6H759.789V549H762.189V528H759.789V536.4H759.759C759.759 536.37 758.289 533.7 754.389 533.7C750.489 533.7 747.189 537 747.189 541.5C747.189 546 750.489 549.3 754.389 549.3ZM754.689 547.05C751.839 547.05 749.589 544.8 749.589 541.5C749.589 538.2 751.839 535.95 754.689 535.95C757.539 535.95 759.789 538.2 759.789 541.5C759.789 544.8 757.539 547.05 754.689 547.05ZM771.199 549.3C775.129 549.3 776.719 546.6 776.719 546.6H776.749V549H779.149V539.4C779.149 535.95 776.899 533.7 772.999 533.7C767.299 533.7 766.399 538.5 766.399 538.5H768.799C768.799 538.5 769.549 535.95 772.999 535.95C775.399 535.95 776.749 537.3 776.749 539.4V540H771.799C767.839 540 765.799 542.1 765.799 544.65C765.799 547.35 767.749 549.3 771.199 549.3ZM771.649 547.05C769.249 547.05 768.199 546 768.199 544.65C768.199 543.3 769.249 542.25 771.649 542.25H776.749C776.749 544.95 774.799 547.05 771.649 547.05ZM783.786 549H791.136V546.75H786.186V536.25H790.986V534H786.186V530.7H783.786V534H781.836V536.25H783.786V549ZM801.043 549.3C805.543 549.3 808.843 546 808.843 541.5C808.843 537 805.543 533.7 801.043 533.7C796.543 533.7 793.243 537 793.243 541.5C793.243 546 796.543 549.3 801.043 549.3ZM801.043 547.05C797.893 547.05 795.643 544.8 795.643 541.5C795.643 538.2 797.893 535.95 801.043 535.95C804.193 535.95 806.443 538.2 806.443 541.5C806.443 544.8 804.193 547.05 801.043 547.05ZM812.132 549H814.532V540.9C814.532 538.2 816.482 536.25 819.182 536.25H820.982V533.85H819.182C815.732 533.85 814.562 536.4 814.562 536.4H814.532V534H812.132V549Z" fill="white"/>
<rect x="1058.5" y="486.5" width="187" height="107" stroke="#6347F5" stroke-width="3"/>
<path d="M1095.31 549H1103.11L1108.66 528H1105.81L1101.01 546.45H1097.41L1092.61 528H1089.76L1095.31 549ZM1115.25 549.3C1119.18 549.3 1120.77 546.6 1120.77 546.6H1120.8V549H1123.2V539.4C1123.2 535.95 1120.95 533.7 1117.05 533.7C1111.35 533.7 1110.45 538.5 1110.45 538.5H1112.85C1112.85 538.5 1113.6 535.95 1117.05 535.95C1119.45 535.95 1120.8 537.3 1120.8 539.4V540H1115.85C1111.89 540 1109.85 542.1 1109.85 544.65C1109.85 547.35 1111.8 549.3 1115.25 549.3ZM1115.7 547.05C1113.3 547.05 1112.25 546 1112.25 544.65C1112.25 543.3 1113.3 542.25 1115.7 542.25H1120.8C1120.8 544.95 1118.85 547.05 1115.7 547.05ZM1127.24 549H1133.09V546.75H1129.64V528H1127.24V549ZM1135.5 549H1137.9V534H1135.5V549ZM1136.7 531.15C1137.6 531.15 1138.35 530.4 1138.35 529.5C1138.35 528.6 1137.6 527.85 1136.7 527.85C1135.8 527.85 1135.05 528.6 1135.05 529.5C1135.05 530.4 1135.8 531.15 1136.7 531.15ZM1148.39 549.3C1152.29 549.3 1153.76 546.63 1153.76 546.6H1153.79V549H1156.19V528H1153.79V536.4H1153.76C1153.76 536.37 1152.29 533.7 1148.39 533.7C1144.49 533.7 1141.19 537 1141.19 541.5C1141.19 546 1144.49 549.3 1148.39 549.3ZM1148.69 547.05C1145.84 547.05 1143.59 544.8 1143.59 541.5C1143.59 538.2 1145.84 535.95 1148.69 535.95C1151.54 535.95 1153.79 538.2 1153.79 541.5C1153.79 544.8 1151.54 547.05 1148.69 547.05ZM1165.2 549.3C1169.13 549.3 1170.72 546.6 1170.72 546.6H1170.75V549H1173.15V539.4C1173.15 535.95 1170.9 533.7 1167 533.7C1161.3 533.7 1160.4 538.5 1160.4 538.5H1162.8C1162.8 538.5 1163.55 535.95 1167 535.95C1169.4 535.95 1170.75 537.3 1170.75 539.4V540H1165.8C1161.84 540 1159.8 542.1 1159.8 544.65C1159.8 547.35 1161.75 549.3 1165.2 549.3ZM1165.65 547.05C1163.25 547.05 1162.2 546 1162.2 544.65C1162.2 543.3 1163.25 542.25 1165.65 542.25H1170.75C1170.75 544.95 1168.8 547.05 1165.65 547.05ZM1177.79 549H1185.14V546.75H1180.19V536.25H1184.99V534H1180.19V530.7H1177.79V534H1175.84V536.25H1177.79V549ZM1195.04 549.3C1199.54 549.3 1202.84 546 1202.84 541.5C1202.84 537 1199.54 533.7 1195.04 533.7C1190.54 533.7 1187.24 537 1187.24 541.5C1187.24 546 1190.54 549.3 1195.04 549.3ZM1195.04 547.05C1191.89 547.05 1189.64 544.8 1189.64 541.5C1189.64 538.2 1191.89 535.95 1195.04 535.95C1198.19 535.95 1200.44 538.2 1200.44 541.5C1200.44 544.8 1198.19 547.05 1195.04 547.05ZM1206.13 549H1208.53V540.9C1208.53 538.2 1210.48 536.25 1213.18 536.25H1214.98V533.85H1213.18C1209.73 533.85 1208.56 536.4 1208.56 536.4H1208.53V534H1206.13V549Z" fill="white"/>
<rect x="74.5" y="486.5" width="123" height="107" stroke="#6347F5" stroke-width="3"/>
<path d="M114.21 549.6C119.16 549.6 122.46 546.3 122.46 541.05V528H119.76V541.05C119.76 544.8 117.51 547.05 114.21 547.05C110.91 547.05 108.66 544.8 108.66 541.05V528H105.96V541.05C105.96 546.3 109.26 549.6 114.21 549.6ZM132.666 549.3C136.716 549.3 138.816 547.2 138.816 544.8C138.816 539.1 128.916 541.05 128.916 537.9C128.916 537 129.966 535.95 132.216 535.95C135.366 535.95 136.116 538.2 136.116 538.2H138.666C138.666 538.2 137.796 533.7 132.216 533.7C128.466 533.7 126.516 535.65 126.516 537.9C126.516 543.6 136.416 541.65 136.416 544.8C136.416 546 135.366 547.05 132.666 547.05C129.216 547.05 128.316 544.35 128.316 544.35H125.766C125.766 544.35 126.816 549.3 132.666 549.3ZM148.859 549.3C154.559 549.3 156.209 544.35 156.209 544.35H153.809C153.809 544.35 152.459 547.05 148.859 547.05C146.129 547.05 143.909 545.04 143.609 542.25H156.509V541.35C156.509 537 153.209 533.7 148.859 533.7C144.509 533.7 141.209 537 141.209 541.5C141.209 546 144.509 549.3 148.859 549.3ZM143.669 540.15C144.059 537.9 146.009 535.95 148.859 535.95C151.709 535.95 153.659 537.9 153.959 540.15H143.669ZM159.804 549H162.204V540.9C162.204 538.2 164.154 536.25 166.854 536.25H168.654V533.85H166.854C163.404 533.85 162.234 536.4 162.234 536.4H162.204V534H159.804V549Z" fill="white"/>
<rect x="260.5" y="486.5" width="231.072" height="107" stroke="#6347F5" stroke-width="3"/>
<path d="M289.72 531H292.42V523.2H297.97L303.07 531H306.22L300.82 522.9C304.36 522.15 306.37 519.69 306.37 516.6C306.37 512.85 303.52 510 298.72 510H289.72V531ZM292.42 520.65V512.55H298.72C302.02 512.55 303.67 514.2 303.67 516.6C303.67 519 302.02 520.65 298.72 520.65H292.42ZM310.257 531H324.957V528.45H312.957V521.7H322.707V519.15H312.957V512.55H324.957V510H310.257V531ZM328.567 531H331.267V513L331.237 512.7H331.297L337.417 525.9H342.367L348.487 512.7H348.547L348.517 513V531H351.217V510H346.867L340.567 523.5H339.217L332.917 510H328.567V531ZM356.019 531H358.719V523.8H364.869C369.669 523.8 372.669 520.8 372.669 516.9C372.669 513 369.669 510 364.869 510H356.019V531ZM358.719 521.25V512.55H364.869C368.169 512.55 369.969 514.35 369.969 516.9C369.969 519.45 368.169 521.25 364.869 521.25H358.719ZM393.516 531.6C401.916 531.6 404.016 523.5 404.016 523.5H401.316C401.316 523.5 399.666 529.05 393.516 529.05C388.716 529.05 385.266 525.6 385.266 520.5C385.266 515.4 388.716 511.95 393.516 511.95C399.516 511.95 401.166 517.05 401.166 517.05H403.866C403.866 517.05 402.066 509.4 393.516 509.4C387.216 509.4 382.566 514.05 382.566 520.5C382.566 526.95 387.216 531.6 393.516 531.6ZM407.31 531H413.16V528.75H409.71V510H407.31V531ZM415.572 531H417.972V516H415.572V531ZM416.772 513.15C417.672 513.15 418.422 512.4 418.422 511.5C418.422 510.6 417.672 509.85 416.772 509.85C415.872 509.85 415.122 510.6 415.122 511.5C415.122 512.4 415.872 513.15 416.772 513.15ZM428.914 531.3C434.614 531.3 436.264 526.35 436.264 526.35H433.864C433.864 526.35 432.514 529.05 428.914 529.05C426.184 529.05 423.964 527.04 423.664 524.25H436.564V523.35C436.564 519 433.264 515.7 428.914 515.7C424.564 515.7 421.264 519 421.264 523.5C421.264 528 424.564 531.3 428.914 531.3ZM423.724 522.15C424.114 519.9 426.064 517.95 428.914 517.95C431.764 517.95 433.714 519.9 434.014 522.15H423.724ZM439.859 531H442.259V522.9C442.259 519.9 444.209 517.95 446.909 517.95C449.309 517.95 450.959 519.3 450.959 522.3V531H453.359V522.15C453.359 518.1 450.959 515.7 447.359 515.7C443.759 515.7 442.289 518.25 442.289 518.25H442.259V516H439.859V531ZM458.008 531H465.358V528.75H460.408V518.25H465.208V516H460.408V512.7H458.008V516H456.058V518.25H458.008V531ZM307.401 573.25L308.601 571.45C308.601 571.45 302.751 566.95 302.751 559.3C302.751 551.65 308.601 547.15 308.601 547.15L307.401 545.35C307.401 545.35 300.201 550.3 300.201 559.3C300.201 568.3 307.401 573.25 307.401 573.25ZM311.605 568H314.305V559.3H323.455V556.75H314.305V549.55H325.855V547H311.605V568ZM334.121 568.3C337.721 568.3 339.191 565.75 339.191 565.75H339.221V568H341.621V553H339.221V561.1C339.221 564.1 337.271 566.05 334.571 566.05C332.171 566.05 330.521 564.7 330.521 561.7V553H328.121V561.85C328.121 565.9 330.521 568.3 334.121 568.3ZM345.816 568H351.666V565.75H348.216V547H345.816V568ZM354.078 568H359.928V565.75H356.478V547H354.078V568ZM371.048 568L373.748 567.97V550.6L373.718 550.3H373.778L384.098 568H387.998V547H385.298V564.4L385.328 564.7H385.268L374.948 547H371.048V568ZM399.386 568.3C403.886 568.3 407.186 565 407.186 560.5C407.186 556 403.886 552.7 399.386 552.7C394.886 552.7 391.586 556 391.586 560.5C391.586 565 394.886 568.3 399.386 568.3ZM399.386 566.05C396.236 566.05 393.986 563.8 393.986 560.5C393.986 557.2 396.236 554.95 399.386 554.95C402.536 554.95 404.786 557.2 404.786 560.5C404.786 563.8 402.536 566.05 399.386 566.05ZM416.775 568.3C420.675 568.3 422.145 565.63 422.145 565.6H422.175V568H424.575V547H422.175V555.4H422.145C422.145 555.37 420.675 552.7 416.775 552.7C412.875 552.7 409.575 556 409.575 560.5C409.575 565 412.875 568.3 416.775 568.3ZM417.075 566.05C414.225 566.05 411.975 563.8 411.975 560.5C411.975 557.2 414.225 554.95 417.075 554.95C419.925 554.95 422.175 557.2 422.175 560.5C422.175 563.8 419.925 566.05 417.075 566.05ZM435.535 568.3C441.235 568.3 442.885 563.35 442.885 563.35H440.485C440.485 563.35 439.135 566.05 435.535 566.05C432.805 566.05 430.585 564.04 430.285 561.25H443.185V560.35C443.185 556 439.885 552.7 435.535 552.7C431.185 552.7 427.885 556 427.885 560.5C427.885 565 431.185 568.3 435.535 568.3ZM430.345 559.15C430.735 556.9 432.685 554.95 435.535 554.95C438.385 554.95 440.335 556.9 440.635 559.15H430.345ZM446.18 573.25C446.18 573.25 453.38 568.3 453.38 559.3C453.38 550.3 446.18 545.35 446.18 545.35L444.98 547.15C444.98 547.15 450.83 551.65 450.83 559.3C450.83 566.95 444.98 571.45 444.98 571.45L446.18 573.25Z" fill="white"/>
<rect x="1376.5" y="486.5" width="282.302" height="107" stroke="#6347F5" stroke-width="3"/>
<path d="M1431.5 531H1434.2V523.2H1439.75L1444.85 531H1448L1442.6 522.9C1446.14 522.15 1448.15 519.69 1448.15 516.6C1448.15 512.85 1445.3 510 1440.5 510H1431.5V531ZM1434.2 520.65V512.55H1440.5C1443.8 512.55 1445.45 514.2 1445.45 516.6C1445.45 519 1443.8 520.65 1440.5 520.65H1434.2ZM1452.04 531H1466.74V528.45H1454.74V521.7H1464.49V519.15H1454.74V512.55H1466.74V510H1452.04V531ZM1470.35 531H1473.05V513L1473.02 512.7H1473.08L1479.2 525.9H1484.15L1490.27 512.7H1490.33L1490.3 513V531H1493V510H1488.65L1482.35 523.5H1481L1474.7 510H1470.35V531ZM1497.8 531H1500.5V523.8H1506.65C1511.45 523.8 1514.45 520.8 1514.45 516.9C1514.45 513 1511.45 510 1506.65 510H1497.8V531ZM1500.5 521.25V512.55H1506.65C1509.95 512.55 1511.75 514.35 1511.75 516.9C1511.75 519.45 1509.95 521.25 1506.65 521.25H1500.5ZM1535.3 531.6C1543.7 531.6 1545.8 523.5 1545.8 523.5H1543.1C1543.1 523.5 1541.45 529.05 1535.3 529.05C1530.5 529.05 1527.05 525.6 1527.05 520.5C1527.05 515.4 1530.5 511.95 1535.3 511.95C1541.3 511.95 1542.95 517.05 1542.95 517.05H1545.65C1545.65 517.05 1543.85 509.4 1535.3 509.4C1529 509.4 1524.35 514.05 1524.35 520.5C1524.35 526.95 1529 531.6 1535.3 531.6ZM1549.09 531H1554.94V528.75H1551.49V510H1549.09V531ZM1557.35 531H1559.75V516H1557.35V531ZM1558.55 513.15C1559.45 513.15 1560.2 512.4 1560.2 511.5C1560.2 510.6 1559.45 509.85 1558.55 509.85C1557.65 509.85 1556.9 510.6 1556.9 511.5C1556.9 512.4 1557.65 513.15 1558.55 513.15ZM1570.69 531.3C1576.39 531.3 1578.04 526.35 1578.04 526.35H1575.64C1575.64 526.35 1574.29 529.05 1570.69 529.05C1567.96 529.05 1565.74 527.04 1565.44 524.25H1578.34V523.35C1578.34 519 1575.04 515.7 1570.69 515.7C1566.34 515.7 1563.04 519 1563.04 523.5C1563.04 528 1566.34 531.3 1570.69 531.3ZM1565.5 522.15C1565.89 519.9 1567.84 517.95 1570.69 517.95C1573.54 517.95 1575.49 519.9 1575.79 522.15H1565.5ZM1581.64 531H1584.04V522.9C1584.04 519.9 1585.99 517.95 1588.69 517.95C1591.09 517.95 1592.74 519.3 1592.74 522.3V531H1595.14V522.15C1595.14 518.1 1592.74 515.7 1589.14 515.7C1585.54 515.7 1584.07 518.25 1584.07 518.25H1584.04V516H1581.64V531ZM1599.79 531H1607.14V528.75H1602.19V518.25H1606.99V516H1602.19V512.7H1599.79V516H1597.84V518.25H1599.79V531ZM1449.18 573.25L1450.38 571.45C1450.38 571.45 1444.53 566.95 1444.53 559.3C1444.53 551.65 1450.38 547.15 1450.38 547.15L1449.18 545.35C1449.18 545.35 1441.98 550.3 1441.98 559.3C1441.98 568.3 1449.18 573.25 1449.18 573.25ZM1453.38 568H1456.08V559.3H1465.23V556.75H1456.08V549.55H1467.63V547H1453.38V568ZM1475.9 568.3C1479.5 568.3 1480.97 565.75 1480.97 565.75H1481V568H1483.4V553H1481V561.1C1481 564.1 1479.05 566.05 1476.35 566.05C1473.95 566.05 1472.3 564.7 1472.3 561.7V553H1469.9V561.85C1469.9 565.9 1472.3 568.3 1475.9 568.3ZM1487.6 568H1493.45V565.75H1490V547H1487.6V568ZM1495.86 568H1501.71V565.75H1498.26V547H1495.86V568ZM1512.83 568L1515.53 567.97V550.6L1515.5 550.3H1515.56L1525.88 568H1529.78V547H1527.08V564.4L1527.11 564.7H1527.05L1516.73 547H1512.83V568ZM1541.17 568.3C1545.67 568.3 1548.97 565 1548.97 560.5C1548.97 556 1545.67 552.7 1541.17 552.7C1536.67 552.7 1533.37 556 1533.37 560.5C1533.37 565 1536.67 568.3 1541.17 568.3ZM1541.17 566.05C1538.02 566.05 1535.77 563.8 1535.77 560.5C1535.77 557.2 1538.02 554.95 1541.17 554.95C1544.32 554.95 1546.57 557.2 1546.57 560.5C1546.57 563.8 1544.32 566.05 1541.17 566.05ZM1558.55 568.3C1562.45 568.3 1563.92 565.63 1563.92 565.6H1563.95V568H1566.35V547H1563.95V555.4H1563.92C1563.92 555.37 1562.45 552.7 1558.55 552.7C1554.65 552.7 1551.35 556 1551.35 560.5C1551.35 565 1554.65 568.3 1558.55 568.3ZM1558.85 566.05C1556 566.05 1553.75 563.8 1553.75 560.5C1553.75 557.2 1556 554.95 1558.85 554.95C1561.7 554.95 1563.95 557.2 1563.95 560.5C1563.95 563.8 1561.7 566.05 1558.85 566.05ZM1577.31 568.3C1583.01 568.3 1584.66 563.35 1584.66 563.35H1582.26C1582.26 563.35 1580.91 566.05 1577.31 566.05C1574.58 566.05 1572.36 564.04 1572.06 561.25H1584.96V560.35C1584.96 556 1581.66 552.7 1577.31 552.7C1572.96 552.7 1569.66 556 1569.66 560.5C1569.66 565 1572.96 568.3 1577.31 568.3ZM1572.12 559.15C1572.51 556.9 1574.46 554.95 1577.31 554.95C1580.16 554.95 1582.11 556.9 1582.41 559.15H1572.12ZM1587.96 573.25C1587.96 573.25 1595.16 568.3 1595.16 559.3C1595.16 550.3 1587.96 545.35 1587.96 545.35L1586.76 547.15C1586.76 547.15 1592.61 551.65 1592.61 559.3C1592.61 566.95 1586.76 571.45 1586.76 571.45L1587.96 573.25Z" fill="white"/>
<rect x="594.5" y="871.5" width="320" height="107" rx="28.5" stroke="#6347F5" stroke-width="3"/>
<path d="M647.508 916H650.208V908.2H655.758L660.858 916H664.008L658.608 907.9C662.148 907.15 664.158 904.69 664.158 901.6C664.158 897.85 661.308 895 656.508 895H647.508V916ZM650.208 905.65V897.55H656.508C659.808 897.55 661.458 899.2 661.458 901.6C661.458 904 659.808 905.65 656.508 905.65H650.208ZM668.046 916H682.746V913.45H670.746V906.7H680.496V904.15H670.746V897.55H682.746V895H668.046V916ZM686.356 916H689.056V898L689.026 897.7H689.086L695.206 910.9H700.156L706.276 897.7H706.336L706.306 898V916H709.006V895H704.656L698.356 908.5H697.006L690.706 895H686.356V916ZM713.807 916H716.507V908.8H722.657C727.457 908.8 730.457 905.8 730.457 901.9C730.457 898 727.457 895 722.657 895H713.807V916ZM716.507 906.25V897.55H722.657C725.957 897.55 727.757 899.35 727.757 901.9C727.757 904.45 725.957 906.25 722.657 906.25H716.507ZM751.305 916.6C759.705 916.6 761.805 908.5 761.805 908.5H759.105C759.105 908.5 757.455 914.05 751.305 914.05C746.505 914.05 743.055 910.6 743.055 905.5C743.055 900.4 746.505 896.95 751.305 896.95C757.305 896.95 758.955 902.05 758.955 902.05H761.655C761.655 902.05 759.855 894.4 751.305 894.4C745.005 894.4 740.355 899.05 740.355 905.5C740.355 911.95 745.005 916.6 751.305 916.6ZM769.899 916.3C773.829 916.3 775.419 913.6 775.419 913.6H775.449V916H777.849V906.4C777.849 902.95 775.599 900.7 771.699 900.7C765.999 900.7 765.099 905.5 765.099 905.5H767.499C767.499 905.5 768.249 902.95 771.699 902.95C774.099 902.95 775.449 904.3 775.449 906.4V907H770.499C766.539 907 764.499 909.1 764.499 911.65C764.499 914.35 766.449 916.3 769.899 916.3ZM770.349 914.05C767.949 914.05 766.899 913 766.899 911.65C766.899 910.3 767.949 909.25 770.349 909.25H775.449C775.449 911.95 773.499 914.05 770.349 914.05ZM782.486 916H789.836V913.75H784.886V903.25H789.686V901H784.886V897.7H782.486V901H780.536V903.25H782.486V916ZM799.443 916.3C805.593 916.3 806.793 910.75 806.793 910.75H804.393C804.393 910.75 803.343 914.05 799.443 914.05C796.713 914.05 794.343 911.83 794.343 908.5C794.343 905.2 796.593 902.95 799.443 902.95C803.193 902.95 804.243 905.95 804.243 905.95H806.643C806.643 905.95 805.443 900.7 799.443 900.7C795.243 900.7 791.943 904 791.943 908.5C791.943 913 795.243 916.3 799.443 916.3ZM809.806 916H812.206V907.9C812.206 904.9 814.156 902.95 816.856 902.95C819.256 902.95 820.906 904.3 820.906 907.3V916H823.306V907.15C823.306 903.1 820.906 900.7 817.306 900.7C813.706 900.7 812.236 903.25 812.236 903.25H812.206V895H809.806V916ZM832.008 916.3C835.938 916.3 837.528 913.6 837.528 913.6H837.558V916H839.958V906.4C839.958 902.95 837.708 900.7 833.808 900.7C828.108 900.7 827.208 905.5 827.208 905.5H829.608C829.608 905.5 830.358 902.95 833.808 902.95C836.208 902.95 837.558 904.3 837.558 906.4V907H832.608C828.648 907 826.608 909.1 826.608 911.65C826.608 914.35 828.558 916.3 832.008 916.3ZM832.458 914.05C830.058 914.05 829.008 913 829.008 911.65C829.008 910.3 830.058 909.25 832.458 909.25H837.558C837.558 911.95 835.608 914.05 832.458 914.05ZM843.996 916H846.396V901H843.996V916ZM845.196 898.15C846.096 898.15 846.846 897.4 846.846 896.5C846.846 895.6 846.096 894.85 845.196 894.85C844.296 894.85 843.546 895.6 843.546 896.5C843.546 897.4 844.296 898.15 845.196 898.15ZM850.587 916H852.987V907.9C852.987 904.9 854.937 902.95 857.637 902.95C860.037 902.95 861.687 904.3 861.687 907.3V916H864.087V907.15C864.087 903.1 861.687 900.7 858.087 900.7C854.487 900.7 853.017 903.25 853.017 903.25H852.987V901H850.587V916ZM701.664 953.6C706.764 953.6 709.614 950.75 709.614 947.45C709.614 939.95 696.564 942.35 696.564 937.4C696.564 935.6 698.214 933.95 701.364 933.95C706.014 933.95 706.764 937.25 706.764 937.25H709.464C709.464 937.25 708.474 931.4 701.364 931.4C696.714 931.4 693.864 934.25 693.864 937.4C693.864 944.9 706.914 942.35 706.914 947.45C706.914 949.4 705.264 951.05 701.664 951.05C696.564 951.05 695.664 947 695.664 947H692.964C692.964 947 694.014 953.6 701.664 953.6ZM719.803 953.3C725.503 953.3 727.153 948.35 727.153 948.35H724.753C724.753 948.35 723.403 951.05 719.803 951.05C717.073 951.05 714.853 949.04 714.553 946.25H727.453V945.35C727.453 941 724.153 937.7 719.803 937.7C715.453 937.7 712.153 941 712.153 945.5C712.153 950 715.453 953.3 719.803 953.3ZM714.613 944.15C715.003 941.9 716.953 939.95 719.803 939.95C722.653 939.95 724.603 941.9 724.903 944.15H714.613ZM736.598 953.3C740.648 953.3 742.748 951.2 742.748 948.8C742.748 943.1 732.848 945.05 732.848 941.9C732.848 941 733.898 939.95 736.148 939.95C739.298 939.95 740.048 942.2 740.048 942.2H742.598C742.598 942.2 741.728 937.7 736.148 937.7C732.398 937.7 730.448 939.65 730.448 941.9C730.448 947.6 740.348 945.65 740.348 948.8C740.348 950 739.298 951.05 736.598 951.05C733.148 951.05 732.248 948.35 732.248 948.35H729.698C729.698 948.35 730.748 953.3 736.598 953.3ZM751.891 953.3C755.941 953.3 758.041 951.2 758.041 948.8C758.041 943.1 748.141 945.05 748.141 941.9C748.141 941 749.191 939.95 751.441 939.95C754.591 939.95 755.341 942.2 755.341 942.2H757.891C757.891 942.2 757.021 937.7 751.441 937.7C747.691 937.7 745.741 939.65 745.741 941.9C745.741 947.6 755.641 945.65 755.641 948.8C755.641 950 754.591 951.05 751.891 951.05C748.441 951.05 747.541 948.35 747.541 948.35H744.991C744.991 948.35 746.041 953.3 751.891 953.3ZM761.334 953H763.734V938H761.334V953ZM762.534 935.15C763.434 935.15 764.184 934.4 764.184 933.5C764.184 932.6 763.434 931.85 762.534 931.85C761.634 931.85 760.884 932.6 760.884 933.5C760.884 934.4 761.634 935.15 762.534 935.15ZM774.826 953.3C779.326 953.3 782.626 950 782.626 945.5C782.626 941 779.326 937.7 774.826 937.7C770.326 937.7 767.026 941 767.026 945.5C767.026 950 770.326 953.3 774.826 953.3ZM774.826 951.05C771.676 951.05 769.426 948.8 769.426 945.5C769.426 942.2 771.676 939.95 774.826 939.95C777.976 939.95 780.226 942.2 780.226 945.5C780.226 948.8 777.976 951.05 774.826 951.05ZM785.914 953H788.314V944.9C788.314 941.9 790.264 939.95 792.964 939.95C795.364 939.95 797.014 941.3 797.014 944.3V953H799.414V944.15C799.414 940.1 797.014 937.7 793.414 937.7C789.814 937.7 788.344 940.25 788.344 940.25H788.314V938H785.914V953ZM814.271 953H816.971V932H814.571L810.521 935.15V938.15L814.271 935.3V953Z" fill="white"/>
<rect x="987.5" y="871.5" width="320" height="107" rx="28.5" stroke="#6347F5" stroke-width="3"/>
<path d="M1040.51 916H1043.21V908.2H1048.76L1053.86 916H1057.01L1051.61 907.9C1055.15 907.15 1057.16 904.69 1057.16 901.6C1057.16 897.85 1054.31 895 1049.51 895H1040.51V916ZM1043.21 905.65V897.55H1049.51C1052.81 897.55 1054.46 899.2 1054.46 901.6C1054.46 904 1052.81 905.65 1049.51 905.65H1043.21ZM1061.05 916H1075.75V913.45H1063.75V906.7H1073.5V904.15H1063.75V897.55H1075.75V895H1061.05V916ZM1079.36 916H1082.06V898L1082.03 897.7H1082.09L1088.21 910.9H1093.16L1099.28 897.7H1099.34L1099.31 898V916H1102.01V895H1097.66L1091.36 908.5H1090.01L1083.71 895H1079.36V916ZM1106.81 916H1109.51V908.8H1115.66C1120.46 908.8 1123.46 905.8 1123.46 901.9C1123.46 898 1120.46 895 1115.66 895H1106.81V916ZM1109.51 906.25V897.55H1115.66C1118.96 897.55 1120.76 899.35 1120.76 901.9C1120.76 904.45 1118.96 906.25 1115.66 906.25H1109.51ZM1144.3 916.6C1152.7 916.6 1154.8 908.5 1154.8 908.5H1152.1C1152.1 908.5 1150.45 914.05 1144.3 914.05C1139.5 914.05 1136.05 910.6 1136.05 905.5C1136.05 900.4 1139.5 896.95 1144.3 896.95C1150.3 896.95 1151.95 902.05 1151.95 902.05H1154.65C1154.65 902.05 1152.85 894.4 1144.3 894.4C1138 894.4 1133.35 899.05 1133.35 905.5C1133.35 911.95 1138 916.6 1144.3 916.6ZM1162.9 916.3C1166.83 916.3 1168.42 913.6 1168.42 913.6H1168.45V916H1170.85V906.4C1170.85 902.95 1168.6 900.7 1164.7 900.7C1159 900.7 1158.1 905.5 1158.1 905.5H1160.5C1160.5 905.5 1161.25 902.95 1164.7 902.95C1167.1 902.95 1168.45 904.3 1168.45 906.4V907H1163.5C1159.54 907 1157.5 909.1 1157.5 911.65C1157.5 914.35 1159.45 916.3 1162.9 916.3ZM1163.35 914.05C1160.95 914.05 1159.9 913 1159.9 911.65C1159.9 910.3 1160.95 909.25 1163.35 909.25H1168.45C1168.45 911.95 1166.5 914.05 1163.35 914.05ZM1175.49 916H1182.84V913.75H1177.89V903.25H1182.69V901H1177.89V897.7H1175.49V901H1173.54V903.25H1175.49V916ZM1192.44 916.3C1198.59 916.3 1199.79 910.75 1199.79 910.75H1197.39C1197.39 910.75 1196.34 914.05 1192.44 914.05C1189.71 914.05 1187.34 911.83 1187.34 908.5C1187.34 905.2 1189.59 902.95 1192.44 902.95C1196.19 902.95 1197.24 905.95 1197.24 905.95H1199.64C1199.64 905.95 1198.44 900.7 1192.44 900.7C1188.24 900.7 1184.94 904 1184.94 908.5C1184.94 913 1188.24 916.3 1192.44 916.3ZM1202.81 916H1205.21V907.9C1205.21 904.9 1207.16 902.95 1209.86 902.95C1212.26 902.95 1213.91 904.3 1213.91 907.3V916H1216.31V907.15C1216.31 903.1 1213.91 900.7 1210.31 900.7C1206.71 900.7 1205.24 903.25 1205.24 903.25H1205.21V895H1202.81V916ZM1225.01 916.3C1228.94 916.3 1230.53 913.6 1230.53 913.6H1230.56V916H1232.96V906.4C1232.96 902.95 1230.71 900.7 1226.81 900.7C1221.11 900.7 1220.21 905.5 1220.21 905.5H1222.61C1222.61 905.5 1223.36 902.95 1226.81 902.95C1229.21 902.95 1230.56 904.3 1230.56 906.4V907H1225.61C1221.65 907 1219.61 909.1 1219.61 911.65C1219.61 914.35 1221.56 916.3 1225.01 916.3ZM1225.46 914.05C1223.06 914.05 1222.01 913 1222.01 911.65C1222.01 910.3 1223.06 909.25 1225.46 909.25H1230.56C1230.56 911.95 1228.61 914.05 1225.46 914.05ZM1237 916H1239.4V901H1237V916ZM1238.2 898.15C1239.1 898.15 1239.85 897.4 1239.85 896.5C1239.85 895.6 1239.1 894.85 1238.2 894.85C1237.3 894.85 1236.55 895.6 1236.55 896.5C1236.55 897.4 1237.3 898.15 1238.2 898.15ZM1243.59 916H1245.99V907.9C1245.99 904.9 1247.94 902.95 1250.64 902.95C1253.04 902.95 1254.69 904.3 1254.69 907.3V916H1257.09V907.15C1257.09 903.1 1254.69 900.7 1251.09 900.7C1247.49 900.7 1246.02 903.25 1246.02 903.25H1245.99V901H1243.59V916ZM1090.91 953.6C1096.01 953.6 1098.86 950.75 1098.86 947.45C1098.86 939.95 1085.81 942.35 1085.81 937.4C1085.81 935.6 1087.46 933.95 1090.61 933.95C1095.26 933.95 1096.01 937.25 1096.01 937.25H1098.71C1098.71 937.25 1097.72 931.4 1090.61 931.4C1085.96 931.4 1083.11 934.25 1083.11 937.4C1083.11 944.9 1096.16 942.35 1096.16 947.45C1096.16 949.4 1094.51 951.05 1090.91 951.05C1085.81 951.05 1084.91 947 1084.91 947H1082.21C1082.21 947 1083.26 953.6 1090.91 953.6ZM1109.05 953.3C1114.75 953.3 1116.4 948.35 1116.4 948.35H1114C1114 948.35 1112.65 951.05 1109.05 951.05C1106.32 951.05 1104.1 949.04 1103.8 946.25H1116.7V945.35C1116.7 941 1113.4 937.7 1109.05 937.7C1104.7 937.7 1101.4 941 1101.4 945.5C1101.4 950 1104.7 953.3 1109.05 953.3ZM1103.86 944.15C1104.25 941.9 1106.2 939.95 1109.05 939.95C1111.9 939.95 1113.85 941.9 1114.15 944.15H1103.86ZM1125.85 953.3C1129.9 953.3 1132 951.2 1132 948.8C1132 943.1 1122.1 945.05 1122.1 941.9C1122.1 941 1123.15 939.95 1125.4 939.95C1128.55 939.95 1129.3 942.2 1129.3 942.2H1131.85C1131.85 942.2 1130.98 937.7 1125.4 937.7C1121.65 937.7 1119.7 939.65 1119.7 941.9C1119.7 947.6 1129.6 945.65 1129.6 948.8C1129.6 950 1128.55 951.05 1125.85 951.05C1122.4 951.05 1121.5 948.35 1121.5 948.35H1118.95C1118.95 948.35 1120 953.3 1125.85 953.3ZM1141.14 953.3C1145.19 953.3 1147.29 951.2 1147.29 948.8C1147.29 943.1 1137.39 945.05 1137.39 941.9C1137.39 941 1138.44 939.95 1140.69 939.95C1143.84 939.95 1144.59 942.2 1144.59 942.2H1147.14C1147.14 942.2 1146.27 937.7 1140.69 937.7C1136.94 937.7 1134.99 939.65 1134.99 941.9C1134.99 947.6 1144.89 945.65 1144.89 948.8C1144.89 950 1143.84 951.05 1141.14 951.05C1137.69 951.05 1136.79 948.35 1136.79 948.35H1134.24C1134.24 948.35 1135.29 953.3 1141.14 953.3ZM1150.58 953H1152.98V938H1150.58V953ZM1151.78 935.15C1152.68 935.15 1153.43 934.4 1153.43 933.5C1153.43 932.6 1152.68 931.85 1151.78 931.85C1150.88 931.85 1150.13 932.6 1150.13 933.5C1150.13 934.4 1150.88 935.15 1151.78 935.15ZM1164.08 953.3C1168.58 953.3 1171.88 950 1171.88 945.5C1171.88 941 1168.58 937.7 1164.08 937.7C1159.58 937.7 1156.28 941 1156.28 945.5C1156.28 950 1159.58 953.3 1164.08 953.3ZM1164.08 951.05C1160.93 951.05 1158.68 948.8 1158.68 945.5C1158.68 942.2 1160.93 939.95 1164.08 939.95C1167.23 939.95 1169.48 942.2 1169.48 945.5C1169.48 948.8 1167.23 951.05 1164.08 951.05ZM1175.16 953H1177.56V944.9C1177.56 941.9 1179.51 939.95 1182.21 939.95C1184.61 939.95 1186.26 941.3 1186.26 944.3V953H1188.66V944.15C1188.66 940.1 1186.26 937.7 1182.66 937.7C1179.06 937.7 1177.59 940.25 1177.59 940.25H1177.56V938H1175.16V953ZM1199.92 953H1214.77V950.45H1204.24L1203.97 950.48V950.42L1204.27 950.24L1208.62 947.15C1212.22 944.6 1214.77 942.05 1214.77 938.15C1214.77 934.4 1211.77 931.4 1207.57 931.4C1200.67 931.4 1200.07 938.15 1200.07 938.15H1202.92C1202.92 938.15 1203.52 933.95 1207.57 933.95C1210.27 933.95 1212.07 935.75 1212.07 938.15C1212.07 941 1210.27 942.8 1206.82 945.35L1199.92 950.45V953Z" fill="white"/>
<rect x="664.5" y="673.5" width="187" height="107" stroke="#6347F5" stroke-width="3"/>
<path d="M701.309 736H709.109L714.659 715H711.809L707.009 733.45H703.409L698.609 715H695.759L701.309 736ZM721.248 736.3C725.178 736.3 726.768 733.6 726.768 733.6H726.798V736H729.198V726.4C729.198 722.95 726.948 720.7 723.048 720.7C717.348 720.7 716.448 725.5 716.448 725.5H718.848C718.848 725.5 719.598 722.95 723.048 722.95C725.448 722.95 726.798 724.3 726.798 726.4V727H721.848C717.888 727 715.848 729.1 715.848 731.65C715.848 734.35 717.798 736.3 721.248 736.3ZM721.698 734.05C719.298 734.05 718.248 733 718.248 731.65C718.248 730.3 719.298 729.25 721.698 729.25H726.798C726.798 731.95 724.848 734.05 721.698 734.05ZM733.235 736H739.085V733.75H735.635V715H733.235V736ZM741.497 736H743.897V721H741.497V736ZM742.697 718.15C743.597 718.15 744.347 717.4 744.347 716.5C744.347 715.6 743.597 714.85 742.697 714.85C741.797 714.85 741.047 715.6 741.047 716.5C741.047 717.4 741.797 718.15 742.697 718.15ZM754.389 736.3C758.289 736.3 759.759 733.63 759.759 733.6H759.789V736H762.189V715H759.789V723.4H759.759C759.759 723.37 758.289 720.7 754.389 720.7C750.489 720.7 747.189 724 747.189 728.5C747.189 733 750.489 736.3 754.389 736.3ZM754.689 734.05C751.839 734.05 749.589 731.8 749.589 728.5C749.589 725.2 751.839 722.95 754.689 722.95C757.539 722.95 759.789 725.2 759.789 728.5C759.789 731.8 757.539 734.05 754.689 734.05ZM771.199 736.3C775.129 736.3 776.719 733.6 776.719 733.6H776.749V736H779.149V726.4C779.149 722.95 776.899 720.7 772.999 720.7C767.299 720.7 766.399 725.5 766.399 725.5H768.799C768.799 725.5 769.549 722.95 772.999 722.95C775.399 722.95 776.749 724.3 776.749 726.4V727H771.799C767.839 727 765.799 729.1 765.799 731.65C765.799 734.35 767.749 736.3 771.199 736.3ZM771.649 734.05C769.249 734.05 768.199 733 768.199 731.65C768.199 730.3 769.249 729.25 771.649 729.25H776.749C776.749 731.95 774.799 734.05 771.649 734.05ZM783.786 736H791.136V733.75H786.186V723.25H790.986V721H786.186V717.7H783.786V721H781.836V723.25H783.786V736ZM801.043 736.3C805.543 736.3 808.843 733 808.843 728.5C808.843 724 805.543 720.7 801.043 720.7C796.543 720.7 793.243 724 793.243 728.5C793.243 733 796.543 736.3 801.043 736.3ZM801.043 734.05C797.893 734.05 795.643 731.8 795.643 728.5C795.643 725.2 797.893 722.95 801.043 722.95C804.193 722.95 806.443 725.2 806.443 728.5C806.443 731.8 804.193 734.05 801.043 734.05ZM812.132 736H814.532V727.9C814.532 725.2 816.482 723.25 819.182 723.25H820.982V720.85H819.182C815.732 720.85 814.562 723.4 814.562 723.4H814.532V721H812.132V736Z" fill="white"/>
<rect x="1058.5" y="673.5" width="187" height="107" stroke="#6347F5" stroke-width="3"/>
<path d="M1095.31 736H1103.11L1108.66 715H1105.81L1101.01 733.45H1097.41L1092.61 715H1089.76L1095.31 736ZM1115.25 736.3C1119.18 736.3 1120.77 733.6 1120.77 733.6H1120.8V736H1123.2V726.4C1123.2 722.95 1120.95 720.7 1117.05 720.7C1111.35 720.7 1110.45 725.5 1110.45 725.5H1112.85C1112.85 725.5 1113.6 722.95 1117.05 722.95C1119.45 722.95 1120.8 724.3 1120.8 726.4V727H1115.85C1111.89 727 1109.85 729.1 1109.85 731.65C1109.85 734.35 1111.8 736.3 1115.25 736.3ZM1115.7 734.05C1113.3 734.05 1112.25 733 1112.25 731.65C1112.25 730.3 1113.3 729.25 1115.7 729.25H1120.8C1120.8 731.95 1118.85 734.05 1115.7 734.05ZM1127.24 736H1133.09V733.75H1129.64V715H1127.24V736ZM1135.5 736H1137.9V721H1135.5V736ZM1136.7 718.15C1137.6 718.15 1138.35 717.4 1138.35 716.5C1138.35 715.6 1137.6 714.85 1136.7 714.85C1135.8 714.85 1135.05 715.6 1135.05 716.5C1135.05 717.4 1135.8 718.15 1136.7 718.15ZM1148.39 736.3C1152.29 736.3 1153.76 733.63 1153.76 733.6H1153.79V736H1156.19V715H1153.79V723.4H1153.76C1153.76 723.37 1152.29 720.7 1148.39 720.7C1144.49 720.7 1141.19 724 1141.19 728.5C1141.19 733 1144.49 736.3 1148.39 736.3ZM1148.69 734.05C1145.84 734.05 1143.59 731.8 1143.59 728.5C1143.59 725.2 1145.84 722.95 1148.69 722.95C1151.54 722.95 1153.79 725.2 1153.79 728.5C1153.79 731.8 1151.54 734.05 1148.69 734.05ZM1165.2 736.3C1169.13 736.3 1170.72 733.6 1170.72 733.6H1170.75V736H1173.15V726.4C1173.15 722.95 1170.9 720.7 1167 720.7C1161.3 720.7 1160.4 725.5 1160.4 725.5H1162.8C1162.8 725.5 1163.55 722.95 1167 722.95C1169.4 722.95 1170.75 724.3 1170.75 726.4V727H1165.8C1161.84 727 1159.8 729.1 1159.8 731.65C1159.8 734.35 1161.75 736.3 1165.2 736.3ZM1165.65 734.05C1163.25 734.05 1162.2 733 1162.2 731.65C1162.2 730.3 1163.25 729.25 1165.65 729.25H1170.75C1170.75 731.95 1168.8 734.05 1165.65 734.05ZM1177.79 736H1185.14V733.75H1180.19V723.25H1184.99V721H1180.19V717.7H1177.79V721H1175.84V723.25H1177.79V736ZM1195.04 736.3C1199.54 736.3 1202.84 733 1202.84 728.5C1202.84 724 1199.54 720.7 1195.04 720.7C1190.54 720.7 1187.24 724 1187.24 728.5C1187.24 733 1190.54 736.3 1195.04 736.3ZM1195.04 734.05C1191.89 734.05 1189.64 731.8 1189.64 728.5C1189.64 725.2 1191.89 722.95 1195.04 722.95C1198.19 722.95 1200.44 725.2 1200.44 728.5C1200.44 731.8 1198.19 734.05 1195.04 734.05ZM1206.13 736H1208.53V727.9C1208.53 725.2 1210.48 723.25 1213.18 723.25H1214.98V720.85H1213.18C1209.73 720.85 1208.56 723.4 1208.56 723.4H1208.53V721H1206.13V736Z" fill="white"/>
<path d="M218 53V1027" stroke="#6347F5" stroke-width="0.5" stroke-dasharray="20 20"/>
<path d="M552 53V1027" stroke="#6347F5" stroke-width="0.5" stroke-dasharray="20 20"/>
<rect x="532" y="353" width="39" height="295" fill="#0D1033"/>
<path d="M952 53V1027" stroke="#6347F5" stroke-width="0.5" stroke-dasharray="20 20"/>
<path d="M1332 53V1027" stroke="#6347F5" stroke-width="0.5" stroke-dasharray="20 20"/>
<path d="M1690.8 53V1027" stroke="#6347F5" stroke-width="0.5" stroke-dasharray="20 20"/>
<path d="M1686 53V1027" stroke="#6347F5" stroke-width="0.5" stroke-dasharray="20 20"/>
<path d="M243 549L258 540L243 531L243 549Z" fill="#6347F5"/>
<path d="M247 540L199 540" stroke="#6347F5" stroke-width="3"/>
<path d="M1704 549L1719 540L1704 531L1704 549Z" fill="#FF6922"/>
<path d="M1708 540L1660 540" stroke="#FF6922" stroke-width="3"/>
<path d="M649 540L491 540" stroke="#6347F5" stroke-width="3" stroke-dasharray="10 10"/>
<path d="M647 718L662 727L647 736L647 718Z" fill="#6347F5"/>
<path d="M647 344L662 353L647 362L647 344Z" fill="#6347F5"/>
<path d="M647 531L662 540L647 549L647 531Z" fill="#6347F5"/>
<path d="M1359 531L1374 540L1359 549L1359 531Z" fill="#FF6922"/>
<path d="M1359 561L1374 570L1359 579L1359 561Z" fill="#FF6922"/>
<path d="M1359 501L1374 510L1359 519L1359 501Z" fill="#FF6922"/>
<path d="M1496 469L1487 484L1478 469L1496 469Z" fill="#FF6922"/>
<rect x="938" y="233" width="39" height="701" fill="#0D1033"/>
<rect x="1315" y="202" width="39" height="79" fill="#0D1033"/>
<rect x="938" y="810" width="39" height="152" fill="#0D1033"/>
<rect x="1315" y="477" width="39" height="127" fill="#0D1033"/>
<path d="M1558 469L1549 484L1540 469L1558 469Z" fill="#FF6922"/>
<path d="M1527 469L1518 484L1509 469L1527 469Z" fill="#FF6922"/>
<path d="M1143 799L1152 784L1161 799H1143Z" fill="#AF9FFF"/>
<path d="M1041 533L1056 542L1041 551L1041 533Z" fill="#AF9FFF"/>
<path d="M1041 344L1056 353L1041 362L1041 344Z" fill="#AF9FFF"/>
<path d="M1162 852.594L1153 867.594L1144 852.594L1162 852.594Z" fill="#AF9FFF"/>
<path d="M1085 852.594L1076 867.594L1067 852.594L1085 852.594Z" fill="#AF9FFF"/>
<path d="M1008 852.594L999 867.594L990 852.594L1008 852.594Z" fill="#AF9FFF"/>
<path d="M999 859V373C999 361.954 1007.95 353 1019 353H1043.5" stroke="#AF9FFF" stroke-width="3"/>
<path d="M1152 858L1152 795" stroke="#AF9FFF" stroke-width="3"/>
<path d="M749 799L758 784L767 799H749Z" fill="#AF9FFF"/>
<path d="M647 563L662 572L647 581L647 563Z" fill="#AF9FFF"/>
<path d="M647 379L662 388L647 397L647 379Z" fill="#AF9FFF"/>
<path d="M767 852.594L758 867.594L749 852.594L767 852.594Z" fill="#AF9FFF"/>
<path d="M691 852.594L682 867.594L673 852.594L691 852.594Z" fill="#AF9FFF"/>
<path d="M615 852.594L606 867.594L597 852.594L615 852.594Z" fill="#AF9FFF"/>
<path d="M649 572V572C639.611 572 632 579.611 632 589V800.5C632 811.546 640.954 820.5 652 820.5H662C673.046 820.5 682 829.454 682 840.5V863.5" stroke="#AF9FFF" stroke-width="3"/>
<path d="M1042.34 542V542C1032.76 542 1025 549.763 1025 559.34L1025 800.926C1025 811.972 1033.95 820.926 1045 820.926H1056C1067.05 820.926 1076 829.881 1076 840.926V864" stroke="#AF9FFF" stroke-width="3"/>
<path d="M606 859V408C606 396.954 614.954 388 626 388H650" stroke="#AF9FFF" stroke-width="3"/>
<path d="M758 858L758 795" stroke="#AF9FFF" stroke-width="3"/>
<path d="M969.191 943L984.191 952L969.191 961L969.191 943Z" fill="#6347F5"/>
<path d="M969.191 916L984.191 925L969.191 934L969.191 916Z" fill="#6347F5"/>
<path d="M969.191 889L984.191 898L969.191 907L969.191 889Z" fill="#6347F5"/>
<path d="M853 736C863.529 736 889.91 736 908.51 736C919.555 736 928.5 744.954 928.5 756V932C928.5 943.046 937.454 952 948.5 952H974" stroke="#6347F5" stroke-width="3"/>
<path d="M853 549C866.656 549 902.116 549 924.733 549C935.779 549 944.727 557.954 944.727 569V905C944.727 916.046 953.681 925 964.727 925H977" stroke="#6347F5" stroke-width="3"/>
<path d="M852 362C866.518 362 914.997 362 942.757 362C953.803 362 962.727 370.954 962.727 382V891.227C962.727 894.968 965.759 898 969.5 898V898" stroke="#6347F5" stroke-width="3"/>
<path d="M1247 727C1303 727 1303 570 1359 570" stroke="#FF6922" stroke-width="3" stroke-miterlimit="10"/>
<path d="M1247 353C1303 353 1303 510 1359 510" stroke="#FF6922" stroke-width="3" stroke-miterlimit="10"/>
<path d="M647 353C570 353 570 510 493 510" stroke="#6347F5" stroke-width="3" stroke-miterlimit="10"/>
<rect x="1721.5" y="486.5" width="123" height="107" stroke="#6347F5" stroke-width="3"/>
<path d="M1761.21 549.6C1766.16 549.6 1769.46 546.3 1769.46 541.05V528H1766.76V541.05C1766.76 544.8 1764.51 547.05 1761.21 547.05C1757.91 547.05 1755.66 544.8 1755.66 541.05V528H1752.96V541.05C1752.96 546.3 1756.26 549.6 1761.21 549.6ZM1779.67 549.3C1783.72 549.3 1785.82 547.2 1785.82 544.8C1785.82 539.1 1775.92 541.05 1775.92 537.9C1775.92 537 1776.97 535.95 1779.22 535.95C1782.37 535.95 1783.12 538.2 1783.12 538.2H1785.67C1785.67 538.2 1784.8 533.7 1779.22 533.7C1775.47 533.7 1773.52 535.65 1773.52 537.9C1773.52 543.6 1783.42 541.65 1783.42 544.8C1783.42 546 1782.37 547.05 1779.67 547.05C1776.22 547.05 1775.32 544.35 1775.32 544.35H1772.77C1772.77 544.35 1773.82 549.3 1779.67 549.3ZM1795.86 549.3C1801.56 549.3 1803.21 544.35 1803.21 544.35H1800.81C1800.81 544.35 1799.46 547.05 1795.86 547.05C1793.13 547.05 1790.91 545.04 1790.61 542.25H1803.51V541.35C1803.51 537 1800.21 533.7 1795.86 533.7C1791.51 533.7 1788.21 537 1788.21 541.5C1788.21 546 1791.51 549.3 1795.86 549.3ZM1790.67 540.15C1791.06 537.9 1793.01 535.95 1795.86 535.95C1798.71 535.95 1800.66 537.9 1800.96 540.15H1790.67ZM1806.8 549H1809.2V540.9C1809.2 538.2 1811.15 536.25 1813.85 536.25H1815.65V533.85H1813.85C1810.4 533.85 1809.23 536.4 1809.23 536.4H1809.2V534H1806.8V549Z" fill="white"/>
<path d="M472.155 417H476.255L479.055 407H477.355L475.055 415.5H473.355L471.055 407H469.355L472.155 417ZM484.063 417.2C486.683 417.2 487.743 415.4 487.743 415.4H487.763V417H489.363V410.6C489.363 408.3 487.863 406.8 485.263 406.8C481.463 406.8 480.863 410 480.863 410H482.463C482.463 410 482.963 408.3 485.263 408.3C486.863 408.3 487.763 409.2 487.763 410.6V411H484.463C481.823 411 480.463 412.4 480.463 414.1C480.463 415.9 481.763 417.2 484.063 417.2ZM484.363 415.7C482.763 415.7 482.063 415 482.063 414.1C482.063 413.2 482.763 412.5 484.363 412.5H487.763C487.763 414.3 486.463 415.7 484.363 415.7ZM492.054 417H495.954V415.5H493.654V403H492.054V417ZM497.562 417H499.162V407H497.562V417ZM498.362 405.1C498.962 405.1 499.462 404.6 499.462 404C499.462 403.4 498.962 402.9 498.362 402.9C497.762 402.9 497.262 403.4 497.262 404C497.262 404.6 497.762 405.1 498.362 405.1ZM506.157 417.2C508.757 417.2 509.737 415.42 509.737 415.4H509.757V417H511.357V403H509.757V408.6H509.737C509.737 408.58 508.757 406.8 506.157 406.8C503.557 406.8 501.357 409 501.357 412C501.357 415 503.557 417.2 506.157 417.2ZM506.357 415.7C504.457 415.7 502.957 414.2 502.957 412C502.957 409.8 504.457 408.3 506.357 408.3C508.257 408.3 509.757 409.8 509.757 412C509.757 414.2 508.257 415.7 506.357 415.7ZM517.364 417.2C519.984 417.2 521.044 415.4 521.044 415.4H521.064V417H522.664V410.6C522.664 408.3 521.164 406.8 518.564 406.8C514.764 406.8 514.164 410 514.164 410H515.764C515.764 410 516.264 408.3 518.564 408.3C520.164 408.3 521.064 409.2 521.064 410.6V411H517.764C515.124 411 513.764 412.4 513.764 414.1C513.764 415.9 515.064 417.2 517.364 417.2ZM517.664 415.7C516.064 415.7 515.364 415 515.364 414.1C515.364 413.2 516.064 412.5 517.664 412.5H521.064C521.064 414.3 519.764 415.7 517.664 415.7ZM525.755 417H530.655V415.5H527.355V408.5H530.555V407H527.355V404.8H525.755V407H524.455V408.5H525.755V417ZM537.26 417.2C540.26 417.2 542.46 415 542.46 412C542.46 409 540.26 406.8 537.26 406.8C534.26 406.8 532.06 409 532.06 412C532.06 415 534.26 417.2 537.26 417.2ZM537.26 415.7C535.16 415.7 533.66 414.2 533.66 412C533.66 409.8 535.16 408.3 537.26 408.3C539.36 408.3 540.86 409.8 540.86 412C540.86 414.2 539.36 415.7 537.26 415.7ZM544.652 417H546.252V411.6C546.252 409.8 547.552 408.5 549.352 408.5H550.552V406.9H549.352C547.052 406.9 546.272 408.6 546.272 408.6H546.252V407H544.652V417ZM556.15 417.2C558.85 417.2 560.25 415.8 560.25 414.2C560.25 410.4 553.65 411.7 553.65 409.6C553.65 409 554.35 408.3 555.85 408.3C557.95 408.3 558.45 409.8 558.45 409.8H560.15C560.15 409.8 559.57 406.8 555.85 406.8C553.35 406.8 552.05 408.1 552.05 409.6C552.05 413.4 558.65 412.1 558.65 414.2C558.65 415 557.95 415.7 556.15 415.7C553.85 415.7 553.25 413.9 553.25 413.9H551.55C551.55 413.9 552.25 417.2 556.15 417.2Z" fill="white"/>
<path d="M471.304 386.45L483.004 381.5V379.25L471.304 384.2V386.45ZM471.304 382.55L483.004 377.6V374.9L471.304 369.95V372.35L480.454 376.1V376.4L471.304 380.15V382.55Z" fill="white"/>
<path d="M505.854 373L507.654 372.98V361.4L507.634 361.2H507.674L514.554 373H517.154V359H515.354V370.6L515.374 370.8H515.334L508.454 359H505.854V373Z" fill="white"/>
<path d="M511.953 393.4C515.053 393.4 517.153 391.3 517.153 388.9C517.153 386.5 515.053 384.4 512.053 384.4H511.753L511.773 384.38L511.953 384.24L516.353 380.7V379H507.253V380.7H513.853L513.833 380.72L509.153 384.5V386.1H512.053C514.153 386.1 515.353 387.3 515.353 388.9C515.353 390.5 514.153 391.7 511.953 391.7C508.953 391.7 508.453 389.2 508.453 389.2H506.553C506.553 389.2 507.253 393.4 511.953 393.4Z" fill="white"/>
<path d="M541.499 382.85H543.899V377.9H548.699V375.65H543.899V370.7H541.499V375.65H536.699V377.9H541.499V382.85ZM554.842 386H557.542V365H555.142L551.092 368.15V371.15L554.842 368.3V386Z" fill="white"/>
<path d="M501 376H522" stroke="white"/>
<path d="M495 361L495 391L499 391" stroke="white" stroke-width="2"/>
<path d="M528 361L528 391L524 391" stroke="white" stroke-width="2"/>
<path d="M1247 540L1369 540" stroke="#FF6922" stroke-width="3"/>
<path d="M853 719.5H905.5C916.546 719.5 925.5 710.546 925.5 699.5V269C925.5 257.954 934.454 249 945.5 249H1467C1478.05 249 1487 257.954 1487 269V472" stroke="#FF6922" stroke-width="3"/>
<path d="M853 533.5H884.5C895.546 533.5 904.5 524.546 904.5 513.5V247.5C904.5 236.454 913.454 227.5 924.5 227.5H1498C1509.05 227.5 1518 236.454 1518 247.5V470.5" stroke="#FF6922" stroke-width="3"/>
<path d="M853 344H864C875.046 344 884 335.046 884 324V226.5C884 215.454 892.954 206.5 904 206.5H1529C1540.05 206.5 1549 215.454 1549 226.5V469.5" stroke="#FF6922" stroke-width="3"/>
<path d="M646.5 727C574 727 565.5 570 493 570" stroke="#6347F5" stroke-width="3" stroke-miterlimit="10" stroke-dasharray="10 10"/>
</svg>
