<svg width="1607" height="1080" viewBox="0 0 1607 1080" fill="none" xmlns="http://www.w3.org/2000/svg">
<g clip-path="url(#clip0_10482_176494)">
<rect width="1607" height="1080" fill="white"/>
<rect width="1607" height="1080" fill="#0D1033"/>
<path d="M621 182V284C621 295.046 629.954 304 641 304H811" stroke="#6347F5" stroke-width="3"/>
<path d="M1258 182V284C1258 295.046 1249.05 304 1238 304H1069" stroke="#6347F5" stroke-width="3"/>
<path d="M875 341L875 362C875 373.046 866.046 382 855 382L641 382C629.954 382 621 390.954 621 402L621 418" stroke="#6347F5" stroke-width="3"/>
<path d="M1004 341L1004 362C1004 373.046 1012.95 382 1024 382L1238 382C1249.05 382 1258 390.954 1258 402L1258 418" stroke="#6347F5" stroke-width="3"/>
<path d="M630 407L621 422L612 407L630 407Z" fill="#6347F5"/>
<path d="M1249 407L1258 422L1267 407L1249 407Z" fill="#6347F5"/>
<path d="M548 500L548 521C548 532.046 539.046 541 528 541L368 541C356.954 541 348 549.954 348 561L348 577" stroke="#6347F5" stroke-width="3"/>
<path d="M677 500L677 521C677 532.046 685.954 541 697 541L874 541C885.046 541 894 549.954 894 561L894 577" stroke="#6347F5" stroke-width="3"/>
<path d="M357 566L348 581L339 566L357 566Z" fill="#6347F5"/>
<path d="M885 566L894 581L903 566L885 566Z" fill="#6347F5"/>
<path d="M460.123 153H472.863V150.79H462.463V144.94H470.913V142.73H462.463V137.01H472.863V134.8H460.123V153ZM474.172 153H476.512L479.762 147.28H480.932L484.182 153H486.522L482.622 146.37L486.392 140H484.052L480.932 145.33H479.762L476.642 140H474.302L478.072 146.37L474.172 153ZM489.125 153H495.495V151.05H491.205V141.95H495.365V140H491.205V137.14H489.125V140H487.435V141.95H489.125V153ZM503.951 153.26C508.891 153.26 510.321 148.97 510.321 148.97H508.241C508.241 148.97 507.071 151.31 503.951 151.31C501.585 151.31 499.661 149.568 499.401 147.15H510.581V146.37C510.581 142.6 507.721 139.74 503.951 139.74C500.181 139.74 497.321 142.6 497.321 146.5C497.321 150.4 500.181 153.26 503.951 153.26ZM499.453 145.33C499.791 143.38 501.481 141.69 503.951 141.69C506.421 141.69 508.111 143.38 508.371 145.33H499.453ZM513.437 153H515.517V145.98C515.517 143.64 517.207 141.95 519.547 141.95H521.107V139.87H519.547C516.557 139.87 515.543 142.08 515.543 142.08H515.517V140H513.437V153ZM523.314 153H525.394V145.98C525.394 143.38 527.084 141.69 529.424 141.69C531.504 141.69 532.934 142.86 532.934 145.46V153H535.014V145.33C535.014 141.82 532.934 139.74 529.814 139.74C526.694 139.74 525.42 141.95 525.42 141.95H525.394V140H523.314V153ZM542.683 153.26C546.089 153.26 547.467 150.92 547.467 150.92H547.493V153H549.573V144.68C549.573 141.69 547.623 139.74 544.243 139.74C539.303 139.74 538.523 143.9 538.523 143.9H540.603C540.603 143.9 541.253 141.69 544.243 141.69C546.323 141.69 547.493 142.86 547.493 144.68V145.2H543.203C539.771 145.2 538.003 147.02 538.003 149.23C538.003 151.57 539.693 153.26 542.683 153.26ZM543.073 151.31C540.993 151.31 540.083 150.4 540.083 149.23C540.083 148.06 540.993 147.15 543.073 147.15H547.493C547.493 149.49 545.803 151.31 543.073 151.31ZM553.072 153H558.142V151.05H555.152V134.8H553.072V153ZM567.779 153H570.119V134.8H567.779V153ZM574.019 153H576.099V145.98C576.099 143.38 577.789 141.69 580.129 141.69C582.209 141.69 583.639 142.86 583.639 145.46V153H585.719V145.33C585.719 141.82 583.639 139.74 580.519 139.74C577.399 139.74 576.125 141.95 576.125 141.95H576.099V140H574.019V153ZM595.988 153.26C599.368 153.26 602.228 150.4 602.228 146.5C602.228 142.6 599.368 139.74 595.988 139.74C592.608 139.74 591.334 142.054 591.334 142.08H591.308V134.8H589.228V153H591.308V150.92H591.334C591.334 150.946 592.608 153.26 595.988 153.26ZM595.728 151.31C593.258 151.31 591.308 149.36 591.308 146.5C591.308 143.64 593.258 141.69 595.728 141.69C598.198 141.69 600.148 143.64 600.148 146.5C600.148 149.36 598.198 151.31 595.728 151.31ZM611.077 153.26C614.977 153.26 617.837 150.4 617.837 146.5C617.837 142.6 614.977 139.74 611.077 139.74C607.177 139.74 604.317 142.6 604.317 146.5C604.317 150.4 607.177 153.26 611.077 153.26ZM611.077 151.31C608.347 151.31 606.397 149.36 606.397 146.5C606.397 143.64 608.347 141.69 611.077 141.69C613.807 141.69 615.757 143.64 615.757 146.5C615.757 149.36 613.807 151.31 611.077 151.31ZM625.887 153.26C629.007 153.26 630.281 151.05 630.281 151.05H630.307V153H632.387V140H630.307V147.02C630.307 149.62 628.617 151.31 626.277 151.31C624.197 151.31 622.767 150.14 622.767 147.54V140H620.687V147.67C620.687 151.18 622.767 153.26 625.887 153.26ZM636.023 153H638.103V145.98C638.103 143.38 639.793 141.69 642.133 141.69C644.213 141.69 645.643 142.86 645.643 145.46V153H647.723V145.33C647.723 141.82 645.643 139.74 642.523 139.74C639.403 139.74 638.129 141.95 638.129 141.95H638.103V140H636.023V153ZM656.692 153.26C660.072 153.26 661.346 150.946 661.346 150.92H661.372V153H663.452V134.8H661.372V142.08H661.346C661.346 142.054 660.072 139.74 656.692 139.74C653.312 139.74 650.452 142.6 650.452 146.5C650.452 150.4 653.312 153.26 656.692 153.26ZM656.952 151.31C654.482 151.31 652.532 149.36 652.532 146.5C652.532 143.64 654.482 141.69 656.952 141.69C659.422 141.69 661.372 143.64 661.372 146.5C661.372 149.36 659.422 151.31 656.952 151.31ZM674.648 153H676.988V137.4L676.962 137.14H677.014L682.318 148.58H686.608L691.912 137.14H691.964L691.938 137.4V153H694.278V134.8H690.508L685.048 146.5H683.878L678.418 134.8H674.648V153ZM704.029 153.26C708.969 153.26 710.399 148.97 710.399 148.97H708.319C708.319 148.97 707.149 151.31 704.029 151.31C701.663 151.31 699.739 149.568 699.479 147.15H710.659V146.37C710.659 142.6 707.799 139.74 704.029 139.74C700.259 139.74 697.399 142.6 697.399 146.5C697.399 150.4 700.259 153.26 704.029 153.26ZM699.531 145.33C699.869 143.38 701.559 141.69 704.029 141.69C706.499 141.69 708.189 143.38 708.449 145.33H699.531ZM718.585 153.26C722.095 153.26 723.915 151.44 723.915 149.36C723.915 144.42 715.335 146.11 715.335 143.38C715.335 142.6 716.245 141.69 718.195 141.69C720.925 141.69 721.575 143.64 721.575 143.64H723.785C723.785 143.64 723.031 139.74 718.195 139.74C714.945 139.74 713.255 141.43 713.255 143.38C713.255 148.32 721.835 146.63 721.835 149.36C721.835 150.4 720.925 151.31 718.585 151.31C715.595 151.31 714.815 148.97 714.815 148.97H712.605C712.605 148.97 713.515 153.26 718.585 153.26ZM731.839 153.26C735.349 153.26 737.169 151.44 737.169 149.36C737.169 144.42 728.589 146.11 728.589 143.38C728.589 142.6 729.499 141.69 731.449 141.69C734.179 141.69 734.829 143.64 734.829 143.64H737.039C737.039 143.64 736.285 139.74 731.449 139.74C728.199 139.74 726.509 141.43 726.509 143.38C726.509 148.32 735.089 146.63 735.089 149.36C735.089 150.4 734.179 151.31 731.839 151.31C728.849 151.31 728.069 148.97 728.069 148.97H725.859C725.859 148.97 726.769 153.26 731.839 153.26ZM744.183 153.26C747.589 153.26 748.967 150.92 748.967 150.92H748.993V153H751.073V144.68C751.073 141.69 749.123 139.74 745.743 139.74C740.803 139.74 740.023 143.9 740.023 143.9H742.103C742.103 143.9 742.753 141.69 745.743 141.69C747.823 141.69 748.993 142.86 748.993 144.68V145.2H744.703C741.271 145.2 739.503 147.02 739.503 149.23C739.503 151.57 741.193 153.26 744.183 153.26ZM744.573 151.31C742.493 151.31 741.583 150.4 741.583 149.23C741.583 148.06 742.493 147.15 744.573 147.15H748.993C748.993 149.49 747.303 151.31 744.573 151.31ZM755.612 157.94H766.792V140H764.712V142.08H764.686C764.686 142.054 763.412 139.74 760.032 139.74C756.652 139.74 753.792 142.6 753.792 146.5C753.792 150.4 756.652 153.26 760.032 153.26C763.412 153.26 764.686 150.946 764.686 150.92H764.712V155.99H755.612V157.94ZM760.292 151.31C757.822 151.31 755.872 149.36 755.872 146.5C755.872 143.64 757.822 141.69 760.292 141.69C762.762 141.69 764.712 143.64 764.712 146.5C764.712 149.36 762.762 151.31 760.292 151.31ZM776.291 153.26C781.231 153.26 782.661 148.97 782.661 148.97H780.581C780.581 148.97 779.411 151.31 776.291 151.31C773.925 151.31 772.001 149.568 771.741 147.15H782.921V146.37C782.921 142.6 780.061 139.74 776.291 139.74C772.521 139.74 769.661 142.6 769.661 146.5C769.661 150.4 772.521 153.26 776.291 153.26ZM771.793 145.33C772.131 143.38 773.821 141.69 776.291 141.69C778.761 141.69 780.451 143.38 780.711 145.33H771.793Z" fill="white"/>
<rect x="383.5" y="105.5" width="475" height="75" stroke="#6347F5" stroke-width="3"/>
<path d="M348 583V918C348 929.046 356.954 938 368 938H874C885.046 938 894 929.046 894 918V823.583" stroke="#6347F5" stroke-width="3" stroke-dasharray="10 10"/>
<path d="M510.306 471.52C515.766 471.52 519.796 467.49 519.796 461.9C519.796 456.31 515.766 452.28 510.306 452.28C504.846 452.28 500.816 456.31 500.816 461.9C500.816 467.49 504.846 471.52 510.306 471.52ZM510.306 469.31C506.146 469.31 503.156 466.32 503.156 461.9C503.156 457.48 506.146 454.49 510.306 454.49C514.466 454.49 517.456 457.48 517.456 461.9C517.456 466.32 514.466 469.31 510.306 469.31ZM527.994 471.26C531.114 471.26 532.388 469.05 532.388 469.05H532.414V471H534.494V458H532.414V465.02C532.414 467.62 530.724 469.31 528.384 469.31C526.304 469.31 524.874 468.14 524.874 465.54V458H522.794V465.67C522.794 469.18 524.874 471.26 527.994 471.26ZM538.65 471H545.02V469.05H540.73V459.95H544.89V458H540.73V455.14H538.65V458H536.96V459.95H538.65V471ZM554.386 471.26C557.766 471.26 560.626 468.4 560.626 464.5C560.626 460.6 557.766 457.74 554.386 457.74C551.006 457.74 549.732 460.054 549.732 460.08H549.706V452.8H547.626V471H549.706V468.92H549.732C549.732 468.946 551.006 471.26 554.386 471.26ZM554.126 469.31C551.656 469.31 549.706 467.36 549.706 464.5C549.706 461.64 551.656 459.69 554.126 459.69C556.596 459.69 558.546 461.64 558.546 464.5C558.546 467.36 556.596 469.31 554.126 469.31ZM569.475 471.26C573.375 471.26 576.235 468.4 576.235 464.5C576.235 460.6 573.375 457.74 569.475 457.74C565.575 457.74 562.715 460.6 562.715 464.5C562.715 468.4 565.575 471.26 569.475 471.26ZM569.475 469.31C566.745 469.31 564.795 467.36 564.795 464.5C564.795 461.64 566.745 459.69 569.475 459.69C572.205 459.69 574.155 461.64 574.155 464.5C574.155 467.36 572.205 469.31 569.475 469.31ZM584.285 471.26C587.405 471.26 588.679 469.05 588.679 469.05H588.705V471H590.785V458H588.705V465.02C588.705 467.62 587.015 469.31 584.675 469.31C582.595 469.31 581.165 468.14 581.165 465.54V458H579.085V465.67C579.085 469.18 581.165 471.26 584.285 471.26ZM594.421 471H596.501V463.98C596.501 461.38 598.191 459.69 600.531 459.69C602.611 459.69 604.041 460.86 604.041 463.46V471H606.121V463.33C606.121 459.82 604.041 457.74 600.921 457.74C597.801 457.74 596.527 459.95 596.527 459.95H596.501V458H594.421V471ZM615.09 471.26C618.47 471.26 619.744 468.946 619.744 468.92H619.77V471H621.85V452.8H619.77V460.08H619.744C619.744 460.054 618.47 457.74 615.09 457.74C611.71 457.74 608.85 460.6 608.85 464.5C608.85 468.4 611.71 471.26 615.09 471.26ZM615.35 469.31C612.88 469.31 610.93 467.36 610.93 464.5C610.93 461.64 612.88 459.69 615.35 459.69C617.82 459.69 619.77 461.64 619.77 464.5C619.77 467.36 617.82 469.31 615.35 469.31ZM633.046 471H635.386V455.4L635.36 455.14H635.412L640.716 466.58H645.006L650.31 455.14H650.362L650.336 455.4V471H652.676V452.8H648.906L643.446 464.5H642.276L636.816 452.8H633.046V471ZM662.427 471.26C667.367 471.26 668.797 466.97 668.797 466.97H666.717C666.717 466.97 665.547 469.31 662.427 469.31C660.061 469.31 658.137 467.568 657.877 465.15H669.057V464.37C669.057 460.6 666.197 457.74 662.427 457.74C658.657 457.74 655.797 460.6 655.797 464.5C655.797 468.4 658.657 471.26 662.427 471.26ZM657.929 463.33C658.267 461.38 659.957 459.69 662.427 459.69C664.897 459.69 666.587 461.38 666.847 463.33H657.929ZM676.983 471.26C680.493 471.26 682.313 469.44 682.313 467.36C682.313 462.42 673.733 464.11 673.733 461.38C673.733 460.6 674.643 459.69 676.593 459.69C679.323 459.69 679.973 461.64 679.973 461.64H682.183C682.183 461.64 681.429 457.74 676.593 457.74C673.343 457.74 671.653 459.43 671.653 461.38C671.653 466.32 680.233 464.63 680.233 467.36C680.233 468.4 679.323 469.31 676.983 469.31C673.993 469.31 673.213 466.97 673.213 466.97H671.003C671.003 466.97 671.913 471.26 676.983 471.26ZM690.237 471.26C693.747 471.26 695.567 469.44 695.567 467.36C695.567 462.42 686.987 464.11 686.987 461.38C686.987 460.6 687.897 459.69 689.847 459.69C692.577 459.69 693.227 461.64 693.227 461.64H695.437C695.437 461.64 694.683 457.74 689.847 457.74C686.597 457.74 684.907 459.43 684.907 461.38C684.907 466.32 693.487 464.63 693.487 467.36C693.487 468.4 692.577 469.31 690.237 469.31C687.247 469.31 686.467 466.97 686.467 466.97H684.257C684.257 466.97 685.167 471.26 690.237 471.26ZM702.581 471.26C705.987 471.26 707.365 468.92 707.365 468.92H707.391V471H709.471V462.68C709.471 459.69 707.521 457.74 704.141 457.74C699.201 457.74 698.421 461.9 698.421 461.9H700.501C700.501 461.9 701.151 459.69 704.141 459.69C706.221 459.69 707.391 460.86 707.391 462.68V463.2H703.101C699.669 463.2 697.901 465.02 697.901 467.23C697.901 469.57 699.591 471.26 702.581 471.26ZM702.971 469.31C700.891 469.31 699.981 468.4 699.981 467.23C699.981 466.06 700.891 465.15 702.971 465.15H707.391C707.391 467.49 705.701 469.31 702.971 469.31ZM714.009 475.94H725.189V458H723.109V460.08H723.083C723.083 460.054 721.809 457.74 718.429 457.74C715.049 457.74 712.189 460.6 712.189 464.5C712.189 468.4 715.049 471.26 718.429 471.26C721.809 471.26 723.083 468.946 723.083 468.92H723.109V473.99H714.009V475.94ZM718.689 469.31C716.219 469.31 714.269 467.36 714.269 464.5C714.269 461.64 716.219 459.69 718.689 459.69C721.159 459.69 723.109 461.64 723.109 464.5C723.109 467.36 721.159 469.31 718.689 469.31ZM734.689 471.26C739.629 471.26 741.059 466.97 741.059 466.97H738.979C738.979 466.97 737.809 469.31 734.689 469.31C732.323 469.31 730.399 467.568 730.139 465.15H741.319V464.37C741.319 460.6 738.459 457.74 734.689 457.74C730.919 457.74 728.059 460.6 728.059 464.5C728.059 468.4 730.919 471.26 734.689 471.26ZM730.191 463.33C730.529 461.38 732.219 459.69 734.689 459.69C737.159 459.69 738.849 461.38 739.109 463.33H730.191Z" fill="white"/>
<rect x="383.5" y="423.5" width="475" height="75" stroke="#6347F5" stroke-width="3"/>
<path d="M1082.65 471.52C1086.94 471.52 1089.8 468.66 1089.8 464.11V452.8H1087.46V464.11C1087.46 467.36 1085.51 469.31 1082.65 469.31C1079.79 469.31 1077.84 467.36 1077.84 464.11V452.8H1075.5V464.11C1075.5 468.66 1078.36 471.52 1082.65 471.52ZM1093.57 475.94H1095.65V468.92H1095.68C1095.68 468.946 1096.95 471.26 1100.33 471.26C1103.71 471.26 1106.57 468.4 1106.57 464.5C1106.57 460.6 1103.71 457.74 1100.33 457.74C1096.95 457.74 1095.68 460.054 1095.68 460.08H1095.65V458H1093.57V475.94ZM1100.07 469.31C1097.6 469.31 1095.65 467.36 1095.65 464.5C1095.65 461.64 1097.6 459.69 1100.07 459.69C1102.54 459.69 1104.49 461.64 1104.49 464.5C1104.49 467.36 1102.54 469.31 1100.07 469.31ZM1114.9 471.26C1118.28 471.26 1119.56 468.946 1119.56 468.92H1119.58V471H1121.66V452.8H1119.58V460.08H1119.56C1119.56 460.054 1118.28 457.74 1114.9 457.74C1111.52 457.74 1108.66 460.6 1108.66 464.5C1108.66 468.4 1111.52 471.26 1114.9 471.26ZM1115.16 469.31C1112.69 469.31 1110.74 467.36 1110.74 464.5C1110.74 461.64 1112.69 459.69 1115.16 459.69C1117.63 459.69 1119.58 461.64 1119.58 464.5C1119.58 467.36 1117.63 469.31 1115.16 469.31ZM1129.47 471.26C1132.88 471.26 1134.25 468.92 1134.25 468.92H1134.28V471H1136.36V462.68C1136.36 459.69 1134.41 457.74 1131.03 457.74C1126.09 457.74 1125.31 461.9 1125.31 461.9H1127.39C1127.39 461.9 1128.04 459.69 1131.03 459.69C1133.11 459.69 1134.28 460.86 1134.28 462.68V463.2H1129.99C1126.56 463.2 1124.79 465.02 1124.79 467.23C1124.79 469.57 1126.48 471.26 1129.47 471.26ZM1129.86 469.31C1127.78 469.31 1126.87 468.4 1126.87 467.23C1126.87 466.06 1127.78 465.15 1129.86 465.15H1134.28C1134.28 467.49 1132.59 469.31 1129.86 469.31ZM1140.38 471H1146.75V469.05H1142.46V459.95H1146.62V458H1142.46V455.14H1140.38V458H1138.69V459.95H1140.38V471ZM1155.21 471.26C1160.15 471.26 1161.58 466.97 1161.58 466.97H1159.5C1159.5 466.97 1158.33 469.31 1155.21 469.31C1152.84 469.31 1150.92 467.568 1150.66 465.15H1161.84V464.37C1161.84 460.6 1158.98 457.74 1155.21 457.74C1151.44 457.74 1148.58 460.6 1148.58 464.5C1148.58 468.4 1151.44 471.26 1155.21 471.26ZM1150.71 463.33C1151.05 461.38 1152.74 459.69 1155.21 459.69C1157.68 459.69 1159.37 461.38 1159.63 463.33H1150.71ZM1170.15 471.26C1173.53 471.26 1174.81 468.946 1174.81 468.92H1174.83V471H1176.91V452.8H1174.83V460.08H1174.81C1174.81 460.054 1173.53 457.74 1170.15 457.74C1166.77 457.74 1163.91 460.6 1163.91 464.5C1163.91 468.4 1166.77 471.26 1170.15 471.26ZM1170.41 469.31C1167.94 469.31 1165.99 467.36 1165.99 464.5C1165.99 461.64 1167.94 459.69 1170.41 459.69C1172.88 459.69 1174.83 461.64 1174.83 464.5C1174.83 467.36 1172.88 469.31 1170.41 469.31ZM1185.76 471H1188.1L1189.53 465.67H1198.5L1199.93 471H1202.27L1197.59 452.8H1190.44L1185.76 471ZM1190.05 463.46L1192.26 455.01H1195.77L1197.98 463.46H1190.05ZM1204.61 471H1209.68V469.05H1206.69V452.8H1204.61V471ZM1211.77 471H1213.85V458H1211.77V471ZM1212.81 455.53C1213.59 455.53 1214.24 454.88 1214.24 454.1C1214.24 453.32 1213.59 452.67 1212.81 452.67C1212.03 452.67 1211.38 453.32 1211.38 454.1C1211.38 454.88 1212.03 455.53 1212.81 455.53ZM1223.2 471.26C1228.53 471.26 1229.57 466.45 1229.57 466.45H1227.49C1227.49 466.45 1226.58 469.31 1223.2 469.31C1220.83 469.31 1218.78 467.386 1218.78 464.5C1218.78 461.64 1220.73 459.69 1223.2 459.69C1226.45 459.69 1227.36 462.29 1227.36 462.29H1229.44C1229.44 462.29 1228.4 457.74 1223.2 457.74C1219.56 457.74 1216.7 460.6 1216.7 464.5C1216.7 468.4 1219.56 471.26 1223.2 471.26ZM1238.03 471.26C1242.97 471.26 1244.4 466.97 1244.4 466.97H1242.32C1242.32 466.97 1241.15 469.31 1238.03 469.31C1235.66 469.31 1233.74 467.568 1233.48 465.15H1244.66V464.37C1244.66 460.6 1241.8 457.74 1238.03 457.74C1234.26 457.74 1231.4 460.6 1231.4 464.5C1231.4 468.4 1234.26 471.26 1238.03 471.26ZM1233.53 463.33C1233.87 461.38 1235.56 459.69 1238.03 459.69C1240.5 459.69 1242.19 461.38 1242.45 463.33H1233.53ZM1245.95 458.52C1247.77 458.39 1248.94 457.22 1248.94 454.88C1248.94 453.19 1248.29 452.54 1247.38 452.54C1246.47 452.54 1245.82 453.19 1245.82 454.178C1245.82 455.01 1246.34 455.53 1246.99 455.53C1247.25 455.53 1247.51 455.4 1247.51 455.4V455.79C1247.51 456.83 1246.99 457.35 1245.95 457.48V458.52ZM1256.22 471.26C1259.73 471.26 1261.55 469.44 1261.55 467.36C1261.55 462.42 1252.97 464.11 1252.97 461.38C1252.97 460.6 1253.88 459.69 1255.83 459.69C1258.56 459.69 1259.21 461.64 1259.21 461.64H1261.42C1261.42 461.64 1260.66 457.74 1255.83 457.74C1252.58 457.74 1250.89 459.43 1250.89 461.38C1250.89 466.32 1259.47 464.63 1259.47 467.36C1259.47 468.4 1258.56 469.31 1256.22 469.31C1253.23 469.31 1252.45 466.97 1252.45 466.97H1250.24C1250.24 466.97 1251.15 471.26 1256.22 471.26ZM1269.6 471H1271.94L1273.37 465.67H1282.34L1283.77 471H1286.11L1281.43 452.8H1274.28L1269.6 471ZM1273.89 463.46L1276.1 455.01H1279.61L1281.82 463.46H1273.89ZM1294.17 471.26C1299.5 471.26 1300.54 466.45 1300.54 466.45H1298.46C1298.46 466.45 1297.55 469.31 1294.17 469.31C1291.8 469.31 1289.75 467.386 1289.75 464.5C1289.75 461.64 1291.7 459.69 1294.17 459.69C1297.42 459.69 1298.33 462.29 1298.33 462.29H1300.41C1300.41 462.29 1299.37 457.74 1294.17 457.74C1290.53 457.74 1287.67 460.6 1287.67 464.5C1287.67 468.4 1290.53 471.26 1294.17 471.26ZM1308.87 471.26C1314.2 471.26 1315.24 466.45 1315.24 466.45H1313.16C1313.16 466.45 1312.25 469.31 1308.87 469.31C1306.5 469.31 1304.45 467.386 1304.45 464.5C1304.45 461.64 1306.4 459.69 1308.87 459.69C1312.12 459.69 1313.03 462.29 1313.03 462.29H1315.11C1315.11 462.29 1314.07 457.74 1308.87 457.74C1305.23 457.74 1302.37 460.6 1302.37 464.5C1302.37 468.4 1305.23 471.26 1308.87 471.26ZM1323.83 471.26C1327.73 471.26 1330.59 468.4 1330.59 464.5C1330.59 460.6 1327.73 457.74 1323.83 457.74C1319.93 457.74 1317.07 460.6 1317.07 464.5C1317.07 468.4 1319.93 471.26 1323.83 471.26ZM1323.83 469.31C1321.1 469.31 1319.15 467.36 1319.15 464.5C1319.15 461.64 1321.1 459.69 1323.83 459.69C1326.56 459.69 1328.51 461.64 1328.51 464.5C1328.51 467.36 1326.56 469.31 1323.83 469.31ZM1338.64 471.26C1341.76 471.26 1343.03 469.05 1343.03 469.05H1343.06V471H1345.14V458H1343.06V465.02C1343.06 467.62 1341.37 469.31 1339.03 469.31C1336.95 469.31 1335.52 468.14 1335.52 465.54V458H1333.44V465.67C1333.44 469.18 1335.52 471.26 1338.64 471.26ZM1348.77 471H1350.85V463.98C1350.85 461.38 1352.54 459.69 1354.88 459.69C1356.96 459.69 1358.39 460.86 1358.39 463.46V471H1360.47V463.33C1360.47 459.82 1358.39 457.74 1355.27 457.74C1352.15 457.74 1350.88 459.95 1350.88 459.95H1350.85V458H1348.77V471ZM1364.5 471H1370.87V469.05H1366.58V459.95H1370.74V458H1366.58V455.14H1364.5V458H1362.81V459.95H1364.5V471ZM1387.53 471.52C1391.95 471.52 1394.42 469.05 1394.42 466.19C1394.42 459.69 1383.11 461.77 1383.11 457.48C1383.11 455.92 1384.54 454.49 1387.27 454.49C1391.3 454.49 1391.95 457.35 1391.95 457.35H1394.29C1394.29 457.35 1393.43 452.28 1387.27 452.28C1383.24 452.28 1380.77 454.75 1380.77 457.48C1380.77 463.98 1392.08 461.77 1392.08 466.19C1392.08 467.88 1390.65 469.31 1387.53 469.31C1383.11 469.31 1382.33 465.8 1382.33 465.8H1379.99C1379.99 465.8 1380.9 471.52 1387.53 471.52ZM1397.92 471H1404.29V469.05H1400V459.95H1404.16V458H1400V455.14H1397.92V458H1396.23V459.95H1397.92V471ZM1411.05 471.26C1414.46 471.26 1415.84 468.92 1415.84 468.92H1415.86V471H1417.94V462.68C1417.94 459.69 1415.99 457.74 1412.61 457.74C1407.67 457.74 1406.89 461.9 1406.89 461.9H1408.97C1408.97 461.9 1409.62 459.69 1412.61 459.69C1414.69 459.69 1415.86 460.86 1415.86 462.68V463.2H1411.57C1408.14 463.2 1406.37 465.02 1406.37 467.23C1406.37 469.57 1408.06 471.26 1411.05 471.26ZM1411.44 469.31C1409.36 469.31 1408.45 468.4 1408.45 467.23C1408.45 466.06 1409.36 465.15 1411.44 465.15H1415.86C1415.86 467.49 1414.17 469.31 1411.44 469.31ZM1421.96 471H1428.33V469.05H1424.04V459.95H1428.2V458H1424.04V455.14H1421.96V458H1420.27V459.95H1421.96V471ZM1436.79 471.26C1441.73 471.26 1443.16 466.97 1443.16 466.97H1441.08C1441.08 466.97 1439.91 469.31 1436.79 469.31C1434.42 469.31 1432.5 467.568 1432.24 465.15H1443.42V464.37C1443.42 460.6 1440.56 457.74 1436.79 457.74C1433.02 457.74 1430.16 460.6 1430.16 464.5C1430.16 468.4 1433.02 471.26 1436.79 471.26ZM1432.29 463.33C1432.63 461.38 1434.32 459.69 1436.79 459.69C1439.26 459.69 1440.95 461.38 1441.21 463.33H1432.29Z" fill="white"/>
<rect x="1021.5" y="423.5" width="475" height="75" stroke="#6347F5" stroke-width="3"/>
<rect x="110.5" y="582.5" width="475" height="75" fill="#0D1033" stroke="#6347F5" stroke-width="3"/>
<path d="M178.414 630H180.754V611.8H178.414V630ZM184.654 630H186.734V622.98C186.734 620.38 188.424 618.69 190.764 618.69C192.844 618.69 194.274 619.86 194.274 622.46V630H196.354V622.33C196.354 618.82 194.274 616.74 191.154 616.74C188.034 616.74 186.76 618.95 186.76 618.95H186.734V617H184.654V630ZM200.383 630H206.753V628.05H202.463V618.95H206.623V617H202.463V614.14H200.383V617H198.693V618.95H200.383V630ZM215.209 630.26C220.149 630.26 221.579 625.97 221.579 625.97H219.499C219.499 625.97 218.329 628.31 215.209 628.31C212.843 628.31 210.919 626.568 210.659 624.15H221.839V623.37C221.839 619.6 218.979 616.74 215.209 616.74C211.439 616.74 208.579 619.6 208.579 623.5C208.579 627.4 211.439 630.26 215.209 630.26ZM210.711 622.33C211.049 620.38 212.739 618.69 215.209 618.69C217.679 618.69 219.369 620.38 219.629 622.33H210.711ZM224.695 630H226.775V622.98C226.775 620.64 228.465 618.95 230.805 618.95H232.365V616.87H230.805C227.815 616.87 226.801 619.08 226.801 619.08H226.775V617H224.695V630ZM234.572 630H236.652V622.98C236.652 620.38 238.342 618.69 240.682 618.69C242.762 618.69 244.192 619.86 244.192 622.46V630H246.272V622.33C246.272 618.82 244.192 616.74 241.072 616.74C237.952 616.74 236.678 618.95 236.678 618.95H236.652V617H234.572V630ZM253.941 630.26C257.347 630.26 258.725 627.92 258.725 627.92H258.751V630H260.831V621.68C260.831 618.69 258.881 616.74 255.501 616.74C250.561 616.74 249.781 620.9 249.781 620.9H251.861C251.861 620.9 252.511 618.69 255.501 618.69C257.581 618.69 258.751 619.86 258.751 621.68V622.2H254.461C251.029 622.2 249.261 624.02 249.261 626.23C249.261 628.57 250.951 630.26 253.941 630.26ZM254.331 628.31C252.251 628.31 251.341 627.4 251.341 626.23C251.341 625.06 252.251 624.15 254.331 624.15H258.751C258.751 626.49 257.061 628.31 254.331 628.31ZM264.33 630H269.4V628.05H266.41V611.8H264.33V630ZM287.617 630.52C293.077 630.52 297.107 626.49 297.107 620.9C297.107 615.31 293.077 611.28 287.617 611.28C282.157 611.28 278.127 615.31 278.127 620.9C278.127 626.49 282.157 630.52 287.617 630.52ZM287.617 628.31C283.457 628.31 280.467 625.32 280.467 620.9C280.467 616.48 283.457 613.49 287.617 613.49C291.777 613.49 294.767 616.48 294.767 620.9C294.767 625.32 291.777 628.31 287.617 628.31ZM305.305 630.26C308.425 630.26 309.699 628.05 309.699 628.05H309.725V630H311.805V617H309.725V624.02C309.725 626.62 308.035 628.31 305.695 628.31C303.615 628.31 302.185 627.14 302.185 624.54V617H300.105V624.67C300.105 628.18 302.185 630.26 305.305 630.26ZM315.961 630H322.331V628.05H318.041V618.95H322.201V617H318.041V614.14H315.961V617H314.271V618.95H315.961V630ZM331.697 630.26C335.077 630.26 337.937 627.4 337.937 623.5C337.937 619.6 335.077 616.74 331.697 616.74C328.317 616.74 327.043 619.054 327.043 619.08H327.017V611.8H324.937V630H327.017V627.92H327.043C327.043 627.946 328.317 630.26 331.697 630.26ZM331.437 628.31C328.967 628.31 327.017 626.36 327.017 623.5C327.017 620.64 328.967 618.69 331.437 618.69C333.907 618.69 335.857 620.64 335.857 623.5C335.857 626.36 333.907 628.31 331.437 628.31ZM346.786 630.26C350.686 630.26 353.546 627.4 353.546 623.5C353.546 619.6 350.686 616.74 346.786 616.74C342.886 616.74 340.026 619.6 340.026 623.5C340.026 627.4 342.886 630.26 346.786 630.26ZM346.786 628.31C344.056 628.31 342.106 626.36 342.106 623.5C342.106 620.64 344.056 618.69 346.786 618.69C349.516 618.69 351.466 620.64 351.466 623.5C351.466 626.36 349.516 628.31 346.786 628.31ZM361.596 630.26C364.716 630.26 365.99 628.05 365.99 628.05H366.016V630H368.096V617H366.016V624.02C366.016 626.62 364.326 628.31 361.986 628.31C359.906 628.31 358.476 627.14 358.476 624.54V617H356.396V624.67C356.396 628.18 358.476 630.26 361.596 630.26ZM371.732 630H373.812V622.98C373.812 620.38 375.502 618.69 377.842 618.69C379.922 618.69 381.352 619.86 381.352 622.46V630H383.432V622.33C383.432 618.82 381.352 616.74 378.232 616.74C375.112 616.74 373.838 618.95 373.838 618.95H373.812V617H371.732V630ZM392.401 630.26C395.781 630.26 397.055 627.946 397.055 627.92H397.081V630H399.161V611.8H397.081V619.08H397.055C397.055 619.054 395.781 616.74 392.401 616.74C389.021 616.74 386.161 619.6 386.161 623.5C386.161 627.4 389.021 630.26 392.401 630.26ZM392.661 628.31C390.191 628.31 388.241 626.36 388.241 623.5C388.241 620.64 390.191 618.69 392.661 618.69C395.131 618.69 397.081 620.64 397.081 623.5C397.081 626.36 395.131 628.31 392.661 628.31ZM410.357 630H412.697V614.4L412.671 614.14H412.723L418.027 625.58H422.317L427.621 614.14H427.673L427.647 614.4V630H429.987V611.8H426.217L420.757 623.5H419.587L414.127 611.8H410.357V630ZM439.738 630.26C444.678 630.26 446.108 625.97 446.108 625.97H444.028C444.028 625.97 442.858 628.31 439.738 628.31C437.372 628.31 435.448 626.568 435.188 624.15H446.368V623.37C446.368 619.6 443.508 616.74 439.738 616.74C435.968 616.74 433.108 619.6 433.108 623.5C433.108 627.4 435.968 630.26 439.738 630.26ZM435.24 622.33C435.578 620.38 437.268 618.69 439.738 618.69C442.208 618.69 443.898 620.38 444.158 622.33H435.24ZM454.294 630.26C457.804 630.26 459.624 628.44 459.624 626.36C459.624 621.42 451.044 623.11 451.044 620.38C451.044 619.6 451.954 618.69 453.904 618.69C456.634 618.69 457.284 620.64 457.284 620.64H459.494C459.494 620.64 458.74 616.74 453.904 616.74C450.654 616.74 448.964 618.43 448.964 620.38C448.964 625.32 457.544 623.63 457.544 626.36C457.544 627.4 456.634 628.31 454.294 628.31C451.304 628.31 450.524 625.97 450.524 625.97H448.314C448.314 625.97 449.224 630.26 454.294 630.26ZM467.548 630.26C471.058 630.26 472.878 628.44 472.878 626.36C472.878 621.42 464.298 623.11 464.298 620.38C464.298 619.6 465.208 618.69 467.158 618.69C469.888 618.69 470.538 620.64 470.538 620.64H472.748C472.748 620.64 471.994 616.74 467.158 616.74C463.908 616.74 462.218 618.43 462.218 620.38C462.218 625.32 470.798 623.63 470.798 626.36C470.798 627.4 469.888 628.31 467.548 628.31C464.558 628.31 463.778 625.97 463.778 625.97H461.568C461.568 625.97 462.478 630.26 467.548 630.26ZM479.892 630.26C483.298 630.26 484.676 627.92 484.676 627.92H484.702V630H486.782V621.68C486.782 618.69 484.832 616.74 481.452 616.74C476.512 616.74 475.732 620.9 475.732 620.9H477.812C477.812 620.9 478.462 618.69 481.452 618.69C483.532 618.69 484.702 619.86 484.702 621.68V622.2H480.412C476.98 622.2 475.212 624.02 475.212 626.23C475.212 628.57 476.902 630.26 479.892 630.26ZM480.282 628.31C478.202 628.31 477.292 627.4 477.292 626.23C477.292 625.06 478.202 624.15 480.282 624.15H484.702C484.702 626.49 483.012 628.31 480.282 628.31ZM491.321 634.94H502.501V617H500.421V619.08H500.395C500.395 619.054 499.121 616.74 495.741 616.74C492.361 616.74 489.501 619.6 489.501 623.5C489.501 627.4 492.361 630.26 495.741 630.26C499.121 630.26 500.395 627.946 500.395 627.92H500.421V632.99H491.321V634.94ZM496.001 628.31C493.531 628.31 491.581 626.36 491.581 623.5C491.581 620.64 493.531 618.69 496.001 618.69C498.471 618.69 500.421 620.64 500.421 623.5C500.421 626.36 498.471 628.31 496.001 628.31ZM512 630.26C516.94 630.26 518.37 625.97 518.37 625.97H516.29C516.29 625.97 515.12 628.31 512 628.31C509.634 628.31 507.71 626.568 507.45 624.15H518.63V623.37C518.63 619.6 515.77 616.74 512 616.74C508.23 616.74 505.37 619.6 505.37 623.5C505.37 627.4 508.23 630.26 512 630.26ZM507.502 622.33C507.84 620.38 509.53 618.69 512 618.69C514.47 618.69 516.16 620.38 516.42 622.33H507.502Z" fill="white"/>
<path d="M721.897 630H734.637V627.79H724.237V621.94H732.687V619.73H724.237V614.01H734.637V611.8H721.897V630ZM735.947 630H738.287L741.537 624.28H742.707L745.957 630H748.297L744.397 623.37L748.167 617H745.827L742.707 622.33H741.537L738.417 617H736.077L739.847 623.37L735.947 630ZM750.9 630H757.27V628.05H752.98V618.95H757.14V617H752.98V614.14H750.9V617H749.21V618.95H750.9V630ZM765.726 630.26C770.666 630.26 772.096 625.97 772.096 625.97H770.016C770.016 625.97 768.846 628.31 765.726 628.31C763.36 628.31 761.436 626.568 761.176 624.15H772.356V623.37C772.356 619.6 769.496 616.74 765.726 616.74C761.956 616.74 759.096 619.6 759.096 623.5C759.096 627.4 761.956 630.26 765.726 630.26ZM761.228 622.33C761.566 620.38 763.256 618.69 765.726 618.69C768.196 618.69 769.886 620.38 770.146 622.33H761.228ZM775.212 630H777.292V622.98C777.292 620.64 778.982 618.95 781.322 618.95H782.882V616.87H781.322C778.332 616.87 777.318 619.08 777.318 619.08H777.292V617H775.212V630ZM785.089 630H787.169V622.98C787.169 620.38 788.859 618.69 791.199 618.69C793.279 618.69 794.709 619.86 794.709 622.46V630H796.789V622.33C796.789 618.82 794.709 616.74 791.589 616.74C788.469 616.74 787.195 618.95 787.195 618.95H787.169V617H785.089V630ZM804.458 630.26C807.864 630.26 809.242 627.92 809.242 627.92H809.268V630H811.348V621.68C811.348 618.69 809.398 616.74 806.018 616.74C801.078 616.74 800.298 620.9 800.298 620.9H802.378C802.378 620.9 803.028 618.69 806.018 618.69C808.098 618.69 809.268 619.86 809.268 621.68V622.2H804.978C801.546 622.2 799.778 624.02 799.778 626.23C799.778 628.57 801.468 630.26 804.458 630.26ZM804.848 628.31C802.768 628.31 801.858 627.4 801.858 626.23C801.858 625.06 802.768 624.15 804.848 624.15H809.268C809.268 626.49 807.578 628.31 804.848 628.31ZM814.846 630H819.916V628.05H816.926V611.8H814.846V630ZM838.134 630.52C843.594 630.52 847.624 626.49 847.624 620.9C847.624 615.31 843.594 611.28 838.134 611.28C832.674 611.28 828.644 615.31 828.644 620.9C828.644 626.49 832.674 630.52 838.134 630.52ZM838.134 628.31C833.974 628.31 830.984 625.32 830.984 620.9C830.984 616.48 833.974 613.49 838.134 613.49C842.294 613.49 845.284 616.48 845.284 620.9C845.284 625.32 842.294 628.31 838.134 628.31ZM855.822 630.26C858.942 630.26 860.216 628.05 860.216 628.05H860.242V630H862.322V617H860.242V624.02C860.242 626.62 858.552 628.31 856.212 628.31C854.132 628.31 852.702 627.14 852.702 624.54V617H850.622V624.67C850.622 628.18 852.702 630.26 855.822 630.26ZM866.478 630H872.848V628.05H868.558V618.95H872.718V617H868.558V614.14H866.478V617H864.788V618.95H866.478V630ZM882.214 630.26C885.594 630.26 888.454 627.4 888.454 623.5C888.454 619.6 885.594 616.74 882.214 616.74C878.834 616.74 877.56 619.054 877.56 619.08H877.534V611.8H875.454V630H877.534V627.92H877.56C877.56 627.946 878.834 630.26 882.214 630.26ZM881.954 628.31C879.484 628.31 877.534 626.36 877.534 623.5C877.534 620.64 879.484 618.69 881.954 618.69C884.424 618.69 886.374 620.64 886.374 623.5C886.374 626.36 884.424 628.31 881.954 628.31ZM897.303 630.26C901.203 630.26 904.063 627.4 904.063 623.5C904.063 619.6 901.203 616.74 897.303 616.74C893.403 616.74 890.543 619.6 890.543 623.5C890.543 627.4 893.403 630.26 897.303 630.26ZM897.303 628.31C894.573 628.31 892.623 626.36 892.623 623.5C892.623 620.64 894.573 618.69 897.303 618.69C900.033 618.69 901.983 620.64 901.983 623.5C901.983 626.36 900.033 628.31 897.303 628.31ZM912.113 630.26C915.233 630.26 916.507 628.05 916.507 628.05H916.533V630H918.613V617H916.533V624.02C916.533 626.62 914.843 628.31 912.503 628.31C910.423 628.31 908.993 627.14 908.993 624.54V617H906.913V624.67C906.913 628.18 908.993 630.26 912.113 630.26ZM922.249 630H924.329V622.98C924.329 620.38 926.019 618.69 928.359 618.69C930.439 618.69 931.869 619.86 931.869 622.46V630H933.949V622.33C933.949 618.82 931.869 616.74 928.749 616.74C925.629 616.74 924.355 618.95 924.355 618.95H924.329V617H922.249V630ZM942.918 630.26C946.298 630.26 947.572 627.946 947.572 627.92H947.598V630H949.678V611.8H947.598V619.08H947.572C947.572 619.054 946.298 616.74 942.918 616.74C939.538 616.74 936.678 619.6 936.678 623.5C936.678 627.4 939.538 630.26 942.918 630.26ZM943.178 628.31C940.708 628.31 938.758 626.36 938.758 623.5C938.758 620.64 940.708 618.69 943.178 618.69C945.648 618.69 947.598 620.64 947.598 623.5C947.598 626.36 945.648 628.31 943.178 628.31ZM960.874 630H963.214V614.4L963.188 614.14H963.24L968.544 625.58H972.834L978.138 614.14H978.19L978.164 614.4V630H980.504V611.8H976.734L971.274 623.5H970.104L964.644 611.8H960.874V630ZM990.255 630.26C995.195 630.26 996.625 625.97 996.625 625.97H994.545C994.545 625.97 993.375 628.31 990.255 628.31C987.889 628.31 985.965 626.568 985.705 624.15H996.885V623.37C996.885 619.6 994.025 616.74 990.255 616.74C986.485 616.74 983.625 619.6 983.625 623.5C983.625 627.4 986.485 630.26 990.255 630.26ZM985.757 622.33C986.095 620.38 987.785 618.69 990.255 618.69C992.725 618.69 994.415 620.38 994.675 622.33H985.757ZM1004.81 630.26C1008.32 630.26 1010.14 628.44 1010.14 626.36C1010.14 621.42 1001.56 623.11 1001.56 620.38C1001.56 619.6 1002.47 618.69 1004.42 618.69C1007.15 618.69 1007.8 620.64 1007.8 620.64H1010.01C1010.01 620.64 1009.26 616.74 1004.42 616.74C1001.17 616.74 999.481 618.43 999.481 620.38C999.481 625.32 1008.06 623.63 1008.06 626.36C1008.06 627.4 1007.15 628.31 1004.81 628.31C1001.82 628.31 1001.04 625.97 1001.04 625.97H998.831C998.831 625.97 999.741 630.26 1004.81 630.26ZM1018.06 630.26C1021.57 630.26 1023.39 628.44 1023.39 626.36C1023.39 621.42 1014.81 623.11 1014.81 620.38C1014.81 619.6 1015.72 618.69 1017.67 618.69C1020.4 618.69 1021.05 620.64 1021.05 620.64H1023.26C1023.26 620.64 1022.51 616.74 1017.67 616.74C1014.42 616.74 1012.73 618.43 1012.73 620.38C1012.73 625.32 1021.31 623.63 1021.31 626.36C1021.31 627.4 1020.4 628.31 1018.06 628.31C1015.07 628.31 1014.29 625.97 1014.29 625.97H1012.08C1012.08 625.97 1012.99 630.26 1018.06 630.26ZM1030.41 630.26C1033.81 630.26 1035.19 627.92 1035.19 627.92H1035.22V630H1037.3V621.68C1037.3 618.69 1035.35 616.74 1031.97 616.74C1027.03 616.74 1026.25 620.9 1026.25 620.9H1028.33C1028.33 620.9 1028.98 618.69 1031.97 618.69C1034.05 618.69 1035.22 619.86 1035.22 621.68V622.2H1030.93C1027.5 622.2 1025.73 624.02 1025.73 626.23C1025.73 628.57 1027.42 630.26 1030.41 630.26ZM1030.8 628.31C1028.72 628.31 1027.81 627.4 1027.81 626.23C1027.81 625.06 1028.72 624.15 1030.8 624.15H1035.22C1035.22 626.49 1033.53 628.31 1030.8 628.31ZM1041.84 634.94H1053.02V617H1050.94V619.08H1050.91C1050.91 619.054 1049.64 616.74 1046.26 616.74C1042.88 616.74 1040.02 619.6 1040.02 623.5C1040.02 627.4 1042.88 630.26 1046.26 630.26C1049.64 630.26 1050.91 627.946 1050.91 627.92H1050.94V632.99H1041.84V634.94ZM1046.52 628.31C1044.05 628.31 1042.1 626.36 1042.1 623.5C1042.1 620.64 1044.05 618.69 1046.52 618.69C1048.99 618.69 1050.94 620.64 1050.94 623.5C1050.94 626.36 1048.99 628.31 1046.52 628.31ZM1062.52 630.26C1067.46 630.26 1068.89 625.97 1068.89 625.97H1066.81C1066.81 625.97 1065.64 628.31 1062.52 628.31C1060.15 628.31 1058.23 626.568 1057.97 624.15H1069.15V623.37C1069.15 619.6 1066.29 616.74 1062.52 616.74C1058.75 616.74 1055.89 619.6 1055.89 623.5C1055.89 627.4 1058.75 630.26 1062.52 630.26ZM1058.02 622.33C1058.36 620.38 1060.05 618.69 1062.52 618.69C1064.99 618.69 1066.68 620.38 1066.94 622.33H1058.02Z" fill="white"/>
<rect x="657.5" y="582.5" width="475" height="75" stroke="#6347F5" stroke-width="3"/>
<rect x="110.5" y="741.5" width="475" height="75" fill="#0D1033" stroke="#6347F5" stroke-width="3"/>
<path d="M190.64 789H192.98V770.8H190.64V789ZM196.88 789H198.96V781.98C198.96 779.38 200.65 777.69 202.99 777.69C205.07 777.69 206.5 778.86 206.5 781.46V789H208.58V781.33C208.58 777.82 206.5 775.74 203.38 775.74C200.26 775.74 198.986 777.95 198.986 777.95H198.96V776H196.88V789ZM212.609 789H218.979V787.05H214.689V777.95H218.849V776H214.689V773.14H212.609V776H210.919V777.95H212.609V789ZM227.435 789.26C232.375 789.26 233.805 784.97 233.805 784.97H231.725C231.725 784.97 230.555 787.31 227.435 787.31C225.069 787.31 223.145 785.568 222.885 783.15H234.065V782.37C234.065 778.6 231.205 775.74 227.435 775.74C223.665 775.74 220.805 778.6 220.805 782.5C220.805 786.4 223.665 789.26 227.435 789.26ZM222.937 781.33C223.275 779.38 224.965 777.69 227.435 777.69C229.905 777.69 231.595 779.38 231.855 781.33H222.937ZM236.921 789H239.001V781.98C239.001 779.64 240.691 777.95 243.031 777.95H244.591V775.87H243.031C240.041 775.87 239.027 778.08 239.027 778.08H239.001V776H236.921V789ZM246.798 789H248.878V781.98C248.878 779.38 250.568 777.69 252.908 777.69C254.988 777.69 256.418 778.86 256.418 781.46V789H258.498V781.33C258.498 777.82 256.418 775.74 253.298 775.74C250.178 775.74 248.904 777.95 248.904 777.95H248.878V776H246.798V789ZM266.167 789.26C269.573 789.26 270.951 786.92 270.951 786.92H270.977V789H273.057V780.68C273.057 777.69 271.107 775.74 267.727 775.74C262.787 775.74 262.007 779.9 262.007 779.9H264.087C264.087 779.9 264.737 777.69 267.727 777.69C269.807 777.69 270.977 778.86 270.977 780.68V781.2H266.687C263.255 781.2 261.487 783.02 261.487 785.23C261.487 787.57 263.177 789.26 266.167 789.26ZM266.557 787.31C264.477 787.31 263.567 786.4 263.567 785.23C263.567 784.06 264.477 783.15 266.557 783.15H270.977C270.977 785.49 269.287 787.31 266.557 787.31ZM276.555 789H281.625V787.05H278.635V770.8H276.555V789ZM291.263 789H293.603V770.8H291.263V789ZM297.503 789H299.583V781.98C299.583 779.38 301.273 777.69 303.613 777.69C305.693 777.69 307.123 778.86 307.123 781.46V789H309.203V781.33C309.203 777.82 307.123 775.74 304.003 775.74C300.883 775.74 299.609 777.95 299.609 777.95H299.583V776H297.503V789ZM319.472 789.26C322.852 789.26 325.712 786.4 325.712 782.5C325.712 778.6 322.852 775.74 319.472 775.74C316.092 775.74 314.818 778.054 314.818 778.08H314.792V770.8H312.712V789H314.792V786.92H314.818C314.818 786.946 316.092 789.26 319.472 789.26ZM319.212 787.31C316.742 787.31 314.792 785.36 314.792 782.5C314.792 779.64 316.742 777.69 319.212 777.69C321.682 777.69 323.632 779.64 323.632 782.5C323.632 785.36 321.682 787.31 319.212 787.31ZM334.561 789.26C338.461 789.26 341.321 786.4 341.321 782.5C341.321 778.6 338.461 775.74 334.561 775.74C330.661 775.74 327.801 778.6 327.801 782.5C327.801 786.4 330.661 789.26 334.561 789.26ZM334.561 787.31C331.831 787.31 329.881 785.36 329.881 782.5C329.881 779.64 331.831 777.69 334.561 777.69C337.291 777.69 339.241 779.64 339.241 782.5C339.241 785.36 337.291 787.31 334.561 787.31ZM349.371 789.26C352.491 789.26 353.765 787.05 353.765 787.05H353.791V789H355.871V776H353.791V783.02C353.791 785.62 352.101 787.31 349.761 787.31C347.681 787.31 346.251 786.14 346.251 783.54V776H344.171V783.67C344.171 787.18 346.251 789.26 349.371 789.26ZM359.507 789H361.587V781.98C361.587 779.38 363.277 777.69 365.617 777.69C367.697 777.69 369.127 778.86 369.127 781.46V789H371.207V781.33C371.207 777.82 369.127 775.74 366.007 775.74C362.887 775.74 361.613 777.95 361.613 777.95H361.587V776H359.507V789ZM380.176 789.26C383.556 789.26 384.83 786.946 384.83 786.92H384.856V789H386.936V770.8H384.856V778.08H384.83C384.83 778.054 383.556 775.74 380.176 775.74C376.796 775.74 373.936 778.6 373.936 782.5C373.936 786.4 376.796 789.26 380.176 789.26ZM380.436 787.31C377.966 787.31 376.016 785.36 376.016 782.5C376.016 779.64 377.966 777.69 380.436 777.69C382.906 777.69 384.856 779.64 384.856 782.5C384.856 785.36 382.906 787.31 380.436 787.31ZM398.132 789H400.472V773.4L400.446 773.14H400.498L405.802 784.58H410.092L415.396 773.14H415.448L415.422 773.4V789H417.762V770.8H413.992L408.532 782.5H407.362L401.902 770.8H398.132V789ZM427.513 789.26C432.453 789.26 433.883 784.97 433.883 784.97H431.803C431.803 784.97 430.633 787.31 427.513 787.31C425.147 787.31 423.223 785.568 422.963 783.15H434.143V782.37C434.143 778.6 431.283 775.74 427.513 775.74C423.743 775.74 420.883 778.6 420.883 782.5C420.883 786.4 423.743 789.26 427.513 789.26ZM423.015 781.33C423.353 779.38 425.043 777.69 427.513 777.69C429.983 777.69 431.673 779.38 431.933 781.33H423.015ZM442.069 789.26C445.579 789.26 447.399 787.44 447.399 785.36C447.399 780.42 438.819 782.11 438.819 779.38C438.819 778.6 439.729 777.69 441.679 777.69C444.409 777.69 445.059 779.64 445.059 779.64H447.269C447.269 779.64 446.515 775.74 441.679 775.74C438.429 775.74 436.739 777.43 436.739 779.38C436.739 784.32 445.319 782.63 445.319 785.36C445.319 786.4 444.409 787.31 442.069 787.31C439.079 787.31 438.299 784.97 438.299 784.97H436.089C436.089 784.97 436.999 789.26 442.069 789.26ZM455.323 789.26C458.833 789.26 460.653 787.44 460.653 785.36C460.653 780.42 452.073 782.11 452.073 779.38C452.073 778.6 452.983 777.69 454.933 777.69C457.663 777.69 458.313 779.64 458.313 779.64H460.523C460.523 779.64 459.769 775.74 454.933 775.74C451.683 775.74 449.993 777.43 449.993 779.38C449.993 784.32 458.573 782.63 458.573 785.36C458.573 786.4 457.663 787.31 455.323 787.31C452.333 787.31 451.553 784.97 451.553 784.97H449.343C449.343 784.97 450.253 789.26 455.323 789.26ZM467.667 789.26C471.073 789.26 472.451 786.92 472.451 786.92H472.477V789H474.557V780.68C474.557 777.69 472.607 775.74 469.227 775.74C464.287 775.74 463.507 779.9 463.507 779.9H465.587C465.587 779.9 466.237 777.69 469.227 777.69C471.307 777.69 472.477 778.86 472.477 780.68V781.2H468.187C464.755 781.2 462.987 783.02 462.987 785.23C462.987 787.57 464.677 789.26 467.667 789.26ZM468.057 787.31C465.977 787.31 465.067 786.4 465.067 785.23C465.067 784.06 465.977 783.15 468.057 783.15H472.477C472.477 785.49 470.787 787.31 468.057 787.31ZM479.095 793.94H490.275V776H488.195V778.08H488.169C488.169 778.054 486.895 775.74 483.515 775.74C480.135 775.74 477.275 778.6 477.275 782.5C477.275 786.4 480.135 789.26 483.515 789.26C486.895 789.26 488.169 786.946 488.169 786.92H488.195V791.99H479.095V793.94ZM483.775 787.31C481.305 787.31 479.355 785.36 479.355 782.5C479.355 779.64 481.305 777.69 483.775 777.69C486.245 777.69 488.195 779.64 488.195 782.5C488.195 785.36 486.245 787.31 483.775 787.31ZM499.774 789.26C504.714 789.26 506.144 784.97 506.144 784.97H504.064C504.064 784.97 502.894 787.31 499.774 787.31C497.408 787.31 495.484 785.568 495.224 783.15H506.404V782.37C506.404 778.6 503.544 775.74 499.774 775.74C496.004 775.74 493.144 778.6 493.144 782.5C493.144 786.4 496.004 789.26 499.774 789.26ZM495.276 781.33C495.614 779.38 497.304 777.69 499.774 777.69C502.244 777.69 503.934 779.38 504.194 781.33H495.276Z" fill="white"/>
<path d="M771.869 789H780.449C784.479 789 786.689 786.79 786.689 783.8C786.689 780.03 783.309 779.51 783.309 779.51V779.38C783.309 779.38 785.909 778.6 785.909 775.48C785.909 772.88 783.829 770.8 780.579 770.8H771.869V789ZM774.209 786.79V780.68H780.449C783.049 780.68 784.349 781.98 784.349 783.8C784.349 785.49 783.049 786.79 780.449 786.79H774.209ZM774.209 778.47V773.01H780.449C782.399 773.01 783.569 774.18 783.569 775.74C783.569 777.3 782.399 778.47 780.449 778.47H774.209ZM795.794 789.26C799.694 789.26 802.554 786.4 802.554 782.5C802.554 778.6 799.694 775.74 795.794 775.74C791.894 775.74 789.034 778.6 789.034 782.5C789.034 786.4 791.894 789.26 795.794 789.26ZM795.794 787.31C793.064 787.31 791.114 785.36 791.114 782.5C791.114 779.64 793.064 777.69 795.794 777.69C798.524 777.69 800.474 779.64 800.474 782.5C800.474 785.36 798.524 787.31 795.794 787.31ZM812.164 789.26C815.544 789.26 818.404 786.4 818.404 782.5C818.404 778.6 815.544 775.74 812.164 775.74C808.784 775.74 807.51 778.054 807.51 778.08H807.484V770.8H805.404V789H807.484V786.92H807.51C807.51 786.946 808.784 789.26 812.164 789.26ZM811.904 787.31C809.434 787.31 807.484 785.36 807.484 782.5C807.484 779.64 809.434 777.69 811.904 777.69C814.374 777.69 816.324 779.64 816.324 782.5C816.324 785.36 814.374 787.31 811.904 787.31ZM819.712 776.52C821.532 776.39 822.702 775.22 822.702 772.88C822.702 771.19 822.052 770.54 821.142 770.54C820.232 770.54 819.582 771.19 819.582 772.178C819.582 773.01 820.102 773.53 820.752 773.53C821.012 773.53 821.272 773.4 821.272 773.4V773.79C821.272 774.83 820.752 775.35 819.712 775.48V776.52ZM829.974 789.26C833.484 789.26 835.304 787.44 835.304 785.36C835.304 780.42 826.724 782.11 826.724 779.38C826.724 778.6 827.634 777.69 829.584 777.69C832.314 777.69 832.964 779.64 832.964 779.64H835.174C835.174 779.64 834.42 775.74 829.584 775.74C826.334 775.74 824.644 777.43 824.644 779.38C824.644 784.32 833.224 782.63 833.224 785.36C833.224 786.4 832.314 787.31 829.974 787.31C826.984 787.31 826.204 784.97 826.204 784.97H823.994C823.994 784.97 824.904 789.26 829.974 789.26ZM843.358 789H845.698L847.128 783.67H856.098L857.528 789H859.868L855.188 770.8H848.038L843.358 789ZM847.648 781.46L849.858 773.01H853.368L855.578 781.46H847.648ZM867.923 789.26C873.253 789.26 874.293 784.45 874.293 784.45H872.213C872.213 784.45 871.303 787.31 867.923 787.31C865.557 787.31 863.503 785.386 863.503 782.5C863.503 779.64 865.453 777.69 867.923 777.69C871.173 777.69 872.083 780.29 872.083 780.29H874.163C874.163 780.29 873.123 775.74 867.923 775.74C864.283 775.74 861.423 778.6 861.423 782.5C861.423 786.4 864.283 789.26 867.923 789.26ZM882.624 789.26C887.954 789.26 888.994 784.45 888.994 784.45H886.914C886.914 784.45 886.004 787.31 882.624 787.31C880.258 787.31 878.204 785.386 878.204 782.5C878.204 779.64 880.154 777.69 882.624 777.69C885.874 777.69 886.784 780.29 886.784 780.29H888.864C888.864 780.29 887.824 775.74 882.624 775.74C878.984 775.74 876.124 778.6 876.124 782.5C876.124 786.4 878.984 789.26 882.624 789.26ZM897.585 789.26C901.485 789.26 904.345 786.4 904.345 782.5C904.345 778.6 901.485 775.74 897.585 775.74C893.685 775.74 890.825 778.6 890.825 782.5C890.825 786.4 893.685 789.26 897.585 789.26ZM897.585 787.31C894.855 787.31 892.905 785.36 892.905 782.5C892.905 779.64 894.855 777.69 897.585 777.69C900.315 777.69 902.265 779.64 902.265 782.5C902.265 785.36 900.315 787.31 897.585 787.31ZM912.395 789.26C915.515 789.26 916.789 787.05 916.789 787.05H916.815V789H918.895V776H916.815V783.02C916.815 785.62 915.125 787.31 912.785 787.31C910.705 787.31 909.275 786.14 909.275 783.54V776H907.195V783.67C907.195 787.18 909.275 789.26 912.395 789.26ZM922.531 789H924.611V781.98C924.611 779.38 926.301 777.69 928.641 777.69C930.721 777.69 932.151 778.86 932.151 781.46V789H934.231V781.33C934.231 777.82 932.151 775.74 929.031 775.74C925.911 775.74 924.637 777.95 924.637 777.95H924.611V776H922.531V789ZM938.26 789H944.63V787.05H940.34V777.95H944.5V776H940.34V773.14H938.26V776H936.57V777.95H938.26V789ZM961.283 789.52C965.703 789.52 968.173 787.05 968.173 784.19C968.173 777.69 956.863 779.77 956.863 775.48C956.863 773.92 958.293 772.49 961.023 772.49C965.053 772.49 965.703 775.35 965.703 775.35H968.043C968.043 775.35 967.185 770.28 961.023 770.28C956.993 770.28 954.523 772.75 954.523 775.48C954.523 781.98 965.833 779.77 965.833 784.19C965.833 785.88 964.403 787.31 961.283 787.31C956.863 787.31 956.083 783.8 956.083 783.8H953.743C953.743 783.8 954.653 789.52 961.283 789.52ZM971.674 789H978.044V787.05H973.754V777.95H977.914V776H973.754V773.14H971.674V776H969.984V777.95H971.674V789ZM984.81 789.26C988.216 789.26 989.594 786.92 989.594 786.92H989.62V789H991.7V780.68C991.7 777.69 989.75 775.74 986.37 775.74C981.43 775.74 980.65 779.9 980.65 779.9H982.73C982.73 779.9 983.38 777.69 986.37 777.69C988.45 777.69 989.62 778.86 989.62 780.68V781.2H985.33C981.898 781.2 980.13 783.02 980.13 785.23C980.13 787.57 981.82 789.26 984.81 789.26ZM985.2 787.31C983.12 787.31 982.21 786.4 982.21 785.23C982.21 784.06 983.12 783.15 985.2 783.15H989.62C989.62 785.49 987.93 787.31 985.2 787.31ZM995.719 789H1002.09V787.05H997.799V777.95H1001.96V776H997.799V773.14H995.719V776H994.029V777.95H995.719V789ZM1010.55 789.26C1015.49 789.26 1016.92 784.97 1016.92 784.97H1014.84C1014.84 784.97 1013.67 787.31 1010.55 787.31C1008.18 787.31 1006.26 785.568 1006 783.15H1017.18V782.37C1017.18 778.6 1014.32 775.74 1010.55 775.74C1006.78 775.74 1003.92 778.6 1003.92 782.5C1003.92 786.4 1006.78 789.26 1010.55 789.26ZM1006.05 781.33C1006.39 779.38 1008.08 777.69 1010.55 777.69C1013.02 777.69 1014.71 779.38 1014.97 781.33H1006.05Z" fill="white"/>
<rect x="656.5" y="741.5" width="475" height="75" stroke="#6347F5" stroke-width="3"/>
<path d="M1129.91 153H1132.25L1133.68 147.67H1142.65L1144.08 153H1146.42L1141.74 134.8H1134.59L1129.91 153ZM1134.2 145.46L1136.41 137.01H1139.92L1142.13 145.46H1134.2ZM1148.76 153H1153.83V151.05H1150.84V134.8H1148.76V153ZM1155.92 153H1158V140H1155.92V153ZM1156.96 137.53C1157.74 137.53 1158.39 136.88 1158.39 136.1C1158.39 135.32 1157.74 134.67 1156.96 134.67C1156.18 134.67 1155.53 135.32 1155.53 136.1C1155.53 136.88 1156.18 137.53 1156.96 137.53ZM1167.35 153.26C1172.68 153.26 1173.72 148.45 1173.72 148.45H1171.64C1171.64 148.45 1170.73 151.31 1167.35 151.31C1164.99 151.31 1162.93 149.386 1162.93 146.5C1162.93 143.64 1164.88 141.69 1167.35 141.69C1170.6 141.69 1171.51 144.29 1171.51 144.29H1173.59C1173.59 144.29 1172.55 139.74 1167.35 139.74C1163.71 139.74 1160.85 142.6 1160.85 146.5C1160.85 150.4 1163.71 153.26 1167.35 153.26ZM1182.18 153.26C1187.12 153.26 1188.55 148.97 1188.55 148.97H1186.47C1186.47 148.97 1185.3 151.31 1182.18 151.31C1179.82 151.31 1177.89 149.568 1177.63 147.15H1188.81V146.37C1188.81 142.6 1185.95 139.74 1182.18 139.74C1178.41 139.74 1175.55 142.6 1175.55 146.5C1175.55 150.4 1178.41 153.26 1182.18 153.26ZM1177.68 145.33C1178.02 143.38 1179.71 141.69 1182.18 141.69C1184.65 141.69 1186.34 143.38 1186.6 145.33H1177.68ZM1190.11 140.52C1191.93 140.39 1193.1 139.22 1193.1 136.88C1193.1 135.19 1192.45 134.54 1191.54 134.54C1190.63 134.54 1189.98 135.19 1189.98 136.178C1189.98 137.01 1190.5 137.53 1191.15 137.53C1191.41 137.53 1191.67 137.4 1191.67 137.4V137.79C1191.67 138.83 1191.15 139.35 1190.11 139.48V140.52ZM1200.37 153.26C1203.88 153.26 1205.7 151.44 1205.7 149.36C1205.7 144.42 1197.12 146.11 1197.12 143.38C1197.12 142.6 1198.03 141.69 1199.98 141.69C1202.71 141.69 1203.36 143.64 1203.36 143.64H1205.57C1205.57 143.64 1204.82 139.74 1199.98 139.74C1196.73 139.74 1195.04 141.43 1195.04 143.38C1195.04 148.32 1203.62 146.63 1203.62 149.36C1203.62 150.4 1202.71 151.31 1200.37 151.31C1197.38 151.31 1196.6 148.97 1196.6 148.97H1194.39C1194.39 148.97 1195.3 153.26 1200.37 153.26ZM1213.75 153H1216.09L1217.52 147.67H1226.49L1227.92 153H1230.26L1225.58 134.8H1218.43L1213.75 153ZM1218.04 145.46L1220.25 137.01H1223.76L1225.97 145.46H1218.04ZM1238.32 153.26C1243.65 153.26 1244.69 148.45 1244.69 148.45H1242.61C1242.61 148.45 1241.7 151.31 1238.32 151.31C1235.95 151.31 1233.9 149.386 1233.9 146.5C1233.9 143.64 1235.85 141.69 1238.32 141.69C1241.57 141.69 1242.48 144.29 1242.48 144.29H1244.56C1244.56 144.29 1243.52 139.74 1238.32 139.74C1234.68 139.74 1231.82 142.6 1231.82 146.5C1231.82 150.4 1234.68 153.26 1238.32 153.26ZM1253.02 153.26C1258.35 153.26 1259.39 148.45 1259.39 148.45H1257.31C1257.31 148.45 1256.4 151.31 1253.02 151.31C1250.65 151.31 1248.6 149.386 1248.6 146.5C1248.6 143.64 1250.55 141.69 1253.02 141.69C1256.27 141.69 1257.18 144.29 1257.18 144.29H1259.26C1259.26 144.29 1258.22 139.74 1253.02 139.74C1249.38 139.74 1246.52 142.6 1246.52 146.5C1246.52 150.4 1249.38 153.26 1253.02 153.26ZM1267.98 153.26C1271.88 153.26 1274.74 150.4 1274.74 146.5C1274.74 142.6 1271.88 139.74 1267.98 139.74C1264.08 139.74 1261.22 142.6 1261.22 146.5C1261.22 150.4 1264.08 153.26 1267.98 153.26ZM1267.98 151.31C1265.25 151.31 1263.3 149.36 1263.3 146.5C1263.3 143.64 1265.25 141.69 1267.98 141.69C1270.71 141.69 1272.66 143.64 1272.66 146.5C1272.66 149.36 1270.71 151.31 1267.98 151.31ZM1282.79 153.26C1285.91 153.26 1287.18 151.05 1287.18 151.05H1287.21V153H1289.29V140H1287.21V147.02C1287.21 149.62 1285.52 151.31 1283.18 151.31C1281.1 151.31 1279.67 150.14 1279.67 147.54V140H1277.59V147.67C1277.59 151.18 1279.67 153.26 1282.79 153.26ZM1292.93 153H1295.01V145.98C1295.01 143.38 1296.7 141.69 1299.04 141.69C1301.12 141.69 1302.55 142.86 1302.55 145.46V153H1304.63V145.33C1304.63 141.82 1302.55 139.74 1299.43 139.74C1296.31 139.74 1295.03 141.95 1295.03 141.95H1295.01V140H1292.93V153ZM1308.66 153H1315.03V151.05H1310.74V141.95H1314.9V140H1310.74V137.14H1308.66V140H1306.97V141.95H1308.66V153ZM1331.68 153.52C1336.1 153.52 1338.57 151.05 1338.57 148.19C1338.57 141.69 1327.26 143.77 1327.26 139.48C1327.26 137.92 1328.69 136.49 1331.42 136.49C1335.45 136.49 1336.1 139.35 1336.1 139.35H1338.44C1338.44 139.35 1337.58 134.28 1331.42 134.28C1327.39 134.28 1324.92 136.75 1324.92 139.48C1324.92 145.98 1336.23 143.77 1336.23 148.19C1336.23 149.88 1334.8 151.31 1331.68 151.31C1327.26 151.31 1326.48 147.8 1326.48 147.8H1324.14C1324.14 147.8 1325.05 153.52 1331.68 153.52ZM1342.07 153H1348.44V151.05H1344.15V141.95H1348.31V140H1344.15V137.14H1342.07V140H1340.38V141.95H1342.07V153ZM1355.21 153.26C1358.61 153.26 1359.99 150.92 1359.99 150.92H1360.02V153H1362.1V144.68C1362.1 141.69 1360.15 139.74 1356.77 139.74C1351.83 139.74 1351.05 143.9 1351.05 143.9H1353.13C1353.13 143.9 1353.78 141.69 1356.77 141.69C1358.85 141.69 1360.02 142.86 1360.02 144.68V145.2H1355.73C1352.29 145.2 1350.53 147.02 1350.53 149.23C1350.53 151.57 1352.22 153.26 1355.21 153.26ZM1355.6 151.31C1353.52 151.31 1352.61 150.4 1352.61 149.23C1352.61 148.06 1353.52 147.15 1355.6 147.15H1360.02C1360.02 149.49 1358.33 151.31 1355.6 151.31ZM1366.11 153H1372.48V151.05H1368.19V141.95H1372.35V140H1368.19V137.14H1366.11V140H1364.42V141.95H1366.11V153ZM1380.94 153.26C1385.88 153.26 1387.31 148.97 1387.31 148.97H1385.23C1385.23 148.97 1384.06 151.31 1380.94 151.31C1378.57 151.31 1376.65 149.568 1376.39 147.15H1387.57V146.37C1387.57 142.6 1384.71 139.74 1380.94 139.74C1377.17 139.74 1374.31 142.6 1374.31 146.5C1374.31 150.4 1377.17 153.26 1380.94 153.26ZM1376.44 145.33C1376.78 143.38 1378.47 141.69 1380.94 141.69C1383.41 141.69 1385.1 143.38 1385.36 145.33H1376.44Z" fill="white"/>
<rect x="1021.5" y="105.5" width="475" height="75" stroke="#6347F5" stroke-width="3"/>
<path d="M874.759 312H877.099V296.01H883.339V293.8H868.519V296.01H874.759V312ZM885.415 312H887.495V304.98C887.495 302.64 889.185 300.95 891.525 300.95H893.085V298.87H891.525C888.535 298.87 887.521 301.08 887.521 301.08H887.495V299H885.415V312ZM899.452 312.26C902.858 312.26 904.236 309.92 904.236 309.92H904.262V312H906.342V303.68C906.342 300.69 904.392 298.74 901.012 298.74C896.072 298.74 895.292 302.9 895.292 302.9H897.372C897.372 302.9 898.022 300.69 901.012 300.69C903.092 300.69 904.262 301.86 904.262 303.68V304.2H899.972C896.54 304.2 894.772 306.02 894.772 308.23C894.772 310.57 896.462 312.26 899.452 312.26ZM899.842 310.31C897.762 310.31 896.852 309.4 896.852 308.23C896.852 307.06 897.762 306.15 899.842 306.15H904.262C904.262 308.49 902.572 310.31 899.842 310.31ZM909.841 312H911.921V304.98C911.921 302.38 913.611 300.69 915.951 300.69C918.031 300.69 919.461 301.86 919.461 304.46V312H921.541V304.33C921.541 300.82 919.461 298.74 916.341 298.74C913.221 298.74 911.947 300.95 911.947 300.95H911.921V299H909.841V312ZM930.119 312.26C933.629 312.26 935.449 310.44 935.449 308.36C935.449 303.42 926.869 305.11 926.869 302.38C926.869 301.6 927.779 300.69 929.729 300.69C932.459 300.69 933.109 302.64 933.109 302.64H935.319C935.319 302.64 934.565 298.74 929.729 298.74C926.479 298.74 924.789 300.43 924.789 302.38C924.789 307.32 933.369 305.63 933.369 308.36C933.369 309.4 932.459 310.31 930.119 310.31C927.129 310.31 926.349 307.97 926.349 307.97H924.139C924.139 307.97 925.049 312.26 930.119 312.26ZM942.463 312.26C945.869 312.26 947.247 309.92 947.247 309.92H947.273V312H949.353V303.68C949.353 300.69 947.403 298.74 944.023 298.74C939.083 298.74 938.303 302.9 938.303 302.9H940.383C940.383 302.9 941.033 300.69 944.023 300.69C946.103 300.69 947.273 301.86 947.273 303.68V304.2H942.983C939.551 304.2 937.783 306.02 937.783 308.23C937.783 310.57 939.473 312.26 942.463 312.26ZM942.853 310.31C940.773 310.31 939.863 309.4 939.863 308.23C939.863 307.06 940.773 306.15 942.853 306.15H947.273C947.273 308.49 945.583 310.31 942.853 310.31ZM958.572 312.26C963.902 312.26 964.942 307.45 964.942 307.45H962.862C962.862 307.45 961.952 310.31 958.572 310.31C956.206 310.31 954.152 308.386 954.152 305.5C954.152 302.64 956.102 300.69 958.572 300.69C961.822 300.69 962.732 303.29 962.732 303.29H964.812C964.812 303.29 963.772 298.74 958.572 298.74C954.932 298.74 952.072 301.6 952.072 305.5C952.072 309.4 954.932 312.26 958.572 312.26ZM968.073 312H974.443V310.05H970.153V300.95H974.313V299H970.153V296.14H968.073V299H966.383V300.95H968.073V312ZM977.049 312H979.129V299H977.049V312ZM978.089 296.53C978.869 296.53 979.519 295.88 979.519 295.1C979.519 294.32 978.869 293.67 978.089 293.67C977.309 293.67 976.659 294.32 976.659 295.1C976.659 295.88 977.309 296.53 978.089 296.53ZM988.742 312.26C992.642 312.26 995.502 309.4 995.502 305.5C995.502 301.6 992.642 298.74 988.742 298.74C984.842 298.74 981.982 301.6 981.982 305.5C981.982 309.4 984.842 312.26 988.742 312.26ZM988.742 310.31C986.012 310.31 984.062 308.36 984.062 305.5C984.062 302.64 986.012 300.69 988.742 300.69C991.472 300.69 993.422 302.64 993.422 305.5C993.422 308.36 991.472 310.31 988.742 310.31ZM998.352 312H1000.43V304.98C1000.43 302.38 1002.12 300.69 1004.46 300.69C1006.54 300.69 1007.97 301.86 1007.97 304.46V312H1010.05V304.33C1010.05 300.82 1007.97 298.74 1004.85 298.74C1001.73 298.74 1000.46 300.95 1000.46 300.95H1000.43V299H998.352V312Z" fill="#FF6922"/>
<rect x="812.5" y="264.5" width="255" height="75" stroke="#FF6922" stroke-width="3"/>
<rect x="493.5" y="900.5" width="255" height="75" fill="#0D1033" stroke="#FF6922" stroke-width="3"/>
<path d="M555.759 948H558.099V932.01H564.339V929.8H549.519V932.01H555.759V948ZM566.415 948H568.495V940.98C568.495 938.64 570.185 936.95 572.525 936.95H574.085V934.87H572.525C569.535 934.87 568.521 937.08 568.521 937.08H568.495V935H566.415V948ZM580.452 948.26C583.858 948.26 585.236 945.92 585.236 945.92H585.262V948H587.342V939.68C587.342 936.69 585.392 934.74 582.012 934.74C577.072 934.74 576.292 938.9 576.292 938.9H578.372C578.372 938.9 579.022 936.69 582.012 936.69C584.092 936.69 585.262 937.86 585.262 939.68V940.2H580.972C577.54 940.2 575.772 942.02 575.772 944.23C575.772 946.57 577.462 948.26 580.452 948.26ZM580.842 946.31C578.762 946.31 577.852 945.4 577.852 944.23C577.852 943.06 578.762 942.15 580.842 942.15H585.262C585.262 944.49 583.572 946.31 580.842 946.31ZM590.841 948H592.921V940.98C592.921 938.38 594.611 936.69 596.951 936.69C599.031 936.69 600.461 937.86 600.461 940.46V948H602.541V940.33C602.541 936.82 600.461 934.74 597.341 934.74C594.221 934.74 592.947 936.95 592.947 936.95H592.921V935H590.841V948ZM611.119 948.26C614.629 948.26 616.449 946.44 616.449 944.36C616.449 939.42 607.869 941.11 607.869 938.38C607.869 937.6 608.779 936.69 610.729 936.69C613.459 936.69 614.109 938.64 614.109 938.64H616.319C616.319 938.64 615.565 934.74 610.729 934.74C607.479 934.74 605.789 936.43 605.789 938.38C605.789 943.32 614.369 941.63 614.369 944.36C614.369 945.4 613.459 946.31 611.119 946.31C608.129 946.31 607.349 943.97 607.349 943.97H605.139C605.139 943.97 606.049 948.26 611.119 948.26ZM623.463 948.26C626.869 948.26 628.247 945.92 628.247 945.92H628.273V948H630.353V939.68C630.353 936.69 628.403 934.74 625.023 934.74C620.083 934.74 619.303 938.9 619.303 938.9H621.383C621.383 938.9 622.033 936.69 625.023 936.69C627.103 936.69 628.273 937.86 628.273 939.68V940.2H623.983C620.551 940.2 618.783 942.02 618.783 944.23C618.783 946.57 620.473 948.26 623.463 948.26ZM623.853 946.31C621.773 946.31 620.863 945.4 620.863 944.23C620.863 943.06 621.773 942.15 623.853 942.15H628.273C628.273 944.49 626.583 946.31 623.853 946.31ZM639.572 948.26C644.902 948.26 645.942 943.45 645.942 943.45H643.862C643.862 943.45 642.952 946.31 639.572 946.31C637.206 946.31 635.152 944.386 635.152 941.5C635.152 938.64 637.102 936.69 639.572 936.69C642.822 936.69 643.732 939.29 643.732 939.29H645.812C645.812 939.29 644.772 934.74 639.572 934.74C635.932 934.74 633.072 937.6 633.072 941.5C633.072 945.4 635.932 948.26 639.572 948.26ZM649.073 948H655.443V946.05H651.153V936.95H655.313V935H651.153V932.14H649.073V935H647.383V936.95H649.073V948ZM658.049 948H660.129V935H658.049V948ZM659.089 932.53C659.869 932.53 660.519 931.88 660.519 931.1C660.519 930.32 659.869 929.67 659.089 929.67C658.309 929.67 657.659 930.32 657.659 931.1C657.659 931.88 658.309 932.53 659.089 932.53ZM669.742 948.26C673.642 948.26 676.502 945.4 676.502 941.5C676.502 937.6 673.642 934.74 669.742 934.74C665.842 934.74 662.982 937.6 662.982 941.5C662.982 945.4 665.842 948.26 669.742 948.26ZM669.742 946.31C667.012 946.31 665.062 944.36 665.062 941.5C665.062 938.64 667.012 936.69 669.742 936.69C672.472 936.69 674.422 938.64 674.422 941.5C674.422 944.36 672.472 946.31 669.742 946.31ZM679.352 948H681.432V940.98C681.432 938.38 683.122 936.69 685.462 936.69C687.542 936.69 688.972 937.86 688.972 940.46V948H691.052V940.33C691.052 936.82 688.972 934.74 685.852 934.74C682.732 934.74 681.458 936.95 681.458 936.95H681.432V935H679.352V948Z" fill="#FF6922"/>
</g>
<defs>
<clipPath id="clip0_10482_176494">
<rect width="1607" height="1080" fill="white"/>
</clipPath>
</defs>
</svg>
